<?xml version="1.0" encoding="utf-8"?>
<!-- Generator: Adobe Illustrator 27.2.0, SVG Export Plug-In . SVG Version: 6.00 Build 0)  -->
<svg version="1.1" id="Layer_1" xmlns="http://www.w3.org/2000/svg" xmlns:xlink="http://www.w3.org/1999/xlink" x="0px" y="0px"
	 viewBox="0 0 540 330" style="enable-background:new 0 0 540 330;" xml:space="preserve">
<style type="text/css">
	.st0{fill:none;stroke:#D9D9D9;stroke-width:1.9376;stroke-linejoin:round;stroke-miterlimit:10;}
	.st1{fill:none;stroke:#214166;stroke-width:5.3029;stroke-linecap:round;stroke-miterlimit:10;}
	
		.st2{opacity:0.6;fill:none;stroke:#214166;stroke-width:5.3029;stroke-linecap:round;stroke-miterlimit:10;enable-background:new    ;}
	.st3{fill:none;stroke:#D9D9D9;stroke-width:5.3029;stroke-linecap:round;stroke-linejoin:round;stroke-miterlimit:10;}
	.st4{fill:#214166;}
	.st5{enable-background:new    ;}
</style>
<path class="st0" d="M53,9h480.1 M53,36.5h480.1 M53,63.7h480.1 M53,91h480.1 M53,118.3h480.1 M53,145.9h480.1 M53,173.2h480.1
	 M53,200.5h480.1"/>
<line class="st0" x1="53" y1="227.9" x2="533.1" y2="227.9"/>
<path class="st0" d="M523.8,227.9v4.7 M496.2,227.9v4.7 M468.3,227.9v4.7 M440.7,227.9v4.7 M413.1,227.9v4.7 M385.2,227.9v4.7
	 M357.6,227.9v4.7 M330,227.9v4.7 M302.1,227.9v4.7 M274.5,227.9v4.7 M247,227.9v4.7 M219.1,227.9v4.7 M191.5,227.9v4.7
	 M163.9,227.9v4.7 M136,227.9v4.7 M108.4,227.9v4.7 M80.8,227.9v4.7 M53,227.9v4.7"/>
<polyline class="st1" points="57.6,215.3 66.8,215.3 76.1,213.2 85.1,212.9 94.4,212.6 103.7,211.6 113,211.3 122.3,207.3 
	131.3,206 140.6,203.6 149.9,203.2 159.2,200.1 168.2,199.8 177.5,193 186.8,190.2 196.1,191.5 205.4,187.4 214.4,187.1 
	223.7,182.5 233,181.9 242.3,180.3 251.6,182.8 260.6,172.6 269.9,174.4 279.2,170.4 288.5,168.8 297.5,168.5 306.8,160.5 
	316.1,160.2 325.4,151.2 334.7,155.8 343.7,151.2 353,151.2 362.3,148.7 371.6,145 380.6,145.6 389.9,130.4 399.2,118.6 
	408.5,120.5 417.8,118.6 426.8,110.6 436.1,96.9 445.4,89.2 454.7,83 463.7,82.3 473,65.6 482.3,56.6 491.6,59.1 500.9,59.1 
	509.9,59.4 519.2,38.8 528.4,47 "/>
<polyline class="st2" points="57.6,214.1 66.8,214.4 76.1,214.1 85.1,215.3 94.4,214.4 103.7,214.1 113,213.8 122.3,213.2 
	131.3,214.1 140.6,213.2 149.9,212.9 159.2,213.2 168.2,212.9 177.5,212.9 186.8,212.2 196.1,211.6 205.4,211.6 214.4,213.2 
	223.7,215 233,213.2 242.3,212.9 251.6,212.6 260.6,211.6 269.9,210.4 279.2,211 288.5,211.6 297.5,209.8 306.8,209.1 316.1,209.4 
	325.4,208.8 334.7,208.2 343.7,207 353,207 362.3,206.3 371.6,206 380.6,205.4 389.9,206.3 399.2,204.8 408.5,205.1 417.8,204.1 
	426.8,205.4 436.1,206 445.4,205.4 454.7,207.3 463.7,207.3 473,209.1 482.3,207.3 491.6,208.2 500.9,210.1 509.9,208.5 
	519.2,207.6 "/>
<polyline class="st3" points="57.6,214.4 66.8,214.7 76.1,214.7 85.1,215.3 94.4,214.7 103.7,214.4 113,214.4 122.3,214.4 
	131.3,214.7 140.6,214.4 149.9,214.1 159.2,214.4 168.2,214.4 177.5,214.1 186.8,214.1 196.1,214.1 205.4,214.1 214.4,215.3 
	223.7,216.6 233,216 242.3,215.3 251.6,215.3 260.6,215 269.9,214.7 279.2,214.7 288.5,214.7 297.5,214.1 306.8,213.5 316.1,213.2 
	325.4,212.9 334.7,212.9 343.7,212.6 353,212.2 362.3,212.2 371.6,212.2 380.6,211.9 389.9,212.2 399.2,211.9 408.5,212.2 
	417.8,211.9 426.8,212.6 436.1,212.6 445.4,212.6 454.7,212.9 463.7,212.9 473,213.5 482.3,213.2 491.6,213.2 500.9,213.8 
	509.9,213.5 519.2,213.2 "/>
<g>
	<g>
		<g>
			<path class="st4" d="M18.2,228.4c0,0.9-0.2,1.7-0.5,2.4s-0.8,1.2-1.4,1.6c-0.6,0.4-1.3,0.6-2,0.6s-1.4-0.2-2-0.6
				c-0.6-0.4-1-0.9-1.4-1.6c-0.3-0.7-0.5-1.5-0.5-2.4s0.2-1.7,0.5-2.4s0.8-1.2,1.4-1.6c0.6-0.4,1.2-0.6,2-0.6s1.4,0.2,2,0.6
				c0.6,0.4,1,1,1.4,1.6S18.2,227.5,18.2,228.4z M17.2,228.4c0-0.7-0.1-1.4-0.4-1.9c-0.2-0.5-0.6-1-1-1.3s-0.9-0.5-1.5-0.5
				s-1.1,0.2-1.5,0.5s-0.8,0.7-1,1.3c-0.2,0.5-0.4,1.2-0.4,1.9s0.1,1.4,0.4,1.9c0.2,0.5,0.6,1,1,1.3s0.9,0.5,1.5,0.5s1-0.2,1.5-0.5
				c0.4-0.3,0.8-0.7,1-1.3C17.1,229.8,17.2,229.1,17.2,228.4z"/>
			<path class="st4" d="M20.1,232.9v-1.5H21v1.5H20.1z"/>
			<path class="st4" d="M30.7,228.4c0,0.9-0.2,1.7-0.5,2.4s-0.8,1.2-1.4,1.6c-0.6,0.4-1.3,0.6-2,0.6s-1.4-0.2-2-0.6
				c-0.6-0.4-1-0.9-1.4-1.6s-0.5-1.5-0.5-2.4s0.2-1.7,0.5-2.4s0.8-1.2,1.4-1.6c0.6-0.4,1.2-0.6,2-0.6s1.4,0.2,2,0.6
				c0.6,0.4,1,1,1.4,1.6S30.7,227.5,30.7,228.4z M29.6,228.4c0-0.7-0.1-1.4-0.4-1.9c-0.2-0.5-0.6-1-1-1.3s-0.9-0.5-1.5-0.5
				s-1.1,0.2-1.5,0.5s-0.8,0.7-1,1.3c-0.2,0.5-0.4,1.2-0.4,1.9s0.1,1.4,0.4,1.9c0.2,0.5,0.6,1,1,1.3s0.9,0.5,1.5,0.5s1-0.2,1.5-0.5
				c0.4-0.3,0.8-0.7,1-1.3C29.5,229.8,29.6,229.1,29.6,228.4z"/>
			<path class="st4" d="M40,228.4c0,0.9-0.2,1.7-0.5,2.4s-0.8,1.2-1.4,1.6c-0.6,0.4-1.3,0.6-2,0.6s-1.4-0.2-2-0.6
				c-0.6-0.4-1-0.9-1.4-1.6s-0.5-1.5-0.5-2.4s0.2-1.7,0.5-2.4s0.8-1.2,1.4-1.6c0.6-0.4,1.2-0.6,2-0.6s1.4,0.2,2,0.6
				c0.6,0.4,1,1,1.4,1.6S40,227.5,40,228.4z M38.9,228.4c0-0.7-0.1-1.4-0.4-1.9c-0.2-0.5-0.6-1-1-1.3s-0.9-0.5-1.5-0.5
				s-1.1,0.2-1.5,0.5s-0.8,0.7-1,1.3c-0.2,0.5-0.4,1.2-0.4,1.9s0.1,1.4,0.4,1.9c0.2,0.5,0.6,1,1,1.3s0.9,0.5,1.5,0.5s1-0.2,1.5-0.5
				c0.4-0.3,0.8-0.7,1-1.3C38.8,229.8,38.9,229.1,38.9,228.4z"/>
		</g>
	</g>
</g>
<g>
	<g>
		<g>
			<path class="st4" d="M10.3,205.6c0-0.4,0-0.7,0.1-1.1s0.2-0.7,0.4-1.1s0.4-0.7,0.8-1c0.3-0.3,0.8-0.6,1.3-0.9
				c0.3-0.2,0.6-0.3,0.9-0.5c0.3-0.2,0.6-0.3,0.9-0.5s0.5-0.4,0.7-0.6c0.2-0.2,0.3-0.5,0.3-0.8s-0.1-0.5-0.2-0.8
				c-0.1-0.3-0.4-0.5-0.7-0.6c-0.3-0.2-0.7-0.2-1.1-0.2c-0.3,0-0.6,0-0.9,0.1c-0.3,0.1-0.5,0.2-0.7,0.3s-0.4,0.3-0.5,0.4
				c-0.1,0.1-0.3,0.3-0.4,0.3l-0.7-0.7c0.1-0.1,0.2-0.2,0.3-0.3c0.2-0.2,0.4-0.3,0.7-0.5s0.6-0.3,1-0.4c0.4-0.1,0.8-0.2,1.3-0.2
				c0.6,0,1.2,0.1,1.6,0.3c0.4,0.2,0.8,0.5,1,0.9s0.4,0.8,0.4,1.2s-0.1,0.8-0.3,1.1s-0.4,0.6-0.7,0.8s-0.6,0.4-0.9,0.6
				c-0.3,0.2-0.6,0.3-0.8,0.4c-0.5,0.2-0.9,0.5-1.2,0.7s-0.6,0.5-0.8,0.7s-0.3,0.5-0.5,0.7c-0.1,0.2-0.2,0.5-0.2,0.7h5.5v1
				L10.3,205.6L10.3,205.6z"/>
			<path class="st4" d="M18.7,205.6V204h0.9v1.5h-0.9V205.6z"/>
			<path class="st4" d="M29.3,201.1c0,0.9-0.2,1.7-0.5,2.4s-0.8,1.2-1.4,1.6c-0.6,0.4-1.3,0.6-2,0.6s-1.4-0.2-2-0.6
				c-0.6-0.4-1-0.9-1.4-1.6s-0.5-1.5-0.5-2.4s0.2-1.7,0.5-2.4s0.8-1.2,1.4-1.6c0.6-0.4,1.2-0.6,2-0.6s1.4,0.2,2,0.6
				c0.6,0.4,1,1,1.4,1.6S29.3,200.2,29.3,201.1z M28.2,201.1c0-0.7-0.1-1.4-0.4-1.9c-0.2-0.5-0.6-1-1-1.3s-0.9-0.5-1.5-0.5
				s-1.1,0.2-1.5,0.5s-0.8,0.7-1,1.3c-0.2,0.5-0.4,1.2-0.4,1.9s0.1,1.4,0.4,1.9c0.2,0.5,0.6,1,1,1.3s0.9,0.5,1.5,0.5s1-0.2,1.5-0.5
				c0.4-0.3,0.8-0.7,1-1.3C28.1,202.4,28.2,201.8,28.2,201.1z"/>
			<path class="st4" d="M38.6,201.1c0,0.9-0.2,1.7-0.5,2.4s-0.8,1.2-1.4,1.6c-0.6,0.4-1.3,0.6-2,0.6s-1.4-0.2-2-0.6
				c-0.6-0.4-1-0.9-1.4-1.6s-0.5-1.5-0.5-2.4s0.2-1.7,0.5-2.4s0.8-1.2,1.4-1.6c0.6-0.4,1.2-0.6,2-0.6s1.4,0.2,2,0.6
				c0.6,0.4,1,1,1.4,1.6S38.6,200.2,38.6,201.1z M37.5,201.1c0-0.7-0.1-1.4-0.4-1.9c-0.2-0.5-0.6-1-1-1.3s-0.9-0.5-1.5-0.5
				s-1.1,0.2-1.5,0.5s-0.8,0.7-1,1.3c-0.2,0.5-0.4,1.2-0.4,1.9s0.1,1.4,0.4,1.9c0.2,0.5,0.6,1,1,1.3s0.9,0.5,1.5,0.5s1-0.2,1.5-0.5
				c0.4-0.3,0.8-0.7,1-1.3C37.4,202.4,37.5,201.8,37.5,201.1z"/>
		</g>
	</g>
</g>
<g>
	<g>
		<g>
			<path class="st4" d="M15.1,180.1v-2.8H10v-0.9l5.5-7.1h0.7v7.1h1.4v1h-1.4v2.8h-1.1V180.1z M11.1,176.4h4.2V171L11.1,176.4z"/>
			<path class="st4" d="M19.1,178.1v-1.5H20v1.5H19.1z"/>
			<path class="st4" d="M29.7,173.7c0,0.9-0.2,1.7-0.5,2.4s-0.8,1.2-1.4,1.6c-0.6,0.4-1.3,0.6-2,0.6s-1.4-0.2-2-0.6
				c-0.6-0.4-1-0.9-1.4-1.6s-0.5-1.5-0.5-2.4s0.2-1.7,0.5-2.4s0.8-1.2,1.4-1.6c0.6-0.4,1.2-0.6,2-0.6s1.4,0.2,2,0.6
				c0.6,0.4,1,1,1.4,1.6S29.7,172.8,29.7,173.7z M28.6,173.7c0-0.7-0.1-1.4-0.4-1.9c-0.2-0.5-0.6-1-1-1.3s-0.9-0.5-1.5-0.5
				s-1.1,0.2-1.5,0.5s-0.8,0.7-1,1.3c-0.2,0.5-0.4,1.2-0.4,1.9s0.1,1.4,0.4,1.9c0.2,0.5,0.6,1,1,1.3s0.9,0.5,1.5,0.5s1-0.2,1.5-0.5
				c0.4-0.3,0.8-0.7,1-1.3C28.5,175,28.6,174.4,28.6,173.7z"/>
			<path class="st4" d="M38.9,173.7c0,0.9-0.2,1.7-0.5,2.4s-0.8,1.2-1.4,1.6c-0.6,0.4-1.3,0.6-2,0.6s-1.4-0.2-2-0.6
				c-0.6-0.4-1-0.9-1.4-1.6s-0.5-1.5-0.5-2.4s0.2-1.7,0.5-2.4s0.8-1.2,1.4-1.6c0.6-0.4,1.2-0.6,2-0.6s1.4,0.2,2,0.6
				c0.6,0.4,1,1,1.4,1.6S38.9,172.8,38.9,173.7z M37.9,173.7c0-0.7-0.1-1.4-0.4-1.9c-0.2-0.5-0.6-1-1-1.3S35.6,170,35,170
				s-1.1,0.2-1.5,0.5s-0.8,0.7-1,1.3c-0.2,0.5-0.4,1.2-0.4,1.9s0.1,1.4,0.4,1.9c0.2,0.5,0.6,1,1,1.3s0.9,0.5,1.5,0.5s1-0.2,1.5-0.5
				c0.4-0.3,0.8-0.7,1-1.3C37.8,175,37.9,174.4,37.9,173.7z"/>
		</g>
	</g>
</g>
<g>
	<g>
		<g>
			<path class="st4" d="M17.8,149.1c-0.3,0.6-0.8,1-1.4,1.4c-0.6,0.3-1.3,0.5-2,0.5c-0.8,0-1.4-0.2-2-0.6c-0.6-0.4-1.1-0.9-1.4-1.6
				c-0.3-0.7-0.5-1.5-0.5-2.5c0-1.5,0.2-2.7,0.5-3.7s0.8-1.7,1.4-2.2c0.6-0.5,1.3-0.7,2.1-0.7c0.7,0,1.4,0.2,2,0.6
				c0.6,0.4,1,0.9,1.3,1.5l-0.7,0.6c-0.2-0.5-0.6-0.9-1-1.3c-0.5-0.3-1-0.5-1.6-0.5s-1.1,0.2-1.6,0.6c-0.5,0.4-0.8,0.9-1.1,1.6
				c-0.3,0.7-0.4,1.6-0.4,2.6c0.2-0.4,0.4-0.8,0.7-1.1s0.7-0.5,1.1-0.7c0.4-0.2,0.8-0.2,1.3-0.2c0.7,0,1.3,0.2,1.9,0.5
				c0.6,0.3,1,0.8,1.4,1.3c0.3,0.6,0.5,1.2,0.5,1.9S18.1,148.5,17.8,149.1z M15.8,149.6c0.4-0.3,0.8-0.6,1-1
				c0.3-0.4,0.4-0.9,0.4-1.4s-0.1-1-0.4-1.4s-0.6-0.8-1-1s-0.9-0.4-1.4-0.4s-1,0.1-1.4,0.4c-0.4,0.3-0.8,0.6-1,1
				c-0.3,0.4-0.4,0.9-0.4,1.4s0.1,1,0.4,1.4c0.3,0.4,0.6,0.8,1,1c0.4,0.3,0.9,0.4,1.4,0.4S15.4,149.9,15.8,149.6z"/>
			<path class="st4" d="M20,150.8v-1.5h0.9v1.5H20z"/>
			<path class="st4" d="M30.6,146.3c0,0.9-0.2,1.7-0.5,2.4s-0.8,1.2-1.4,1.6c-0.6,0.4-1.3,0.6-2,0.6s-1.4-0.2-2-0.6s-1-0.9-1.4-1.6
				s-0.5-1.5-0.5-2.4s0.2-1.7,0.5-2.4s0.8-1.2,1.4-1.6c0.6-0.4,1.2-0.6,2-0.6s1.4,0.2,2,0.6c0.6,0.4,1,1,1.4,1.6
				S30.6,145.4,30.6,146.3z M29.5,146.3c0-0.7-0.1-1.4-0.4-1.9c-0.2-0.5-0.6-1-1-1.3s-0.9-0.5-1.5-0.5s-1.1,0.2-1.5,0.5
				s-0.8,0.7-1,1.3c-0.2,0.5-0.4,1.2-0.4,1.9s0.1,1.4,0.4,1.9c0.2,0.5,0.6,1,1,1.3s0.9,0.5,1.5,0.5s1-0.2,1.5-0.5
				c0.4-0.3,0.8-0.7,1-1.3C29.4,147.7,29.5,147.1,29.5,146.3z"/>
			<path class="st4" d="M39.8,146.3c0,0.9-0.2,1.7-0.5,2.4s-0.8,1.2-1.4,1.6c-0.6,0.4-1.3,0.6-2,0.6s-1.4-0.2-2-0.6s-1-0.9-1.4-1.6
				s-0.5-1.5-0.5-2.4s0.2-1.7,0.5-2.4s0.8-1.2,1.4-1.6c0.6-0.4,1.2-0.6,2-0.6s1.4,0.2,2,0.6c0.6,0.4,1,1,1.4,1.6
				S39.8,145.4,39.8,146.3z M38.8,146.3c0-0.7-0.1-1.4-0.4-1.9c-0.2-0.5-0.6-1-1-1.3s-0.9-0.5-1.5-0.5s-1.1,0.2-1.5,0.5
				s-0.8,0.7-1,1.3c-0.2,0.5-0.4,1.2-0.4,1.9s0.1,1.4,0.4,1.9c0.2,0.5,0.6,1,1,1.3s0.9,0.5,1.5,0.5s1-0.2,1.5-0.5
				c0.4-0.3,0.8-0.7,1-1.3C38.6,147.7,38.8,147.1,38.8,146.3z"/>
		</g>
	</g>
</g>
<g>
	<g>
		<g>
			<path class="st4" d="M18,120.4c0,0.6-0.2,1.2-0.5,1.7s-0.8,0.8-1.4,1.1s-1.2,0.4-1.9,0.4s-1.4-0.1-2-0.4s-1-0.7-1.3-1.2
				s-0.5-1-0.5-1.6c0-0.5,0.1-0.9,0.3-1.3s0.5-0.7,0.8-1s0.7-0.4,1-0.6c-0.3-0.1-0.6-0.3-0.9-0.5c-0.3-0.2-0.5-0.5-0.7-0.8
				s-0.2-0.6-0.2-1c0-0.5,0.1-0.9,0.3-1.2c0.2-0.3,0.5-0.6,0.8-0.9c0.3-0.2,0.7-0.4,1.1-0.5c0.4-0.1,0.8-0.2,1.2-0.2
				s0.8,0.1,1.2,0.2s0.8,0.3,1.1,0.5s0.6,0.5,0.8,0.9c0.2,0.3,0.3,0.7,0.3,1.2c0,0.4-0.1,0.7-0.3,1s-0.4,0.6-0.7,0.8
				c-0.3,0.2-0.6,0.4-0.9,0.5c0.4,0.1,0.8,0.3,1.1,0.6c0.3,0.3,0.6,0.6,0.8,1C17.9,119.5,18,119.9,18,120.4z M17,120.3
				c0-0.4-0.1-0.7-0.2-1c-0.2-0.3-0.4-0.5-0.7-0.7c-0.3-0.2-0.6-0.3-0.9-0.5c-0.3-0.1-0.7-0.2-1-0.2c-0.4,0-0.9,0.1-1.3,0.3
				s-0.8,0.5-1,0.8c-0.3,0.3-0.4,0.8-0.4,1.2c0,0.4,0.1,0.7,0.2,1c0.2,0.3,0.4,0.5,0.6,0.7c0.3,0.2,0.6,0.4,0.9,0.5
				c0.3,0.1,0.7,0.2,1,0.2c0.4,0,0.9-0.1,1.3-0.3c0.4-0.2,0.8-0.5,1-0.8C16.8,121.1,17,120.7,17,120.3z M11.8,115.2
				c0,0.4,0.1,0.7,0.4,1c0.2,0.3,0.6,0.5,0.9,0.6c0.4,0.1,0.7,0.2,1.1,0.2c0.4,0,0.7-0.1,1.1-0.2c0.4-0.2,0.7-0.4,0.9-0.7
				c0.2-0.3,0.4-0.6,0.4-1s-0.1-0.7-0.3-1c-0.2-0.3-0.5-0.5-0.9-0.6s-0.8-0.2-1.2-0.2s-0.8,0.1-1.1,0.2c-0.4,0.2-0.7,0.4-0.9,0.7
				S11.8,114.9,11.8,115.2z"/>
			<path class="st4" d="M19.8,123.4v-1.5h0.9v1.5H19.8z"/>
			<path class="st4" d="M30.4,118.9c0,0.9-0.2,1.7-0.5,2.4s-0.8,1.2-1.4,1.6s-1.3,0.6-2,0.6s-1.4-0.2-2-0.6s-1-0.9-1.4-1.6
				s-0.5-1.5-0.5-2.4s0.2-1.7,0.5-2.4s0.8-1.2,1.4-1.6s1.2-0.6,2-0.6s1.4,0.2,2,0.6s1,1,1.4,1.6S30.4,118,30.4,118.9z M29.3,118.9
				c0-0.7-0.1-1.4-0.4-1.9c-0.2-0.5-0.6-1-1-1.3s-0.9-0.5-1.5-0.5s-1.1,0.2-1.5,0.5s-0.8,0.7-1,1.3c-0.2,0.5-0.4,1.2-0.4,1.9
				c0,0.7,0.1,1.4,0.4,1.9c0.2,0.5,0.6,1,1,1.3s0.9,0.5,1.5,0.5s1-0.2,1.5-0.5c0.4-0.3,0.8-0.7,1-1.3
				C29.2,120.3,29.3,119.6,29.3,118.9z"/>
			<path class="st4" d="M39.7,118.9c0,0.9-0.2,1.7-0.5,2.4s-0.8,1.2-1.4,1.6c-0.6,0.4-1.3,0.6-2,0.6s-1.4-0.2-2-0.6s-1-0.9-1.4-1.6
				s-0.5-1.5-0.5-2.4s0.2-1.7,0.5-2.4s0.8-1.2,1.4-1.6c0.6-0.4,1.2-0.6,2-0.6s1.4,0.2,2,0.6s1,1,1.4,1.6S39.7,118,39.7,118.9z
				 M38.6,118.9c0-0.7-0.1-1.4-0.4-1.9c-0.2-0.5-0.6-1-1-1.3s-0.9-0.5-1.5-0.5s-1.1,0.2-1.5,0.5s-0.8,0.7-1,1.3
				c-0.2,0.5-0.4,1.2-0.4,1.9c0,0.7,0.1,1.4,0.4,1.9c0.2,0.5,0.6,1,1,1.3s0.9,0.5,1.5,0.5s1-0.2,1.5-0.5c0.4-0.3,0.8-0.7,1-1.3
				C38.5,120.3,38.6,119.6,38.6,118.9z"/>
		</g>
	</g>
</g>
<g>
	<g>
		<g>
			<path class="st4" d="M7.3,95.1v1H2v-1h2.2v-6.6c-0.1,0.1-0.2,0.3-0.4,0.4s-0.4,0.3-0.7,0.4s-0.5,0.2-0.8,0.3
				c-0.2,0.1-0.5,0.1-0.7,0.1v-1c0.2,0,0.5-0.1,0.8-0.2C2.8,88.3,3,88.2,3.3,88s0.5-0.3,0.7-0.5c0.2-0.2,0.3-0.3,0.3-0.3h1.1v7.9
				H7.3z"/>
			<path class="st4" d="M16.3,91.6c0,0.9-0.2,1.7-0.5,2.4s-0.8,1.2-1.4,1.6c-0.6,0.4-1.3,0.6-2,0.6s-1.4-0.2-2-0.6S9.4,94.7,9,94
				c-0.3-0.7-0.5-1.5-0.5-2.4s0.2-1.7,0.5-2.4c0.3-0.7,0.8-1.2,1.4-1.6c0.6-0.4,1.2-0.6,2-0.6s1.4,0.2,2,0.6s1,1,1.4,1.6
				S16.3,90.7,16.3,91.6z M15.2,91.6c0-0.7-0.1-1.4-0.4-1.9c-0.2-0.5-0.6-1-1-1.3s-0.9-0.5-1.5-0.5s-1.1,0.2-1.5,0.5s-0.8,0.7-1,1.3
				c-0.2,0.5-0.4,1.2-0.4,1.9c0,0.7,0.1,1.4,0.4,1.9c0.2,0.5,0.6,1,1,1.3s0.9,0.5,1.5,0.5s1-0.2,1.5-0.5c0.4-0.3,0.8-0.7,1-1.3
				C15.1,92.9,15.2,92.3,15.2,91.6z"/>
			<path class="st4" d="M18.2,96v-1.5h0.9V96H18.2z"/>
			<path class="st4" d="M28.5,91.6c0,0.9-0.2,1.7-0.5,2.4s-0.8,1.2-1.4,1.6s-1.3,0.6-2,0.6s-1.4-0.2-2-0.6s-1-0.9-1.4-1.6
				s-0.5-1.5-0.5-2.4s0.2-1.7,0.5-2.4s0.8-1.2,1.4-1.6s1.2-0.6,2-0.6s1.4,0.2,2,0.6s1,1,1.4,1.6S28.5,90.7,28.5,91.6z M27.4,91.6
				c0-0.7-0.1-1.4-0.4-1.9c-0.2-0.5-0.6-1-1-1.3s-0.9-0.5-1.5-0.5s-1.1,0.2-1.5,0.5s-0.8,0.7-1,1.3c-0.2,0.5-0.4,1.2-0.4,1.9
				c0,0.7,0.1,1.4,0.4,1.9c0.2,0.5,0.6,1,1,1.3s0.9,0.5,1.5,0.5s1-0.2,1.5-0.5c0.4-0.3,0.8-0.7,1-1.3C27.3,92.9,27.4,92.3,27.4,91.6
				z"/>
			<path class="st4" d="M38,91.6c0,0.9-0.2,1.7-0.5,2.4s-0.8,1.2-1.4,1.6c-0.6,0.4-1.3,0.6-2,0.6s-1.4-0.2-2-0.6s-1-0.9-1.4-1.6
				s-0.5-1.5-0.5-2.4s0.2-1.7,0.5-2.4s0.8-1.2,1.4-1.6c0.6-0.4,1.2-0.6,2-0.6s1.4,0.2,2,0.6s1,1,1.4,1.6S38,90.7,38,91.6z
				 M36.9,91.6c0-0.7-0.1-1.4-0.4-1.9c-0.2-0.5-0.6-1-1-1.3s-0.9-0.5-1.5-0.5s-1.1,0.2-1.5,0.5s-0.8,0.7-1,1.3
				c-0.2,0.5-0.4,1.2-0.4,1.9c0,0.7,0.1,1.4,0.4,1.9c0.2,0.5,0.6,1,1,1.3s0.9,0.5,1.5,0.5s1-0.2,1.5-0.5c0.4-0.3,0.8-0.7,1-1.3
				C36.8,92.9,36.9,92.3,36.9,91.6z"/>
		</g>
	</g>
</g>
<g>
	<g>
		<g>
			<path class="st4" d="M7.3,67.7v1H2v-1h2.2v-6.6c-0.1,0.1-0.2,0.3-0.4,0.4c-0.2,0.1-0.4,0.3-0.7,0.4c-0.3,0.1-0.5,0.2-0.8,0.3
				c-0.2,0.1-0.5,0.1-0.7,0.1v-1c0.2,0,0.5-0.1,0.8-0.2C2.8,61,3,60.8,3.3,60.7s0.5-0.3,0.7-0.5c0.2-0.2,0.3-0.3,0.3-0.3h1.1v7.9
				h1.9V67.7z"/>
			<path class="st4" d="M8.3,68.7c0-0.4,0-0.7,0.1-1.1s0.2-0.7,0.4-1.1s0.4-0.7,0.8-1c0.3-0.3,0.8-0.6,1.3-0.9
				c0.3-0.2,0.6-0.3,0.9-0.5c0.3-0.2,0.6-0.3,0.9-0.5s0.5-0.4,0.7-0.6c0.2-0.2,0.3-0.5,0.3-0.8s-0.1-0.5-0.2-0.8
				c-0.1-0.3-0.4-0.5-0.7-0.6c-0.3-0.2-0.7-0.2-1.1-0.2c-0.3,0-0.6,0-0.9,0.1c-0.3,0.1-0.5,0.2-0.7,0.3s-0.4,0.3-0.5,0.4
				c-0.1,0.1-0.3,0.3-0.4,0.3L8.5,61c0.1-0.1,0.2-0.2,0.3-0.3c0.2-0.2,0.4-0.3,0.7-0.5s0.6-0.3,1-0.4c0.4-0.1,0.8-0.2,1.3-0.2
				c0.6,0,1.2,0.1,1.6,0.3c0.4,0.2,0.8,0.5,1,0.9s0.4,0.8,0.4,1.2s-0.1,0.8-0.3,1.1s-0.4,0.6-0.7,0.8s-0.6,0.4-0.9,0.6
				c-0.3,0.2-0.6,0.3-0.8,0.4c-0.5,0.2-0.9,0.5-1.2,0.7s-0.6,0.5-0.8,0.7S9.8,66.8,9.6,67c-0.1,0.2-0.2,0.5-0.2,0.7H15v1
				C15,68.7,8.3,68.7,8.3,68.7z"/>
			<path class="st4" d="M16.8,68.7v-1.5h0.9v1.5H16.8z"/>
			<path class="st4" d="M27.1,64.2c0,0.9-0.2,1.7-0.5,2.4s-0.8,1.2-1.4,1.6s-1.3,0.6-2,0.6s-1.4-0.2-2-0.6s-1-0.9-1.4-1.6
				s-0.5-1.5-0.5-2.4s0.2-1.7,0.5-2.4s0.8-1.2,1.4-1.6c0.6-0.4,1.2-0.6,2-0.6s1.4,0.2,2,0.6c0.6,0.4,1,1,1.4,1.6
				S27.1,63.3,27.1,64.2z M26,64.2c0-0.7-0.1-1.4-0.4-1.9c-0.2-0.5-0.6-1-1-1.3s-0.9-0.5-1.5-0.5S22,60.7,21.6,61s-0.8,0.7-1,1.3
				c-0.2,0.5-0.4,1.2-0.4,1.9c0,0.7,0.1,1.4,0.4,1.9c0.2,0.5,0.6,1,1,1.3s0.9,0.5,1.5,0.5s1-0.2,1.5-0.5c0.4-0.3,0.8-0.7,1-1.3
				C25.9,65.6,26,65,26,64.2z"/>
			<path class="st4" d="M36.6,64.2c0,0.9-0.2,1.7-0.5,2.4s-0.8,1.2-1.4,1.6c-0.6,0.4-1.3,0.6-2,0.6s-1.4-0.2-2-0.6s-1-0.9-1.4-1.6
				s-0.5-1.5-0.5-2.4s0.2-1.7,0.5-2.4s0.8-1.2,1.4-1.6c0.6-0.4,1.2-0.6,2-0.6s1.4,0.2,2,0.6c0.6,0.4,1,1,1.4,1.6
				S36.6,63.3,36.6,64.2z M35.5,64.2c0-0.7-0.1-1.4-0.4-1.9c-0.2-0.5-0.6-1-1-1.3s-0.9-0.5-1.5-0.5s-1.1,0.2-1.5,0.5s-0.8,0.7-1,1.3
				c-0.2,0.5-0.4,1.2-0.4,1.9c0,0.7,0.1,1.4,0.4,1.9c0.2,0.5,0.6,1,1,1.3s0.9,0.5,1.5,0.5c0.6,0,1-0.2,1.5-0.5
				c0.4-0.3,0.8-0.7,1-1.3C35.4,65.6,35.5,65,35.5,64.2z"/>
		</g>
	</g>
</g>
<g>
	<g>
		<g>
			<path class="st4" d="M7.3,40.3v1H2v-1h2.2v-6.6C4.1,33.8,4,34,3.8,34.1s-0.4,0.3-0.7,0.4c-0.3,0.1-0.5,0.2-0.8,0.3
				c-0.2,0.1-0.5,0.1-0.7,0.1v-1c0.2,0,0.5-0.1,0.8-0.2c0.3-0.1,0.5-0.3,0.8-0.5s0.5-0.3,0.7-0.5s0.3-0.3,0.3-0.3h1.1v7.9H7.3z"/>
			<path class="st4" d="M13.2,43.3v-2.8H8v-0.9l5.5-7.1h0.7v7.1h1.4v1h-1.4v2.8L13.2,43.3L13.2,43.3z M9.1,39.5h4.2v-5.4L9.1,39.5z"
				/>
			<path class="st4" d="M17.2,41.3v-1.5h0.9v1.5H17.2z"/>
			<path class="st4" d="M27.4,36.8c0,0.9-0.2,1.7-0.5,2.4s-0.8,1.2-1.4,1.6c-0.6,0.4-1.3,0.6-2,0.6s-1.4-0.2-2-0.6s-1-0.9-1.4-1.6
				s-0.5-1.5-0.5-2.4s0.2-1.7,0.5-2.4s0.8-1.2,1.4-1.6c0.6-0.4,1.2-0.6,2-0.6s1.4,0.2,2,0.6c0.6,0.4,1,1,1.4,1.6
				S27.4,35.9,27.4,36.8z M26.4,36.8c0-0.7-0.1-1.4-0.4-1.9c-0.2-0.5-0.6-1-1-1.3s-0.9-0.5-1.5-0.5s-1.1,0.2-1.5,0.5s-0.8,0.7-1,1.3
				c-0.2,0.5-0.4,1.2-0.4,1.9s0.1,1.4,0.4,1.9c0.2,0.5,0.6,1,1,1.3s0.9,0.5,1.5,0.5s1-0.2,1.5-0.5c0.4-0.3,0.8-0.7,1-1.3
				C26.3,38.2,26.4,37.5,26.4,36.8z"/>
			<path class="st4" d="M37,36.8c0,0.9-0.2,1.7-0.5,2.4s-0.8,1.2-1.4,1.6c-0.6,0.4-1.3,0.6-2,0.6s-1.4-0.2-2-0.6s-1-0.9-1.4-1.6
				s-0.5-1.5-0.5-2.4s0.2-1.7,0.5-2.4s0.8-1.2,1.4-1.6c0.6-0.4,1.2-0.6,2-0.6s1.4,0.2,2,0.6c0.6,0.4,1,1,1.4,1.6S37,35.9,37,36.8z
				 M35.9,36.8c0-0.7-0.1-1.4-0.4-1.9c-0.2-0.5-0.6-1-1-1.3s-0.9-0.5-1.5-0.5s-1.1,0.2-1.5,0.5s-0.8,0.7-1,1.3
				c-0.2,0.5-0.4,1.2-0.4,1.9s0.1,1.4,0.4,1.9c0.2,0.5,0.6,1,1,1.3s0.9,0.5,1.5,0.5s1-0.2,1.5-0.5c0.4-0.3,0.8-0.7,1-1.3
				C35.8,38.2,35.9,37.5,35.9,36.8z"/>
		</g>
	</g>
</g>
<g>
	<g>
		<g>
			<path class="st4" d="M7.3,13v1H2v-1h2.2V6.4C4.1,6.5,4,6.6,3.8,6.8C3.6,6.9,3.4,7,3.1,7.2C2.9,7.3,2.6,7.4,2.4,7.5
				C2.1,7.6,1.9,7.6,1.7,7.6v-1c0.2,0,0.5-0.1,0.8-0.2C2.8,6.2,3,6.1,3.3,5.9S3.8,5.6,4,5.4c0.2-0.2,0.3-0.3,0.3-0.3h1.1V13H7.3z"/>
			<path class="st4" d="M15.8,12.2c-0.3,0.6-0.8,1-1.4,1.4c-0.6,0.3-1.3,0.5-2,0.5c-0.8,0-1.4-0.2-2-0.6C9.8,13.2,9.3,12.7,9,12
				s-0.5-1.5-0.5-2.5C8.5,8,8.6,6.8,9,5.8c0.3-1,0.8-1.7,1.4-2.2c0.6-0.5,1.3-0.7,2.1-0.7c0.7,0,1.4,0.2,2,0.6s1,0.9,1.3,1.5
				l-0.7,0.6c-0.2-0.5-0.6-0.9-1-1.3c-0.5-0.3-1-0.5-1.6-0.5S11.4,4,10.9,4.4c-0.4,0.4-0.8,0.9-1,1.6C9.6,6.7,9.5,7.6,9.5,8.6
				c0.2-0.4,0.4-0.8,0.7-1.1c0.3-0.3,0.7-0.5,1.1-0.7c0.4-0.2,0.8-0.2,1.3-0.2c0.7,0,1.3,0.2,1.9,0.5c0.6,0.3,1,0.8,1.4,1.3
				c0.3,0.6,0.5,1.2,0.5,1.9S16.1,11.7,15.8,12.2z M13.9,12.8c0.4-0.3,0.8-0.6,1-1c0.3-0.4,0.4-0.9,0.4-1.4s-0.1-1-0.4-1.4
				c-0.3-0.4-0.6-0.8-1-1S13,7.5,12.4,7.5c-0.5,0-1,0.1-1.4,0.4c-0.4,0.3-0.8,0.6-1,1c-0.3,0.4-0.4,0.9-0.4,1.4s0.1,1,0.4,1.4
				c0.3,0.4,0.6,0.8,1,1c0.4,0.3,0.9,0.4,1.4,0.4C13,13.2,13.4,13.1,13.9,12.8z"/>
			<path class="st4" d="M18,14v-1.5h1V14H18z"/>
			<path class="st4" d="M28.3,9.5c0,0.9-0.2,1.7-0.5,2.4s-0.8,1.2-1.4,1.6c-0.6,0.4-1.3,0.6-2,0.6s-1.4-0.2-2-0.6s-1-0.9-1.4-1.6
				s-0.5-1.5-0.5-2.4s0.2-1.7,0.5-2.4s0.8-1.2,1.4-1.6c0.6-0.4,1.2-0.6,2-0.6s1.4,0.2,2,0.6s1,1,1.4,1.6S28.3,8.6,28.3,9.5z
				 M27.3,9.5c0-0.7-0.1-1.4-0.4-1.9c-0.2-0.5-0.6-1-1-1.3C25.5,6,25,5.8,24.4,5.8S23.4,6,23,6.3S22.2,7,22,7.6
				c-0.2,0.5-0.4,1.2-0.4,1.9s0.1,1.4,0.4,1.9c0.2,0.5,0.6,1,1,1.3s0.9,0.5,1.5,0.5s1-0.2,1.5-0.5c0.4-0.3,0.8-0.7,1-1.3
				C27.1,10.8,27.3,10.2,27.3,9.5z"/>
			<path class="st4" d="M37.8,9.5c0,0.9-0.2,1.7-0.5,2.4s-0.8,1.2-1.4,1.6c-0.6,0.4-1.3,0.6-2,0.6s-1.4-0.2-2-0.6s-1-0.9-1.4-1.6
				S30,10.4,30,9.5s0.2-1.7,0.5-2.4s0.8-1.2,1.4-1.6c0.6-0.4,1.2-0.6,2-0.6s1.4,0.2,2,0.6s1,1,1.4,1.6S37.8,8.6,37.8,9.5z M36.8,9.5
				c0-0.7-0.1-1.4-0.4-1.9c-0.2-0.5-0.6-1-1-1.3C35,6,34.5,5.8,34,5.8S32.9,6,32.5,6.3s-0.8,0.7-1,1.3c-0.2,0.5-0.4,1.2-0.4,1.9
				s0.1,1.4,0.4,1.9c0.2,0.5,0.6,1,1,1.3s0.9,0.5,1.5,0.5s1-0.2,1.5-0.5c0.4-0.3,0.8-0.7,1-1.3C36.7,10.8,36.8,10.2,36.8,9.5z"/>
		</g>
	</g>
</g>
<g>
	<g class="st5">
		<path class="st4" d="M59.5,287l-0.1-1.4c0.6-0.1,1-0.2,1.4-0.5c0.4-0.2,0.6-0.6,0.9-1.1c0.2-0.5,0.3-1.1,0.3-1.7
			c0-0.6-0.1-1.1-0.2-1.5c-0.2-0.4-0.4-0.7-0.7-1s-0.6-0.3-1-0.3c-0.3,0-0.7,0.1-0.9,0.3c-0.3,0.2-0.5,0.5-0.7,1
			c-0.1,0.3-0.3,1-0.5,2c-0.2,1-0.5,1.7-0.7,2.1c-0.3,0.5-0.6,0.9-1,1.2s-0.9,0.4-1.4,0.4c-0.6,0-1.1-0.2-1.6-0.5
			c-0.5-0.3-0.9-0.8-1.1-1.4c-0.3-0.6-0.4-1.3-0.4-2c0-0.8,0.1-1.5,0.4-2.2c0.3-0.6,0.7-1.1,1.2-1.4s1.1-0.5,1.7-0.5l0.1,1.4
			c-0.7,0.1-1.2,0.3-1.6,0.8c-0.4,0.4-0.5,1.1-0.5,1.9c0,0.9,0.2,1.5,0.5,1.9c0.3,0.4,0.7,0.6,1.2,0.6c0.4,0,0.7-0.1,1-0.4
			c0.3-0.3,0.5-1,0.8-2.2c0.3-1.2,0.5-2,0.7-2.5c0.3-0.6,0.7-1.1,1.1-1.4c0.5-0.3,1-0.5,1.6-0.5c0.6,0,1.1,0.2,1.7,0.5
			c0.5,0.3,0.9,0.8,1.2,1.5c0.3,0.6,0.4,1.3,0.4,2.1c0,1-0.1,1.8-0.4,2.5c-0.3,0.7-0.7,1.2-1.3,1.6C60.9,286.8,60.2,287,59.5,287z"
			/>
	</g>
	<g class="st5">
		<path class="st4" d="M60.5,270.9l0.2-1.4c0.8,0.2,1.5,0.6,1.9,1.2s0.7,1.4,0.7,2.3c0,1.2-0.4,2.1-1.1,2.8c-0.7,0.7-1.7,1-3,1
			c-1.4,0-2.4-0.3-3.1-1c-0.7-0.7-1.1-1.6-1.1-2.7c0-1.1,0.4-2,1.1-2.6c0.7-0.7,1.8-1,3.1-1c0.1,0,0.2,0,0.4,0v6
			c0.9-0.1,1.6-0.3,2-0.7c0.5-0.4,0.7-1,0.7-1.7c0-0.5-0.1-0.9-0.4-1.3C61.5,271.4,61.1,271.2,60.5,270.9z M58.3,275.4v-4.5
			c-0.7,0.1-1.2,0.2-1.5,0.5c-0.5,0.4-0.8,1-0.8,1.7c0,0.6,0.2,1.2,0.6,1.6C57,275.1,57.6,275.4,58.3,275.4z"/>
		<path class="st4" d="M66.1,267.8H55v-1.2h1c-0.4-0.3-0.7-0.6-0.9-1s-0.3-0.8-0.3-1.3c0-0.7,0.2-1.3,0.5-1.8
			c0.4-0.5,0.9-0.9,1.5-1.2c0.6-0.3,1.3-0.4,2.1-0.4c0.8,0,1.6,0.1,2.2,0.4c0.7,0.3,1.2,0.7,1.5,1.3s0.5,1.2,0.5,1.8
			c0,0.5-0.1,0.9-0.3,1.2c-0.2,0.4-0.4,0.7-0.7,0.9h3.9V267.8z M59.1,266.6c1,0,1.8-0.2,2.3-0.6c0.5-0.4,0.7-0.9,0.7-1.5
			c0-0.6-0.3-1.1-0.8-1.6c-0.5-0.4-1.3-0.6-2.4-0.6c-1,0-1.8,0.2-2.3,0.6c-0.5,0.4-0.8,0.9-0.8,1.5c0,0.6,0.3,1.1,0.8,1.5
			C57.3,266.4,58.1,266.6,59.1,266.6z"/>
	</g>
	<g class="st5">
		<path class="st4" d="M59.7,259.7h-1.4v-4.2h1.4V259.7z"/>
	</g>
	<g class="st5">
		<path class="st4" d="M63.1,249.1v1.4h-8.7c0.3,0.3,0.6,0.8,0.9,1.3c0.3,0.5,0.5,1,0.7,1.4h-1.3c-0.4-0.8-0.8-1.4-1.3-2
			c-0.5-0.6-1-1-1.5-1.2v-0.9H63.1z"/>
	</g>
	<g class="st5">
		<path class="st4" d="M57.1,243.7c-0.2,0.6-0.5,1-0.9,1.3c-0.4,0.3-0.8,0.4-1.4,0.4c-0.8,0-1.5-0.3-2-0.9c-0.5-0.6-0.8-1.4-0.8-2.3
			c0-1,0.3-1.7,0.8-2.3c0.6-0.6,1.2-0.9,2.1-0.9c0.5,0,1,0.1,1.3,0.4c0.4,0.3,0.7,0.7,0.9,1.2c0.2-0.7,0.6-1.2,1.1-1.6
			c0.5-0.4,1.1-0.5,1.8-0.5c0.9,0,1.7,0.3,2.4,1c0.6,0.7,1,1.6,1,2.6c0,1.1-0.3,2-1,2.6s-1.5,1-2.4,1c-0.7,0-1.3-0.2-1.8-0.5
			C57.6,244.9,57.2,244.4,57.1,243.7z M54.7,244c0.5,0,1-0.2,1.3-0.5c0.3-0.3,0.5-0.8,0.5-1.3c0-0.5-0.2-1-0.5-1.3
			c-0.3-0.3-0.7-0.5-1.2-0.5c-0.5,0-0.9,0.2-1.3,0.5c-0.3,0.3-0.5,0.8-0.5,1.3c0,0.5,0.2,1,0.5,1.3C53.9,243.8,54.3,244,54.7,244z
			 M59.9,244.4c0.4,0,0.8-0.1,1.1-0.3s0.6-0.5,0.8-0.8s0.3-0.8,0.3-1.2c0-0.7-0.2-1.2-0.6-1.6c-0.4-0.4-1-0.6-1.6-0.6
			c-0.7,0-1.2,0.2-1.6,0.7c-0.4,0.4-0.6,1-0.6,1.6c0,0.6,0.2,1.2,0.6,1.6S59.2,244.4,59.9,244.4z"/>
	</g>
</g>
<g>
	<g class="st5">
		<path class="st4" d="M90.7,286.5H79.6v-3.8c0-0.9,0.1-1.5,0.2-2c0.1-0.6,0.4-1.2,0.8-1.6c0.5-0.6,1.1-1,1.9-1.3
			c0.8-0.3,1.6-0.4,2.6-0.4c0.8,0,1.6,0.1,2.2,0.3c0.7,0.2,1.2,0.4,1.6,0.8c0.4,0.3,0.8,0.6,1,1c0.2,0.4,0.4,0.8,0.6,1.3
			c0.1,0.5,0.2,1.1,0.2,1.8V286.5z M89.4,285.1v-2.4c0-0.7-0.1-1.3-0.2-1.7c-0.1-0.4-0.3-0.7-0.6-1c-0.3-0.3-0.8-0.6-1.4-0.8
			c-0.6-0.2-1.3-0.3-2.1-0.3c-1.2,0-2.1,0.2-2.7,0.6s-1,0.8-1.3,1.4c-0.2,0.4-0.2,1-0.2,1.9v2.3H89.4z"/>
		<path class="st4" d="M88.1,270l0.2-1.4c0.8,0.2,1.5,0.6,1.9,1.2s0.7,1.4,0.7,2.3c0,1.2-0.4,2.1-1.1,2.8c-0.7,0.7-1.7,1-3,1
			c-1.4,0-2.4-0.3-3.1-1c-0.7-0.7-1.1-1.6-1.1-2.7c0-1.1,0.4-2,1.1-2.6c0.7-0.7,1.8-1,3.1-1c0.1,0,0.2,0,0.4,0v6
			c0.9,0,1.6-0.3,2-0.7c0.5-0.4,0.7-1,0.7-1.7c0-0.5-0.1-0.9-0.4-1.3C89.1,270.5,88.7,270.2,88.1,270z M85.9,274.5V270
			c-0.7,0.1-1.2,0.2-1.5,0.5c-0.5,0.4-0.8,1-0.8,1.7c0,0.6,0.2,1.2,0.6,1.6C84.7,274.2,85.2,274.4,85.9,274.5z"/>
		<path class="st4" d="M87.8,261.6l0.2-1.3c0.9,0.1,1.6,0.5,2.2,1.1c0.5,0.6,0.8,1.3,0.8,2.2c0,1.1-0.4,2-1.1,2.7
			c-0.7,0.7-1.8,1-3.1,1c-0.9,0-1.6-0.1-2.3-0.4c-0.7-0.3-1.1-0.7-1.5-1.3s-0.5-1.2-0.5-1.9c0-0.9,0.2-1.6,0.7-2.1s1.1-0.9,1.9-1.1
			l0.2,1.3c-0.5,0.1-0.9,0.3-1.2,0.7s-0.4,0.7-0.4,1.2c0,0.7,0.2,1.2,0.7,1.7s1.3,0.6,2.3,0.6c1.1,0,1.9-0.2,2.4-0.6
			c0.5-0.4,0.7-1,0.7-1.6c0-0.5-0.2-1-0.5-1.3C89,262,88.4,261.7,87.8,261.6z"/>
	</g>
	<g class="st5">
		<path class="st4" d="M87.4,259.6H86v-4.2h1.4V259.6z"/>
	</g>
	<g class="st5">
		<path class="st4" d="M90.7,249.1v1.4H82c0.3,0.3,0.6,0.8,0.9,1.3c0.3,0.5,0.5,1,0.7,1.4h-1.3c-0.4-0.8-0.8-1.4-1.3-2
			c-0.5-0.6-1-1-1.5-1.2v-0.9H90.7z"/>
	</g>
	<g class="st5">
		<path class="st4" d="M84.7,243.8c-0.2,0.6-0.5,1-0.9,1.3c-0.4,0.3-0.8,0.4-1.4,0.4c-0.8,0-1.5-0.3-2-0.9c-0.5-0.6-0.8-1.4-0.8-2.3
			c0-1,0.3-1.7,0.8-2.3c0.6-0.6,1.2-0.9,2.1-0.9c0.5,0,1,0.1,1.3,0.4c0.4,0.3,0.7,0.7,0.9,1.2c0.2-0.7,0.6-1.2,1.1-1.6
			s1.1-0.5,1.8-0.5c0.9,0,1.7,0.3,2.4,1c0.6,0.7,1,1.6,1,2.7c0,1.1-0.3,2-1,2.6s-1.5,1-2.4,1c-0.7,0-1.3-0.2-1.8-0.5
			C85.2,245,84.9,244.5,84.7,243.8z M82.4,244.1c0.5,0,1-0.2,1.3-0.5s0.5-0.8,0.5-1.3c0-0.5-0.2-1-0.5-1.3c-0.3-0.3-0.7-0.5-1.2-0.5
			c-0.5,0-0.9,0.2-1.3,0.5c-0.3,0.3-0.5,0.8-0.5,1.3c0,0.5,0.2,1,0.5,1.3C81.5,243.9,81.9,244.1,82.4,244.1z M87.5,244.5
			c0.4,0,0.8-0.1,1.1-0.3s0.6-0.5,0.8-0.8s0.3-0.8,0.3-1.2c0-0.7-0.2-1.2-0.6-1.6c-0.4-0.4-1-0.6-1.6-0.6c-0.7,0-1.2,0.2-1.6,0.7
			c-0.4,0.4-0.6,1-0.6,1.6c0,0.6,0.2,1.2,0.6,1.6C86.3,244.3,86.9,244.5,87.5,244.5z"/>
	</g>
</g>
<g>
	<g class="st5">
		<path class="st4" d="M118.4,285.9h-11.1v-2.2l7.9-2.6c0.7-0.2,1.3-0.4,1.6-0.5c-0.4-0.1-1-0.3-1.8-0.6l-7.7-2.7v-2h11.1v1.4h-9.3
			l9.3,3.2v1.3l-9.4,3.2h9.4V285.9z"/>
	</g>
	<g class="st5">
		<path class="st4" d="M117.4,267.7c0.4,0.5,0.7,1,0.9,1.5s0.3,1,0.3,1.5c0,0.9-0.2,1.6-0.6,2c-0.4,0.5-1,0.7-1.7,0.7
			c-0.4,0-0.8-0.1-1.1-0.3c-0.3-0.2-0.6-0.4-0.8-0.7c-0.2-0.3-0.3-0.6-0.4-1c-0.1-0.3-0.1-0.7-0.2-1.2c-0.1-1.1-0.3-1.9-0.5-2.4
			c-0.2,0-0.3,0-0.4,0c-0.6,0-0.9,0.1-1.2,0.4c-0.3,0.3-0.5,0.9-0.5,1.6c0,0.6,0.1,1.1,0.3,1.4c0.2,0.3,0.6,0.5,1.2,0.7l-0.2,1.3
			c-0.6-0.1-1-0.3-1.4-0.6s-0.6-0.7-0.8-1.2c-0.2-0.5-0.3-1.1-0.3-1.8c0-0.7,0.1-1.2,0.2-1.7c0.2-0.4,0.4-0.7,0.6-0.9
			s0.6-0.3,0.9-0.4c0.2,0,0.7-0.1,1.3-0.1h1.8c1.3,0,2.1,0,2.4-0.1c0.3-0.1,0.7-0.2,1-0.3v1.4C118.1,267.6,117.8,267.7,117.4,267.7z
			 M114.4,267.8c0.2,0.5,0.4,1.2,0.5,2.2c0.1,0.6,0.2,1,0.3,1.2c0.1,0.2,0.2,0.4,0.4,0.5c0.2,0.1,0.4,0.2,0.6,0.2
			c0.4,0,0.7-0.1,0.9-0.4s0.4-0.7,0.4-1.2c0-0.5-0.1-1-0.3-1.4s-0.5-0.7-0.9-0.9c-0.3-0.1-0.8-0.2-1.4-0.2H114.4z"/>
	</g>
	<g class="st5">
		<path class="st4" d="M118.4,264.6h-8v-1.2h1.2c-0.6-0.3-0.9-0.6-1.1-0.9s-0.3-0.6-0.3-0.9c0-0.5,0.1-0.9,0.4-1.4l1.3,0.5
			c-0.2,0.3-0.3,0.7-0.3,1c0,0.3,0.1,0.6,0.3,0.8c0.2,0.2,0.4,0.4,0.7,0.5c0.5,0.2,1,0.2,1.6,0.2h4.2V264.6z"/>
		<path class="st4" d="M115.1,259.9h-1.4v-4.2h1.4V259.9z"/>
	</g>
	<g class="st5">
		<path class="st4" d="M118.4,249.4v1.4h-8.7c0.3,0.3,0.6,0.8,0.9,1.3c0.3,0.5,0.5,1,0.7,1.4h-1.3c-0.4-0.8-0.8-1.4-1.3-2
			c-0.5-0.6-1-1-1.5-1.2v-0.9H118.4z"/>
	</g>
	<g class="st5">
		<path class="st4" d="M115.9,245.7l-0.1-1.3c0.6-0.1,1.1-0.3,1.3-0.6c0.3-0.3,0.4-0.7,0.4-1.2c0-0.4-0.1-0.8-0.3-1.1
			c-0.2-0.3-0.4-0.6-0.8-0.8c-0.3-0.2-0.8-0.4-1.3-0.5c-0.5-0.1-1.1-0.2-1.7-0.2c-0.1,0-0.2,0-0.3,0c0.4,0.3,0.8,0.6,1.1,1.1
			c0.3,0.5,0.4,1,0.4,1.5c0,0.9-0.3,1.7-1,2.3c-0.7,0.6-1.5,1-2.6,1c-1.1,0-2-0.3-2.7-1c-0.7-0.7-1-1.5-1-2.5c0-0.7,0.2-1.4,0.6-2
			c0.4-0.6,0.9-1.1,1.7-1.4c0.7-0.3,1.8-0.5,3.1-0.5c1.4,0,2.5,0.2,3.4,0.5c0.8,0.3,1.5,0.8,1.9,1.4c0.4,0.6,0.7,1.3,0.7,2.1
			c0,0.9-0.2,1.6-0.7,2.1C117.4,245.2,116.7,245.5,115.9,245.7z M111,240.1c-0.8,0-1.4,0.2-1.9,0.6c-0.5,0.4-0.7,0.9-0.7,1.5
			c0,0.6,0.2,1.1,0.7,1.6c0.5,0.4,1.1,0.7,1.9,0.7c0.7,0,1.3-0.2,1.7-0.6c0.4-0.4,0.7-1,0.7-1.6c0-0.6-0.2-1.1-0.7-1.6
			S111.8,240.1,111,240.1z"/>
	</g>
</g>
<g>
	<g class="st5">
		<path class="st4" d="M143,284.8l-0.2-1.3c0.8,0,1.4-0.2,1.7-0.5c0.3-0.3,0.5-0.7,0.5-1.2c0-0.4-0.1-0.7-0.3-1s-0.4-0.5-0.7-0.6
			c-0.3-0.1-0.8-0.2-1.4-0.2h-7.6v-1.5h7.6c0.9,0,1.6,0.1,2.2,0.3c0.5,0.2,0.9,0.6,1.2,1.1c0.3,0.5,0.4,1.1,0.4,1.7
			c0,1-0.3,1.7-0.8,2.2C144.9,284.6,144.1,284.8,143,284.8z"/>
	</g>
	<g class="st5">
		<path class="st4" d="M146.2,271.2H145c0.9,0.6,1.4,1.5,1.4,2.6c0,0.5-0.1,0.9-0.3,1.3c-0.2,0.4-0.4,0.7-0.7,0.9
			c-0.3,0.2-0.6,0.3-1,0.4c-0.3,0.1-0.7,0.1-1.3,0.1h-5v-1.4h4.5c0.7,0,1.2,0,1.4-0.1c0.4-0.1,0.6-0.3,0.8-0.5s0.3-0.6,0.3-1
			c0-0.4-0.1-0.8-0.3-1.2c-0.2-0.4-0.5-0.6-0.9-0.8c-0.4-0.1-0.9-0.2-1.6-0.2h-4.3V270h8V271.2z"/>
		<path class="st4" d="M146.2,267.8h-8v-1.2h1.1c-0.9-0.6-1.3-1.4-1.3-2.6c0-0.5,0.1-0.9,0.3-1.3c0.2-0.4,0.4-0.7,0.7-0.9
			s0.6-0.3,1-0.4c0.3,0,0.7-0.1,1.3-0.1h4.9v1.4h-4.9c-0.6,0-1,0.1-1.2,0.2c-0.3,0.1-0.5,0.3-0.7,0.6s-0.2,0.6-0.2,1
			c0,0.6,0.2,1.1,0.6,1.5s1.1,0.6,2.1,0.6h4.4V267.8z"/>
	</g>
	<g class="st5">
		<path class="st4" d="M142.8,259.7h-1.4v-4.2h1.4V259.7z"/>
	</g>
	<g class="st5">
		<path class="st4" d="M146.2,249.5v1.4h-8.7c0.3,0.3,0.6,0.8,0.9,1.3c0.3,0.5,0.5,1,0.7,1.4h-1.3c-0.4-0.8-0.8-1.4-1.3-2
			c-0.5-0.6-1-1-1.5-1.2v-0.9H146.2z"/>
	</g>
	<g class="st5">
		<path class="st4" d="M143.6,245.7l-0.1-1.3c0.6-0.1,1.1-0.3,1.3-0.6c0.3-0.3,0.4-0.7,0.4-1.2c0-0.4-0.1-0.8-0.3-1.1
			c-0.2-0.3-0.4-0.6-0.8-0.8c-0.3-0.2-0.8-0.4-1.3-0.5c-0.5-0.1-1.1-0.2-1.7-0.2c-0.1,0-0.2,0-0.3,0c0.4,0.3,0.8,0.6,1.1,1.1
			c0.3,0.5,0.4,1,0.4,1.5c0,0.9-0.3,1.7-1,2.3c-0.7,0.6-1.5,1-2.6,1c-1.1,0-2-0.3-2.7-1c-0.7-0.7-1-1.5-1-2.5c0-0.7,0.2-1.4,0.6-2
			c0.4-0.6,0.9-1.1,1.7-1.4c0.7-0.3,1.8-0.5,3.1-0.5c1.4,0,2.5,0.2,3.4,0.5c0.8,0.3,1.5,0.8,1.9,1.4c0.4,0.6,0.7,1.3,0.7,2.1
			c0,0.9-0.2,1.6-0.7,2.1C145.1,245.3,144.5,245.6,143.6,245.7z M138.7,240.1c-0.8,0-1.4,0.2-1.9,0.6c-0.5,0.4-0.7,0.9-0.7,1.5
			c0,0.6,0.2,1.1,0.7,1.6c0.5,0.4,1.1,0.7,1.9,0.7c0.7,0,1.3-0.2,1.7-0.6c0.4-0.4,0.7-1,0.7-1.6c0-0.6-0.2-1.1-0.7-1.6
			S139.5,240.1,138.7,240.1z"/>
	</g>
</g>
<g>
	<g class="st5">
		<path class="st4" d="M170.3,287.1l-0.1-1.4c0.6-0.1,1-0.2,1.4-0.5c0.4-0.2,0.6-0.6,0.9-1.1c0.2-0.5,0.3-1.1,0.3-1.7
			c0-0.6-0.1-1.1-0.2-1.5c-0.2-0.4-0.4-0.7-0.7-1c-0.3-0.2-0.6-0.3-1-0.3c-0.3,0-0.7,0.1-0.9,0.3c-0.3,0.2-0.5,0.5-0.7,1
			c-0.1,0.3-0.3,1-0.5,2s-0.5,1.7-0.7,2.1c-0.3,0.5-0.6,0.9-1,1.2s-0.9,0.4-1.4,0.4c-0.6,0-1.1-0.2-1.6-0.5
			c-0.5-0.3-0.9-0.8-1.1-1.4c-0.3-0.6-0.4-1.3-0.4-2c0-0.8,0.1-1.5,0.4-2.2c0.3-0.6,0.7-1.1,1.2-1.4c0.5-0.3,1.1-0.5,1.7-0.5
			l0.1,1.4c-0.7,0.1-1.2,0.3-1.6,0.8c-0.4,0.4-0.5,1.1-0.5,1.9c0,0.9,0.2,1.5,0.5,1.9c0.3,0.4,0.7,0.6,1.2,0.6c0.4,0,0.7-0.1,1-0.4
			c0.3-0.3,0.5-1,0.8-2.2c0.3-1.2,0.5-2,0.7-2.5c0.3-0.6,0.7-1.1,1.1-1.4c0.5-0.3,1-0.5,1.6-0.5c0.6,0,1.1,0.2,1.7,0.5
			c0.5,0.3,0.9,0.8,1.2,1.5c0.3,0.6,0.4,1.3,0.4,2.1c0,1-0.1,1.8-0.4,2.5c-0.3,0.7-0.7,1.2-1.3,1.6S171,287,170.3,287.1z"/>
	</g>
	<g class="st5">
		<path class="st4" d="M171.3,271l0.2-1.4c0.8,0.2,1.5,0.6,1.9,1.2s0.7,1.4,0.7,2.3c0,1.2-0.4,2.1-1.1,2.8c-0.7,0.7-1.7,1-3,1
			c-1.4,0-2.4-0.3-3.1-1c-0.7-0.7-1.1-1.6-1.1-2.7c0-1.1,0.4-2,1.1-2.6c0.7-0.7,1.8-1,3.1-1c0.1,0,0.2,0,0.4,0v6
			c0.9-0.1,1.6-0.3,2-0.7c0.5-0.4,0.7-1,0.7-1.7c0-0.5-0.1-0.9-0.4-1.3C172.3,271.5,171.8,271.2,171.3,271z M169.1,275.5V271
			c-0.7,0.1-1.2,0.2-1.5,0.5c-0.5,0.4-0.8,1-0.8,1.7c0,0.6,0.2,1.2,0.6,1.6C167.8,275.2,168.4,275.5,169.1,275.5z"/>
		<path class="st4" d="M176.9,267.9h-11.1v-1.2h1c-0.4-0.3-0.7-0.6-0.9-1s-0.3-0.8-0.3-1.3c0-0.7,0.2-1.3,0.5-1.8
			c0.4-0.5,0.9-0.9,1.5-1.2c0.6-0.3,1.3-0.4,2.1-0.4c0.8,0,1.6,0.1,2.2,0.4c0.7,0.3,1.2,0.7,1.5,1.3s0.5,1.2,0.5,1.8
			c0,0.5-0.1,0.9-0.3,1.2c-0.2,0.4-0.4,0.7-0.7,0.9h3.9V267.9z M169.9,266.7c1,0,1.8-0.2,2.3-0.6c0.5-0.4,0.7-0.9,0.7-1.5
			c0-0.6-0.3-1.1-0.8-1.6c-0.5-0.4-1.3-0.6-2.4-0.6c-1,0-1.8,0.2-2.3,0.6c-0.5,0.4-0.8,0.9-0.8,1.5c0,0.6,0.3,1.1,0.8,1.5
			C168,266.5,168.8,266.7,169.9,266.7z"/>
	</g>
	<g class="st5">
		<path class="st4" d="M170.5,259.8h-1.4v-4.2h1.4V259.8z"/>
	</g>
	<g class="st5">
		<path class="st4" d="M173.8,249.2v1.4h-8.7c0.3,0.3,0.6,0.8,0.9,1.3c0.3,0.5,0.5,1,0.7,1.4h-1.3c-0.4-0.8-0.8-1.4-1.3-2
			c-0.5-0.6-1-1-1.5-1.2v-0.9H173.8z"/>
	</g>
	<g class="st5">
		<path class="st4" d="M171.3,245.7l-0.1-1.3c0.6-0.1,1.1-0.3,1.3-0.6c0.3-0.3,0.4-0.7,0.4-1.2c0-0.4-0.1-0.8-0.3-1.1
			c-0.2-0.3-0.4-0.6-0.8-0.8c-0.3-0.2-0.8-0.4-1.3-0.5c-0.5-0.1-1.1-0.2-1.7-0.2c-0.1,0-0.2,0-0.3,0c0.4,0.3,0.8,0.6,1.1,1.1
			c0.3,0.5,0.4,1,0.4,1.5c0,0.9-0.3,1.7-1,2.3c-0.7,0.6-1.5,1-2.6,1c-1.1,0-2-0.3-2.7-1c-0.7-0.7-1-1.5-1-2.5c0-0.7,0.2-1.4,0.6-2
			c0.4-0.6,0.9-1.1,1.7-1.4c0.7-0.3,1.8-0.5,3.1-0.5c1.4,0,2.5,0.2,3.4,0.5c0.8,0.3,1.5,0.8,1.9,1.4c0.4,0.6,0.7,1.3,0.7,2.1
			c0,0.9-0.2,1.6-0.7,2.1C172.8,245.3,172.2,245.6,171.3,245.7z M166.4,240.1c-0.8,0-1.4,0.2-1.9,0.6c-0.5,0.4-0.7,0.9-0.7,1.5
			c0,0.6,0.2,1.1,0.7,1.6c0.5,0.4,1.1,0.7,1.9,0.7c0.7,0,1.3-0.2,1.7-0.6c0.4-0.4,0.7-1,0.7-1.6c0-0.6-0.2-1.1-0.7-1.6
			S167.2,240.1,166.4,240.1z"/>
	</g>
</g>
<g>
	<g class="st5">
		<path class="st4" d="M201.6,286.5h-11.1v-3.8c0-0.9,0.1-1.5,0.2-2c0.1-0.6,0.4-1.2,0.8-1.6c0.5-0.6,1.1-1,1.9-1.3
			c0.8-0.3,1.6-0.4,2.6-0.4c0.8,0,1.6,0.1,2.2,0.3c0.7,0.2,1.2,0.4,1.6,0.8c0.4,0.3,0.8,0.6,1,1c0.2,0.4,0.4,0.8,0.6,1.3
			s0.2,1.1,0.2,1.8V286.5z M200.3,285.1v-2.4c0-0.7-0.1-1.3-0.2-1.7c-0.1-0.4-0.3-0.7-0.6-1c-0.3-0.3-0.8-0.6-1.4-0.8
			c-0.6-0.2-1.3-0.3-2.1-0.3c-1.2,0-2.1,0.2-2.7,0.6c-0.6,0.4-1,0.8-1.3,1.4c-0.2,0.4-0.2,1-0.2,1.9v2.3H200.3z"/>
		<path class="st4" d="M199,270l0.2-1.4c0.8,0.2,1.5,0.6,1.9,1.2s0.7,1.4,0.7,2.3c0,1.2-0.4,2.1-1.1,2.8c-0.7,0.7-1.7,1-3,1
			c-1.4,0-2.4-0.3-3.1-1c-0.7-0.7-1.1-1.6-1.1-2.7c0-1.1,0.4-2,1.1-2.6c0.7-0.7,1.8-1,3.1-1c0.1,0,0.2,0,0.4,0v6
			c0.9-0.1,1.6-0.3,2-0.7c0.5-0.4,0.7-1,0.7-1.7c0-0.5-0.1-0.9-0.4-1.3C200,270.5,199.6,270.2,199,270z M196.8,274.5V270
			c-0.7,0.1-1.2,0.2-1.5,0.5c-0.5,0.4-0.8,1-0.8,1.7c0,0.6,0.2,1.2,0.6,1.6C195.5,274.2,196.1,274.4,196.8,274.5z"/>
		<path class="st4" d="M198.6,261.6l0.2-1.3c0.9,0.1,1.6,0.5,2.2,1.1c0.5,0.6,0.8,1.3,0.8,2.2c0,1.1-0.4,2-1.1,2.7
			c-0.7,0.7-1.8,1-3.1,1c-0.9,0-1.6-0.1-2.3-0.4c-0.7-0.3-1.1-0.7-1.5-1.3s-0.5-1.2-0.5-1.9c0-0.9,0.2-1.6,0.7-2.1s1.1-0.9,1.9-1.1
			l0.2,1.3c-0.5,0.1-0.9,0.3-1.2,0.7s-0.4,0.7-0.4,1.2c0,0.7,0.2,1.2,0.7,1.7s1.3,0.6,2.3,0.6c1.1,0,1.9-0.2,2.4-0.6s0.7-1,0.7-1.6
			c0-0.5-0.2-1-0.5-1.3C199.8,262,199.3,261.7,198.6,261.6z"/>
	</g>
	<g class="st5">
		<path class="st4" d="M198.2,259.6h-1.4v-4.2h1.4V259.6z"/>
	</g>
	<g class="st5">
		<path class="st4" d="M201.6,249.1v1.4h-8.7c0.3,0.3,0.6,0.8,0.9,1.3c0.3,0.5,0.5,1,0.7,1.4h-1.3c-0.4-0.8-0.8-1.4-1.3-2
			c-0.5-0.6-1-1-1.5-1.2v-0.9H201.6z"/>
	</g>
	<g class="st5">
		<path class="st4" d="M199,245.7l-0.1-1.3c0.6-0.1,1.1-0.3,1.3-0.6c0.3-0.3,0.4-0.7,0.4-1.2c0-0.4-0.1-0.8-0.3-1.1
			c-0.2-0.3-0.4-0.6-0.8-0.8c-0.3-0.2-0.8-0.4-1.3-0.5c-0.5-0.1-1.1-0.2-1.7-0.2c-0.1,0-0.2,0-0.3,0c0.4,0.3,0.8,0.6,1.1,1.1
			c0.3,0.5,0.4,1,0.4,1.5c0,0.9-0.3,1.7-1,2.3c-0.7,0.6-1.5,1-2.6,1c-1.1,0-2-0.3-2.7-1c-0.7-0.7-1-1.5-1-2.5c0-0.7,0.2-1.4,0.6-2
			c0.4-0.6,0.9-1.1,1.7-1.4c0.7-0.3,1.8-0.5,3.1-0.5c1.4,0,2.5,0.2,3.4,0.5c0.8,0.3,1.5,0.8,1.9,1.4c0.4,0.6,0.7,1.3,0.7,2.1
			c0,0.9-0.2,1.6-0.7,2.1C200.5,245.2,199.9,245.6,199,245.7z M194.1,240.1c-0.8,0-1.4,0.2-1.9,0.6c-0.5,0.4-0.7,0.9-0.7,1.5
			c0,0.6,0.2,1.1,0.7,1.6c0.5,0.4,1.1,0.7,1.9,0.7c0.7,0,1.3-0.2,1.7-0.6c0.4-0.4,0.7-1,0.7-1.6c0-0.6-0.2-1.1-0.7-1.6
			S194.9,240.1,194.1,240.1z"/>
	</g>
</g>
<g>
	<g class="st5">
		<path class="st4" d="M229.2,285.9h-11.1v-2.2l7.9-2.6c0.7-0.2,1.3-0.4,1.6-0.5c-0.4-0.1-1-0.3-1.8-0.6l-7.7-2.7v-2h11.1v1.4h-9.3
			l9.3,3.2v1.3l-9.4,3.2h9.4V285.9z"/>
	</g>
	<g class="st5">
		<path class="st4" d="M228.2,267.7c0.4,0.5,0.7,1,0.9,1.5s0.3,1,0.3,1.5c0,0.9-0.2,1.6-0.6,2c-0.4,0.5-1,0.7-1.7,0.7
			c-0.4,0-0.8-0.1-1.1-0.3c-0.3-0.2-0.6-0.4-0.8-0.7c-0.2-0.3-0.3-0.6-0.4-1c-0.1-0.3-0.1-0.7-0.2-1.2c-0.1-1.1-0.3-1.9-0.5-2.4
			c-0.2,0-0.3,0-0.4,0c-0.6,0-0.9,0.1-1.2,0.4c-0.3,0.3-0.5,0.9-0.5,1.6c0,0.6,0.1,1.1,0.3,1.4c0.2,0.3,0.6,0.5,1.2,0.7l-0.2,1.3
			c-0.6-0.1-1-0.3-1.4-0.6s-0.6-0.7-0.8-1.2c-0.2-0.5-0.3-1.1-0.3-1.8c0-0.7,0.1-1.2,0.2-1.7c0.2-0.4,0.4-0.7,0.6-0.9
			s0.6-0.3,0.9-0.4c0.2,0,0.7-0.1,1.3-0.1h1.8c1.3,0,2.1,0,2.4-0.1c0.3-0.1,0.7-0.2,1-0.3v1.4C229,267.6,228.6,267.7,228.2,267.7z
			 M225.2,267.8c0.2,0.5,0.4,1.2,0.5,2.2c0.1,0.6,0.2,1,0.3,1.2c0.1,0.2,0.2,0.4,0.4,0.5c0.2,0.1,0.4,0.2,0.6,0.2
			c0.4,0,0.7-0.1,0.9-0.4s0.4-0.7,0.4-1.2c0-0.5-0.1-1-0.3-1.4s-0.5-0.7-0.9-0.9c-0.3-0.1-0.8-0.2-1.4-0.2H225.2z"/>
	</g>
	<g class="st5">
		<path class="st4" d="M229.2,264.6h-8v-1.2h1.2c-0.6-0.3-0.9-0.6-1.1-0.9c-0.2-0.3-0.3-0.6-0.3-0.9c0-0.5,0.1-0.9,0.4-1.4l1.3,0.5
			c-0.2,0.3-0.3,0.7-0.3,1c0,0.3,0.1,0.6,0.3,0.8c0.2,0.2,0.4,0.4,0.7,0.5c0.5,0.2,1,0.2,1.6,0.2h4.2V264.6z"/>
		<path class="st4" d="M225.9,259.9h-1.4v-4.2h1.4V259.9z"/>
	</g>
	<g class="st5">
		<path class="st4" d="M227.9,247.4h1.3v7.3c-0.3,0-0.6,0-0.9-0.2c-0.5-0.2-1-0.5-1.5-0.9c-0.5-0.4-1-1-1.7-1.8
			c-1-1.2-1.8-2-2.3-2.4s-1.1-0.6-1.6-0.6c-0.5,0-1,0.2-1.4,0.6c-0.4,0.4-0.6,0.9-0.6,1.5c0,0.7,0.2,1.2,0.6,1.6s0.9,0.6,1.6,0.6
			l-0.1,1.4c-1-0.1-1.8-0.5-2.4-1.1c-0.5-0.6-0.8-1.5-0.8-2.5c0-1.1,0.3-1.9,0.9-2.5c0.6-0.6,1.3-0.9,2.2-0.9c0.4,0,0.9,0.1,1.3,0.3
			s0.9,0.5,1.4,0.9s1.1,1.1,2,2.1c0.7,0.8,1.2,1.3,1.4,1.6c0.2,0.2,0.5,0.4,0.7,0.6V247.4z"/>
	</g>
	<g class="st5">
		<path class="st4" d="M223.8,245.9c-1.3,0-2.4-0.1-3.2-0.4c-0.8-0.3-1.4-0.7-1.9-1.2c-0.4-0.5-0.7-1.2-0.7-2c0-0.6,0.1-1.1,0.4-1.6
			c0.2-0.4,0.6-0.8,1-1.1c0.5-0.3,1-0.5,1.7-0.7c0.6-0.2,1.5-0.2,2.6-0.2c1.3,0,2.4,0.1,3.2,0.4s1.4,0.7,1.9,1.2
			c0.4,0.5,0.7,1.2,0.7,2c0,1.1-0.4,1.9-1.2,2.5C227.4,245.5,225.8,245.9,223.8,245.9z M223.8,244.5c1.8,0,3-0.2,3.6-0.6
			c0.6-0.4,0.9-1,0.9-1.6c0-0.6-0.3-1.2-0.9-1.6c-0.6-0.4-1.8-0.6-3.6-0.6c-1.8,0-3,0.2-3.6,0.6c-0.6,0.4-0.9,1-0.9,1.6
			c0,0.6,0.3,1.1,0.8,1.5C220.7,244.2,221.9,244.5,223.8,244.5z"/>
	</g>
</g>
<g>
	<g class="st5">
		<path class="st4" d="M253.8,284.7l-0.2-1.3c0.8,0,1.4-0.2,1.7-0.5c0.3-0.3,0.5-0.7,0.5-1.2c0-0.4-0.1-0.7-0.3-1s-0.4-0.5-0.7-0.6
			c-0.3-0.1-0.8-0.2-1.4-0.2h-7.6v-1.5h7.6c0.9,0,1.6,0.1,2.2,0.3c0.5,0.2,0.9,0.6,1.2,1.1c0.3,0.5,0.4,1.1,0.4,1.7
			c0,1-0.3,1.7-0.8,2.2C255.7,284.5,254.9,284.8,253.8,284.7z"/>
	</g>
	<g class="st5">
		<path class="st4" d="M256.9,271.1h-1.2c0.9,0.6,1.4,1.5,1.4,2.6c0,0.5-0.1,0.9-0.3,1.3c-0.2,0.4-0.4,0.7-0.7,0.9
			c-0.3,0.2-0.6,0.3-1,0.4c-0.3,0.1-0.7,0.1-1.3,0.1h-5V275h4.5c0.7,0,1.2,0,1.4-0.1c0.4-0.1,0.6-0.3,0.8-0.5s0.3-0.6,0.3-1
			c0-0.4-0.1-0.8-0.3-1.2c-0.2-0.4-0.5-0.6-0.9-0.8c-0.4-0.1-0.9-0.2-1.6-0.2h-4.3v-1.4h8V271.1z"/>
		<path class="st4" d="M256.9,267.7h-8v-1.2h1.1c-0.9-0.6-1.3-1.4-1.3-2.6c0-0.5,0.1-0.9,0.3-1.3c0.2-0.4,0.4-0.7,0.7-0.9
			s0.6-0.3,1-0.4c0.3,0,0.7-0.1,1.3-0.1h4.9v1.4H252c-0.6,0-1,0.1-1.2,0.2c-0.3,0.1-0.5,0.3-0.7,0.6s-0.2,0.6-0.2,1
			c0,0.6,0.2,1.1,0.6,1.5s1.1,0.6,2.1,0.6h4.4V267.7z"/>
	</g>
	<g class="st5">
		<path class="st4" d="M253.6,259.6h-1.4v-4.2h1.4V259.6z"/>
	</g>
	<g class="st5">
		<path class="st4" d="M255.6,247.4h1.3v7.3c-0.3,0-0.6,0-0.9-0.2c-0.5-0.2-1-0.5-1.5-0.9c-0.5-0.4-1-1-1.7-1.8
			c-1-1.2-1.8-2-2.3-2.4s-1.1-0.6-1.6-0.6c-0.5,0-1,0.2-1.4,0.6c-0.4,0.4-0.6,0.9-0.6,1.5c0,0.7,0.2,1.2,0.6,1.6s0.9,0.6,1.6,0.6
			l-0.1,1.4c-1-0.1-1.8-0.5-2.4-1.1c-0.5-0.6-0.8-1.5-0.8-2.5c0-1.1,0.3-1.9,0.9-2.5c0.6-0.6,1.3-0.9,2.2-0.9c0.4,0,0.9,0.1,1.3,0.3
			s0.9,0.5,1.4,0.9s1.1,1.1,2,2.1c0.7,0.8,1.2,1.3,1.4,1.6c0.2,0.2,0.5,0.4,0.7,0.6V247.4z"/>
	</g>
	<g class="st5">
		<path class="st4" d="M251.5,245.8c-1.3,0-2.4-0.1-3.2-0.4c-0.8-0.3-1.4-0.7-1.9-1.2c-0.4-0.5-0.7-1.2-0.7-2c0-0.6,0.1-1.1,0.4-1.6
			c0.2-0.4,0.6-0.8,1-1.1c0.5-0.3,1-0.5,1.7-0.7c0.6-0.2,1.5-0.2,2.6-0.2c1.3,0,2.4,0.1,3.2,0.4s1.4,0.7,1.9,1.2
			c0.4,0.5,0.7,1.2,0.7,2c0,1.1-0.4,1.9-1.2,2.5C255,245.5,253.5,245.8,251.5,245.8z M251.5,244.4c1.8,0,3-0.2,3.6-0.6
			c0.6-0.4,0.9-1,0.9-1.6c0-0.6-0.3-1.2-0.9-1.6c-0.6-0.4-1.8-0.6-3.6-0.6c-1.8,0-3,0.2-3.6,0.6c-0.6,0.4-0.9,1-0.9,1.6
			c0,0.6,0.3,1.1,0.8,1.5C248.4,244.2,249.6,244.4,251.5,244.4z"/>
	</g>
</g>
<g>
	<g class="st5">
		<path class="st4" d="M281.1,287.1l-0.1-1.4c0.6-0.1,1-0.2,1.4-0.5s0.6-0.6,0.9-1.1c0.2-0.5,0.3-1.1,0.3-1.7c0-0.6-0.1-1.1-0.2-1.5
			c-0.2-0.4-0.4-0.7-0.7-1c-0.3-0.2-0.6-0.3-1-0.3c-0.3,0-0.7,0.1-0.9,0.3c-0.3,0.2-0.5,0.5-0.7,1c-0.1,0.3-0.3,1-0.5,2
			c-0.2,1-0.5,1.7-0.7,2.1c-0.3,0.5-0.6,0.9-1,1.2c-0.4,0.3-0.9,0.4-1.4,0.4c-0.6,0-1.1-0.2-1.6-0.5c-0.5-0.3-0.9-0.8-1.1-1.4
			c-0.3-0.6-0.4-1.3-0.4-2c0-0.8,0.1-1.5,0.4-2.2c0.3-0.6,0.7-1.1,1.2-1.4c0.5-0.3,1.1-0.5,1.7-0.5l0.1,1.4
			c-0.7,0.1-1.2,0.3-1.6,0.8c-0.4,0.4-0.5,1.1-0.5,1.9c0,0.9,0.2,1.5,0.5,1.9c0.3,0.4,0.7,0.6,1.2,0.6c0.4,0,0.7-0.1,1-0.4
			c0.3-0.3,0.5-1,0.8-2.2s0.5-2,0.7-2.5c0.3-0.6,0.7-1.1,1.1-1.4c0.5-0.3,1-0.5,1.6-0.5c0.6,0,1.1,0.2,1.7,0.5
			c0.5,0.3,0.9,0.8,1.2,1.5c0.3,0.6,0.4,1.3,0.4,2.1c0,1-0.1,1.8-0.4,2.5c-0.3,0.7-0.7,1.2-1.3,1.6
			C282.5,286.8,281.8,287,281.1,287.1z"/>
	</g>
	<g class="st5">
		<path class="st4" d="M282.1,271l0.2-1.4c0.8,0.2,1.5,0.6,1.9,1.2c0.5,0.6,0.7,1.4,0.7,2.3c0,1.2-0.4,2.1-1.1,2.8
			c-0.7,0.7-1.7,1-3,1c-1.4,0-2.4-0.3-3.1-1s-1.1-1.6-1.1-2.7c0-1.1,0.4-2,1.1-2.6c0.7-0.7,1.8-1,3.1-1c0.1,0,0.2,0,0.4,0v6
			c0.9-0.1,1.6-0.3,2-0.7s0.7-1,0.7-1.7c0-0.5-0.1-0.9-0.4-1.3C283.1,271.5,282.6,271.2,282.1,271z M279.9,275.5V271
			c-0.7,0.1-1.2,0.2-1.5,0.5c-0.5,0.4-0.8,1-0.8,1.7c0,0.6,0.2,1.2,0.6,1.6C278.6,275.2,279.2,275.5,279.9,275.5z"/>
		<path class="st4" d="M287.7,267.9h-11.1v-1.2h1c-0.4-0.3-0.7-0.6-0.9-1c-0.2-0.4-0.3-0.8-0.3-1.3c0-0.7,0.2-1.3,0.5-1.8
			c0.4-0.5,0.9-0.9,1.5-1.2s1.3-0.4,2.1-0.4c0.8,0,1.6,0.1,2.2,0.4c0.7,0.3,1.2,0.7,1.5,1.3c0.4,0.6,0.5,1.2,0.5,1.8
			c0,0.5-0.1,0.9-0.3,1.2c-0.2,0.4-0.4,0.7-0.7,0.9h3.9V267.9z M280.7,266.7c1,0,1.8-0.2,2.3-0.6c0.5-0.4,0.7-0.9,0.7-1.5
			c0-0.6-0.3-1.1-0.8-1.6s-1.3-0.6-2.4-0.6c-1,0-1.8,0.2-2.3,0.6c-0.5,0.4-0.8,0.9-0.8,1.5c0,0.6,0.3,1.1,0.8,1.5
			C278.9,266.5,279.6,266.7,280.7,266.7z"/>
	</g>
	<g class="st5">
		<path class="st4" d="M281.3,259.8h-1.4v-4.2h1.4V259.8z"/>
	</g>
	<g class="st5">
		<path class="st4" d="M283.3,247.2h1.3v7.3c-0.3,0-0.6,0-0.9-0.2c-0.5-0.2-1-0.5-1.5-0.9c-0.5-0.4-1-1-1.7-1.8
			c-1-1.2-1.8-2-2.3-2.4s-1.1-0.6-1.6-0.6c-0.5,0-1,0.2-1.4,0.6c-0.4,0.4-0.6,0.9-0.6,1.5c0,0.7,0.2,1.2,0.6,1.6
			c0.4,0.4,0.9,0.6,1.6,0.6l-0.1,1.4c-1-0.1-1.8-0.5-2.4-1.1c-0.5-0.6-0.8-1.5-0.8-2.5c0-1.1,0.3-1.9,0.9-2.5s1.3-0.9,2.2-0.9
			c0.4,0,0.9,0.1,1.3,0.3c0.4,0.2,0.9,0.5,1.4,0.9s1.1,1.1,2,2.1c0.7,0.8,1.2,1.3,1.4,1.6c0.2,0.2,0.5,0.4,0.7,0.6V247.2z"/>
	</g>
	<g class="st5">
		<path class="st4" d="M279.2,245.9c-1.3,0-2.4-0.1-3.2-0.4c-0.8-0.3-1.4-0.7-1.8-1.2c-0.4-0.5-0.7-1.2-0.7-2c0-0.6,0.1-1.1,0.4-1.6
			c0.2-0.4,0.6-0.8,1-1.1c0.5-0.3,1-0.5,1.7-0.7c0.6-0.2,1.5-0.2,2.6-0.2c1.3,0,2.4,0.1,3.2,0.4c0.8,0.3,1.4,0.7,1.9,1.2
			c0.4,0.5,0.7,1.2,0.7,2c0,1.1-0.4,1.9-1.2,2.5C282.8,245.5,281.3,245.9,279.2,245.9z M279.2,244.5c1.8,0,3-0.2,3.6-0.6
			c0.6-0.4,0.9-1,0.9-1.6c0-0.6-0.3-1.2-0.9-1.6c-0.6-0.4-1.8-0.6-3.6-0.6c-1.8,0-3,0.2-3.6,0.6c-0.6,0.4-0.9,1-0.9,1.6
			c0,0.6,0.3,1.1,0.8,1.5C276.1,244.3,277.4,244.5,279.2,244.5z"/>
	</g>
</g>
<g>
	<g class="st5">
		<path class="st4" d="M312.4,286.6h-11.1v-3.8c0-0.9,0.1-1.5,0.2-2c0.1-0.6,0.4-1.2,0.8-1.6c0.5-0.6,1.1-1,1.9-1.3
			c0.8-0.3,1.6-0.4,2.6-0.4c0.8,0,1.6,0.1,2.2,0.3c0.7,0.2,1.2,0.4,1.6,0.8c0.4,0.3,0.8,0.6,1,1s0.4,0.8,0.6,1.3
			c0.1,0.5,0.2,1.1,0.2,1.8V286.6z M311.1,285.1v-2.4c0-0.7-0.1-1.3-0.2-1.7c-0.1-0.4-0.3-0.7-0.6-1c-0.3-0.3-0.8-0.6-1.4-0.8
			c-0.6-0.2-1.3-0.3-2.1-0.3c-1.2,0-2.1,0.2-2.7,0.6s-1,0.8-1.3,1.4c-0.2,0.4-0.2,1-0.2,1.9v2.3H311.1z"/>
		<path class="st4" d="M309.8,270.1l0.2-1.4c0.8,0.2,1.5,0.6,1.9,1.2c0.5,0.6,0.7,1.4,0.7,2.3c0,1.2-0.4,2.1-1.1,2.8
			c-0.7,0.7-1.7,1-3,1c-1.4,0-2.4-0.3-3.1-1s-1.1-1.6-1.1-2.7c0-1.1,0.4-2,1.1-2.6c0.7-0.7,1.8-1,3.1-1c0.1,0,0.2,0,0.4,0v6
			c0.9,0,1.6-0.3,2-0.7s0.7-1,0.7-1.7c0-0.5-0.1-0.9-0.4-1.3C310.8,270.6,310.4,270.3,309.8,270.1z M307.6,274.6v-4.5
			c-0.7,0.1-1.2,0.2-1.5,0.5c-0.5,0.4-0.8,1-0.8,1.7c0,0.6,0.2,1.2,0.6,1.6C306.3,274.3,306.9,274.5,307.6,274.6z"/>
		<path class="st4" d="M309.4,261.7l0.2-1.3c0.9,0.1,1.6,0.5,2.2,1.1c0.5,0.6,0.8,1.3,0.8,2.2c0,1.1-0.4,2-1.1,2.7
			c-0.7,0.7-1.8,1-3.1,1c-0.9,0-1.6-0.1-2.3-0.4c-0.7-0.3-1.1-0.7-1.5-1.3c-0.3-0.6-0.5-1.2-0.5-1.9c0-0.9,0.2-1.6,0.7-2.1
			s1.1-0.9,1.9-1.1l0.2,1.3c-0.5,0.1-0.9,0.3-1.2,0.7c-0.3,0.3-0.4,0.7-0.4,1.2c0,0.7,0.2,1.2,0.7,1.7s1.3,0.6,2.3,0.6
			c1.1,0,1.9-0.2,2.4-0.6c0.5-0.4,0.7-1,0.7-1.6c0-0.5-0.2-1-0.5-1.3C310.6,262,310.1,261.8,309.4,261.7z"/>
	</g>
	<g class="st5">
		<path class="st4" d="M309,259.7h-1.4v-4.2h1.4V259.7z"/>
	</g>
	<g class="st5">
		<path class="st4" d="M311.1,247.2h1.3v7.3c-0.3,0-0.6,0-0.9-0.2c-0.5-0.2-1-0.5-1.5-0.9c-0.5-0.4-1-1-1.7-1.8
			c-1-1.2-1.8-2-2.3-2.4s-1.1-0.6-1.6-0.6c-0.5,0-1,0.2-1.4,0.6c-0.4,0.4-0.6,0.9-0.6,1.5c0,0.7,0.2,1.2,0.6,1.6
			c0.4,0.4,0.9,0.6,1.6,0.6l-0.1,1.4c-1-0.1-1.8-0.5-2.4-1.1c-0.5-0.6-0.8-1.5-0.8-2.5c0-1.1,0.3-1.9,0.9-2.5s1.3-0.9,2.2-0.9
			c0.4,0,0.9,0.1,1.3,0.3c0.4,0.2,0.9,0.5,1.4,0.9s1.1,1.1,2,2.1c0.7,0.8,1.2,1.3,1.4,1.6c0.2,0.2,0.5,0.4,0.7,0.6V247.2z"/>
	</g>
	<g class="st5">
		<path class="st4" d="M306.9,246c-1.3,0-2.4-0.1-3.2-0.4c-0.8-0.3-1.4-0.7-1.8-1.2c-0.4-0.5-0.7-1.2-0.7-2c0-0.6,0.1-1.1,0.4-1.6
			c0.2-0.4,0.6-0.8,1-1.1c0.5-0.3,1-0.5,1.7-0.7c0.6-0.2,1.5-0.2,2.6-0.2c1.3,0,2.4,0.1,3.2,0.4c0.8,0.3,1.4,0.7,1.9,1.2
			c0.4,0.5,0.7,1.2,0.7,2c0,1.1-0.4,1.9-1.2,2.5C310.5,245.6,309,246,306.9,246z M306.9,244.6c1.8,0,3-0.2,3.6-0.6
			c0.6-0.4,0.9-1,0.9-1.6c0-0.6-0.3-1.2-0.9-1.6c-0.6-0.4-1.8-0.6-3.6-0.6c-1.8,0-3,0.2-3.6,0.6c-0.6,0.4-0.9,1-0.9,1.6
			c0,0.6,0.3,1.1,0.8,1.5C303.8,244.3,305.1,244.6,306.9,244.6z"/>
	</g>
</g>
<g>
	<g class="st5">
		<path class="st4" d="M340.1,285.9H329v-2.2l7.9-2.6c0.7-0.2,1.3-0.4,1.6-0.5c-0.4-0.1-1-0.3-1.8-0.6l-7.7-2.7v-2h11.1v1.4h-9.3
			l9.3,3.2v1.3l-9.4,3.2h9.4V285.9z"/>
	</g>
	<g class="st5">
		<path class="st4" d="M339.1,267.8c0.4,0.5,0.7,1,0.9,1.5c0.2,0.5,0.3,1,0.3,1.5c0,0.9-0.2,1.6-0.6,2s-1,0.7-1.7,0.7
			c-0.4,0-0.8-0.1-1.1-0.3c-0.3-0.2-0.6-0.4-0.8-0.7c-0.2-0.3-0.3-0.6-0.4-1c-0.1-0.3-0.1-0.7-0.2-1.2c-0.1-1.1-0.3-1.9-0.5-2.4
			c-0.2,0-0.3,0-0.4,0c-0.6,0-0.9,0.1-1.2,0.4c-0.3,0.3-0.5,0.9-0.5,1.6c0,0.6,0.1,1.1,0.3,1.4c0.2,0.3,0.6,0.5,1.2,0.7l-0.2,1.3
			c-0.6-0.1-1-0.3-1.4-0.6c-0.4-0.3-0.6-0.7-0.8-1.2c-0.2-0.5-0.3-1.1-0.3-1.8c0-0.7,0.1-1.2,0.2-1.7s0.4-0.7,0.6-0.9
			c0.2-0.2,0.6-0.3,0.9-0.4c0.2,0,0.7-0.1,1.3-0.1h1.8c1.3,0,2.1,0,2.4-0.1c0.3-0.1,0.7-0.2,1-0.3v1.4
			C339.8,267.7,339.5,267.8,339.1,267.8z M336.1,267.9c0.2,0.5,0.4,1.2,0.5,2.2c0.1,0.6,0.2,1,0.3,1.2c0.1,0.2,0.2,0.4,0.4,0.5
			c0.2,0.1,0.4,0.2,0.6,0.2c0.4,0,0.7-0.1,0.9-0.4s0.4-0.7,0.4-1.2c0-0.5-0.1-1-0.3-1.4c-0.2-0.4-0.5-0.7-0.9-0.9
			c-0.3-0.1-0.8-0.2-1.4-0.2H336.1z"/>
	</g>
	<g class="st5">
		<path class="st4" d="M340.1,264.7h-8v-1.2h1.2c-0.6-0.3-0.9-0.6-1.1-0.9c-0.2-0.3-0.3-0.6-0.3-0.9c0-0.5,0.1-0.9,0.4-1.4l1.3,0.5
			c-0.2,0.3-0.3,0.7-0.3,1c0,0.3,0.1,0.6,0.3,0.8c0.2,0.2,0.4,0.4,0.7,0.5c0.5,0.2,1,0.2,1.6,0.2h4.2V264.7z"/>
		<path class="st4" d="M336.8,260h-1.4v-4.2h1.4V260z"/>
	</g>
	<g class="st5">
		<path class="st4" d="M338.8,247.5h1.3v7.3c-0.3,0-0.6,0-0.9-0.2c-0.5-0.2-1-0.5-1.5-0.9c-0.5-0.4-1-1-1.7-1.8
			c-1-1.2-1.8-2-2.3-2.4s-1.1-0.6-1.6-0.6c-0.5,0-1,0.2-1.4,0.6c-0.4,0.4-0.6,0.9-0.6,1.5c0,0.7,0.2,1.2,0.6,1.6
			c0.4,0.4,0.9,0.6,1.6,0.6l-0.1,1.4c-1-0.1-1.8-0.5-2.4-1.1c-0.5-0.6-0.8-1.5-0.8-2.5c0-1.1,0.3-1.9,0.9-2.5
			c0.6-0.6,1.3-0.9,2.2-0.9c0.4,0,0.9,0.1,1.3,0.3c0.4,0.2,0.9,0.5,1.4,0.9s1.1,1.1,2,2.1c0.7,0.8,1.2,1.3,1.4,1.6s0.5,0.4,0.7,0.6
			V247.5z"/>
	</g>
	<g class="st5">
		<path class="st4" d="M340.1,240.8v1.4h-8.7c0.3,0.3,0.6,0.8,0.9,1.3s0.5,1,0.7,1.4h-1.3c-0.4-0.8-0.8-1.4-1.3-2
			c-0.5-0.6-1-1-1.5-1.2v-0.9H340.1z"/>
	</g>
</g>
<g>
	<g class="st5">
		<path class="st4" d="M364.6,284.8l-0.2-1.3c0.8,0,1.4-0.2,1.7-0.5c0.3-0.3,0.5-0.7,0.5-1.2c0-0.4-0.1-0.7-0.3-1s-0.4-0.5-0.7-0.6
			c-0.3-0.1-0.8-0.2-1.4-0.2h-7.6v-1.5h7.6c0.9,0,1.6,0.1,2.2,0.3c0.5,0.2,0.9,0.6,1.2,1.1c0.3,0.5,0.4,1.1,0.4,1.7
			c0,1-0.3,1.7-0.8,2.2C366.5,284.6,365.7,284.8,364.6,284.8z"/>
	</g>
	<g class="st5">
		<path class="st4" d="M367.7,271.2h-1.2c0.9,0.6,1.4,1.5,1.4,2.6c0,0.5-0.1,0.9-0.3,1.3c-0.2,0.4-0.4,0.7-0.7,0.9
			c-0.3,0.2-0.6,0.3-1,0.4c-0.3,0.1-0.7,0.1-1.3,0.1h-5v-1.4h4.5c0.7,0,1.2,0,1.4-0.1c0.4-0.1,0.6-0.3,0.8-0.5s0.3-0.6,0.3-1
			c0-0.4-0.1-0.8-0.3-1.2c-0.2-0.4-0.5-0.6-0.9-0.8c-0.4-0.1-0.9-0.2-1.6-0.2h-4.3V270h8V271.2z"/>
		<path class="st4" d="M367.7,267.8h-8v-1.2h1.1c-0.9-0.6-1.3-1.4-1.3-2.6c0-0.5,0.1-0.9,0.3-1.3c0.2-0.4,0.4-0.7,0.7-0.9
			c0.3-0.2,0.6-0.3,1-0.4c0.3-0.1,0.7-0.1,1.3-0.1h4.9v1.4h-4.9c-0.6,0-1,0.1-1.2,0.2c-0.3,0.1-0.5,0.3-0.7,0.6s-0.2,0.6-0.2,0.9
			c0,0.6,0.2,1.1,0.6,1.5s1.1,0.6,2.1,0.6h4.4V267.8z"/>
	</g>
	<g class="st5">
		<path class="st4" d="M364.4,259.7H363v-4.2h1.4V259.7z"/>
	</g>
	<g class="st5">
		<path class="st4" d="M366.4,247.5h1.3v7.3c-0.3,0-0.6,0-0.9-0.2c-0.5-0.2-1-0.5-1.5-0.9c-0.5-0.4-1-1-1.7-1.8
			c-1-1.2-1.8-2-2.3-2.4s-1.1-0.6-1.6-0.6c-0.5,0-1,0.2-1.4,0.6c-0.4,0.4-0.6,0.9-0.6,1.5c0,0.7,0.2,1.2,0.6,1.6s0.9,0.6,1.6,0.6
			l-0.1,1.4c-1-0.1-1.8-0.5-2.4-1.1c-0.5-0.6-0.8-1.5-0.8-2.5c0-1.1,0.3-1.9,0.9-2.5c0.6-0.6,1.3-0.9,2.2-0.9c0.4,0,0.9,0.1,1.3,0.3
			s0.9,0.5,1.4,0.9s1.1,1.1,2,2.1c0.7,0.8,1.2,1.3,1.4,1.6c0.2,0.2,0.5,0.4,0.7,0.6V247.5z"/>
	</g>
	<g class="st5">
		<path class="st4" d="M367.7,240.8v1.4H359c0.3,0.3,0.6,0.8,0.9,1.3c0.3,0.5,0.5,1,0.7,1.4h-1.3c-0.4-0.8-0.8-1.4-1.3-2
			c-0.5-0.6-1-1-1.5-1.2v-0.9H367.7z"/>
	</g>
</g>
<g>
	<g class="st5">
		<path class="st4" d="M391.9,287.1l-0.1-1.4c0.6-0.1,1-0.2,1.4-0.5c0.4-0.2,0.6-0.6,0.9-1.1c0.2-0.5,0.3-1.1,0.3-1.7
			c0-0.6-0.1-1.1-0.2-1.5c-0.2-0.4-0.4-0.7-0.7-1s-0.6-0.3-1-0.3c-0.3,0-0.7,0.1-0.9,0.3c-0.3,0.2-0.5,0.5-0.7,1
			c-0.1,0.3-0.3,1-0.5,2c-0.2,1-0.5,1.7-0.7,2.1c-0.3,0.5-0.6,0.9-1,1.2s-0.9,0.4-1.4,0.4c-0.6,0-1.1-0.2-1.6-0.5
			c-0.5-0.3-0.9-0.8-1.1-1.4c-0.3-0.6-0.4-1.3-0.4-2c0-0.8,0.1-1.5,0.4-2.2c0.3-0.6,0.7-1.1,1.2-1.4s1.1-0.5,1.7-0.5l0.1,1.4
			c-0.7,0.1-1.2,0.3-1.6,0.8c-0.4,0.4-0.5,1.1-0.5,1.9c0,0.9,0.2,1.5,0.5,1.9c0.3,0.4,0.7,0.6,1.2,0.6c0.4,0,0.7-0.1,1-0.4
			c0.3-0.3,0.5-1,0.8-2.2c0.3-1.2,0.5-2,0.7-2.5c0.3-0.6,0.7-1.1,1.1-1.4c0.5-0.3,1-0.5,1.6-0.5c0.6,0,1.1,0.2,1.7,0.5
			c0.5,0.3,0.9,0.8,1.2,1.5c0.3,0.6,0.4,1.3,0.4,2.1c0,1-0.1,1.8-0.4,2.5c-0.3,0.7-0.7,1.2-1.3,1.6
			C393.3,286.8,392.6,287,391.9,287.1z"/>
	</g>
	<g class="st5">
		<path class="st4" d="M392.9,271l0.2-1.4c0.8,0.2,1.5,0.6,1.9,1.2s0.7,1.4,0.7,2.3c0,1.2-0.4,2.1-1.1,2.8c-0.7,0.7-1.7,1-3,1
			c-1.4,0-2.4-0.3-3.1-1c-0.7-0.7-1.1-1.6-1.1-2.7c0-1.1,0.4-2,1.1-2.6c0.7-0.7,1.8-1,3.1-1c0.1,0,0.2,0,0.4,0v6
			c0.9,0,1.6-0.3,2-0.7c0.5-0.4,0.7-1,0.7-1.7c0-0.5-0.1-0.9-0.4-1.3C393.9,271.5,393.4,271.2,392.9,271z M390.7,275.5V271
			c-0.7,0.1-1.2,0.2-1.5,0.5c-0.5,0.4-0.8,1-0.8,1.7c0,0.6,0.2,1.2,0.6,1.6C389.4,275.2,390,275.5,390.7,275.5z"/>
		<path class="st4" d="M398.5,267.9h-11.1v-1.2h1c-0.4-0.3-0.7-0.6-0.9-1c-0.2-0.4-0.3-0.8-0.3-1.3c0-0.7,0.2-1.3,0.5-1.8
			c0.4-0.5,0.9-0.9,1.5-1.2c0.6-0.3,1.3-0.4,2.1-0.4c0.8,0,1.6,0.1,2.2,0.4c0.7,0.3,1.2,0.7,1.5,1.3s0.5,1.2,0.5,1.8
			c0,0.5-0.1,0.9-0.3,1.2c-0.2,0.4-0.4,0.7-0.7,0.9h3.9V267.9z M391.5,266.7c1,0,1.8-0.2,2.3-0.6c0.5-0.4,0.7-0.9,0.7-1.5
			c0-0.6-0.3-1.1-0.8-1.6c-0.5-0.4-1.3-0.6-2.4-0.6c-1,0-1.8,0.2-2.3,0.6c-0.5,0.4-0.8,0.9-0.8,1.5c0,0.6,0.3,1.1,0.8,1.5
			C389.7,266.5,390.4,266.7,391.5,266.7z"/>
	</g>
	<g class="st5">
		<path class="st4" d="M392.1,259.8h-1.4v-4.2h1.4V259.8z"/>
	</g>
	<g class="st5">
		<path class="st4" d="M394.1,247.2h1.3v7.3c-0.3,0-0.6,0-0.9-0.2c-0.5-0.2-1-0.5-1.5-0.9c-0.5-0.4-1-1-1.7-1.8
			c-1-1.2-1.8-2-2.3-2.4s-1.1-0.6-1.6-0.6c-0.5,0-1,0.2-1.4,0.6c-0.4,0.4-0.6,0.9-0.6,1.5c0,0.7,0.2,1.2,0.6,1.6s0.9,0.6,1.6,0.6
			l-0.1,1.4c-1-0.1-1.8-0.5-2.4-1.1c-0.5-0.6-0.8-1.5-0.8-2.5c0-1.1,0.3-1.9,0.9-2.5c0.6-0.6,1.3-0.9,2.2-0.9c0.4,0,0.9,0.1,1.3,0.3
			s0.9,0.5,1.4,0.9s1.1,1.1,2,2.1c0.7,0.8,1.2,1.3,1.4,1.6c0.2,0.2,0.5,0.4,0.7,0.6V247.2z"/>
	</g>
	<g class="st5">
		<path class="st4" d="M395.5,240.8v1.4h-8.7c0.3,0.3,0.6,0.8,0.9,1.3c0.3,0.5,0.5,1,0.7,1.4h-1.3c-0.4-0.8-0.8-1.4-1.3-2
			c-0.5-0.6-1-1-1.5-1.2v-0.9H395.5z"/>
	</g>
</g>
<g>
	<g class="st5">
		<path class="st4" d="M423.2,286.6h-11.1v-3.8c0-0.9,0.1-1.5,0.2-2c0.1-0.6,0.4-1.2,0.8-1.6c0.5-0.6,1.1-1,1.9-1.3
			c0.8-0.3,1.6-0.4,2.6-0.4c0.8,0,1.6,0.1,2.2,0.3c0.7,0.2,1.2,0.4,1.6,0.8c0.4,0.3,0.8,0.6,1,1s0.4,0.8,0.6,1.3
			c0.1,0.5,0.2,1.1,0.2,1.8V286.6z M421.9,285.1v-2.4c0-0.7-0.1-1.3-0.2-1.7c-0.1-0.4-0.3-0.7-0.6-1c-0.3-0.3-0.8-0.6-1.4-0.8
			c-0.6-0.2-1.3-0.3-2.1-0.3c-1.2,0-2.1,0.2-2.7,0.6s-1,0.8-1.3,1.4c-0.2,0.4-0.2,1-0.2,1.9v2.3H421.9z"/>
		<path class="st4" d="M420.6,270.1l0.2-1.4c0.8,0.2,1.5,0.6,1.9,1.2c0.5,0.6,0.7,1.4,0.7,2.3c0,1.2-0.4,2.1-1.1,2.8
			c-0.7,0.7-1.7,1-3,1c-1.4,0-2.4-0.3-3.1-1s-1.1-1.6-1.1-2.7c0-1.1,0.4-2,1.1-2.6c0.7-0.7,1.8-1,3.1-1c0.1,0,0.2,0,0.4,0v6
			c0.9,0,1.6-0.3,2-0.7s0.7-1,0.7-1.7c0-0.5-0.1-0.9-0.4-1.3C421.6,270.6,421.2,270.3,420.6,270.1z M418.4,274.6v-4.5
			c-0.7,0.1-1.2,0.2-1.5,0.5c-0.5,0.4-0.8,1-0.8,1.7c0,0.6,0.2,1.2,0.6,1.6C417.1,274.3,417.7,274.5,418.4,274.6z"/>
		<path class="st4" d="M420.2,261.7l0.2-1.3c0.9,0.1,1.6,0.5,2.2,1.1c0.5,0.6,0.8,1.3,0.8,2.2c0,1.1-0.4,2-1.1,2.7
			c-0.7,0.7-1.8,1-3.1,1c-0.9,0-1.6-0.1-2.3-0.4c-0.7-0.3-1.1-0.7-1.5-1.3c-0.3-0.6-0.5-1.2-0.5-1.9c0-0.9,0.2-1.6,0.7-2.1
			s1.1-0.9,1.9-1.1l0.2,1.3c-0.5,0.1-0.9,0.3-1.2,0.7c-0.3,0.3-0.4,0.7-0.4,1.2c0,0.7,0.2,1.2,0.7,1.7s1.3,0.6,2.3,0.6
			c1.1,0,1.9-0.2,2.4-0.6c0.5-0.4,0.7-1,0.7-1.6c0-0.5-0.2-1-0.5-1.3C421.4,262,420.9,261.8,420.2,261.7z"/>
	</g>
	<g class="st5">
		<path class="st4" d="M419.8,259.7h-1.4v-4.2h1.4V259.7z"/>
	</g>
	<g class="st5">
		<path class="st4" d="M421.9,247.2h1.3v7.3c-0.3,0-0.6,0-0.9-0.2c-0.5-0.2-1-0.5-1.5-0.9c-0.5-0.4-1-1-1.7-1.8
			c-1-1.2-1.8-2-2.3-2.4s-1.1-0.6-1.6-0.6c-0.5,0-1,0.2-1.4,0.6c-0.4,0.4-0.6,0.9-0.6,1.5c0,0.7,0.2,1.2,0.6,1.6
			c0.4,0.4,0.9,0.6,1.6,0.6l-0.1,1.4c-1-0.1-1.8-0.5-2.4-1.1c-0.5-0.6-0.8-1.5-0.8-2.5c0-1.1,0.3-1.9,0.9-2.5s1.3-0.9,2.2-0.9
			c0.4,0,0.9,0.1,1.3,0.3c0.4,0.2,0.9,0.5,1.4,0.9s1.1,1.1,2,2.1c0.7,0.8,1.2,1.3,1.4,1.6c0.2,0.2,0.5,0.4,0.7,0.6V247.2z"/>
	</g>
	<g class="st5">
		<path class="st4" d="M423.2,240.8v1.4h-8.7c0.3,0.3,0.6,0.8,0.9,1.3c0.3,0.5,0.5,1,0.7,1.4h-1.3c-0.4-0.8-0.8-1.4-1.3-2
			s-1-1-1.5-1.2v-0.9H423.2z"/>
	</g>
</g>
<g>
	<g class="st5">
		<path class="st4" d="M450.9,285.9h-11.1v-2.2l7.9-2.6c0.7-0.2,1.3-0.4,1.6-0.5c-0.4-0.1-1-0.3-1.8-0.6l-7.7-2.7v-2h11.1v1.4h-9.3
			l9.3,3.2v1.3l-9.4,3.2h9.4V285.9z"/>
	</g>
	<g class="st5">
		<path class="st4" d="M449.9,267.8c0.4,0.5,0.7,1,0.9,1.5s0.3,1,0.3,1.5c0,0.9-0.2,1.6-0.6,2c-0.4,0.5-1,0.7-1.7,0.7
			c-0.4,0-0.8-0.1-1.1-0.3c-0.3-0.2-0.6-0.4-0.8-0.7c-0.2-0.3-0.3-0.6-0.4-1c-0.1-0.3-0.1-0.7-0.2-1.2c-0.1-1.1-0.3-1.9-0.5-2.4
			c-0.2,0-0.3,0-0.4,0c-0.6,0-0.9,0.1-1.2,0.4c-0.3,0.3-0.5,0.9-0.5,1.6c0,0.6,0.1,1.1,0.3,1.4c0.2,0.3,0.6,0.5,1.2,0.7l-0.2,1.3
			c-0.6-0.1-1-0.3-1.4-0.6s-0.6-0.7-0.8-1.2c-0.2-0.5-0.3-1.1-0.3-1.8c0-0.7,0.1-1.2,0.2-1.7c0.2-0.4,0.4-0.7,0.6-0.9
			s0.6-0.3,0.9-0.4c0.2,0,0.7-0.1,1.3-0.1h1.8c1.3,0,2.1,0,2.4-0.1c0.3-0.1,0.7-0.2,1-0.3v1.4C450.6,267.7,450.3,267.8,449.9,267.8z
			 M446.9,267.9c0.2,0.5,0.4,1.2,0.5,2.2c0.1,0.6,0.2,1,0.3,1.2c0.1,0.2,0.2,0.4,0.4,0.5c0.2,0.1,0.4,0.2,0.6,0.2
			c0.4,0,0.7-0.1,0.9-0.4s0.4-0.7,0.4-1.2c0-0.5-0.1-1-0.3-1.4s-0.5-0.7-0.9-0.9c-0.3-0.1-0.8-0.2-1.4-0.2H446.9z"/>
	</g>
	<g class="st5">
		<path class="st4" d="M450.9,264.7h-8v-1.2h1.2c-0.6-0.3-0.9-0.6-1.1-0.9s-0.3-0.6-0.3-0.9c0-0.5,0.1-0.9,0.4-1.4l1.3,0.5
			c-0.2,0.3-0.3,0.7-0.3,1c0,0.3,0.1,0.6,0.3,0.8c0.2,0.2,0.4,0.4,0.7,0.5c0.5,0.2,1,0.2,1.6,0.2h4.2V264.7z"/>
		<path class="st4" d="M447.6,260h-1.4v-4.2h1.4V260z"/>
	</g>
	<g class="st5">
		<path class="st4" d="M449.6,247.5h1.3v7.3c-0.3,0-0.6,0-0.9-0.2c-0.5-0.2-1-0.5-1.5-0.9c-0.5-0.4-1-1-1.7-1.8
			c-1-1.2-1.8-2-2.3-2.4s-1.1-0.6-1.6-0.6c-0.5,0-1,0.2-1.4,0.6c-0.4,0.4-0.6,0.9-0.6,1.5c0,0.7,0.2,1.2,0.6,1.6s0.9,0.6,1.6,0.6
			l-0.1,1.4c-1-0.1-1.8-0.5-2.4-1.1c-0.5-0.6-0.8-1.5-0.8-2.5c0-1.1,0.3-1.9,0.9-2.5c0.6-0.6,1.3-0.9,2.2-0.9c0.4,0,0.9,0.1,1.3,0.3
			s0.9,0.5,1.4,0.9s1.1,1.1,2,2.1c0.7,0.8,1.2,1.3,1.4,1.6c0.2,0.2,0.5,0.4,0.7,0.6V247.5z"/>
	</g>
	<g class="st5">
		<path class="st4" d="M449.6,238.8h1.3v7.3c-0.3,0-0.6,0-0.9-0.2c-0.5-0.2-1-0.5-1.5-0.9c-0.5-0.4-1-1-1.7-1.8
			c-1-1.2-1.8-2-2.3-2.4c-0.6-0.4-1.1-0.6-1.6-0.6c-0.5,0-1,0.2-1.4,0.6c-0.4,0.4-0.6,0.9-0.6,1.5c0,0.7,0.2,1.2,0.6,1.6
			s0.9,0.6,1.6,0.6l-0.1,1.4c-1-0.1-1.8-0.5-2.4-1.1c-0.5-0.6-0.8-1.5-0.8-2.5c0-1.1,0.3-1.9,0.9-2.5c0.6-0.6,1.3-0.9,2.2-0.9
			c0.4,0,0.9,0.1,1.3,0.3s0.9,0.5,1.4,0.9s1.1,1.1,2,2.1c0.7,0.8,1.2,1.3,1.4,1.6c0.2,0.2,0.5,0.4,0.7,0.6V238.8z"/>
	</g>
</g>
<g>
	<g class="st5">
		<path class="st4" d="M475.4,284.8l-0.2-1.3c0.8,0,1.4-0.2,1.7-0.5c0.3-0.3,0.5-0.7,0.5-1.2c0-0.4-0.1-0.7-0.3-1
			c-0.2-0.3-0.4-0.5-0.7-0.6c-0.3-0.1-0.8-0.2-1.4-0.2h-7.6v-1.5h7.6c0.9,0,1.6,0.1,2.2,0.3c0.5,0.2,0.9,0.6,1.2,1.1
			c0.3,0.5,0.4,1.1,0.4,1.7c0,1-0.3,1.7-0.8,2.2C477.4,284.6,476.5,284.8,475.4,284.8z"/>
	</g>
	<g class="st5">
		<path class="st4" d="M478.6,271.2h-1.2c0.9,0.6,1.4,1.5,1.4,2.6c0,0.5-0.1,0.9-0.3,1.3c-0.2,0.4-0.4,0.7-0.7,0.9
			c-0.3,0.2-0.6,0.3-1,0.4c-0.3,0.1-0.7,0.1-1.3,0.1h-5v-1.4h4.5c0.7,0,1.2,0,1.4-0.1c0.4-0.1,0.6-0.3,0.8-0.5s0.3-0.6,0.3-1
			c0-0.4-0.1-0.8-0.3-1.2c-0.2-0.4-0.5-0.6-0.9-0.8c-0.4-0.1-0.9-0.2-1.6-0.2h-4.3V270h8V271.2z"/>
		<path class="st4" d="M478.6,267.8h-8v-1.2h1.1c-0.9-0.6-1.3-1.4-1.3-2.6c0-0.5,0.1-0.9,0.3-1.3c0.2-0.4,0.4-0.7,0.7-0.9
			c0.3-0.2,0.6-0.3,1-0.4c0.3-0.1,0.7-0.1,1.3-0.1h4.9v1.4h-4.9c-0.6,0-1,0.1-1.2,0.2c-0.3,0.1-0.5,0.3-0.7,0.6s-0.2,0.6-0.2,0.9
			c0,0.6,0.2,1.1,0.6,1.5s1.1,0.6,2.1,0.6h4.4V267.8z"/>
	</g>
	<g class="st5">
		<path class="st4" d="M475.3,259.7h-1.4v-4.2h1.4V259.7z"/>
	</g>
	<g class="st5">
		<path class="st4" d="M477.3,247.5h1.3v7.3c-0.3,0-0.6,0-0.9-0.2c-0.5-0.2-1-0.5-1.5-0.9c-0.5-0.4-1-1-1.7-1.8
			c-1-1.2-1.8-2-2.3-2.4c-0.6-0.4-1.1-0.6-1.6-0.6c-0.5,0-1,0.2-1.4,0.6c-0.4,0.4-0.6,0.9-0.6,1.5c0,0.7,0.2,1.2,0.6,1.6
			s0.9,0.6,1.6,0.6l-0.1,1.4c-1-0.1-1.8-0.5-2.4-1.1c-0.5-0.6-0.8-1.5-0.8-2.5c0-1.1,0.3-1.9,0.9-2.5c0.6-0.6,1.3-0.9,2.2-0.9
			c0.4,0,0.9,0.1,1.3,0.3s0.9,0.5,1.4,0.9s1.1,1.1,2,2.1c0.7,0.8,1.2,1.3,1.4,1.6c0.2,0.2,0.5,0.4,0.7,0.6V247.5z"/>
	</g>
	<g class="st5">
		<path class="st4" d="M477.3,238.8h1.3v7.3c-0.3,0-0.6,0-0.9-0.2c-0.5-0.2-1-0.5-1.5-0.9c-0.5-0.4-1-1-1.7-1.8
			c-1-1.2-1.8-2-2.3-2.4s-1.1-0.6-1.6-0.6c-0.5,0-1,0.2-1.4,0.6c-0.4,0.4-0.6,0.9-0.6,1.5c0,0.7,0.2,1.2,0.6,1.6s0.9,0.6,1.6,0.6
			l-0.1,1.4c-1-0.1-1.8-0.5-2.4-1.1c-0.5-0.6-0.8-1.5-0.8-2.5c0-1.1,0.3-1.9,0.9-2.5c0.6-0.6,1.3-0.9,2.2-0.9c0.4,0,0.9,0.1,1.3,0.3
			s0.9,0.5,1.4,0.9s1.1,1.1,2,2.1c0.7,0.8,1.2,1.3,1.4,1.6c0.2,0.2,0.5,0.4,0.7,0.6V238.8z"/>
	</g>
</g>
<g>
	<g class="st5">
		<path class="st4" d="M502.7,287.1l-0.1-1.4c0.6-0.1,1-0.2,1.4-0.5c0.4-0.2,0.6-0.6,0.9-1.1c0.2-0.5,0.3-1.1,0.3-1.7
			c0-0.6-0.1-1.1-0.2-1.5c-0.2-0.4-0.4-0.7-0.7-1c-0.3-0.2-0.6-0.3-1-0.3c-0.3,0-0.7,0.1-0.9,0.3c-0.3,0.2-0.5,0.5-0.7,1
			c-0.1,0.3-0.3,1-0.5,2s-0.5,1.7-0.7,2.1c-0.3,0.5-0.6,0.9-1,1.2s-0.9,0.4-1.4,0.4c-0.6,0-1.1-0.2-1.6-0.5
			c-0.5-0.3-0.9-0.8-1.1-1.4c-0.3-0.6-0.4-1.3-0.4-2c0-0.8,0.1-1.5,0.4-2.2c0.3-0.6,0.7-1.1,1.2-1.4c0.5-0.3,1.1-0.5,1.7-0.5
			l0.1,1.4c-0.7,0.1-1.2,0.3-1.6,0.8c-0.4,0.4-0.5,1.1-0.5,1.9c0,0.9,0.2,1.5,0.5,1.9c0.3,0.4,0.7,0.6,1.2,0.6c0.4,0,0.7-0.1,1-0.4
			c0.3-0.3,0.5-1,0.8-2.2c0.3-1.2,0.5-2,0.7-2.5c0.3-0.6,0.7-1.1,1.1-1.4c0.5-0.3,1-0.5,1.6-0.5c0.6,0,1.1,0.2,1.7,0.5
			c0.5,0.3,0.9,0.8,1.2,1.5c0.3,0.6,0.4,1.3,0.4,2.1c0,1-0.1,1.8-0.4,2.5c-0.3,0.7-0.7,1.2-1.3,1.6S503.4,287,502.7,287.1z"/>
	</g>
	<g class="st5">
		<path class="st4" d="M503.7,271l0.2-1.4c0.8,0.2,1.5,0.6,1.9,1.2s0.7,1.4,0.7,2.3c0,1.2-0.4,2.1-1.1,2.8c-0.7,0.7-1.7,1-3,1
			c-1.4,0-2.4-0.3-3.1-1c-0.7-0.7-1.1-1.6-1.1-2.7c0-1.1,0.4-2,1.1-2.6c0.7-0.7,1.8-1,3.1-1c0.1,0,0.2,0,0.4,0v6
			c0.9-0.1,1.6-0.3,2-0.7c0.5-0.4,0.7-1,0.7-1.7c0-0.5-0.1-0.9-0.4-1.3C504.7,271.5,504.2,271.2,503.7,271z M501.5,275.5V271
			c-0.7,0.1-1.2,0.2-1.5,0.5c-0.5,0.4-0.8,1-0.8,1.7c0,0.6,0.2,1.2,0.6,1.6C500.2,275.2,500.8,275.5,501.5,275.5z"/>
		<path class="st4" d="M509.3,267.9h-11.1v-1.2h1c-0.4-0.3-0.7-0.6-0.9-1s-0.3-0.8-0.3-1.3c0-0.7,0.2-1.3,0.5-1.8
			c0.4-0.5,0.9-0.9,1.5-1.2c0.6-0.3,1.3-0.4,2.1-0.4c0.8,0,1.6,0.1,2.2,0.4c0.7,0.3,1.2,0.7,1.5,1.3s0.5,1.2,0.5,1.8
			c0,0.5-0.1,0.9-0.3,1.2c-0.2,0.4-0.4,0.7-0.7,0.9h3.9V267.9z M502.3,266.7c1,0,1.8-0.2,2.3-0.6c0.5-0.4,0.7-0.9,0.7-1.5
			c0-0.6-0.3-1.1-0.8-1.6c-0.5-0.4-1.3-0.6-2.4-0.6c-1,0-1.8,0.2-2.3,0.6c-0.5,0.4-0.8,0.9-0.8,1.5c0,0.6,0.3,1.1,0.8,1.5
			C500.5,266.5,501.3,266.7,502.3,266.7z"/>
	</g>
	<g class="st5">
		<path class="st4" d="M502.9,259.8h-1.4v-4.2h1.4V259.8z"/>
	</g>
	<g class="st5">
		<path class="st4" d="M504.9,247.2h1.3v7.3c-0.3,0-0.6,0-0.9-0.2c-0.5-0.2-1-0.5-1.5-0.9c-0.5-0.4-1-1-1.7-1.8
			c-1-1.2-1.8-2-2.3-2.4s-1.1-0.6-1.6-0.6c-0.5,0-1,0.2-1.4,0.6c-0.4,0.4-0.6,0.9-0.6,1.5c0,0.7,0.2,1.2,0.6,1.6s0.9,0.6,1.6,0.6
			l-0.1,1.4c-1-0.1-1.8-0.5-2.4-1.1c-0.5-0.6-0.8-1.5-0.8-2.5c0-1.1,0.3-1.9,0.9-2.5c0.6-0.6,1.3-0.9,2.2-0.9c0.4,0,0.9,0.1,1.3,0.3
			s0.9,0.5,1.4,0.9s1.1,1.1,2,2.1c0.7,0.8,1.2,1.3,1.4,1.6c0.2,0.2,0.5,0.4,0.7,0.6V247.2z"/>
	</g>
	<g class="st5">
		<path class="st4" d="M504.9,238.8h1.3v7.3c-0.3,0-0.6,0-0.9-0.2c-0.5-0.2-1-0.5-1.5-0.9c-0.5-0.4-1-1-1.7-1.8
			c-1-1.2-1.8-2-2.3-2.4c-0.6-0.4-1.1-0.6-1.6-0.6c-0.5,0-1,0.2-1.4,0.6c-0.4,0.4-0.6,0.9-0.6,1.5c0,0.7,0.2,1.2,0.6,1.6
			s0.9,0.6,1.6,0.6l-0.1,1.4c-1-0.1-1.8-0.5-2.4-1.1c-0.5-0.6-0.8-1.5-0.8-2.5c0-1.1,0.3-1.9,0.9-2.5c0.6-0.6,1.3-0.9,2.2-0.9
			c0.4,0,0.9,0.1,1.3,0.3s0.9,0.5,1.4,0.9s1.1,1.1,2,2.1c0.7,0.8,1.2,1.3,1.4,1.6c0.2,0.2,0.5,0.4,0.7,0.6V238.8z"/>
	</g>
</g>
<g>
	<g class="st5">
		<path class="st4" d="M534,286.6h-11.1v-3.8c0-0.9,0.1-1.5,0.2-2c0.1-0.6,0.4-1.2,0.8-1.6c0.5-0.6,1.1-1,1.9-1.3
			c0.8-0.3,1.6-0.4,2.6-0.4c0.8,0,1.6,0.1,2.2,0.3c0.7,0.2,1.2,0.4,1.6,0.8c0.4,0.3,0.8,0.6,1,1s0.4,0.8,0.6,1.3
			c0.1,0.5,0.2,1.1,0.2,1.8V286.6z M532.7,285.1v-2.4c0-0.7-0.1-1.3-0.2-1.7c-0.1-0.4-0.3-0.7-0.6-1c-0.3-0.3-0.8-0.6-1.4-0.8
			c-0.6-0.2-1.3-0.3-2.1-0.3c-1.2,0-2.1,0.2-2.7,0.6s-1,0.8-1.3,1.4c-0.2,0.4-0.2,1-0.2,1.9v2.3H532.7z"/>
		<path class="st4" d="M531.4,270.1l0.2-1.4c0.8,0.2,1.5,0.6,1.9,1.2c0.5,0.6,0.7,1.4,0.7,2.3c0,1.2-0.4,2.1-1.1,2.8
			c-0.7,0.7-1.7,1-3,1c-1.4,0-2.4-0.3-3.1-1s-1.1-1.6-1.1-2.7c0-1.1,0.4-2,1.1-2.6c0.7-0.7,1.8-1,3.1-1c0.1,0,0.2,0,0.4,0v6
			c0.9,0,1.6-0.3,2-0.7s0.7-1,0.7-1.7c0-0.5-0.1-0.9-0.4-1.3C532.4,270.6,532,270.3,531.4,270.1z M529.2,274.6v-4.5
			c-0.7,0.1-1.2,0.2-1.5,0.5c-0.5,0.4-0.8,1-0.8,1.7c0,0.6,0.2,1.2,0.6,1.6C527.9,274.3,528.5,274.5,529.2,274.6z"/>
		<path class="st4" d="M531,261.7l0.2-1.3c0.9,0.1,1.6,0.5,2.2,1.1c0.5,0.6,0.8,1.3,0.8,2.2c0,1.1-0.4,2-1.1,2.7
			c-0.7,0.7-1.8,1-3.1,1c-0.9,0-1.6-0.1-2.3-0.4c-0.7-0.3-1.1-0.7-1.5-1.3c-0.3-0.6-0.5-1.2-0.5-1.9c0-0.9,0.2-1.6,0.7-2.1
			s1.1-0.9,1.9-1.1l0.2,1.3c-0.5,0.1-0.9,0.3-1.2,0.7c-0.3,0.3-0.4,0.7-0.4,1.2c0,0.7,0.2,1.2,0.7,1.7s1.3,0.6,2.3,0.6
			c1.1,0,1.9-0.2,2.4-0.6c0.5-0.4,0.7-1,0.7-1.6c0-0.5-0.2-1-0.5-1.3C532.2,262,531.7,261.8,531,261.7z"/>
	</g>
	<g class="st5">
		<path class="st4" d="M530.6,259.7h-1.4v-4.2h1.4V259.7z"/>
	</g>
	<g class="st5">
		<path class="st4" d="M532.7,247.2h1.3v7.3c-0.3,0-0.6,0-0.9-0.2c-0.5-0.2-1-0.5-1.5-0.9c-0.5-0.4-1-1-1.7-1.8
			c-1-1.2-1.8-2-2.3-2.4s-1.1-0.6-1.6-0.6c-0.5,0-1,0.2-1.4,0.6c-0.4,0.4-0.6,0.9-0.6,1.5c0,0.7,0.2,1.2,0.6,1.6
			c0.4,0.4,0.9,0.6,1.6,0.6l-0.1,1.4c-1-0.1-1.8-0.5-2.4-1.1c-0.5-0.6-0.8-1.5-0.8-2.5c0-1.1,0.3-1.9,0.9-2.5s1.3-0.9,2.2-0.9
			c0.4,0,0.9,0.1,1.3,0.3c0.4,0.2,0.9,0.5,1.4,0.9s1.1,1.1,2,2.1c0.7,0.8,1.2,1.3,1.4,1.6c0.2,0.2,0.5,0.4,0.7,0.6V247.2z"/>
	</g>
	<g class="st5">
		<path class="st4" d="M532.7,238.8h1.3v7.3c-0.3,0-0.6,0-0.9-0.2c-0.5-0.2-1-0.5-1.5-0.9c-0.5-0.4-1-1-1.7-1.8
			c-1-1.2-1.8-2-2.3-2.4c-0.6-0.4-1.1-0.6-1.6-0.6c-0.5,0-1,0.2-1.4,0.6c-0.4,0.4-0.6,0.9-0.6,1.5c0,0.7,0.2,1.2,0.6,1.6
			c0.4,0.4,0.9,0.6,1.6,0.6l-0.1,1.4c-1-0.1-1.8-0.5-2.4-1.1c-0.5-0.6-0.8-1.5-0.8-2.5c0-1.1,0.3-1.9,0.9-2.5s1.3-0.9,2.2-0.9
			c0.4,0,0.9,0.1,1.3,0.3c0.4,0.2,0.9,0.5,1.4,0.9s1.1,1.1,2,2.1c0.7,0.8,1.2,1.3,1.4,1.6c0.2,0.2,0.5,0.4,0.7,0.6V238.8z"/>
	</g>
</g>
<line class="st1" x1="118.1" y1="321.1" x2="167.7" y2="321.1"/>
<g>
	<g>
		<g>
			<g>
				<path class="st4" d="M178,314.8h0.9l4.6,11h-1.1l-1.4-3.4h-5l-1.4,3.4h-1.2L178,314.8z M180.6,321.5l-2.2-5.4l-2.2,5.4H180.6z"
					/>
				<path class="st4" d="M185,325.8v-11h1.1v10h6.4v1H185z"/>
				<path class="st4" d="M194.1,325.8v-11h4.6c0.5,0,0.9,0.1,1.3,0.3c0.4,0.2,0.7,0.5,1,0.8s0.5,0.7,0.7,1.1s0.2,0.8,0.2,1.2
					c0,0.6-0.1,1.2-0.4,1.7c-0.3,0.5-0.6,1-1.1,1.3s-1,0.5-1.7,0.5h-3.6v4.1H194.1z M195.2,320.8h3.5c0.4,0,0.8-0.1,1.1-0.4
					c0.3-0.2,0.6-0.5,0.7-0.9c0.2-0.4,0.3-0.8,0.3-1.2c0-0.5-0.1-0.9-0.3-1.3s-0.5-0.7-0.8-0.9c-0.3-0.2-0.7-0.3-1.1-0.3h-3.4V320.8
					z"/>
				<path class="st4" d="M212.4,314.8v11h-1.1v-5.1h-6.5v5.1h-1.1v-11h1.1v4.9h6.5v-4.9H212.4z"/>
				<path class="st4" d="M218.6,314.8h0.9l4.6,11H223l-1.4-3.4h-5l-1.4,3.4H214L218.6,314.8z M221.2,321.5l-2.2-5.4l-2.2,5.4H221.2z
					"/>
			</g>
		</g>
	</g>
</g>
<line class="st2" x1="237.1" y1="321.1" x2="286.7" y2="321.1"/>
<g>
	<g>
		<g>
			<g>
				<path class="st4" d="M299.9,316.9c-0.2-0.2-0.3-0.3-0.5-0.5c-0.2-0.1-0.4-0.3-0.7-0.4c-0.3-0.1-0.5-0.2-0.8-0.2
					c-0.3-0.1-0.6-0.1-0.9-0.1c-1,0-1.7,0.2-2.1,0.5c-0.4,0.4-0.7,0.9-0.7,1.5c0,0.4,0.1,0.8,0.3,1c0.2,0.2,0.5,0.4,1,0.6
					s1,0.3,1.7,0.5c0.8,0.2,1.5,0.4,2,0.6c0.6,0.2,1,0.5,1.3,0.9s0.5,0.9,0.5,1.6c0,0.5-0.1,0.9-0.3,1.3c-0.2,0.4-0.5,0.7-0.8,0.9
					s-0.8,0.4-1.3,0.5s-1,0.2-1.6,0.2s-1.1-0.1-1.6-0.2s-1-0.3-1.5-0.5s-0.9-0.5-1.3-0.9l0.5-0.9c0.2,0.2,0.4,0.4,0.7,0.6
					c0.3,0.2,0.6,0.3,0.9,0.5s0.7,0.3,1.1,0.3c0.4,0.1,0.8,0.1,1.2,0.1c0.9,0,1.6-0.2,2.1-0.5s0.7-0.8,0.7-1.4
					c0-0.5-0.1-0.8-0.4-1.1s-0.6-0.5-1.1-0.7s-1.1-0.3-1.8-0.5c-0.8-0.2-1.4-0.4-1.9-0.6s-0.9-0.5-1.2-0.9c-0.3-0.4-0.4-0.8-0.4-1.4
					c0-0.7,0.2-1.3,0.5-1.7c0.3-0.5,0.8-0.8,1.4-1.1s1.3-0.4,2-0.4c0.5,0,0.9,0,1.4,0.1c0.4,0.1,0.8,0.2,1.2,0.4
					c0.4,0.2,0.7,0.4,1,0.7L299.9,316.9z"/>
				<path class="st4" d="M302.9,325.8v-11h4.6c0.5,0,0.9,0.1,1.3,0.3c0.4,0.2,0.7,0.5,1,0.8s0.5,0.7,0.7,1.1s0.2,0.8,0.2,1.2
					c0,0.6-0.1,1.2-0.4,1.7s-0.6,1-1.1,1.3s-1,0.5-1.7,0.5H304v4.1H302.9z M304,320.8h3.5c0.4,0,0.8-0.1,1.1-0.4
					c0.3-0.2,0.6-0.5,0.7-0.9c0.2-0.4,0.3-0.8,0.3-1.2c0-0.5-0.1-0.9-0.3-1.3c-0.2-0.4-0.5-0.7-0.8-0.9c-0.3-0.2-0.7-0.3-1.1-0.3
					H304V320.8z"/>
				<path class="st4" d="M315.2,328.1c-0.8,0-1.5-0.2-2.1-0.6s-1.1-0.9-1.4-1.5l0.7-0.5c0.3,0.5,0.7,0.9,1.2,1.2s1.1,0.5,1.7,0.5
					c0.5,0,1-0.1,1.4-0.3c0.4-0.2,0.7-0.5,1-0.9c0.2-0.4,0.4-0.9,0.4-1.4s-0.1-1-0.3-1.3c-0.2-0.4-0.5-0.7-0.9-0.9
					c-0.4-0.2-0.8-0.3-1.3-0.3s-0.9,0.1-1.4,0.3s-0.8,0.5-1.1,0.9h-1l1.2-6.2h5.3v1h-4.5l-0.8,4c0.3-0.3,0.6-0.5,1-0.7
					s0.8-0.2,1.3-0.2c0.7,0,1.3,0.2,1.8,0.4c0.5,0.3,1,0.7,1.3,1.2s0.5,1.1,0.5,1.8c0,0.7-0.2,1.4-0.5,1.9s-0.8,1-1.4,1.3
					C316.5,328,315.9,328.1,315.2,328.1z"/>
				<path class="st4" d="M328.2,321.4c0,0.9-0.2,1.7-0.5,2.4s-0.8,1.2-1.4,1.6s-1.3,0.6-2,0.6s-1.4-0.2-2-0.6s-1-0.9-1.4-1.6
					s-0.5-1.5-0.5-2.4s0.2-1.7,0.5-2.4s0.8-1.2,1.4-1.6s1.2-0.6,2-0.6s1.4,0.2,2,0.6s1,1,1.4,1.6S328.2,320.5,328.2,321.4z
					 M327.2,321.4c0-0.7-0.1-1.4-0.4-1.9c-0.2-0.5-0.6-1-1-1.3s-0.9-0.5-1.5-0.5s-1.1,0.2-1.5,0.5s-0.8,0.7-1,1.3
					c-0.2,0.5-0.4,1.2-0.4,1.9s0.1,1.4,0.4,1.9c0.2,0.5,0.6,1,1,1.3s0.9,0.5,1.5,0.5s1-0.2,1.5-0.5c0.4-0.3,0.8-0.7,1-1.3
					C327,322.7,327.2,322.1,327.2,321.4z"/>
				<path class="st4" d="M337.7,321.4c0,0.9-0.2,1.7-0.5,2.4s-0.8,1.2-1.4,1.6s-1.3,0.6-2,0.6s-1.4-0.2-2-0.6s-1-0.9-1.4-1.6
					s-0.5-1.5-0.5-2.4s0.2-1.7,0.5-2.4s0.8-1.2,1.4-1.6s1.2-0.6,2-0.6s1.4,0.2,2,0.6s1,1,1.4,1.6S337.7,320.5,337.7,321.4z
					 M336.6,321.4c0-0.7-0.1-1.4-0.4-1.9c-0.2-0.5-0.6-1-1-1.3s-0.9-0.5-1.5-0.5s-1.1,0.2-1.5,0.5s-0.8,0.7-1,1.3
					c-0.2,0.5-0.4,1.2-0.4,1.9s0.1,1.4,0.4,1.9c0.2,0.5,0.6,1,1,1.3s0.9,0.5,1.5,0.5s1-0.2,1.5-0.5c0.4-0.3,0.8-0.7,1-1.3
					C336.5,322.7,336.6,322.1,336.6,321.4z"/>
			</g>
		</g>
	</g>
</g>
<line class="st3" x1="352.5" y1="321.1" x2="402.1" y2="321.1"/>
<g>
	<g>
		<g>
			<g>
				<path class="st4" d="M417.3,323c0,0.5-0.1,1-0.4,1.5s-0.7,0.8-1.1,1c-0.5,0.2-1,0.4-1.5,0.4H409v-11h5.3c0.5,0,1,0.1,1.3,0.4
					c0.4,0.3,0.7,0.6,0.9,1.1s0.3,0.9,0.3,1.3c0,0.5-0.1,1.1-0.4,1.5c-0.3,0.5-0.7,0.8-1.2,1c0.6,0.2,1.1,0.5,1.5,1
					C417.1,321.7,417.3,322.3,417.3,323z M410.1,315.8v4.1h3.8c0.4,0,0.7-0.1,1-0.3s0.5-0.4,0.7-0.8c0.2-0.3,0.2-0.6,0.2-1
					s-0.1-0.7-0.2-1c-0.2-0.3-0.4-0.5-0.6-0.7s-0.6-0.3-0.9-0.3L410.1,315.8L410.1,315.8z M416.2,322.8c0-0.4-0.1-0.7-0.2-1
					c-0.2-0.3-0.4-0.6-0.7-0.8s-0.6-0.3-1-0.3h-4.2v4.2h4.1c0.4,0,0.7-0.1,1-0.3c0.3-0.2,0.5-0.5,0.7-0.8S416.2,323.2,416.2,322.8z"
					/>
				<path class="st4" d="M428,314.8v11h-1.1v-5.1h-6.5v5.1h-1.1v-11h1.1v4.9h6.5v-4.9H428z"/>
				<path class="st4" d="M430.7,325.8v-11h7.2v1h-6.1v4h5.2v0.9h-5.2v5.1H430.7z"/>
				<path class="st4" d="M439.9,325.8v-11h1.1v11H439.9z"/>
			</g>
		</g>
	</g>
</g>
</svg>
