<?xml version="1.0" encoding="utf-8"?>
<!-- Generator: Adobe Illustrator 27.2.0, SVG Export Plug-In . SVG Version: 6.00 Build 0)  -->
<svg version="1.1" id="Layer_1" xmlns="http://www.w3.org/2000/svg" xmlns:xlink="http://www.w3.org/1999/xlink" x="0px" y="0px"
	 viewBox="0 0 540 300" style="enable-background:new 0 0 540 300;" xml:space="preserve">
<style type="text/css">
	.st0{fill:none;stroke:#D9D9D9;stroke-width:1.9074;stroke-linejoin:round;stroke-miterlimit:10;}
	.st1{fill:none;stroke:#214166;stroke-width:5.2499;stroke-linecap:round;stroke-miterlimit:10;}
	
		.st2{opacity:0.6;fill:none;stroke:#214166;stroke-width:5.2499;stroke-linecap:round;stroke-miterlimit:10;enable-background:new    ;}
	.st3{fill:none;stroke:#D9D9D9;stroke-width:5.2499;stroke-linecap:round;stroke-linejoin:round;stroke-miterlimit:10;}
	.st4{enable-background:new    ;}
	.st5{fill:#595959;}
	.st6{fill:#214166;}
</style>
<path class="st0" d="M45.3,9.7h494.4 M45.3,36.9h494.4 M45.3,63.8h494.4 M45.3,90.9h494.4 M45.3,118.1h494.4 M45.3,145.3h494.4
	 M45.3,172.4h494.4"/>
<line class="st0" x1="45.3" y1="199.4" x2="539.7" y2="199.4"/>
<path class="st0" d="M539.7,199.4v4.6 M501.6,199.4v4.6 M463.7,199.4v4.6 M425.6,199.4v4.6 M387.7,199.4v4.6 M349.6,199.4v4.6
	 M311.4,199.4v4.6 M273.6,199.4v4.6 M235.4,199.4v4.6 M197.3,199.4v4.6 M159.5,199.4v4.6 M121.3,199.4v4.6 M83.5,199.4v4.6
	 M45.3,199.4v4.6"/>
<polyline class="st1" points="64.3,140.3 102.4,133.4 140.2,135.5 178.4,116.6 216.5,106.2 254.4,104.1 292.5,92.8 330.7,86.7 
	368.5,64.4 406.7,41.2 444.8,49.7 482.6,27.8 520.7,20 "/>
<polyline class="st2" points="64.3,143 102.4,146.2 140.2,148 178.4,145.9 216.5,150.7 254.4,150.7 292.5,155 330.7,150.7 
	368.5,152.9 406.7,157.1 444.8,153.8 482.6,151.1 520.7,154.4 "/>
<polyline class="st3" points="64.3,144.6 102.4,146.2 140.2,146.8 178.4,146.2 216.5,148 254.4,148 292.5,150.1 330.7,148.9 
	368.5,148.9 406.7,151.2 444.8,150.1 482.6,148.3 520.7,149.5 "/>
<g>
	<g class="st4">
		<path class="st5" d="M3.3,199c0-1.3,0.1-2.3,0.4-3.1s0.7-1.4,1.2-1.8c0.5-0.4,1.2-0.6,2-0.6c0.6,0,1.1,0.1,1.5,0.4
			c0.4,0.2,0.8,0.6,1.1,1c0.3,0.4,0.5,1,0.7,1.6c0.2,0.6,0.2,1.5,0.2,2.6c0,1.3-0.1,2.3-0.4,3.1c-0.3,0.8-0.7,1.4-1.2,1.8
			c-0.5,0.4-1.2,0.6-2,0.6c-1.1,0-1.9-0.4-2.5-1.1C3.6,202.6,3.3,201.1,3.3,199z M4.7,199c0,1.8,0.2,3,0.6,3.6
			c0.4,0.6,0.9,0.9,1.6,0.9c0.6,0,1.1-0.3,1.6-0.9C8.8,202,9,200.8,9,199c0-1.8-0.2-3-0.6-3.6c-0.4-0.6-0.9-0.9-1.6-0.9
			c-0.6,0-1.1,0.3-1.5,0.8C4.9,196,4.7,197.2,4.7,199z"/>
	</g>
	<g class="st4">
		<path class="st5" d="M12.5,204.4v-1.5h1.5v1.5H12.5z"/>
	</g>
	<g class="st4">
		<path class="st5" d="M16.1,199c0-1.3,0.1-2.3,0.4-3.1s0.7-1.4,1.2-1.8c0.5-0.4,1.2-0.6,2-0.6c0.6,0,1.1,0.1,1.5,0.4
			c0.4,0.2,0.8,0.6,1.1,1c0.3,0.4,0.5,1,0.7,1.6c0.2,0.6,0.2,1.5,0.2,2.6c0,1.3-0.1,2.3-0.4,3.1c-0.3,0.8-0.7,1.4-1.2,1.8
			c-0.5,0.4-1.2,0.6-2,0.6c-1.1,0-1.9-0.4-2.5-1.1C16.4,202.6,16.1,201.1,16.1,199z M17.5,199c0,1.8,0.2,3,0.6,3.6
			c0.4,0.6,0.9,0.9,1.6,0.9c0.6,0,1.1-0.3,1.6-0.9c0.4-0.6,0.6-1.8,0.6-3.6c0-1.8-0.2-3-0.6-3.6c-0.4-0.6-0.9-0.9-1.6-0.9
			c-0.6,0-1.1,0.3-1.5,0.8C17.7,196,17.5,197.2,17.5,199z"/>
	</g>
	<g class="st4">
		<path class="st5" d="M24.3,199c0-1.3,0.1-2.3,0.4-3.1s0.7-1.4,1.2-1.8c0.5-0.4,1.2-0.6,2-0.6c0.6,0,1.1,0.1,1.5,0.4
			c0.4,0.2,0.8,0.6,1.1,1c0.3,0.4,0.5,1,0.7,1.6c0.2,0.6,0.2,1.5,0.2,2.6c0,1.3-0.1,2.3-0.4,3.1c-0.3,0.8-0.7,1.4-1.2,1.8
			c-0.5,0.4-1.2,0.6-2,0.6c-1.1,0-1.9-0.4-2.5-1.1C24.6,202.6,24.3,201.1,24.3,199z M25.7,199c0,1.8,0.2,3,0.6,3.6
			c0.4,0.6,0.9,0.9,1.6,0.9c0.6,0,1.1-0.3,1.6-0.9c0.4-0.6,0.6-1.8,0.6-3.6c0-1.8-0.2-3-0.6-3.6c-0.4-0.6-0.9-0.9-1.6-0.9
			c-0.6,0-1.1,0.3-1.5,0.8C25.9,196,25.7,197.2,25.7,199z"/>
	</g>
</g>
<g>
	<g class="st4">
		<path class="st5" d="M3.3,171.9c0-1.3,0.1-2.3,0.4-3.1s0.7-1.4,1.2-1.8c0.5-0.4,1.2-0.6,2-0.6c0.6,0,1.1,0.1,1.5,0.4
			c0.4,0.2,0.8,0.6,1.1,1c0.3,0.4,0.5,1,0.7,1.6c0.2,0.6,0.2,1.5,0.2,2.6c0,1.3-0.1,2.3-0.4,3.1c-0.3,0.8-0.7,1.4-1.2,1.8
			c-0.5,0.4-1.2,0.6-2,0.6c-1.1,0-1.9-0.4-2.5-1.1C3.6,175.4,3.3,174,3.3,171.9z M4.7,171.9c0,1.8,0.2,3,0.6,3.6
			c0.4,0.6,0.9,0.9,1.6,0.9c0.6,0,1.1-0.3,1.6-0.9c0.4-0.6,0.6-1.8,0.6-3.6c0-1.8-0.2-3-0.6-3.6c-0.4-0.6-0.9-0.9-1.6-0.9
			c-0.6,0-1.1,0.3-1.5,0.8C4.9,168.9,4.7,170.1,4.7,171.9z"/>
	</g>
	<g class="st4">
		<path class="st5" d="M12.5,177.3v-1.5h1.5v1.5H12.5z"/>
	</g>
	<g class="st4">
		<path class="st5" d="M16.1,174.4l1.4-0.1c0.1,0.7,0.3,1.2,0.7,1.5c0.4,0.3,0.8,0.5,1.4,0.5c0.6,0,1.2-0.2,1.6-0.7
			c0.4-0.5,0.7-1.1,0.7-1.9c0-0.8-0.2-1.4-0.6-1.8c-0.4-0.4-1-0.7-1.7-0.7c-0.4,0-0.8,0.1-1.2,0.3c-0.3,0.2-0.6,0.5-0.8,0.8
			l-1.3-0.2l1.1-5.6h5.4v1.3h-4.4l-0.6,2.9c0.7-0.5,1.3-0.7,2.1-0.7c1,0,1.8,0.3,2.4,1c0.7,0.7,1,1.5,1,2.5c0,1-0.3,1.8-0.9,2.6
			c-0.7,0.9-1.7,1.3-2.9,1.3c-1,0-1.8-0.3-2.4-0.8C16.5,176.1,16.2,175.4,16.1,174.4z"/>
	</g>
	<g class="st4">
		<path class="st5" d="M24.3,171.9c0-1.3,0.1-2.3,0.4-3.1s0.7-1.4,1.2-1.8c0.5-0.4,1.2-0.6,2-0.6c0.6,0,1.1,0.1,1.5,0.4
			c0.4,0.2,0.8,0.6,1.1,1c0.3,0.4,0.5,1,0.7,1.6c0.2,0.6,0.2,1.5,0.2,2.6c0,1.3-0.1,2.3-0.4,3.1c-0.3,0.8-0.7,1.4-1.2,1.8
			c-0.5,0.4-1.2,0.6-2,0.6c-1.1,0-1.9-0.4-2.5-1.1C24.6,175.4,24.3,174,24.3,171.9z M25.7,171.9c0,1.8,0.2,3,0.6,3.6
			c0.4,0.6,0.9,0.9,1.6,0.9c0.6,0,1.1-0.3,1.6-0.9c0.4-0.6,0.6-1.8,0.6-3.6c0-1.8-0.2-3-0.6-3.6c-0.4-0.6-0.9-0.9-1.6-0.9
			c-0.6,0-1.1,0.3-1.5,0.8C25.9,168.9,25.7,170.1,25.7,171.9z"/>
	</g>
</g>
<g>
	<g class="st4">
		<path class="st5" d="M8.3,150.2H7v-8.5c-0.3,0.3-0.7,0.6-1.3,0.9c-0.5,0.3-1,0.5-1.4,0.7V142c0.8-0.4,1.4-0.8,2-1.3
			c0.6-0.5,1-1,1.2-1.5h0.9V150.2z"/>
	</g>
	<g class="st4">
		<path class="st5" d="M12.5,150.2v-1.5h1.5v1.5H12.5z"/>
	</g>
	<g class="st4">
		<path class="st5" d="M16.1,144.8c0-1.3,0.1-2.3,0.4-3.1s0.7-1.4,1.2-1.8c0.5-0.4,1.2-0.6,2-0.6c0.6,0,1.1,0.1,1.5,0.4
			c0.4,0.2,0.8,0.6,1.1,1c0.3,0.4,0.5,1,0.7,1.6c0.2,0.6,0.2,1.5,0.2,2.6c0,1.3-0.1,2.3-0.4,3.1c-0.3,0.8-0.7,1.4-1.2,1.8
			c-0.5,0.4-1.2,0.6-2,0.6c-1.1,0-1.9-0.4-2.5-1.1C16.4,148.3,16.1,146.9,16.1,144.8z M17.5,144.8c0,1.8,0.2,3,0.6,3.6
			c0.4,0.6,0.9,0.9,1.6,0.9c0.6,0,1.1-0.3,1.6-0.9c0.4-0.6,0.6-1.8,0.6-3.6c0-1.8-0.2-3-0.6-3.6c-0.4-0.6-0.9-0.9-1.6-0.9
			c-0.6,0-1.1,0.3-1.5,0.8C17.7,141.8,17.5,143,17.5,144.8z"/>
	</g>
	<g class="st4">
		<path class="st5" d="M24.3,144.8c0-1.3,0.1-2.3,0.4-3.1s0.7-1.4,1.2-1.8c0.5-0.4,1.2-0.6,2-0.6c0.6,0,1.1,0.1,1.5,0.4
			c0.4,0.2,0.8,0.6,1.1,1c0.3,0.4,0.5,1,0.7,1.6c0.2,0.6,0.2,1.5,0.2,2.6c0,1.3-0.1,2.3-0.4,3.1c-0.3,0.8-0.7,1.4-1.2,1.8
			c-0.5,0.4-1.2,0.6-2,0.6c-1.1,0-1.9-0.4-2.5-1.1C24.6,148.3,24.3,146.9,24.3,144.8z M25.7,144.8c0,1.8,0.2,3,0.6,3.6
			c0.4,0.6,0.9,0.9,1.6,0.9c0.6,0,1.1-0.3,1.6-0.9c0.4-0.6,0.6-1.8,0.6-3.6c0-1.8-0.2-3-0.6-3.6c-0.4-0.6-0.9-0.9-1.6-0.9
			c-0.6,0-1.1,0.3-1.5,0.8C25.9,141.8,25.7,143,25.7,144.8z"/>
	</g>
</g>
<g>
	<g class="st4">
		<path class="st5" d="M8.3,123.1H7v-8.5c-0.3,0.3-0.7,0.6-1.3,0.9c-0.5,0.3-1,0.5-1.4,0.7v-1.3c0.8-0.4,1.4-0.8,2-1.3
			c0.6-0.5,1-1,1.2-1.5h0.9V123.1z"/>
	</g>
	<g class="st4">
		<path class="st5" d="M12.5,123.1v-1.5h1.5v1.5H12.5z"/>
	</g>
	<g class="st4">
		<path class="st5" d="M16.1,120.2l1.4-0.1c0.1,0.7,0.3,1.2,0.7,1.5c0.4,0.3,0.8,0.5,1.4,0.5c0.6,0,1.2-0.2,1.6-0.7
			c0.4-0.5,0.7-1.1,0.7-1.9c0-0.8-0.2-1.4-0.6-1.8c-0.4-0.4-1-0.7-1.7-0.7c-0.4,0-0.8,0.1-1.2,0.3c-0.3,0.2-0.6,0.5-0.8,0.8
			l-1.3-0.2l1.1-5.6h5.4v1.3h-4.4l-0.6,2.9c0.7-0.5,1.3-0.7,2.1-0.7c1,0,1.8,0.3,2.4,1c0.7,0.7,1,1.5,1,2.5c0,1-0.3,1.8-0.9,2.6
			c-0.7,0.9-1.7,1.3-2.9,1.3c-1,0-1.8-0.3-2.4-0.8C16.5,121.9,16.2,121.2,16.1,120.2z"/>
	</g>
	<g class="st4">
		<path class="st5" d="M24.3,117.7c0-1.3,0.1-2.3,0.4-3.1s0.7-1.4,1.2-1.8c0.5-0.4,1.2-0.6,2-0.6c0.6,0,1.1,0.1,1.5,0.4
			c0.4,0.2,0.8,0.6,1.1,1c0.3,0.4,0.5,1,0.7,1.6c0.2,0.6,0.2,1.5,0.2,2.6c0,1.3-0.1,2.3-0.4,3.1c-0.3,0.8-0.7,1.4-1.2,1.8
			c-0.5,0.4-1.2,0.6-2,0.6c-1.1,0-1.9-0.4-2.5-1.1C24.6,121.2,24.3,119.8,24.3,117.7z M25.7,117.7c0,1.8,0.2,3,0.6,3.6
			c0.4,0.6,0.9,0.9,1.6,0.9c0.6,0,1.1-0.3,1.6-0.9c0.4-0.6,0.6-1.8,0.6-3.6c0-1.8-0.2-3-0.6-3.6c-0.4-0.6-0.9-0.9-1.6-0.9
			c-0.6,0-1.1,0.3-1.5,0.8C25.9,114.7,25.7,115.9,25.7,117.7z"/>
	</g>
</g>
<g>
	<g class="st4">
		<path class="st5" d="M10.3,94.7V96H3.1c0-0.3,0-0.6,0.2-0.9c0.2-0.5,0.5-1,0.9-1.5c0.4-0.5,1-1,1.8-1.7c1.2-1,2-1.7,2.4-2.3
			c0.4-0.6,0.6-1.1,0.6-1.6c0-0.5-0.2-1-0.6-1.3c-0.4-0.4-0.9-0.5-1.5-0.5c-0.6,0-1.2,0.2-1.5,0.6c-0.4,0.4-0.6,0.9-0.6,1.6
			l-1.4-0.1c0.1-1,0.4-1.8,1.1-2.4C5,85.3,5.9,85,6.9,85c1,0,1.9,0.3,2.5,0.9c0.6,0.6,0.9,1.3,0.9,2.2c0,0.4-0.1,0.9-0.3,1.3
			c-0.2,0.4-0.5,0.9-0.9,1.3c-0.4,0.5-1.1,1.1-2.1,1.9c-0.8,0.7-1.3,1.1-1.5,1.4c-0.2,0.2-0.4,0.5-0.6,0.7H10.3z"/>
	</g>
	<g class="st4">
		<path class="st5" d="M12.5,96v-1.5h1.5V96H12.5z"/>
	</g>
	<g class="st4">
		<path class="st5" d="M16.1,90.6c0-1.3,0.1-2.3,0.4-3.1s0.7-1.4,1.2-1.8c0.5-0.4,1.2-0.6,2-0.6c0.6,0,1.1,0.1,1.5,0.4
			c0.4,0.2,0.8,0.6,1.1,1c0.3,0.4,0.5,1,0.7,1.6c0.2,0.6,0.2,1.5,0.2,2.6c0,1.3-0.1,2.3-0.4,3.1c-0.3,0.8-0.7,1.4-1.2,1.8
			c-0.5,0.4-1.2,0.6-2,0.6c-1.1,0-1.9-0.4-2.5-1.1C16.4,94.1,16.1,92.7,16.1,90.6z M17.5,90.6c0,1.8,0.2,3,0.6,3.6
			c0.4,0.6,0.9,0.9,1.6,0.9c0.6,0,1.1-0.3,1.6-0.9c0.4-0.6,0.6-1.8,0.6-3.6c0-1.8-0.2-3-0.6-3.6c-0.4-0.6-0.9-0.9-1.6-0.9
			c-0.6,0-1.1,0.3-1.5,0.8C17.7,87.6,17.5,88.8,17.5,90.6z"/>
	</g>
	<g class="st4">
		<path class="st5" d="M24.3,90.6c0-1.3,0.1-2.3,0.4-3.1s0.7-1.4,1.2-1.8c0.5-0.4,1.2-0.6,2-0.6c0.6,0,1.1,0.1,1.5,0.4
			c0.4,0.2,0.8,0.6,1.1,1c0.3,0.4,0.5,1,0.7,1.6c0.2,0.6,0.2,1.5,0.2,2.6c0,1.3-0.1,2.3-0.4,3.1c-0.3,0.8-0.7,1.4-1.2,1.8
			c-0.5,0.4-1.2,0.6-2,0.6c-1.1,0-1.9-0.4-2.5-1.1C24.6,94.1,24.3,92.7,24.3,90.6z M25.7,90.6c0,1.8,0.2,3,0.6,3.6
			c0.4,0.6,0.9,0.9,1.6,0.9c0.6,0,1.1-0.3,1.6-0.9c0.4-0.6,0.6-1.8,0.6-3.6c0-1.8-0.2-3-0.6-3.6c-0.4-0.6-0.9-0.9-1.6-0.9
			c-0.6,0-1.1,0.3-1.5,0.8C25.9,87.6,25.7,88.8,25.7,90.6z"/>
	</g>
</g>
<g>
	<g class="st4">
		<path class="st5" d="M10.3,67.6v1.3H3.1c0-0.3,0-0.6,0.2-0.9c0.2-0.5,0.5-1,0.9-1.5c0.4-0.5,1-1,1.8-1.7c1.2-1,2-1.7,2.4-2.3
			c0.4-0.6,0.6-1.1,0.6-1.6c0-0.5-0.2-1-0.6-1.3C8,59.2,7.5,59,6.9,59c-0.6,0-1.2,0.2-1.5,0.6c-0.4,0.4-0.6,0.9-0.6,1.6l-1.4-0.1
			c0.1-1,0.4-1.8,1.1-2.4c0.6-0.5,1.4-0.8,2.5-0.8c1,0,1.9,0.3,2.5,0.9c0.6,0.6,0.9,1.3,0.9,2.2c0,0.4-0.1,0.9-0.3,1.3
			c-0.2,0.4-0.5,0.9-0.9,1.3c-0.4,0.5-1.1,1.1-2.1,1.9c-0.8,0.7-1.3,1.1-1.5,1.4c-0.2,0.2-0.4,0.5-0.6,0.7H10.3z"/>
	</g>
	<g class="st4">
		<path class="st5" d="M12.5,68.9v-1.5h1.5v1.5H12.5z"/>
	</g>
	<g class="st4">
		<path class="st5" d="M16.1,66l1.4-0.1c0.1,0.7,0.3,1.2,0.7,1.5c0.4,0.3,0.8,0.5,1.4,0.5c0.6,0,1.2-0.2,1.6-0.7
			c0.4-0.5,0.7-1.1,0.7-1.9c0-0.8-0.2-1.4-0.6-1.8c-0.4-0.4-1-0.7-1.7-0.7c-0.4,0-0.8,0.1-1.2,0.3c-0.3,0.2-0.6,0.5-0.8,0.8
			l-1.3-0.2l1.1-5.6h5.4v1.3h-4.4l-0.6,2.9c0.7-0.5,1.3-0.7,2.1-0.7c1,0,1.8,0.3,2.4,1c0.7,0.7,1,1.5,1,2.5c0,1-0.3,1.8-0.9,2.6
			c-0.7,0.9-1.7,1.3-2.9,1.3c-1,0-1.8-0.3-2.4-0.8C16.5,67.7,16.2,67,16.1,66z"/>
	</g>
	<g class="st4">
		<path class="st5" d="M24.3,63.5c0-1.3,0.1-2.3,0.4-3.1s0.7-1.4,1.2-1.8c0.5-0.4,1.2-0.6,2-0.6c0.6,0,1.1,0.1,1.5,0.4
			c0.4,0.2,0.8,0.6,1.1,1c0.3,0.4,0.5,1,0.7,1.6c0.2,0.6,0.2,1.5,0.2,2.6c0,1.3-0.1,2.3-0.4,3.1c-0.3,0.8-0.7,1.4-1.2,1.8
			c-0.5,0.4-1.2,0.6-2,0.6c-1.1,0-1.9-0.4-2.5-1.1C24.6,67.1,24.3,65.6,24.3,63.5z M25.7,63.5c0,1.8,0.2,3,0.6,3.6
			c0.4,0.6,0.9,0.9,1.6,0.9c0.6,0,1.1-0.3,1.6-0.9c0.4-0.6,0.6-1.8,0.6-3.6c0-1.8-0.2-3-0.6-3.6C29,59.3,28.4,59,27.8,59
			c-0.6,0-1.1,0.3-1.5,0.8C25.9,60.5,25.7,61.7,25.7,63.5z"/>
	</g>
</g>
<g>
	<g class="st4">
		<path class="st5" d="M3.3,38.9l1.3-0.2C4.8,39.5,5,40,5.4,40.4c0.4,0.3,0.8,0.5,1.4,0.5c0.6,0,1.2-0.2,1.6-0.7
			c0.4-0.4,0.7-1,0.7-1.6c0-0.6-0.2-1.1-0.6-1.5c-0.4-0.4-0.9-0.6-1.5-0.6c-0.3,0-0.6,0-0.9,0.1l0.1-1.2c0.1,0,0.2,0,0.2,0
			c0.6,0,1.1-0.1,1.5-0.4c0.5-0.3,0.7-0.8,0.7-1.4c0-0.5-0.2-0.9-0.5-1.2c-0.3-0.3-0.8-0.5-1.3-0.5c-0.5,0-1,0.2-1.3,0.5
			s-0.6,0.8-0.7,1.5l-1.3-0.2c0.2-0.9,0.5-1.6,1.1-2.1c0.6-0.5,1.3-0.7,2.2-0.7c0.6,0,1.1,0.1,1.6,0.4c0.5,0.3,0.9,0.6,1.2,1
			c0.3,0.4,0.4,0.9,0.4,1.4c0,0.5-0.1,0.9-0.4,1.3s-0.6,0.7-1.1,0.9C9,36,9.5,36.3,9.9,36.8c0.4,0.5,0.5,1.1,0.5,1.8
			c0,1-0.3,1.8-1,2.4c-0.7,0.7-1.6,1-2.6,1c-1,0-1.8-0.3-2.4-0.9C3.7,40.6,3.4,39.8,3.3,38.9z"/>
	</g>
	<g class="st4">
		<path class="st5" d="M12.5,41.8v-1.5h1.5v1.5H12.5z"/>
	</g>
	<g class="st4">
		<path class="st5" d="M16.1,36.4c0-1.3,0.1-2.3,0.4-3.1s0.7-1.4,1.2-1.8c0.5-0.4,1.2-0.6,2-0.6c0.6,0,1.1,0.1,1.5,0.4
			c0.4,0.2,0.8,0.6,1.1,1c0.3,0.4,0.5,1,0.7,1.6c0.2,0.6,0.2,1.5,0.2,2.6c0,1.3-0.1,2.3-0.4,3.1c-0.3,0.8-0.7,1.4-1.2,1.8
			c-0.5,0.4-1.2,0.6-2,0.6c-1.1,0-1.9-0.4-2.5-1.1C16.4,39.9,16.1,38.5,16.1,36.4z M17.5,36.4c0,1.8,0.2,3,0.6,3.6
			c0.4,0.6,0.9,0.9,1.6,0.9c0.6,0,1.1-0.3,1.6-0.9c0.4-0.6,0.6-1.8,0.6-3.6c0-1.8-0.2-3-0.6-3.6c-0.4-0.6-0.9-0.9-1.6-0.9
			c-0.6,0-1.1,0.3-1.5,0.8C17.7,33.4,17.5,34.6,17.5,36.4z"/>
	</g>
	<g class="st4">
		<path class="st5" d="M24.3,36.4c0-1.3,0.1-2.3,0.4-3.1s0.7-1.4,1.2-1.8c0.5-0.4,1.2-0.6,2-0.6c0.6,0,1.1,0.1,1.5,0.4
			c0.4,0.2,0.8,0.6,1.1,1c0.3,0.4,0.5,1,0.7,1.6c0.2,0.6,0.2,1.5,0.2,2.6c0,1.3-0.1,2.3-0.4,3.1c-0.3,0.8-0.7,1.4-1.2,1.8
			c-0.5,0.4-1.2,0.6-2,0.6c-1.1,0-1.9-0.4-2.5-1.1C24.6,39.9,24.3,38.5,24.3,36.4z M25.7,36.4c0,1.8,0.2,3,0.6,3.6
			c0.4,0.6,0.9,0.9,1.6,0.9c0.6,0,1.1-0.3,1.6-0.9c0.4-0.6,0.6-1.8,0.6-3.6c0-1.8-0.2-3-0.6-3.6c-0.4-0.6-0.9-0.9-1.6-0.9
			c-0.6,0-1.1,0.3-1.5,0.8C25.9,33.4,25.7,34.6,25.7,36.4z"/>
	</g>
</g>
<g>
	<g>
		<g class="st4">
			<path class="st6" d="M3.3,11.8l1.3-0.2c0.2,0.8,0.4,1.3,0.8,1.7c0.4,0.3,0.8,0.5,1.4,0.5c0.6,0,1.2-0.2,1.6-0.7
				c0.4-0.4,0.7-1,0.7-1.6c0-0.6-0.2-1.1-0.6-1.5C8,9.5,7.5,9.3,6.9,9.3c-0.3,0-0.6,0-1,0.1l0.1-1.2c0.1,0,0.2,0,0.2,0
				c0.6,0,1.1-0.1,1.6-0.4s0.7-0.8,0.7-1.4c0-0.5-0.2-0.9-0.5-1.2C7.7,4.9,7.3,4.8,6.8,4.8c-0.5,0-1,0.2-1.3,0.5
				C5.1,5.6,4.9,6.1,4.8,6.7L3.4,6.5C3.6,5.6,4,4.9,4.5,4.4s1.3-0.7,2.2-0.7c0.6,0,1.2,0.1,1.7,0.4c0.5,0.3,0.9,0.6,1.2,1.1
				C9.8,5.5,9.9,6,9.9,6.5c0,0.5-0.1,0.9-0.4,1.3S8.9,8.5,8.4,8.7c0.6,0.1,1.2,0.5,1.5,0.9c0.4,0.5,0.5,1.1,0.5,1.8
				c0,1-0.4,1.8-1,2.4s-1.6,1-2.7,1c-1,0-1.8-0.3-2.4-0.9C3.7,13.4,3.4,12.7,3.3,11.8z"/>
			<path class="st6" d="M12.6,14.7v-1.5h1.5v1.5H12.6z"/>
			<path class="st6" d="M16.1,11.8l1.4-0.1c0.1,0.7,0.3,1.2,0.7,1.6c0.4,0.3,0.8,0.5,1.4,0.5c0.6,0,1.2-0.2,1.6-0.7
				c0.4-0.5,0.7-1.1,0.7-1.9c0-0.8-0.2-1.4-0.6-1.8s-1-0.7-1.7-0.7c-0.4,0-0.8,0.1-1.2,0.3s-0.6,0.5-0.8,0.8l-1.3-0.2l1.1-5.6h5.5
				v1.3h-4.4l-0.6,3c0.7-0.5,1.4-0.7,2.1-0.7c1,0,1.8,0.3,2.4,1c0.7,0.7,1,1.5,1,2.6c0,1-0.3,1.9-0.9,2.6c-0.7,0.9-1.7,1.3-2.9,1.3
				c-1,0-1.8-0.3-2.4-0.8C16.5,13.5,16.2,12.7,16.1,11.8z"/>
			<path class="st6" d="M24.6,9.3c0-1.3,0.1-2.3,0.4-3.1c0.3-0.8,0.7-1.4,1.2-1.8c0.5-0.4,1.2-0.6,2-0.6c0.6,0,1.1,0.1,1.6,0.4
				c0.4,0.2,0.8,0.6,1.1,1s0.5,1,0.7,1.6c0.2,0.6,0.2,1.5,0.2,2.6c0,1.3-0.1,2.3-0.4,3.1c-0.3,0.8-0.7,1.4-1.2,1.8
				c-0.5,0.4-1.2,0.6-2,0.6c-1.1,0-1.9-0.4-2.5-1.1C25,12.8,24.6,11.3,24.6,9.3z M26,9.3c0,1.8,0.2,3,0.6,3.6
				c0.4,0.6,0.9,0.9,1.6,0.9c0.6,0,1.1-0.3,1.6-0.9c0.4-0.6,0.6-1.8,0.6-3.6c0-1.8-0.2-3-0.6-3.6c-0.4-0.6-0.9-0.9-1.6-0.9
				c-0.6,0-1.1,0.3-1.5,0.8C26.2,6.2,26,7.5,26,9.3z"/>
		</g>
	</g>
</g>
<line class="st1" x1="117.9" y1="289.2" x2="166.8" y2="289.2"/>
<g>
	<g>
		<g class="st4">
			<path class="st6" d="M173.2,294.2v-11h4.1c0.8,0,1.5,0.1,2,0.3c0.5,0.2,0.9,0.6,1.2,1c0.3,0.5,0.4,0.9,0.4,1.5
				c0,0.5-0.1,0.9-0.4,1.3c-0.3,0.4-0.6,0.7-1.2,1c0.7,0.2,1.2,0.5,1.5,1c0.4,0.5,0.5,1,0.5,1.7c0,0.5-0.1,1-0.3,1.4
				c-0.2,0.4-0.5,0.8-0.8,1c-0.3,0.2-0.7,0.4-1.2,0.5c-0.5,0.1-1.1,0.2-1.8,0.2H173.2z M174.7,287.8h2.4c0.6,0,1.1,0,1.4-0.1
				c0.4-0.1,0.6-0.3,0.8-0.5c0.2-0.3,0.3-0.6,0.3-1c0-0.4-0.1-0.7-0.3-1c-0.2-0.3-0.4-0.5-0.7-0.6c-0.3-0.1-0.9-0.2-1.7-0.2h-2.2
				V287.8z M174.7,292.9h2.7c0.5,0,0.8,0,1-0.1c0.3-0.1,0.6-0.2,0.8-0.3c0.2-0.1,0.4-0.3,0.6-0.6c0.1-0.3,0.2-0.6,0.2-0.9
				c0-0.4-0.1-0.8-0.3-1.1c-0.2-0.3-0.5-0.5-0.9-0.6c-0.4-0.1-0.9-0.2-1.6-0.2h-2.5V292.9z"/>
			<path class="st6" d="M183.5,294.2v-11h7.9v1.3H185v3.4h6.1v1.3H185v3.7h6.7v1.3H183.5z"/>
			<path class="st6" d="M196.5,294.2v-9.7h-3.6v-1.3h8.7v1.3H198v9.7H196.5z"/>
			<path class="st6" d="M200.8,294.2l4.2-11h1.6l4.5,11h-1.7l-1.3-3.3h-4.6l-1.2,3.3H200.8z M203.9,289.7h3.7l-1.1-3
				c-0.3-0.9-0.6-1.7-0.8-2.3c-0.1,0.7-0.3,1.4-0.6,2.1L203.9,289.7z"/>
		</g>
	</g>
</g>
<line class="st2" x1="241.9" y1="289.2" x2="290.7" y2="289.2"/>
<g>
	<g>
		<g class="st4">
			<path class="st6" d="M296.8,290.7l1.4-0.1c0.1,0.5,0.2,1,0.5,1.4c0.2,0.4,0.6,0.6,1.1,0.9c0.5,0.2,1.1,0.3,1.7,0.3
				c0.6,0,1-0.1,1.5-0.2c0.4-0.2,0.7-0.4,0.9-0.7c0.2-0.3,0.3-0.6,0.3-0.9c0-0.3-0.1-0.6-0.3-0.9c-0.2-0.3-0.5-0.5-1-0.6
				c-0.3-0.1-0.9-0.3-2-0.5s-1.7-0.5-2.1-0.7c-0.5-0.3-0.9-0.6-1.2-1c-0.3-0.4-0.4-0.9-0.4-1.4c0-0.6,0.2-1.1,0.5-1.6
				c0.3-0.5,0.8-0.8,1.4-1.1c0.6-0.2,1.3-0.4,2-0.4c0.8,0,1.5,0.1,2.2,0.4c0.6,0.3,1.1,0.6,1.4,1.2s0.5,1.1,0.5,1.7l-1.4,0.1
				c-0.1-0.7-0.3-1.2-0.8-1.6c-0.4-0.4-1.1-0.5-1.9-0.5c-0.9,0-1.5,0.2-1.9,0.5s-0.6,0.7-0.6,1.2c0,0.4,0.1,0.7,0.4,1
				c0.3,0.3,1,0.5,2.2,0.8c1.2,0.3,2,0.5,2.4,0.7c0.6,0.3,1.1,0.7,1.4,1.1s0.5,1,0.5,1.6c0,0.6-0.2,1.1-0.5,1.7
				c-0.3,0.5-0.8,0.9-1.4,1.2s-1.3,0.4-2.1,0.4c-1,0-1.8-0.1-2.5-0.4c-0.7-0.3-1.2-0.7-1.6-1.3C297,292,296.8,291.4,296.8,290.7z"/>
			<path class="st6" d="M307.5,294.2v-11h4.1c0.7,0,1.3,0,1.7,0.1c0.5,0.1,1,0.3,1.4,0.5c0.4,0.3,0.7,0.6,0.9,1.1
				c0.2,0.5,0.3,1,0.3,1.5c0,0.9-0.3,1.7-0.9,2.4c-0.6,0.6-1.7,1-3.2,1H309v4.5H307.5z M309,288.4h2.8c0.9,0,1.6-0.2,2-0.5
				c0.4-0.3,0.6-0.8,0.6-1.5c0-0.5-0.1-0.9-0.3-1.2c-0.2-0.3-0.5-0.5-0.9-0.6c-0.2-0.1-0.7-0.1-1.4-0.1H309V288.4z"/>
			<path class="st6" d="M317.2,291.3l1.4-0.1c0.1,0.7,0.3,1.2,0.7,1.6c0.4,0.3,0.8,0.5,1.4,0.5c0.6,0,1.2-0.2,1.6-0.7
				c0.4-0.5,0.7-1.1,0.7-1.9c0-0.8-0.2-1.4-0.6-1.8s-1-0.7-1.7-0.7c-0.4,0-0.8,0.1-1.2,0.3s-0.6,0.5-0.8,0.8l-1.3-0.2l1.1-5.6h5.5
				v1.3h-4.4l-0.6,3c0.7-0.5,1.4-0.7,2.1-0.7c1,0,1.8,0.3,2.4,1c0.7,0.7,1,1.5,1,2.6c0,1-0.3,1.9-0.9,2.6c-0.7,0.9-1.7,1.3-2.9,1.3
				c-1,0-1.8-0.3-2.4-0.8C317.7,293,317.3,292.2,317.2,291.3z"/>
			<path class="st6" d="M325.8,288.8c0-1.3,0.1-2.3,0.4-3.1c0.3-0.8,0.7-1.4,1.2-1.8c0.5-0.4,1.2-0.6,2-0.6c0.6,0,1.1,0.1,1.6,0.4
				c0.4,0.2,0.8,0.6,1.1,1c0.3,0.4,0.5,1,0.7,1.6c0.2,0.6,0.2,1.5,0.2,2.6c0,1.3-0.1,2.3-0.4,3.1c-0.3,0.8-0.7,1.4-1.2,1.8
				c-0.5,0.4-1.2,0.6-2,0.6c-1.1,0-1.9-0.4-2.5-1.1C326.1,292.3,325.8,290.8,325.8,288.8z M327.1,288.8c0,1.8,0.2,3,0.6,3.6
				c0.4,0.6,0.9,0.9,1.6,0.9c0.6,0,1.1-0.3,1.6-0.9c0.4-0.6,0.6-1.8,0.6-3.6c0-1.8-0.2-3-0.6-3.6c-0.4-0.6-0.9-0.9-1.6-0.9
				c-0.6,0-1.1,0.3-1.5,0.8C327.4,285.7,327.1,287,327.1,288.8z"/>
			<path class="st6" d="M334.3,288.8c0-1.3,0.1-2.3,0.4-3.1c0.3-0.8,0.7-1.4,1.2-1.8c0.5-0.4,1.2-0.6,2-0.6c0.6,0,1.1,0.1,1.6,0.4
				s0.8,0.6,1.1,1s0.5,1,0.7,1.6s0.2,1.5,0.2,2.6c0,1.3-0.1,2.3-0.4,3.1c-0.3,0.8-0.7,1.4-1.2,1.8c-0.5,0.4-1.2,0.6-2,0.6
				c-1.1,0-1.9-0.4-2.5-1.1C334.6,292.3,334.3,290.8,334.3,288.8z M335.7,288.8c0,1.8,0.2,3,0.6,3.6c0.4,0.6,0.9,0.9,1.6,0.9
				c0.6,0,1.1-0.3,1.6-0.9c0.4-0.6,0.6-1.8,0.6-3.6c0-1.8-0.2-3-0.6-3.6c-0.4-0.6-0.9-0.9-1.6-0.9c-0.6,0-1.1,0.3-1.5,0.8
				C335.9,285.7,335.7,287,335.7,288.8z"/>
		</g>
	</g>
</g>
<line class="st3" x1="363.9" y1="289.2" x2="412.7" y2="289.2"/>
<g>
	<g>
		<g class="st4">
			<path class="st6" d="M419.2,294.2v-11h4.1c0.8,0,1.5,0.1,2,0.3s0.9,0.6,1.2,1c0.3,0.5,0.4,0.9,0.4,1.5c0,0.5-0.1,0.9-0.4,1.3
				c-0.3,0.4-0.6,0.7-1.2,1c0.7,0.2,1.2,0.5,1.5,1s0.5,1,0.5,1.7c0,0.5-0.1,1-0.3,1.4c-0.2,0.4-0.5,0.8-0.8,1
				c-0.3,0.2-0.7,0.4-1.2,0.5c-0.5,0.1-1.1,0.2-1.8,0.2H419.2z M420.7,287.8h2.4c0.6,0,1.1,0,1.4-0.1c0.4-0.1,0.6-0.3,0.8-0.5
				c0.2-0.3,0.3-0.6,0.3-1c0-0.4-0.1-0.7-0.3-1c-0.2-0.3-0.4-0.5-0.8-0.6c-0.3-0.1-0.9-0.2-1.7-0.2h-2.2V287.8z M420.7,292.9h2.7
				c0.5,0,0.8,0,1-0.1c0.3-0.1,0.6-0.2,0.8-0.3s0.4-0.3,0.6-0.6c0.1-0.3,0.2-0.6,0.2-0.9c0-0.4-0.1-0.8-0.3-1.1
				c-0.2-0.3-0.5-0.5-0.9-0.6c-0.4-0.1-0.9-0.2-1.6-0.2h-2.5V292.9z"/>
			<path class="st6" d="M429.6,294.2v-11h1.5v4.5h5.7v-4.5h1.5v11h-1.5V289H431v5.2H429.6z"/>
			<path class="st6" d="M440.7,294.2v-11h7.4v1.3h-6v3.4h5.2v1.3h-5.2v5H440.7z"/>
			<path class="st6" d="M450.2,294.2v-11h1.5v11H450.2z"/>
		</g>
	</g>
</g>
<g>
	<g class="st4">
		<path class="st6" d="M55.2,258.5h-11v-3.8c0-0.9,0.1-1.5,0.2-2c0.1-0.6,0.4-1.2,0.8-1.6c0.5-0.6,1.1-1,1.9-1.3
			c0.8-0.3,1.6-0.4,2.6-0.4c0.8,0,1.6,0.1,2.2,0.3c0.6,0.2,1.2,0.4,1.6,0.8s0.8,0.6,1,1s0.4,0.8,0.6,1.3c0.1,0.5,0.2,1.1,0.2,1.8
			V258.5z M53.9,257.1v-2.3c0-0.7-0.1-1.3-0.2-1.7c-0.1-0.4-0.3-0.7-0.6-1c-0.3-0.3-0.8-0.6-1.4-0.8s-1.3-0.3-2.1-0.3
			c-1.1,0-2,0.2-2.6,0.6c-0.6,0.4-1,0.8-1.2,1.4c-0.1,0.4-0.2,1-0.2,1.9v2.3H53.9z"/>
		<path class="st6" d="M52.6,242.1l0.2-1.4c0.8,0.2,1.4,0.6,1.9,1.2c0.4,0.6,0.7,1.4,0.7,2.3c0,1.2-0.4,2.1-1.1,2.8s-1.7,1-3,1
			c-1.3,0-2.4-0.3-3.1-1c-0.7-0.7-1.1-1.6-1.1-2.7c0-1.1,0.4-1.9,1.1-2.6c0.7-0.7,1.7-1,3.1-1c0.1,0,0.2,0,0.4,0v5.9
			c0.9,0,1.5-0.3,2-0.7s0.7-1,0.7-1.7c0-0.5-0.1-0.9-0.4-1.3C53.6,242.6,53.2,242.4,52.6,242.1z M50.4,246.6v-4.4
			c-0.7,0.1-1.2,0.2-1.5,0.5c-0.5,0.4-0.8,1-0.8,1.7c0,0.6,0.2,1.1,0.6,1.6C49.2,246.3,49.8,246.5,50.4,246.6z"/>
		<path class="st6" d="M52.3,233.9l0.2-1.3c0.9,0.1,1.6,0.5,2.1,1.1c0.5,0.6,0.8,1.3,0.8,2.2c0,1.1-0.4,2-1.1,2.6
			c-0.7,0.7-1.7,1-3.1,1c-0.9,0-1.6-0.1-2.3-0.4c-0.6-0.3-1.1-0.7-1.5-1.3s-0.5-1.2-0.5-1.9c0-0.9,0.2-1.6,0.7-2.1
			c0.4-0.5,1.1-0.9,1.9-1.1l0.2,1.3c-0.5,0.1-0.9,0.3-1.2,0.7c-0.3,0.3-0.4,0.7-0.4,1.2c0,0.7,0.2,1.2,0.7,1.7
			c0.5,0.4,1.3,0.6,2.3,0.6c1.1,0,1.8-0.2,2.3-0.6c0.5-0.4,0.7-0.9,0.7-1.6c0-0.5-0.2-1-0.5-1.3C53.5,234.2,53,234,52.3,233.9z"/>
	</g>
	<g class="st4">
		<path class="st6" d="M51.9,232.2h-1.4v-4.1h1.4V232.2z"/>
	</g>
	<g class="st4">
		<path class="st6" d="M53.9,219.8h1.3v7.3c-0.3,0-0.6,0-0.9-0.2c-0.5-0.2-1-0.5-1.5-0.9s-1-1-1.7-1.8c-1-1.2-1.8-2-2.3-2.4
			c-0.6-0.4-1.1-0.6-1.6-0.6c-0.5,0-1,0.2-1.4,0.6s-0.6,0.9-0.6,1.5c0,0.6,0.2,1.2,0.6,1.6s0.9,0.6,1.6,0.6l-0.1,1.4
			c-1-0.1-1.8-0.5-2.4-1.1s-0.8-1.5-0.8-2.5c0-1.1,0.3-1.9,0.9-2.5c0.6-0.6,1.3-0.9,2.2-0.9c0.4,0,0.9,0.1,1.3,0.3
			c0.4,0.2,0.9,0.5,1.3,0.9c0.5,0.4,1.1,1.1,1.9,2.1c0.7,0.8,1.1,1.3,1.4,1.6c0.2,0.2,0.5,0.4,0.7,0.6V219.8z"/>
		<path class="st6" d="M55.2,213.2v1.3h-8.6c0.3,0.3,0.6,0.8,0.9,1.3c0.3,0.5,0.5,1,0.7,1.4h-1.3c-0.4-0.8-0.8-1.4-1.3-2
			c-0.5-0.6-1-1-1.5-1.2v-0.9H55.2z"/>
	</g>
</g>
<g>
	<g class="st4">
		<path class="st6" d="M90.2,256.7l-0.2-1.3c0.8,0,1.4-0.2,1.7-0.5c0.3-0.3,0.5-0.7,0.5-1.2c0-0.4-0.1-0.7-0.3-0.9
			c-0.2-0.3-0.4-0.4-0.7-0.5s-0.7-0.1-1.4-0.1h-7.6v-1.5h7.5c0.9,0,1.6,0.1,2.1,0.3c0.5,0.2,0.9,0.6,1.2,1.1s0.4,1,0.4,1.7
			c0,1-0.3,1.7-0.8,2.2S91.3,256.7,90.2,256.7z"/>
		<path class="st6" d="M92.4,243.3c0.4,0.5,0.7,1,0.9,1.4s0.3,1,0.3,1.5c0,0.9-0.2,1.5-0.6,2s-1,0.7-1.6,0.7c-0.4,0-0.7-0.1-1.1-0.3
			s-0.6-0.4-0.8-0.7c-0.2-0.3-0.3-0.6-0.4-1c-0.1-0.3-0.1-0.7-0.2-1.2c-0.1-1.1-0.3-1.9-0.5-2.4c-0.2,0-0.3,0-0.4,0
			c-0.5,0-0.9,0.1-1.2,0.4c-0.3,0.3-0.5,0.9-0.5,1.5c0,0.6,0.1,1.1,0.3,1.4c0.2,0.3,0.6,0.5,1.2,0.7l-0.2,1.3
			c-0.6-0.1-1-0.3-1.4-0.6c-0.3-0.3-0.6-0.7-0.8-1.2c-0.2-0.5-0.3-1.1-0.3-1.8c0-0.7,0.1-1.2,0.2-1.7c0.2-0.4,0.4-0.7,0.6-0.9
			c0.2-0.2,0.5-0.3,0.9-0.4c0.2,0,0.6-0.1,1.2-0.1H90c1.3,0,2,0,2.4-0.1c0.3-0.1,0.7-0.2,1-0.3v1.4
			C93.1,243.1,92.8,243.2,92.4,243.3z M89.4,243.4c0.2,0.5,0.4,1.2,0.5,2.2c0.1,0.6,0.2,0.9,0.3,1.2c0.1,0.2,0.2,0.4,0.4,0.5
			s0.4,0.2,0.6,0.2c0.4,0,0.7-0.1,0.9-0.4c0.2-0.3,0.4-0.7,0.4-1.2c0-0.5-0.1-1-0.3-1.4c-0.2-0.4-0.5-0.7-0.9-0.9
			c-0.3-0.1-0.8-0.2-1.3-0.2H89.4z"/>
		<path class="st6" d="M93.4,239.9h-8v-1.2h1.1c-0.9-0.6-1.3-1.4-1.3-2.5c0-0.5,0.1-0.9,0.3-1.3c0.2-0.4,0.4-0.7,0.7-0.9
			c0.3-0.2,0.6-0.3,1-0.4c0.2,0,0.7-0.1,1.3-0.1h4.9v1.3h-4.8c-0.5,0-1,0.1-1.2,0.2c-0.3,0.1-0.5,0.3-0.7,0.6
			c-0.2,0.3-0.2,0.6-0.2,0.9c0,0.6,0.2,1.1,0.5,1.5c0.4,0.4,1.1,0.6,2.1,0.6h4.3V239.9z"/>
	</g>
	<g class="st4">
		<path class="st6" d="M90.1,232.2h-1.4V228h1.4V232.2z"/>
	</g>
	<g class="st4">
		<path class="st6" d="M92.1,219.7h1.3v7.3c-0.3,0-0.6,0-0.9-0.2c-0.5-0.2-1-0.5-1.5-0.9s-1-1-1.7-1.8c-1-1.2-1.8-2-2.3-2.4
			s-1.1-0.6-1.6-0.6c-0.5,0-1,0.2-1.4,0.6c-0.4,0.4-0.6,0.9-0.6,1.5c0,0.6,0.2,1.2,0.6,1.6s0.9,0.6,1.6,0.6l-0.1,1.4
			c-1-0.1-1.8-0.5-2.4-1.1c-0.5-0.6-0.8-1.5-0.8-2.5c0-1.1,0.3-1.9,0.9-2.5c0.6-0.6,1.3-0.9,2.2-0.9c0.4,0,0.9,0.1,1.3,0.3
			s0.9,0.5,1.3,0.9c0.5,0.4,1.1,1.1,1.9,2.1c0.7,0.8,1.1,1.3,1.4,1.6c0.2,0.2,0.5,0.4,0.7,0.6V219.7z"/>
		<path class="st6" d="M92.1,211.2h1.3v7.3c-0.3,0-0.6,0-0.9-0.2c-0.5-0.2-1-0.5-1.5-0.9c-0.5-0.4-1-1-1.7-1.8c-1-1.2-1.8-2-2.3-2.4
			s-1.1-0.6-1.6-0.6c-0.5,0-1,0.2-1.4,0.6c-0.4,0.4-0.6,0.9-0.6,1.5c0,0.6,0.2,1.2,0.6,1.6c0.4,0.4,0.9,0.6,1.6,0.6l-0.1,1.4
			c-1-0.1-1.8-0.5-2.4-1.1s-0.8-1.5-0.8-2.5c0-1.1,0.3-1.9,0.9-2.5c0.6-0.6,1.3-0.9,2.2-0.9c0.4,0,0.9,0.1,1.3,0.3s0.9,0.5,1.3,0.9
			c0.5,0.4,1.1,1.1,1.9,2.1c0.7,0.8,1.1,1.3,1.4,1.6c0.2,0.2,0.5,0.4,0.7,0.6V211.2z"/>
	</g>
</g>
<g>
	<g class="st4">
		<path class="st6" d="M131.5,257.6h-11v-7.4h1.3v6h3.4V251h1.3v5.2h5V257.6z"/>
		<path class="st6" d="M129,243l0.2-1.4c0.8,0.2,1.4,0.6,1.9,1.2c0.4,0.6,0.7,1.4,0.7,2.3c0,1.2-0.4,2.1-1.1,2.8c-0.7,0.7-1.7,1-3,1
			c-1.3,0-2.4-0.3-3.1-1c-0.7-0.7-1.1-1.6-1.1-2.7c0-1.1,0.4-1.9,1.1-2.6s1.7-1,3.1-1c0.1,0,0.2,0,0.4,0v5.9c0.9,0,1.5-0.3,2-0.7
			c0.5-0.4,0.7-1,0.7-1.7c0-0.5-0.1-0.9-0.4-1.3C130,243.5,129.5,243.2,129,243z M126.8,247.4V243c-0.7,0.1-1.2,0.2-1.5,0.5
			c-0.5,0.4-0.8,1-0.8,1.7c0,0.6,0.2,1.1,0.6,1.6C125.5,247.1,126.1,247.4,126.8,247.4z"/>
		<path class="st6" d="M131.5,238.7v1.3h-11v-1.3h3.9c-0.7-0.6-1.1-1.3-1.1-2.2c0-0.5,0.1-1,0.3-1.4c0.2-0.4,0.5-0.8,0.8-1.1
			s0.8-0.5,1.3-0.7c0.5-0.2,1-0.2,1.6-0.2c1.4,0,2.4,0.3,3.2,1s1.1,1.5,1.1,2.4c0,0.9-0.4,1.7-1.2,2.2H131.5z M127.5,238.7
			c1,0,1.6-0.1,2.1-0.4c0.7-0.4,1-1,1-1.7c0-0.6-0.3-1.1-0.8-1.5s-1.3-0.6-2.3-0.6c-1,0-1.8,0.2-2.3,0.6c-0.5,0.4-0.7,0.9-0.7,1.5
			c0,0.6,0.3,1.1,0.8,1.5C125.8,238.5,126.5,238.7,127.5,238.7z"/>
		<path class="st6" d="M128.2,231.9h-1.4v-4.1h1.4V231.9z"/>
		<path class="st6" d="M130.2,219.5h1.3v7.3c-0.3,0-0.6,0-0.9-0.2c-0.5-0.2-1-0.5-1.5-0.9c-0.5-0.4-1-1-1.7-1.8
			c-1-1.2-1.8-2-2.3-2.4s-1.1-0.6-1.6-0.6c-0.5,0-1,0.2-1.4,0.6c-0.4,0.4-0.6,0.9-0.6,1.5c0,0.6,0.2,1.2,0.6,1.6
			c0.4,0.4,0.9,0.6,1.6,0.6l-0.1,1.4c-1-0.1-1.8-0.5-2.4-1.1s-0.8-1.5-0.8-2.5c0-1.1,0.3-1.9,0.9-2.5c0.6-0.6,1.3-0.9,2.2-0.9
			c0.4,0,0.9,0.1,1.3,0.3s0.9,0.5,1.3,0.9c0.5,0.4,1.1,1.1,1.9,2.1c0.7,0.8,1.1,1.3,1.4,1.6c0.2,0.2,0.5,0.4,0.7,0.6V219.5z"/>
		<path class="st6" d="M130.2,211h1.3v7.3c-0.3,0-0.6,0-0.9-0.2c-0.5-0.2-1-0.5-1.5-0.9c-0.5-0.4-1-1-1.7-1.8c-1-1.2-1.8-2-2.3-2.4
			c-0.6-0.4-1.1-0.6-1.6-0.6c-0.5,0-1,0.2-1.4,0.6c-0.4,0.4-0.6,0.9-0.6,1.5c0,0.7,0.2,1.2,0.6,1.6c0.4,0.4,0.9,0.6,1.6,0.6
			l-0.1,1.4c-1-0.1-1.8-0.5-2.4-1.1c-0.5-0.6-0.8-1.5-0.8-2.5c0-1.1,0.3-1.9,0.9-2.5c0.6-0.6,1.3-0.9,2.2-0.9c0.4,0,0.9,0.1,1.3,0.3
			c0.4,0.2,0.9,0.5,1.3,0.9c0.5,0.4,1.1,1.1,1.9,2.1c0.7,0.8,1.1,1.3,1.4,1.6c0.2,0.2,0.5,0.4,0.7,0.6V211z"/>
	</g>
</g>
<g>
	<g class="st4">
		<path class="st6" d="M169.7,257.7h-11v-2.2l7.8-2.6c0.7-0.2,1.3-0.4,1.6-0.5c-0.4-0.1-1-0.3-1.8-0.6l-7.6-2.6v-2h11v1.4h-9.2
			l9.2,3.2v1.3l-9.4,3.2h9.4V257.7z"/>
		<path class="st6" d="M168.7,239.8c0.4,0.5,0.7,1,0.9,1.4s0.3,1,0.3,1.5c0,0.9-0.2,1.5-0.6,2s-1,0.7-1.6,0.7
			c-0.4,0-0.7-0.1-1.1-0.3s-0.6-0.4-0.8-0.7c-0.2-0.3-0.3-0.6-0.4-1c-0.1-0.3-0.1-0.7-0.2-1.2c-0.1-1.1-0.3-1.9-0.5-2.4
			c-0.2,0-0.3,0-0.4,0c-0.5,0-0.9,0.1-1.2,0.4c-0.3,0.3-0.5,0.9-0.5,1.5c0,0.6,0.1,1.1,0.3,1.4c0.2,0.3,0.6,0.5,1.2,0.7l-0.2,1.3
			c-0.6-0.1-1-0.3-1.4-0.6c-0.3-0.3-0.6-0.7-0.8-1.2s-0.3-1.1-0.3-1.8c0-0.7,0.1-1.2,0.2-1.7c0.2-0.4,0.4-0.7,0.6-0.9
			c0.2-0.2,0.5-0.3,0.9-0.4c0.2,0,0.6-0.1,1.2-0.1h1.8c1.3,0,2,0,2.4-0.1c0.3-0.1,0.7-0.2,1-0.3v1.4
			C169.4,239.7,169.1,239.8,168.7,239.8z M165.7,239.9c0.2,0.5,0.4,1.2,0.5,2.2c0.1,0.6,0.2,0.9,0.3,1.2c0.1,0.2,0.2,0.4,0.4,0.5
			c0.2,0.1,0.4,0.2,0.6,0.2c0.4,0,0.7-0.1,0.9-0.4s0.4-0.7,0.4-1.2c0-0.5-0.1-1-0.3-1.4c-0.2-0.4-0.5-0.7-0.9-0.9
			c-0.3-0.1-0.8-0.2-1.3-0.2H165.7z"/>
		<path class="st6" d="M169.7,236.5h-8v-1.2h1.2c-0.6-0.3-0.9-0.6-1.1-0.9c-0.2-0.3-0.3-0.6-0.3-0.9c0-0.5,0.1-0.9,0.4-1.4l1.3,0.5
			c-0.2,0.3-0.3,0.7-0.3,1c0,0.3,0.1,0.6,0.3,0.8c0.2,0.2,0.4,0.4,0.7,0.5c0.5,0.1,1,0.2,1.6,0.2h4.2V236.5z"/>
		<path class="st6" d="M166.4,231.9h-1.4v-4.1h1.4V231.9z"/>
		<path class="st6" d="M168.4,219.5h1.3v7.3c-0.3,0-0.6,0-0.9-0.2c-0.5-0.2-1-0.5-1.5-0.9s-1-1-1.7-1.8c-1-1.2-1.8-2-2.3-2.4
			s-1.1-0.6-1.6-0.6c-0.5,0-1,0.2-1.4,0.6c-0.4,0.4-0.6,0.9-0.6,1.5c0,0.6,0.2,1.2,0.6,1.6s0.9,0.6,1.6,0.6l-0.1,1.4
			c-1-0.1-1.8-0.5-2.4-1.1c-0.5-0.6-0.8-1.5-0.8-2.5c0-1.1,0.3-1.9,0.9-2.5c0.6-0.6,1.3-0.9,2.2-0.9c0.4,0,0.9,0.1,1.3,0.3
			s0.9,0.5,1.3,0.9c0.5,0.4,1.1,1.1,1.9,2.1c0.7,0.8,1.1,1.3,1.4,1.6c0.2,0.2,0.5,0.4,0.7,0.6V219.5z"/>
		<path class="st6" d="M168.4,211h1.3v7.3c-0.3,0-0.6,0-0.9-0.2c-0.5-0.2-1-0.5-1.5-0.9c-0.5-0.4-1-1-1.7-1.8c-1-1.2-1.8-2-2.3-2.4
			s-1.1-0.6-1.6-0.6c-0.5,0-1,0.2-1.4,0.6c-0.4,0.4-0.6,0.9-0.6,1.5c0,0.6,0.2,1.2,0.6,1.6c0.4,0.4,0.9,0.6,1.6,0.6l-0.1,1.4
			c-1-0.1-1.8-0.5-2.4-1.1s-0.8-1.5-0.8-2.5c0-1.1,0.3-1.9,0.9-2.5c0.6-0.6,1.3-0.9,2.2-0.9c0.4,0,0.9,0.1,1.3,0.3s0.9,0.5,1.3,0.9
			c0.5,0.4,1.1,1.1,1.9,2.1c0.7,0.8,1.1,1.3,1.4,1.6c0.2,0.2,0.5,0.4,0.7,0.6V211z"/>
	</g>
</g>
<g>
	<g class="st4">
		<path class="st6" d="M207.9,256.3l-11-4.2v-1.6l11-4.5v1.7l-3.3,1.3v4.6l3.3,1.2V256.3z M203.4,253.1v-3.7l-3,1.1
			c-0.9,0.3-1.7,0.6-2.3,0.8c0.7,0.1,1.4,0.3,2.1,0.6L203.4,253.1z"/>
		<path class="st6" d="M210.9,245h-11v-1.2h1c-0.4-0.3-0.7-0.6-0.9-1c-0.2-0.4-0.3-0.8-0.3-1.3c0-0.7,0.2-1.3,0.5-1.8
			s0.8-0.9,1.5-1.2c0.6-0.3,1.3-0.4,2.1-0.4c0.8,0,1.5,0.1,2.2,0.4c0.7,0.3,1.2,0.7,1.5,1.3c0.3,0.6,0.5,1.1,0.5,1.8
			c0,0.4-0.1,0.9-0.3,1.2c-0.2,0.4-0.4,0.7-0.7,0.9h3.9V245z M204,243.8c1,0,1.8-0.2,2.3-0.6c0.5-0.4,0.7-0.9,0.7-1.5
			c0-0.6-0.3-1.1-0.8-1.5c-0.5-0.4-1.3-0.6-2.4-0.6c-1,0-1.8,0.2-2.3,0.6c-0.5,0.4-0.8,0.9-0.8,1.5c0,0.6,0.3,1.1,0.8,1.5
			C202.1,243.6,202.9,243.8,204,243.8z"/>
		<path class="st6" d="M207.9,236.5h-8v-1.2h1.2c-0.6-0.3-0.9-0.6-1.1-0.9c-0.2-0.3-0.3-0.6-0.3-0.9c0-0.5,0.1-0.9,0.4-1.4l1.3,0.5
			c-0.2,0.3-0.3,0.7-0.3,1c0,0.3,0.1,0.6,0.3,0.8c0.2,0.2,0.4,0.4,0.7,0.5c0.5,0.1,1,0.2,1.6,0.2h4.2V236.5z"/>
		<path class="st6" d="M204.6,231.9h-1.4v-4.1h1.4V231.9z"/>
		<path class="st6" d="M206.6,219.6h1.3v7.3c-0.3,0-0.6,0-0.9-0.2c-0.5-0.2-1-0.5-1.5-0.9s-1-1-1.7-1.8c-1-1.2-1.8-2-2.3-2.4
			c-0.6-0.4-1.1-0.6-1.6-0.6c-0.5,0-1,0.2-1.4,0.6s-0.6,0.9-0.6,1.5c0,0.6,0.2,1.2,0.6,1.6s0.9,0.6,1.6,0.6l-0.1,1.4
			c-1-0.1-1.8-0.5-2.4-1.1s-0.8-1.5-0.8-2.5c0-1.1,0.3-1.9,0.9-2.5c0.6-0.6,1.3-0.9,2.2-0.9c0.4,0,0.9,0.1,1.3,0.3
			c0.4,0.2,0.9,0.5,1.3,0.9c0.5,0.4,1.1,1.1,1.9,2.1c0.7,0.8,1.1,1.3,1.4,1.6c0.2,0.2,0.5,0.4,0.7,0.6V219.6z"/>
		<path class="st6" d="M206.6,211h1.3v7.3c-0.3,0-0.6,0-0.9-0.2c-0.5-0.2-1-0.5-1.5-0.9c-0.5-0.4-1-1-1.7-1.8c-1-1.2-1.8-2-2.3-2.4
			c-0.6-0.4-1.1-0.6-1.6-0.6c-0.5,0-1,0.2-1.4,0.6c-0.4,0.4-0.6,0.9-0.6,1.5c0,0.7,0.2,1.2,0.6,1.6c0.4,0.4,0.9,0.6,1.6,0.6L200,218
			c-1-0.1-1.8-0.5-2.4-1.1c-0.5-0.6-0.8-1.5-0.8-2.5c0-1.1,0.3-1.9,0.9-2.5c0.6-0.6,1.3-0.9,2.2-0.9c0.4,0,0.9,0.1,1.3,0.3
			c0.4,0.2,0.9,0.5,1.3,0.9c0.5,0.4,1.1,1.1,1.9,2.1c0.7,0.8,1.1,1.3,1.4,1.6c0.2,0.2,0.5,0.4,0.7,0.6V211z"/>
	</g>
</g>
<g>
	<g class="st4">
		<path class="st6" d="M246.1,256h-11v-2.2l7.8-2.6c0.7-0.2,1.3-0.4,1.6-0.5c-0.4-0.1-1-0.3-1.8-0.6l-7.6-2.6v-2h11v1.4h-9.2
			l9.2,3.2v1.3l-9.4,3.2h9.4V256z"/>
		<path class="st6" d="M245.1,238.1c0.4,0.5,0.7,1,0.9,1.4s0.3,1,0.3,1.5c0,0.9-0.2,1.5-0.6,2s-1,0.7-1.6,0.7
			c-0.4,0-0.7-0.1-1.1-0.3s-0.6-0.4-0.8-0.7c-0.2-0.3-0.3-0.6-0.4-1c-0.1-0.3-0.1-0.7-0.2-1.2c-0.1-1.1-0.3-1.9-0.5-2.4
			c-0.2,0-0.3,0-0.4,0c-0.5,0-0.9,0.1-1.2,0.4c-0.3,0.3-0.5,0.9-0.5,1.5c0,0.6,0.1,1.1,0.3,1.4c0.2,0.3,0.6,0.5,1.2,0.7l-0.2,1.3
			c-0.6-0.1-1-0.3-1.4-0.6c-0.3-0.3-0.6-0.7-0.8-1.2c-0.2-0.5-0.3-1.1-0.3-1.8c0-0.7,0.1-1.2,0.2-1.7c0.2-0.4,0.4-0.7,0.6-0.9
			c0.2-0.2,0.5-0.3,0.9-0.4c0.2,0,0.6-0.1,1.2-0.1h1.8c1.3,0,2,0,2.4-0.1c0.3-0.1,0.7-0.2,1-0.3v1.4
			C245.8,238,245.5,238.1,245.1,238.1z M242.1,238.2c0.2,0.5,0.4,1.2,0.5,2.2c0.1,0.6,0.2,0.9,0.3,1.2c0.1,0.2,0.2,0.4,0.4,0.5
			s0.4,0.2,0.6,0.2c0.4,0,0.7-0.1,0.9-0.4c0.2-0.3,0.4-0.7,0.4-1.2c0-0.5-0.1-1-0.3-1.4c-0.2-0.4-0.5-0.7-0.9-0.9
			c-0.3-0.1-0.8-0.2-1.3-0.2H242.1z"/>
		<path class="st6" d="M236.6,234.8h-1.6v-1.3h1.6V234.8z M246.1,234.8h-8v-1.3h8V234.8z"/>
		<path class="st6" d="M242.8,231.9h-1.4v-4.1h1.4V231.9z"/>
		<path class="st6" d="M244.8,219.5h1.3v7.3c-0.3,0-0.6,0-0.9-0.2c-0.5-0.2-1-0.5-1.5-0.9c-0.5-0.4-1-1-1.7-1.8
			c-1-1.2-1.8-2-2.3-2.4s-1.1-0.6-1.6-0.6c-0.5,0-1,0.2-1.4,0.6c-0.4,0.4-0.6,0.9-0.6,1.5c0,0.6,0.2,1.2,0.6,1.6
			c0.4,0.4,0.9,0.6,1.6,0.6l-0.1,1.4c-1-0.1-1.8-0.5-2.4-1.1S235,224,235,223c0-1.1,0.3-1.9,0.9-2.5c0.6-0.6,1.3-0.9,2.2-0.9
			c0.4,0,0.9,0.1,1.3,0.3s0.9,0.5,1.3,0.9c0.5,0.4,1.1,1.1,1.9,2.1c0.7,0.8,1.1,1.3,1.4,1.6c0.2,0.2,0.5,0.4,0.7,0.6V219.5z"/>
		<path class="st6" d="M244.8,211h1.3v7.3c-0.3,0-0.6,0-0.9-0.2c-0.5-0.2-1-0.5-1.5-0.9c-0.5-0.4-1-1-1.7-1.8c-1-1.2-1.8-2-2.3-2.4
			c-0.6-0.4-1.1-0.6-1.6-0.6c-0.5,0-1,0.2-1.4,0.6c-0.4,0.4-0.6,0.9-0.6,1.5c0,0.7,0.2,1.2,0.6,1.6c0.4,0.4,0.9,0.6,1.6,0.6
			l-0.1,1.4c-1-0.1-1.8-0.5-2.4-1.1c-0.5-0.6-0.8-1.5-0.8-2.5c0-1.1,0.3-1.9,0.9-2.5c0.6-0.6,1.3-0.9,2.2-0.9c0.4,0,0.9,0.1,1.3,0.3
			c0.4,0.2,0.9,0.5,1.3,0.9c0.5,0.4,1.1,1.1,1.9,2.1c0.7,0.8,1.1,1.3,1.4,1.6c0.2,0.2,0.5,0.4,0.7,0.6V211z"/>
	</g>
</g>
<g>
	<g class="st4">
		<path class="st6" d="M281.1,256.7l-0.2-1.3c0.8,0,1.4-0.2,1.7-0.5c0.3-0.3,0.5-0.7,0.5-1.2c0-0.4-0.1-0.7-0.3-0.9
			c-0.2-0.3-0.4-0.4-0.7-0.5s-0.7-0.1-1.4-0.1h-7.6v-1.5h7.5c0.9,0,1.6,0.1,2.1,0.3c0.5,0.2,0.9,0.6,1.2,1.1s0.4,1,0.4,1.7
			c0,1-0.3,1.7-0.8,2.2S282.2,256.7,281.1,256.7z"/>
		<path class="st6" d="M284.2,243.2h-1.2c0.9,0.6,1.3,1.5,1.3,2.5c0,0.5-0.1,0.9-0.3,1.3s-0.4,0.7-0.7,0.9c-0.3,0.2-0.6,0.3-1,0.4
			c-0.3,0.1-0.7,0.1-1.3,0.1h-4.9v-1.3h4.4c0.7,0,1.2,0,1.4-0.1c0.4-0.1,0.6-0.3,0.8-0.5s0.3-0.6,0.3-1s-0.1-0.8-0.3-1.1
			c-0.2-0.4-0.5-0.6-0.8-0.8c-0.4-0.1-0.9-0.2-1.6-0.2h-4.3V242h8V243.2z"/>
		<path class="st6" d="M284.2,239.9h-8v-1.2h1.1c-0.9-0.6-1.3-1.4-1.3-2.5c0-0.5,0.1-0.9,0.3-1.3c0.2-0.4,0.4-0.7,0.7-0.9
			c0.3-0.2,0.6-0.3,1-0.4c0.2,0,0.7-0.1,1.3-0.1h4.9v1.3h-4.8c-0.5,0-1,0.1-1.2,0.2c-0.3,0.1-0.5,0.3-0.7,0.6
			c-0.2,0.3-0.2,0.6-0.2,0.9c0,0.6,0.2,1.1,0.5,1.5c0.4,0.4,1.1,0.6,2.1,0.6h4.3V239.9z"/>
		<path class="st6" d="M280.9,231.9h-1.4v-4.1h1.4V231.9z"/>
		<path class="st6" d="M282.9,219.5h1.3v7.3c-0.3,0-0.6,0-0.9-0.2c-0.5-0.2-1-0.5-1.5-0.9c-0.5-0.4-1-1-1.7-1.8
			c-1-1.2-1.8-2-2.3-2.4s-1.1-0.6-1.6-0.6c-0.5,0-1,0.2-1.4,0.6c-0.4,0.4-0.6,0.9-0.6,1.5c0,0.6,0.2,1.2,0.6,1.6
			c0.4,0.4,0.9,0.6,1.6,0.6l-0.1,1.4c-1-0.1-1.8-0.5-2.4-1.1s-0.8-1.5-0.8-2.5c0-1.1,0.3-1.9,0.9-2.5c0.6-0.6,1.3-0.9,2.2-0.9
			c0.4,0,0.9,0.1,1.3,0.3s0.9,0.5,1.3,0.9c0.5,0.4,1.1,1.1,1.9,2.1c0.7,0.8,1.1,1.3,1.4,1.6c0.2,0.2,0.5,0.4,0.7,0.6V219.5z"/>
		<path class="st6" d="M282.9,211h1.3v7.3c-0.3,0-0.6,0-0.9-0.2c-0.5-0.2-1-0.5-1.5-0.9s-1-1-1.7-1.8c-1-1.2-1.8-2-2.3-2.4
			c-0.6-0.4-1.1-0.6-1.6-0.6c-0.5,0-1,0.2-1.4,0.6s-0.6,0.9-0.6,1.5c0,0.6,0.2,1.2,0.6,1.6s0.9,0.6,1.6,0.6l-0.1,1.4
			c-1-0.1-1.8-0.5-2.4-1.1s-0.8-1.5-0.8-2.5c0-1.1,0.3-1.9,0.9-2.5c0.6-0.6,1.3-0.9,2.2-0.9c0.4,0,0.9,0.1,1.3,0.3
			c0.4,0.2,0.9,0.5,1.3,0.9c0.5,0.4,1.1,1.1,1.9,2.1c0.7,0.8,1.1,1.3,1.4,1.6c0.2,0.2,0.5,0.4,0.7,0.6V211z"/>
	</g>
</g>
<g>
	<g class="st4">
		<path class="st6" d="M319.3,251.6l-0.2-1.3c0.8,0,1.4-0.2,1.7-0.5c0.3-0.3,0.5-0.7,0.5-1.2c0-0.4-0.1-0.7-0.3-0.9
			c-0.2-0.3-0.4-0.4-0.7-0.5s-0.7-0.1-1.4-0.1h-7.6v-1.5h7.5c0.9,0,1.6,0.1,2.1,0.3c0.5,0.2,0.9,0.6,1.2,1.1s0.4,1,0.4,1.7
			c0,1-0.3,1.7-0.8,2.2S320.4,251.6,319.3,251.6z"/>
		<path class="st6" d="M322.4,238.1h-1.2c0.9,0.6,1.3,1.5,1.3,2.5c0,0.5-0.1,0.9-0.3,1.3s-0.4,0.7-0.7,0.9c-0.3,0.2-0.6,0.3-1,0.4
			c-0.3,0.1-0.7,0.1-1.3,0.1h-4.9V242h4.4c0.7,0,1.2,0,1.4-0.1c0.4-0.1,0.6-0.3,0.8-0.5s0.3-0.6,0.3-1s-0.1-0.8-0.3-1.1
			c-0.2-0.4-0.5-0.6-0.8-0.8c-0.4-0.1-0.9-0.2-1.6-0.2h-4.3v-1.3h8V238.1z"/>
		<path class="st6" d="M322.4,234.8h-11v-1.3h11V234.8z"/>
		<path class="st6" d="M319.1,231.9h-1.4v-4.1h1.4V231.9z"/>
		<path class="st6" d="M321.1,219.5h1.3v7.3c-0.3,0-0.6,0-0.9-0.2c-0.5-0.2-1-0.5-1.5-0.9c-0.5-0.4-1-1-1.7-1.8
			c-1-1.2-1.8-2-2.3-2.4s-1.1-0.6-1.6-0.6c-0.5,0-1,0.2-1.4,0.6c-0.4,0.4-0.6,0.9-0.6,1.5c0,0.6,0.2,1.2,0.6,1.6
			c0.4,0.4,0.9,0.6,1.6,0.6l-0.1,1.4c-1-0.1-1.8-0.5-2.4-1.1s-0.8-1.5-0.8-2.5c0-1.1,0.3-1.9,0.9-2.5c0.6-0.6,1.3-0.9,2.2-0.9
			c0.4,0,0.9,0.1,1.3,0.3s0.9,0.5,1.3,0.9c0.5,0.4,1.1,1.1,1.9,2.1c0.7,0.8,1.1,1.3,1.4,1.6c0.2,0.2,0.5,0.4,0.7,0.6V219.5z"/>
		<path class="st6" d="M321.1,211h1.3v7.3c-0.3,0-0.6,0-0.9-0.2c-0.5-0.2-1-0.5-1.5-0.9s-1-1-1.7-1.8c-1-1.2-1.8-2-2.3-2.4
			c-0.6-0.4-1.1-0.6-1.6-0.6c-0.5,0-1,0.2-1.4,0.6s-0.6,0.9-0.6,1.5c0,0.6,0.2,1.2,0.6,1.6s0.9,0.6,1.6,0.6l-0.1,1.4
			c-1-0.1-1.8-0.5-2.4-1.1s-0.8-1.5-0.8-2.5c0-1.1,0.3-1.9,0.9-2.5c0.6-0.6,1.3-0.9,2.2-0.9c0.4,0,0.9,0.1,1.3,0.3
			c0.4,0.2,0.9,0.5,1.3,0.9c0.5,0.4,1.1,1.1,1.9,2.1c0.7,0.8,1.1,1.3,1.4,1.6c0.2,0.2,0.5,0.4,0.7,0.6V211z"/>
	</g>
</g>
<g>
	<g class="st4">
		<path class="st6" d="M360.6,259.7l-11-4.2v-1.6l11-4.5v1.7l-3.3,1.3v4.6l3.3,1.2V259.7z M356.1,256.5v-3.7l-3,1.1
			c-0.9,0.3-1.7,0.6-2.3,0.8c0.7,0.1,1.4,0.3,2.1,0.6L356.1,256.5z"/>
		<path class="st6" d="M360.6,243.2h-1.2c0.9,0.6,1.3,1.5,1.3,2.5c0,0.5-0.1,0.9-0.3,1.3s-0.4,0.7-0.7,0.9c-0.3,0.2-0.6,0.3-1,0.4
			c-0.3,0.1-0.7,0.1-1.3,0.1h-4.9v-1.3h4.4c0.7,0,1.2,0,1.4-0.1c0.4-0.1,0.6-0.3,0.8-0.5s0.3-0.6,0.3-1s-0.1-0.8-0.3-1.1
			c-0.2-0.4-0.5-0.6-0.8-0.8c-0.4-0.1-0.9-0.2-1.6-0.2h-4.3V242h8V243.2z"/>
		<path class="st6" d="M361.2,240.2l0.2-1.3c0.4-0.1,0.7-0.2,0.9-0.5c0.2-0.3,0.4-0.8,0.4-1.4c0-0.6-0.1-1.1-0.4-1.4
			c-0.2-0.3-0.6-0.6-1-0.7c-0.3-0.1-0.9-0.1-1.7-0.1c0.7,0.6,1,1.3,1,2.2c0,1.1-0.4,1.9-1.2,2.5s-1.7,0.9-2.8,0.9
			c-0.8,0-1.5-0.1-2.1-0.4c-0.6-0.3-1.1-0.7-1.5-1.2c-0.3-0.5-0.5-1.1-0.5-1.8c0-0.9,0.4-1.7,1.1-2.3h-1v-1.2h6.9
			c1.2,0,2.1,0.1,2.6,0.4c0.5,0.3,0.9,0.7,1.2,1.2s0.4,1.2,0.4,2c0,0.9-0.2,1.7-0.6,2.3S362.1,240.2,361.2,240.2z M356.5,239
			c1,0,1.8-0.2,2.3-0.6s0.7-0.9,0.7-1.6c0-0.6-0.2-1.1-0.7-1.6c-0.5-0.4-1.2-0.6-2.2-0.6c-1,0-1.7,0.2-2.2,0.6
			c-0.5,0.4-0.7,1-0.7,1.6c0,0.6,0.2,1.1,0.7,1.5C354.8,238.8,355.5,239,356.5,239z"/>
		<path class="st6" d="M357.3,231.9h-1.4v-4.1h1.4V231.9z"/>
		<path class="st6" d="M359.3,219.5h1.3v7.3c-0.3,0-0.6,0-0.9-0.2c-0.5-0.2-1-0.5-1.5-0.9c-0.5-0.4-1-1-1.7-1.8
			c-1-1.2-1.8-2-2.3-2.4s-1.1-0.6-1.6-0.6c-0.5,0-1,0.2-1.4,0.6c-0.4,0.4-0.6,0.9-0.6,1.5c0,0.6,0.2,1.2,0.6,1.6
			c0.4,0.4,0.9,0.6,1.6,0.6l-0.1,1.4c-1-0.1-1.8-0.5-2.4-1.1s-0.8-1.5-0.8-2.5c0-1.1,0.3-1.9,0.9-2.5c0.6-0.6,1.3-0.9,2.2-0.9
			c0.4,0,0.9,0.1,1.3,0.3s0.9,0.5,1.3,0.9c0.5,0.4,1.1,1.1,1.9,2.1c0.7,0.8,1.1,1.3,1.4,1.6c0.2,0.2,0.5,0.4,0.7,0.6V219.5z"/>
		<path class="st6" d="M359.3,211h1.3v7.3c-0.3,0-0.6,0-0.9-0.2c-0.5-0.2-1-0.5-1.5-0.9s-1-1-1.7-1.8c-1-1.2-1.8-2-2.3-2.4
			c-0.6-0.4-1.1-0.6-1.6-0.6c-0.5,0-1,0.2-1.4,0.6s-0.6,0.9-0.6,1.5c0,0.6,0.2,1.2,0.6,1.6s0.9,0.6,1.6,0.6l-0.1,1.4
			c-1-0.1-1.8-0.5-2.4-1.1s-0.8-1.5-0.8-2.5c0-1.1,0.3-1.9,0.9-2.5c0.6-0.6,1.3-0.9,2.2-0.9c0.4,0,0.9,0.1,1.3,0.3
			c0.4,0.2,0.9,0.5,1.3,0.9c0.5,0.4,1.1,1.1,1.9,2.1c0.7,0.8,1.1,1.3,1.4,1.6c0.2,0.2,0.5,0.4,0.7,0.6V211z"/>
	</g>
</g>
<g>
	<g class="st4">
		<path class="st6" d="M395.2,259l-0.1-1.4c0.5-0.1,1-0.2,1.4-0.5c0.4-0.2,0.6-0.6,0.9-1.1c0.2-0.5,0.3-1.1,0.3-1.7
			c0-0.6-0.1-1-0.2-1.5c-0.2-0.4-0.4-0.7-0.7-0.9c-0.3-0.2-0.6-0.3-0.9-0.3c-0.3,0-0.6,0.1-0.9,0.3c-0.3,0.2-0.5,0.5-0.6,1
			c-0.1,0.3-0.3,0.9-0.5,2s-0.5,1.7-0.7,2.1c-0.3,0.5-0.6,0.9-1,1.2c-0.4,0.3-0.9,0.4-1.4,0.4c-0.6,0-1.1-0.2-1.6-0.5
			c-0.5-0.3-0.8-0.8-1.1-1.4c-0.2-0.6-0.4-1.3-0.4-2c0-0.8,0.1-1.5,0.4-2.2c0.3-0.6,0.6-1.1,1.2-1.4s1.1-0.5,1.7-0.5l0.1,1.4
			c-0.7,0.1-1.2,0.3-1.6,0.8c-0.4,0.4-0.5,1.1-0.5,1.9c0,0.9,0.2,1.5,0.5,1.9s0.7,0.6,1.2,0.6c0.4,0,0.7-0.1,1-0.4
			c0.3-0.3,0.5-1,0.8-2.2c0.3-1.2,0.5-2,0.7-2.4c0.3-0.6,0.7-1.1,1.1-1.4s1-0.5,1.6-0.5c0.6,0,1.1,0.2,1.7,0.5
			c0.5,0.3,0.9,0.8,1.2,1.4s0.4,1.3,0.4,2.1c0,1-0.1,1.8-0.4,2.5c-0.3,0.7-0.7,1.2-1.3,1.6C396.6,258.8,396,259,395.2,259z"/>
		<path class="st6" d="M396.2,243l0.2-1.4c0.8,0.2,1.4,0.6,1.9,1.2c0.4,0.6,0.7,1.4,0.7,2.3c0,1.2-0.4,2.1-1.1,2.8s-1.7,1-3,1
			c-1.3,0-2.4-0.3-3.1-1c-0.7-0.7-1.1-1.6-1.1-2.7c0-1.1,0.4-1.9,1.1-2.6c0.7-0.7,1.7-1,3.1-1c0.1,0,0.2,0,0.4,0v5.9
			c0.9,0,1.5-0.3,2-0.7s0.7-1,0.7-1.7c0-0.5-0.1-0.9-0.4-1.3C397.2,243.5,396.8,243.2,396.2,243z M394,247.4V243
			c-0.7,0.1-1.2,0.2-1.5,0.5c-0.5,0.4-0.8,1-0.8,1.7c0,0.6,0.2,1.1,0.6,1.6C392.8,247.1,393.3,247.4,394,247.4z"/>
		<path class="st6" d="M401.8,239.9h-11v-1.2h1c-0.4-0.3-0.7-0.6-0.9-1c-0.2-0.4-0.3-0.8-0.3-1.3c0-0.7,0.2-1.3,0.5-1.8
			s0.8-0.9,1.5-1.2s1.3-0.4,2.1-0.4c0.8,0,1.5,0.1,2.2,0.4c0.7,0.3,1.2,0.7,1.5,1.3c0.3,0.6,0.5,1.1,0.5,1.8c0,0.4-0.1,0.9-0.3,1.2
			c-0.2,0.4-0.4,0.7-0.7,0.9h3.9V239.9z M394.8,238.7c1,0,1.8-0.2,2.3-0.6c0.5-0.4,0.7-0.9,0.7-1.5c0-0.6-0.3-1.1-0.8-1.5
			s-1.3-0.6-2.4-0.6c-1,0-1.8,0.2-2.3,0.6c-0.5,0.4-0.8,0.9-0.8,1.5c0,0.6,0.3,1.1,0.8,1.5C393,238.5,393.8,238.7,394.8,238.7z"/>
		<path class="st6" d="M395.5,231.9h-1.4v-4.1h1.4V231.9z"/>
		<path class="st6" d="M397.5,219.5h1.3v7.3c-0.3,0-0.6,0-0.9-0.2c-0.5-0.2-1-0.5-1.5-0.9c-0.5-0.4-1-1-1.7-1.8
			c-1-1.2-1.8-2-2.3-2.4s-1.1-0.6-1.6-0.6c-0.5,0-1,0.2-1.4,0.6c-0.4,0.4-0.6,0.9-0.6,1.5c0,0.6,0.2,1.2,0.6,1.6
			c0.4,0.4,0.9,0.6,1.6,0.6l-0.1,1.4c-1-0.1-1.8-0.5-2.4-1.1s-0.8-1.5-0.8-2.5c0-1.1,0.3-1.9,0.9-2.5c0.6-0.6,1.3-0.9,2.2-0.9
			c0.4,0,0.9,0.1,1.3,0.3s0.9,0.5,1.3,0.9c0.5,0.4,1.1,1.1,1.9,2.1c0.7,0.8,1.1,1.3,1.4,1.6c0.2,0.2,0.5,0.4,0.7,0.6V219.5z"/>
		<path class="st6" d="M397.5,211h1.3v7.3c-0.3,0-0.6,0-0.9-0.2c-0.5-0.2-1-0.5-1.5-0.9s-1-1-1.7-1.8c-1-1.2-1.8-2-2.3-2.4
			c-0.6-0.4-1.1-0.6-1.6-0.6c-0.5,0-1,0.2-1.4,0.6s-0.6,0.9-0.6,1.5c0,0.6,0.2,1.2,0.6,1.6s0.9,0.6,1.6,0.6l-0.1,1.4
			c-1-0.1-1.8-0.5-2.4-1.1s-0.8-1.5-0.8-2.5c0-1.1,0.3-1.9,0.9-2.5c0.6-0.6,1.3-0.9,2.2-0.9c0.4,0,0.9,0.1,1.3,0.3
			c0.4,0.2,0.9,0.5,1.3,0.9c0.5,0.4,1.1,1.1,1.9,2.1c0.7,0.8,1.1,1.3,1.4,1.6c0.2,0.2,0.5,0.4,0.7,0.6V211z"/>
	</g>
</g>
<g>
	<g class="st4">
		<path class="st6" d="M431.6,255.5c-1.8,0-3.3-0.5-4.3-1.5c-1-1-1.5-2.2-1.5-3.8c0-1,0.2-1.9,0.7-2.7c0.5-0.8,1.2-1.4,2-1.9
			c0.9-0.4,1.8-0.6,2.9-0.6c1.1,0,2.1,0.2,3,0.7c0.9,0.4,1.5,1.1,2,1.9c0.5,0.8,0.7,1.7,0.7,2.7c0,1-0.2,2-0.7,2.8
			c-0.5,0.8-1.2,1.4-2,1.9S432.5,255.5,431.6,255.5z M431.6,254c1.3,0,2.4-0.4,3.1-1.1c0.8-0.7,1.1-1.6,1.1-2.7c0-1.1-0.4-2-1.2-2.7
			c-0.8-0.7-1.9-1.1-3.3-1.1c-0.9,0-1.7,0.2-2.3,0.5s-1.2,0.7-1.6,1.3s-0.6,1.2-0.6,2c0,1,0.4,1.9,1.1,2.7
			C428.8,253.6,429.9,254,431.6,254z"/>
		<path class="st6" d="M436.9,243.3h-11V242h6.3l-3.2-3.2V237l3,3l5-3.3v1.7l-4.1,2.6l0.9,1h3.2V243.3z"/>
		<path class="st6" d="M435.7,232.7l1.2-0.2c0.1,0.4,0.1,0.7,0.1,1c0,0.5-0.1,0.9-0.2,1.1c-0.2,0.3-0.4,0.5-0.6,0.6
			c-0.3,0.1-0.8,0.2-1.6,0.2H430v1h-1v-1h-2l-0.8-1.3h2.8v-1.4h1v1.4h4.7c0.4,0,0.6,0,0.7-0.1c0.1,0,0.2-0.1,0.3-0.2
			c0.1-0.1,0.1-0.3,0.1-0.5C435.8,233.1,435.8,232.9,435.7,232.7z"/>
		<path class="st6" d="M433.6,231.9h-1.4v-4.1h1.4V231.9z"/>
		<path class="st6" d="M435.6,219.5h1.3v7.3c-0.3,0-0.6,0-0.9-0.2c-0.5-0.2-1-0.5-1.5-0.9c-0.5-0.4-1-1-1.7-1.8
			c-1-1.2-1.8-2-2.3-2.4s-1.1-0.6-1.6-0.6c-0.5,0-1,0.2-1.4,0.6c-0.4,0.4-0.6,0.9-0.6,1.5c0,0.6,0.2,1.2,0.6,1.6
			c0.4,0.4,0.9,0.6,1.6,0.6l-0.1,1.4c-1-0.1-1.8-0.5-2.4-1.1s-0.8-1.5-0.8-2.5c0-1.1,0.3-1.9,0.9-2.5c0.6-0.6,1.3-0.9,2.2-0.9
			c0.4,0,0.9,0.1,1.3,0.3s0.9,0.5,1.3,0.9c0.5,0.4,1.1,1.1,1.9,2.1c0.7,0.8,1.1,1.3,1.4,1.6c0.2,0.2,0.5,0.4,0.7,0.6V219.5z"/>
		<path class="st6" d="M435.6,211h1.3v7.3c-0.3,0-0.6,0-0.9-0.2c-0.5-0.2-1-0.5-1.5-0.9s-1-1-1.7-1.8c-1-1.2-1.8-2-2.3-2.4
			c-0.6-0.4-1.1-0.6-1.6-0.6c-0.5,0-1,0.2-1.4,0.6s-0.6,0.9-0.6,1.5c0,0.6,0.2,1.2,0.6,1.6s0.9,0.6,1.6,0.6l-0.1,1.4
			c-1-0.1-1.8-0.5-2.4-1.1s-0.8-1.5-0.8-2.5c0-1.1,0.3-1.9,0.9-2.5c0.6-0.6,1.3-0.9,2.2-0.9c0.4,0,0.9,0.1,1.3,0.3
			c0.4,0.2,0.9,0.5,1.3,0.9c0.5,0.4,1.1,1.1,1.9,2.1c0.7,0.8,1.1,1.3,1.4,1.6c0.2,0.2,0.5,0.4,0.7,0.6V211z"/>
	</g>
</g>
<g>
	<g class="st4">
		<path class="st6" d="M475.1,258.5h-11V257l8.6-5.8h-8.6v-1.4h11v1.5l-8.6,5.8h8.6V258.5z"/>
		<path class="st6" d="M471.1,248.1c-1.5,0-2.6-0.4-3.3-1.2c-0.6-0.7-0.9-1.5-0.9-2.5c0-1.1,0.4-2,1.1-2.7c0.7-0.7,1.7-1,3-1
			c1,0,1.8,0.2,2.4,0.5c0.6,0.3,1,0.8,1.4,1.3c0.3,0.6,0.5,1.2,0.5,1.9c0,1.1-0.4,2-1.1,2.7C473.5,247.7,472.5,248.1,471.1,248.1z
			 M471.1,246.7c1,0,1.8-0.2,2.3-0.7s0.8-1,0.8-1.7c0-0.7-0.3-1.2-0.8-1.7s-1.3-0.7-2.3-0.7c-1,0-1.7,0.2-2.2,0.7
			c-0.5,0.4-0.8,1-0.8,1.7c0,0.7,0.3,1.2,0.8,1.7C469.3,246.5,470.1,246.7,471.1,246.7z"/>
		<path class="st6" d="M475.1,236.8l-8,3v-1.4l4.8-1.7c0.5-0.2,1-0.4,1.6-0.5c-0.4-0.1-0.9-0.3-1.5-0.5l-4.9-1.8v-1.4l8,3V236.8z"/>
		<path class="st6" d="M471.8,231.9h-1.4v-4.1h1.4V231.9z"/>
		<path class="st6" d="M473.8,219.5h1.3v7.3c-0.3,0-0.6,0-0.9-0.2c-0.5-0.2-1-0.5-1.5-0.9c-0.5-0.4-1-1-1.7-1.8
			c-1-1.2-1.8-2-2.3-2.4s-1.1-0.6-1.6-0.6c-0.5,0-1,0.2-1.4,0.6c-0.4,0.4-0.6,0.9-0.6,1.5c0,0.6,0.2,1.2,0.6,1.6
			c0.4,0.4,0.9,0.6,1.6,0.6l-0.1,1.4c-1-0.1-1.8-0.5-2.4-1.1s-0.8-1.5-0.8-2.5c0-1.1,0.3-1.9,0.9-2.5c0.6-0.6,1.3-0.9,2.2-0.9
			c0.4,0,0.9,0.1,1.3,0.3s0.9,0.5,1.3,0.9c0.5,0.4,1.1,1.1,1.9,2.1c0.7,0.8,1.1,1.3,1.4,1.6c0.2,0.2,0.5,0.4,0.7,0.6V219.5z"/>
		<path class="st6" d="M473.8,211h1.3v7.3c-0.3,0-0.6,0-0.9-0.2c-0.5-0.2-1-0.5-1.5-0.9s-1-1-1.7-1.8c-1-1.2-1.8-2-2.3-2.4
			c-0.6-0.4-1.1-0.6-1.6-0.6c-0.5,0-1,0.2-1.4,0.6s-0.6,0.9-0.6,1.5c0,0.6,0.2,1.2,0.6,1.6s0.9,0.6,1.6,0.6l-0.1,1.4
			c-1-0.1-1.8-0.5-2.4-1.1s-0.8-1.5-0.8-2.5c0-1.1,0.3-1.9,0.9-2.5c0.6-0.6,1.3-0.9,2.2-0.9c0.4,0,0.9,0.1,1.3,0.3
			c0.4,0.2,0.9,0.5,1.3,0.9c0.5,0.4,1.1,1.1,1.9,2.1c0.7,0.8,1.1,1.3,1.4,1.6c0.2,0.2,0.5,0.4,0.7,0.6V211z"/>
	</g>
</g>
<g>
	<g class="st4">
		<path class="st6" d="M513.3,258.5h-11v-3.8c0-0.9,0.1-1.5,0.2-2c0.1-0.6,0.4-1.2,0.8-1.6c0.5-0.6,1.1-1,1.9-1.3
			c0.8-0.3,1.6-0.4,2.6-0.4c0.8,0,1.6,0.1,2.2,0.3c0.6,0.2,1.2,0.4,1.6,0.8s0.8,0.6,1,1s0.4,0.8,0.6,1.3c0.1,0.5,0.2,1.1,0.2,1.8
			V258.5z M512,257.1v-2.3c0-0.7-0.1-1.3-0.2-1.7c-0.1-0.4-0.3-0.7-0.6-1c-0.3-0.3-0.8-0.6-1.4-0.8s-1.3-0.3-2.1-0.3
			c-1.1,0-2,0.2-2.6,0.6c-0.6,0.4-1,0.8-1.2,1.4c-0.1,0.4-0.2,1-0.2,1.9v2.3H512z"/>
		<path class="st6" d="M510.7,242.1l0.2-1.4c0.8,0.2,1.4,0.6,1.9,1.2c0.4,0.6,0.7,1.4,0.7,2.3c0,1.2-0.4,2.1-1.1,2.8s-1.7,1-3,1
			c-1.3,0-2.4-0.3-3.1-1c-0.7-0.7-1.1-1.6-1.1-2.7c0-1.1,0.4-1.9,1.1-2.6c0.7-0.7,1.7-1,3.1-1c0.1,0,0.2,0,0.4,0v5.9
			c0.9,0,1.5-0.3,2-0.7s0.7-1,0.7-1.7c0-0.5-0.1-0.9-0.4-1.3C511.7,242.6,511.3,242.4,510.7,242.1z M508.5,246.6v-4.4
			c-0.7,0.1-1.2,0.2-1.5,0.5c-0.5,0.4-0.8,1-0.8,1.7c0,0.6,0.2,1.1,0.6,1.6C507.3,246.3,507.8,246.5,508.5,246.6z"/>
		<path class="st6" d="M510.4,233.9l0.2-1.3c0.9,0.1,1.6,0.5,2.1,1.1c0.5,0.6,0.8,1.3,0.8,2.2c0,1.1-0.4,2-1.1,2.6
			c-0.7,0.7-1.7,1-3.1,1c-0.9,0-1.6-0.1-2.3-0.4c-0.6-0.3-1.1-0.7-1.5-1.3s-0.5-1.2-0.5-1.9c0-0.9,0.2-1.6,0.7-2.1
			c0.4-0.5,1.1-0.9,1.9-1.1l0.2,1.3c-0.5,0.1-0.9,0.3-1.2,0.7c-0.3,0.3-0.4,0.7-0.4,1.2c0,0.7,0.2,1.2,0.7,1.7
			c0.5,0.4,1.3,0.6,2.3,0.6c1.1,0,1.8-0.2,2.3-0.6c0.5-0.4,0.7-0.9,0.7-1.6c0-0.5-0.2-1-0.5-1.3C511.5,234.2,511,234,510.4,233.9z"
			/>
	</g>
	<g class="st4">
		<path class="st6" d="M510,232.2h-1.4v-4.1h1.4V232.2z"/>
	</g>
	<g class="st4">
		<path class="st6" d="M512,219.8h1.3v7.3c-0.3,0-0.6,0-0.9-0.2c-0.5-0.2-1-0.5-1.5-0.9s-1-1-1.7-1.8c-1-1.2-1.8-2-2.3-2.4
			c-0.6-0.4-1.1-0.6-1.6-0.6c-0.5,0-1,0.2-1.4,0.6s-0.6,0.9-0.6,1.5c0,0.6,0.2,1.2,0.6,1.6s0.9,0.6,1.6,0.6l-0.1,1.4
			c-1-0.1-1.8-0.5-2.4-1.1s-0.8-1.5-0.8-2.5c0-1.1,0.3-1.9,0.9-2.5c0.6-0.6,1.3-0.9,2.2-0.9c0.4,0,0.9,0.1,1.3,0.3
			c0.4,0.2,0.9,0.5,1.3,0.9c0.5,0.4,1.1,1.1,1.9,2.1c0.7,0.8,1.1,1.3,1.4,1.6c0.2,0.2,0.5,0.4,0.7,0.6V219.8z"/>
		<path class="st6" d="M512,211.2h1.3v7.3c-0.3,0-0.6,0-0.9-0.2c-0.5-0.2-1-0.5-1.5-0.9c-0.5-0.4-1-1-1.7-1.8c-1-1.2-1.8-2-2.3-2.4
			c-0.6-0.4-1.1-0.6-1.6-0.6c-0.5,0-1,0.2-1.4,0.6c-0.4,0.4-0.6,0.9-0.6,1.5c0,0.7,0.2,1.2,0.6,1.6c0.4,0.4,0.9,0.6,1.6,0.6
			l-0.1,1.4c-1-0.1-1.8-0.5-2.4-1.1c-0.5-0.6-0.8-1.5-0.8-2.5c0-1.1,0.3-1.9,0.9-2.5c0.6-0.6,1.3-0.9,2.2-0.9c0.4,0,0.9,0.1,1.3,0.3
			c0.4,0.2,0.9,0.5,1.3,0.9c0.5,0.4,1.1,1.1,1.9,2.1c0.7,0.8,1.1,1.3,1.4,1.6c0.2,0.2,0.5,0.4,0.7,0.6V211.2z"/>
	</g>
</g>
</svg>
