<?xml version="1.0" encoding="utf-8"?>
<!-- Generator: Adobe Illustrator 27.2.0, SVG Export Plug-In . SVG Version: 6.00 Build 0)  -->
<svg version="1.1" id="Layer_1" xmlns="http://www.w3.org/2000/svg" xmlns:xlink="http://www.w3.org/1999/xlink" x="0px" y="0px"
	 viewBox="0 0 540 300" style="enable-background:new 0 0 540 300;" xml:space="preserve">
<style type="text/css">
	.st0{fill:none;stroke:#D9D9D9;stroke-width:1.9459;stroke-linejoin:round;stroke-miterlimit:10;}
	.st1{fill:none;stroke:#002060;stroke-width:5.8378;stroke-linecap:round;stroke-linejoin:round;stroke-miterlimit:10;}
	
		.st2{opacity:0.6;fill:none;stroke:#214166;stroke-width:5.3029;stroke-linecap:round;stroke-miterlimit:10;enable-background:new    ;}
	.st3{fill:none;stroke:#D9D9D9;stroke-width:5.3029;stroke-linecap:round;stroke-linejoin:round;stroke-miterlimit:10;}
	.st4{enable-background:new    ;}
	.st5{fill:#214166;}
	.st6{fill:none;stroke:#002060;stroke-width:5.1891;stroke-linecap:round;stroke-linejoin:round;stroke-miterlimit:10;}
</style>
<path class="st0" d="M52.3,7.8H531 M52.3,35.6H531 M52.3,63.3H531 M52.3,91H531 M52.3,118.7H531 M52.3,146.8H531 M52.3,174.5H531"/>
<line class="st0" x1="52.3" y1="202.2" x2="531.1" y2="202.2"/>
<path class="st0" d="M522.3,202.2v5 M496.2,202.2v5 M470.1,202.2v5 M443.9,202.2v5 M417.8,202.2v5 M391.9,202.2v5 M365.8,202.2v5
	 M339.6,202.2v5 M313.5,202.2v5 M287.3,202.2v5 M261.2,202.2v5 M235,202.2v5 M208.9,202.2v5 M183,202.2v5 M156.9,202.2v5
	 M130.7,202.2v5 M104.6,202.2v5 M78.4,202.2v5 M52.3,202.2v5"/>
<polyline class="st1" points="56.7,199.1 65.3,198.7 74,198.4 82.8,198.1 91.5,197.8 100.2,197.2 108.9,196.9 117.6,196.6 
	126.3,195.6 135.1,195 143.8,194.7 152.5,194.4 161.2,193.8 169.9,193.5 178.7,192.2 187.4,191 196.1,190 204.5,189.4 213.2,188.5 
	221.9,187.5 230.7,186.6 239.4,182.9 248.1,180.1 256.8,178.2 265.5,174.2 274.2,171 283,168.9 291.7,165.4 300.4,162.6 
	309.1,158.6 317.8,153 326.5,147.4 335.3,142.7 344,134.9 352.7,127.8 361.4,123.4 370.1,118.4 378.9,113.1 387.6,108.5 396,103.8 
	404.7,100.4 413.4,95.4 422.1,93.5 430.8,90.4 439.6,85.4 448.3,84.2 457,79.8 465.7,64.9 474.4,60.2 483.2,50.9 491.9,43.1 
	500.6,42.1 509.3,41.8 518,36.8 526.7,32.5 "/>
<polyline class="st2" points="56.7,199.4 65.3,199.4 74,199.1 82.8,199.1 91.5,199.4 100.2,199.4 108.9,199.6 117.6,199.4 
	126.3,199.4 135.1,199.4 143.8,199.1 152.5,199.4 161.2,199.1 169.9,199.1 178.7,199.1 187.4,199.1 196.1,199.1 204.5,199.1 
	213.2,198.7 221.9,198.7 230.7,199.1 239.4,199.7 248.1,199.4 256.8,199.1 265.5,199.1 274.2,198.7 283,198.7 291.7,198.7 
	300.4,198.7 309.1,198.4 317.8,198.4 326.5,198.4 335.3,198.4 344,198.1 352.7,197.8 361.4,197.8 370.1,197.8 378.9,197.8 
	387.6,197.5 396,197.8 404.7,197.5 413.4,197.5 422.1,197.3 430.8,197.5 439.6,197.8 448.3,197.5 457,198.1 465.7,198.1 
	474.4,198.4 483.2,198.1 491.9,198.1 500.6,198.4 509.3,198.1 518,198.1 526.7,198.4 "/>
<polyline class="st3" points="56.7,199.4 65.3,199.4 74,199.4 82.8,199.4 91.5,199.4 100.2,199.4 108.9,199.7 117.6,199.4 
	126.3,199.4 135.1,199.4 143.8,199.4 152.5,199.4 161.2,199.4 169.9,199.4 178.7,199.4 187.4,199.4 196.1,199.4 204.5,199.4 
	213.2,199.4 221.9,199.4 230.7,199.4 239.4,199.6 248.1,199.4 256.8,199.4 265.5,199.4 274.2,199.4 283,199.1 291.7,199.4 
	300.4,199.4 309.1,199.1 317.8,199.1 326.5,199.1 335.3,198.7 344,198.7 352.7,198.7 361.4,198.7 370.1,198.7 378.9,198.7 
	387.6,198.6 396,198.7 404.7,198.6 413.4,198.7 422.1,198.6 430.8,198.7 439.6,198.7 448.3,198.7 457,198.7 465.7,198.7 
	474.4,199.1 483.2,198.7 491.9,198.7 500.6,199.1 509.3,199.1 518,198.7 526.7,199.1 "/>
<g>
	<g>
		<g class="st4">
			<path class="st5" d="M11.1,201.5c0-1.3,0.1-2.4,0.4-3.2s0.7-1.4,1.2-1.9c0.5-0.4,1.2-0.7,2-0.7c0.6,0,1.1,0.1,1.6,0.4
				c0.4,0.2,0.8,0.6,1.1,1c0.3,0.5,0.5,1,0.7,1.7s0.2,1.5,0.2,2.6c0,1.3-0.1,2.4-0.4,3.2c-0.3,0.8-0.7,1.4-1.2,1.9
				c-0.5,0.4-1.2,0.7-2,0.7c-1.1,0-1.9-0.4-2.5-1.2C11.5,205.1,11.1,203.6,11.1,201.5z M12.5,201.5c0,1.8,0.2,3,0.6,3.6
				c0.4,0.6,1,0.9,1.6,0.9c0.6,0,1.2-0.3,1.6-0.9c0.4-0.6,0.6-1.8,0.6-3.6c0-1.8-0.2-3-0.6-3.6c-0.4-0.6-1-0.9-1.6-0.9
				c-0.6,0-1.1,0.3-1.5,0.8C12.8,198.4,12.5,199.7,12.5,201.5z"/>
			<path class="st5" d="M20.5,207v-1.6h1.6v1.6H20.5z"/>
			<path class="st5" d="M24,201.5c0-1.3,0.1-2.4,0.4-3.2s0.7-1.4,1.2-1.9c0.5-0.4,1.2-0.7,2-0.7c0.6,0,1.1,0.1,1.6,0.4
				c0.4,0.2,0.8,0.6,1.1,1c0.3,0.5,0.5,1,0.7,1.7s0.2,1.5,0.2,2.6c0,1.3-0.1,2.4-0.4,3.2c-0.3,0.8-0.7,1.4-1.2,1.9
				c-0.5,0.4-1.2,0.7-2,0.7c-1.1,0-1.9-0.4-2.5-1.2C24.4,205.1,24,203.6,24,201.5z M25.4,201.5c0,1.8,0.2,3,0.6,3.6
				c0.4,0.6,1,0.9,1.6,0.9c0.6,0,1.2-0.3,1.6-0.9c0.4-0.6,0.6-1.8,0.6-3.6c0-1.8-0.2-3-0.6-3.6c-0.4-0.6-1-0.9-1.6-0.9
				c-0.6,0-1.1,0.3-1.5,0.8C25.7,198.4,25.4,199.7,25.4,201.5z"/>
			<path class="st5" d="M32.7,201.5c0-1.3,0.1-2.4,0.4-3.2s0.7-1.4,1.2-1.9c0.5-0.4,1.2-0.7,2-0.7c0.6,0,1.1,0.1,1.6,0.4
				c0.4,0.2,0.8,0.6,1.1,1c0.3,0.5,0.5,1,0.7,1.7s0.2,1.5,0.2,2.6c0,1.3-0.1,2.4-0.4,3.2c-0.3,0.8-0.7,1.4-1.2,1.9
				c-0.5,0.4-1.2,0.7-2,0.7c-1.1,0-1.9-0.4-2.5-1.2C33,205.1,32.7,203.6,32.7,201.5z M34.1,201.5c0,1.8,0.2,3,0.6,3.6
				c0.4,0.6,1,0.9,1.6,0.9c0.6,0,1.2-0.3,1.6-0.9c0.4-0.6,0.6-1.8,0.6-3.6c0-1.8-0.2-3-0.6-3.6c-0.4-0.6-1-0.9-1.6-0.9
				c-0.6,0-1.1,0.3-1.5,0.8C34.3,198.4,34.1,199.7,34.1,201.5z"/>
		</g>
	</g>
</g>
<g>
	<g>
		<g class="st4">
			<path class="st5" d="M8.3,179.2H7v-8.7c-0.3,0.3-0.8,0.6-1.3,0.9c-0.5,0.3-1,0.5-1.4,0.7v-1.3c0.8-0.4,1.4-0.8,2-1.3
				c0.6-0.5,1-1,1.2-1.5h0.9V179.2z"/>
			<path class="st5" d="M11.8,173.7c0-1.3,0.1-2.4,0.4-3.2s0.7-1.4,1.2-1.9c0.5-0.4,1.2-0.7,2-0.7c0.6,0,1.1,0.1,1.6,0.4
				c0.4,0.2,0.8,0.6,1.1,1c0.3,0.5,0.5,1,0.7,1.7s0.2,1.5,0.2,2.6c0,1.3-0.1,2.4-0.4,3.2c-0.3,0.8-0.7,1.4-1.2,1.9
				c-0.5,0.4-1.2,0.7-2,0.7c-1.1,0-1.9-0.4-2.5-1.2C12.2,177.3,11.8,175.8,11.8,173.7z M13.2,173.7c0,1.8,0.2,3,0.6,3.6
				c0.4,0.6,1,0.9,1.6,0.9c0.6,0,1.2-0.3,1.6-0.9c0.4-0.6,0.6-1.8,0.6-3.6c0-1.8-0.2-3-0.6-3.6c-0.4-0.6-1-0.9-1.6-0.9
				c-0.6,0-1.1,0.3-1.5,0.8C13.5,170.6,13.2,171.9,13.2,173.7z"/>
			<path class="st5" d="M21.2,179.2v-1.6h1.6v1.6H21.2z"/>
			<path class="st5" d="M24.8,173.7c0-1.3,0.1-2.4,0.4-3.2s0.7-1.4,1.2-1.9c0.5-0.4,1.2-0.7,2-0.7c0.6,0,1.1,0.1,1.6,0.4
				c0.4,0.2,0.8,0.6,1.1,1c0.3,0.5,0.5,1,0.7,1.7s0.2,1.5,0.2,2.6c0,1.3-0.1,2.4-0.4,3.2c-0.3,0.8-0.7,1.4-1.2,1.9
				c-0.5,0.4-1.2,0.7-2,0.7c-1.1,0-1.9-0.4-2.5-1.2C25.1,177.3,24.8,175.8,24.8,173.7z M26.2,173.7c0,1.8,0.2,3,0.6,3.6
				c0.4,0.6,1,0.9,1.6,0.9c0.6,0,1.2-0.3,1.6-0.9c0.4-0.6,0.6-1.8,0.6-3.6c0-1.8-0.2-3-0.6-3.6c-0.4-0.6-1-0.9-1.6-0.9
				c-0.6,0-1.1,0.3-1.5,0.8C26.4,170.6,26.2,171.9,26.2,173.7z"/>
			<path class="st5" d="M33.4,173.7c0-1.3,0.1-2.4,0.4-3.2s0.7-1.4,1.2-1.9c0.5-0.4,1.2-0.7,2-0.7c0.6,0,1.1,0.1,1.6,0.4
				c0.4,0.2,0.8,0.6,1.1,1c0.3,0.5,0.5,1,0.7,1.7s0.2,1.5,0.2,2.6c0,1.3-0.1,2.4-0.4,3.2c-0.3,0.8-0.7,1.4-1.2,1.9
				c-0.5,0.4-1.2,0.7-2,0.7c-1.1,0-1.9-0.4-2.5-1.2C33.7,177.3,33.4,175.8,33.4,173.7z M34.8,173.7c0,1.8,0.2,3,0.6,3.6
				c0.4,0.6,1,0.9,1.6,0.9c0.6,0,1.2-0.3,1.6-0.9c0.4-0.6,0.6-1.8,0.6-3.6c0-1.8-0.2-3-0.6-3.6c-0.4-0.6-1-0.9-1.6-0.9
				c-0.6,0-1.1,0.3-1.5,0.8C35,170.6,34.8,171.9,34.8,173.7z"/>
		</g>
	</g>
</g>
<g>
	<g>
		<g class="st4">
			<path class="st5" d="M10.4,150.1v1.3H3c0-0.3,0-0.6,0.2-0.9c0.2-0.5,0.5-1,0.9-1.5c0.4-0.5,1-1,1.8-1.7c1.2-1,2-1.8,2.4-2.3
				c0.4-0.6,0.6-1.1,0.6-1.6c0-0.5-0.2-1-0.6-1.4c-0.4-0.4-0.9-0.6-1.5-0.6c-0.7,0-1.2,0.2-1.6,0.6s-0.6,0.9-0.6,1.6l-1.4-0.1
				c0.1-1,0.5-1.8,1.1-2.4c0.6-0.5,1.5-0.8,2.5-0.8c1.1,0,1.9,0.3,2.5,0.9c0.6,0.6,0.9,1.3,0.9,2.2c0,0.4-0.1,0.9-0.3,1.3
				s-0.5,0.9-0.9,1.4s-1.1,1.1-2.1,2c-0.8,0.7-1.3,1.2-1.6,1.4c-0.2,0.2-0.4,0.5-0.6,0.7H10.4z"/>
			<path class="st5" d="M11.8,146c0-1.3,0.1-2.4,0.4-3.2s0.7-1.4,1.2-1.9c0.5-0.4,1.2-0.7,2-0.7c0.6,0,1.1,0.1,1.6,0.4
				c0.4,0.2,0.8,0.6,1.1,1c0.3,0.5,0.5,1,0.7,1.7s0.2,1.5,0.2,2.6c0,1.3-0.1,2.4-0.4,3.2c-0.3,0.8-0.7,1.4-1.2,1.9
				c-0.5,0.4-1.2,0.7-2,0.7c-1.1,0-1.9-0.4-2.5-1.1C12.2,149.5,11.8,148,11.8,146z M13.2,146c0,1.8,0.2,3,0.6,3.6
				c0.4,0.6,1,0.9,1.6,0.9c0.6,0,1.2-0.3,1.6-0.9c0.4-0.6,0.6-1.8,0.6-3.6c0-1.8-0.2-3-0.6-3.6c-0.4-0.6-1-0.9-1.6-0.9
				c-0.6,0-1.1,0.3-1.5,0.8C13.5,142.9,13.2,144.1,13.2,146z"/>
			<path class="st5" d="M21.2,151.4v-1.6h1.6v1.6H21.2z"/>
			<path class="st5" d="M24.8,146c0-1.3,0.1-2.4,0.4-3.2s0.7-1.4,1.2-1.9c0.5-0.4,1.2-0.7,2-0.7c0.6,0,1.1,0.1,1.6,0.4
				c0.4,0.2,0.8,0.6,1.1,1c0.3,0.5,0.5,1,0.7,1.7s0.2,1.5,0.2,2.6c0,1.3-0.1,2.4-0.4,3.2c-0.3,0.8-0.7,1.4-1.2,1.9
				c-0.5,0.4-1.2,0.7-2,0.7c-1.1,0-1.9-0.4-2.5-1.1C25.1,149.5,24.8,148,24.8,146z M26.2,146c0,1.8,0.2,3,0.6,3.6
				c0.4,0.6,1,0.9,1.6,0.9c0.6,0,1.2-0.3,1.6-0.9c0.4-0.6,0.6-1.8,0.6-3.6c0-1.8-0.2-3-0.6-3.6c-0.4-0.6-1-0.9-1.6-0.9
				c-0.6,0-1.1,0.3-1.5,0.8C26.4,142.9,26.2,144.1,26.2,146z"/>
			<path class="st5" d="M33.4,146c0-1.3,0.1-2.4,0.4-3.2s0.7-1.4,1.2-1.9c0.5-0.4,1.2-0.7,2-0.7c0.6,0,1.1,0.1,1.6,0.4
				c0.4,0.2,0.8,0.6,1.1,1c0.3,0.5,0.5,1,0.7,1.7s0.2,1.5,0.2,2.6c0,1.3-0.1,2.4-0.4,3.2c-0.3,0.8-0.7,1.4-1.2,1.9
				c-0.5,0.4-1.2,0.7-2,0.7c-1.1,0-1.9-0.4-2.5-1.1C33.7,149.5,33.4,148,33.4,146z M34.8,146c0,1.8,0.2,3,0.6,3.6
				c0.4,0.6,1,0.9,1.6,0.9c0.6,0,1.2-0.3,1.6-0.9c0.4-0.6,0.6-1.8,0.6-3.6c0-1.8-0.2-3-0.6-3.6c-0.4-0.6-1-0.9-1.6-0.9
				c-0.6,0-1.1,0.3-1.5,0.8C35,142.9,34.8,144.1,34.8,146z"/>
		</g>
	</g>
</g>
<g>
	<g>
		<g class="st4">
			<path class="st5" d="M3.2,120.7l1.4-0.2c0.2,0.8,0.4,1.3,0.8,1.7c0.4,0.3,0.8,0.5,1.4,0.5c0.6,0,1.2-0.2,1.6-0.7
				c0.4-0.4,0.7-1,0.7-1.7c0-0.6-0.2-1.1-0.6-1.5s-0.9-0.6-1.6-0.6c-0.3,0-0.6,0.1-1,0.2l0.2-1.2c0.1,0,0.2,0,0.2,0
				c0.6,0,1.1-0.2,1.6-0.5s0.7-0.8,0.7-1.4c0-0.5-0.2-0.9-0.5-1.2c-0.3-0.3-0.8-0.5-1.3-0.5c-0.5,0-1,0.2-1.3,0.5s-0.6,0.8-0.7,1.5
				l-1.4-0.2c0.2-0.9,0.5-1.6,1.1-2.1s1.3-0.8,2.2-0.8c0.6,0,1.2,0.1,1.7,0.4c0.5,0.3,0.9,0.6,1.2,1.1c0.3,0.4,0.4,0.9,0.4,1.4
				c0,0.5-0.1,0.9-0.4,1.3s-0.6,0.7-1.1,0.9c0.7,0.2,1.2,0.5,1.5,0.9s0.5,1.1,0.5,1.8c0,1-0.4,1.8-1.1,2.5c-0.7,0.7-1.6,1-2.7,1
				c-1,0-1.8-0.3-2.4-0.9C3.7,122.4,3.3,121.7,3.2,120.7z"/>
			<path class="st5" d="M11.8,118.2c0-1.3,0.1-2.4,0.4-3.2s0.7-1.4,1.2-1.9c0.5-0.4,1.2-0.7,2-0.7c0.6,0,1.1,0.1,1.6,0.4
				c0.4,0.2,0.8,0.6,1.1,1c0.3,0.5,0.5,1,0.7,1.7s0.2,1.5,0.2,2.6c0,1.3-0.1,2.4-0.4,3.2c-0.3,0.8-0.7,1.4-1.2,1.9
				c-0.5,0.4-1.2,0.7-2,0.7c-1.1,0-1.9-0.4-2.5-1.2C12.2,121.8,11.8,120.3,11.8,118.2z M13.2,118.2c0,1.8,0.2,3,0.6,3.6
				c0.4,0.6,1,0.9,1.6,0.9c0.6,0,1.2-0.3,1.6-0.9c0.4-0.6,0.6-1.8,0.6-3.6c0-1.8-0.2-3-0.6-3.6c-0.4-0.6-1-0.9-1.6-0.9
				c-0.6,0-1.1,0.3-1.5,0.8C13.5,115.1,13.2,116.4,13.2,118.2z"/>
			<path class="st5" d="M21.2,123.7v-1.6h1.6v1.6H21.2z"/>
			<path class="st5" d="M24.8,118.2c0-1.3,0.1-2.4,0.4-3.2s0.7-1.4,1.2-1.9c0.5-0.4,1.2-0.7,2-0.7c0.6,0,1.1,0.1,1.6,0.4
				c0.4,0.2,0.8,0.6,1.1,1c0.3,0.5,0.5,1,0.7,1.7s0.2,1.5,0.2,2.6c0,1.3-0.1,2.4-0.4,3.2c-0.3,0.8-0.7,1.4-1.2,1.9
				c-0.5,0.4-1.2,0.7-2,0.7c-1.1,0-1.9-0.4-2.5-1.2C25.1,121.8,24.8,120.3,24.8,118.2z M26.2,118.2c0,1.8,0.2,3,0.6,3.6
				c0.4,0.6,1,0.9,1.6,0.9c0.6,0,1.2-0.3,1.6-0.9c0.4-0.6,0.6-1.8,0.6-3.6c0-1.8-0.2-3-0.6-3.6c-0.4-0.6-1-0.9-1.6-0.9
				c-0.6,0-1.1,0.3-1.5,0.8C26.4,115.1,26.2,116.4,26.2,118.2z"/>
			<path class="st5" d="M33.4,118.2c0-1.3,0.1-2.4,0.4-3.2s0.7-1.4,1.2-1.9c0.5-0.4,1.2-0.7,2-0.7c0.6,0,1.1,0.1,1.6,0.4
				c0.4,0.2,0.8,0.6,1.1,1c0.3,0.5,0.5,1,0.7,1.7s0.2,1.5,0.2,2.6c0,1.3-0.1,2.4-0.4,3.2c-0.3,0.8-0.7,1.4-1.2,1.9
				c-0.5,0.4-1.2,0.7-2,0.7c-1.1,0-1.9-0.4-2.5-1.2C33.7,121.8,33.4,120.3,33.4,118.2z M34.8,118.2c0,1.8,0.2,3,0.6,3.6
				c0.4,0.6,1,0.9,1.6,0.9c0.6,0,1.2-0.3,1.6-0.9c0.4-0.6,0.6-1.8,0.6-3.6c0-1.8-0.2-3-0.6-3.6c-0.4-0.6-1-0.9-1.6-0.9
				c-0.6,0-1.1,0.3-1.5,0.8C35,115.1,34.8,116.4,34.8,118.2z"/>
		</g>
	</g>
</g>
<g>
	<g>
		<g class="st4">
			<path class="st5" d="M7.6,95.9v-2.7H2.8V92l5.1-7.2h1.1V92h1.5v1.2H8.9v2.7H7.6z M7.6,92v-5l-3.5,5H7.6z"/>
			<path class="st5" d="M11.8,90.4c0-1.3,0.1-2.4,0.4-3.2s0.7-1.4,1.2-1.9c0.5-0.4,1.2-0.7,2-0.7c0.6,0,1.1,0.1,1.6,0.4
				c0.4,0.2,0.8,0.6,1.1,1c0.3,0.5,0.5,1,0.7,1.7s0.2,1.5,0.2,2.6c0,1.3-0.1,2.4-0.4,3.2c-0.3,0.8-0.7,1.4-1.2,1.9
				c-0.5,0.4-1.2,0.7-2,0.7c-1.1,0-1.9-0.4-2.5-1.2C12.2,94,11.8,92.5,11.8,90.4z M13.2,90.4c0,1.8,0.2,3,0.6,3.6
				c0.4,0.6,1,0.9,1.6,0.9c0.6,0,1.2-0.3,1.6-0.9c0.4-0.6,0.6-1.8,0.6-3.6c0-1.8-0.2-3-0.6-3.6c-0.4-0.6-1-0.9-1.6-0.9
				c-0.6,0-1.1,0.3-1.5,0.8C13.5,87.3,13.2,88.6,13.2,90.4z"/>
			<path class="st5" d="M21.2,95.9v-1.6h1.6v1.6H21.2z"/>
			<path class="st5" d="M24.8,90.4c0-1.3,0.1-2.4,0.4-3.2s0.7-1.4,1.2-1.9c0.5-0.4,1.2-0.7,2-0.7c0.6,0,1.1,0.1,1.6,0.4
				c0.4,0.2,0.8,0.6,1.1,1c0.3,0.5,0.5,1,0.7,1.7s0.2,1.5,0.2,2.6c0,1.3-0.1,2.4-0.4,3.2c-0.3,0.8-0.7,1.4-1.2,1.9
				c-0.5,0.4-1.2,0.7-2,0.7c-1.1,0-1.9-0.4-2.5-1.2C25.1,94,24.8,92.5,24.8,90.4z M26.2,90.4c0,1.8,0.2,3,0.6,3.6
				c0.4,0.6,1,0.9,1.6,0.9c0.6,0,1.2-0.3,1.6-0.9c0.4-0.6,0.6-1.8,0.6-3.6c0-1.8-0.2-3-0.6-3.6c-0.4-0.6-1-0.9-1.6-0.9
				c-0.6,0-1.1,0.3-1.5,0.8C26.4,87.3,26.2,88.6,26.2,90.4z"/>
			<path class="st5" d="M33.4,90.4c0-1.3,0.1-2.4,0.4-3.2s0.7-1.4,1.2-1.9c0.5-0.4,1.2-0.7,2-0.7c0.6,0,1.1,0.1,1.6,0.4
				c0.4,0.2,0.8,0.6,1.1,1c0.3,0.5,0.5,1,0.7,1.7s0.2,1.5,0.2,2.6c0,1.3-0.1,2.4-0.4,3.2c-0.3,0.8-0.7,1.4-1.2,1.9
				c-0.5,0.4-1.2,0.7-2,0.7c-1.1,0-1.9-0.4-2.5-1.2C33.7,94,33.4,92.5,33.4,90.4z M34.8,90.4c0,1.8,0.2,3,0.6,3.6
				c0.4,0.6,1,0.9,1.6,0.9c0.6,0,1.2-0.3,1.6-0.9c0.4-0.6,0.6-1.8,0.6-3.6c0-1.8-0.2-3-0.6-3.6c-0.4-0.6-1-0.9-1.6-0.9
				c-0.6,0-1.1,0.3-1.5,0.8C35,87.3,34.8,88.6,34.8,90.4z"/>
		</g>
	</g>
</g>
<g>
	<g>
		<g class="st4">
			<path class="st5" d="M3.2,65.2l1.4-0.1c0.1,0.7,0.4,1.2,0.7,1.6c0.4,0.4,0.9,0.5,1.4,0.5c0.7,0,1.2-0.2,1.7-0.7
				c0.5-0.5,0.7-1.2,0.7-2c0-0.8-0.2-1.4-0.7-1.8S7.5,62,6.7,62c-0.4,0-0.8,0.1-1.2,0.3S4.9,62.7,4.7,63l-1.3-0.2l1.1-5.7H10v1.3
				H5.6l-0.6,3c0.7-0.5,1.4-0.7,2.1-0.7c1,0,1.8,0.3,2.5,1c0.7,0.7,1,1.5,1,2.6c0,1-0.3,1.9-0.9,2.6C9,67.9,8,68.3,6.8,68.3
				c-1,0-1.8-0.3-2.5-0.8C3.7,66.9,3.3,66.1,3.2,65.2z"/>
			<path class="st5" d="M11.8,62.6c0-1.3,0.1-2.4,0.4-3.2s0.7-1.4,1.2-1.9c0.5-0.4,1.2-0.7,2-0.7c0.6,0,1.1,0.1,1.6,0.4
				c0.4,0.2,0.8,0.6,1.1,1c0.3,0.5,0.5,1,0.7,1.7s0.2,1.5,0.2,2.6c0,1.3-0.1,2.4-0.4,3.2c-0.3,0.8-0.7,1.4-1.2,1.9
				c-0.5,0.4-1.2,0.7-2,0.7c-1.1,0-1.9-0.4-2.5-1.2C12.2,66.2,11.8,64.7,11.8,62.6z M13.2,62.6c0,1.8,0.2,3,0.6,3.6
				c0.4,0.6,1,0.9,1.6,0.9c0.6,0,1.2-0.3,1.6-0.9c0.4-0.6,0.6-1.8,0.6-3.6c0-1.8-0.2-3-0.6-3.6c-0.4-0.6-1-0.9-1.6-0.9
				c-0.6,0-1.1,0.3-1.5,0.8C13.5,59.6,13.2,60.8,13.2,62.6z"/>
			<path class="st5" d="M21.2,68.1v-1.6h1.6v1.6H21.2z"/>
			<path class="st5" d="M24.8,62.6c0-1.3,0.1-2.4,0.4-3.2s0.7-1.4,1.2-1.9c0.5-0.4,1.2-0.7,2-0.7c0.6,0,1.1,0.1,1.6,0.4
				c0.4,0.2,0.8,0.6,1.1,1c0.3,0.5,0.5,1,0.7,1.7s0.2,1.5,0.2,2.6c0,1.3-0.1,2.4-0.4,3.2c-0.3,0.8-0.7,1.4-1.2,1.9
				c-0.5,0.4-1.2,0.7-2,0.7c-1.1,0-1.9-0.4-2.5-1.2C25.1,66.2,24.8,64.7,24.8,62.6z M26.2,62.6c0,1.8,0.2,3,0.6,3.6
				c0.4,0.6,1,0.9,1.6,0.9c0.6,0,1.2-0.3,1.6-0.9c0.4-0.6,0.6-1.8,0.6-3.6c0-1.8-0.2-3-0.6-3.6c-0.4-0.6-1-0.9-1.6-0.9
				c-0.6,0-1.1,0.3-1.5,0.8C26.4,59.6,26.2,60.8,26.2,62.6z"/>
			<path class="st5" d="M33.4,62.6c0-1.3,0.1-2.4,0.4-3.2s0.7-1.4,1.2-1.9c0.5-0.4,1.2-0.7,2-0.7c0.6,0,1.1,0.1,1.6,0.4
				c0.4,0.2,0.8,0.6,1.1,1c0.3,0.5,0.5,1,0.7,1.7s0.2,1.5,0.2,2.6c0,1.3-0.1,2.4-0.4,3.2c-0.3,0.8-0.7,1.4-1.2,1.9
				c-0.5,0.4-1.2,0.7-2,0.7c-1.1,0-1.9-0.4-2.5-1.2C33.7,66.2,33.4,64.7,33.4,62.6z M34.8,62.6c0,1.8,0.2,3,0.6,3.6
				c0.4,0.6,1,0.9,1.6,0.9c0.6,0,1.2-0.3,1.6-0.9c0.4-0.6,0.6-1.8,0.6-3.6c0-1.8-0.2-3-0.6-3.6c-0.4-0.6-1-0.9-1.6-0.9
				c-0.6,0-1.1,0.3-1.5,0.8C35,59.6,34.8,60.8,34.8,62.6z"/>
		</g>
	</g>
</g>
<g>
	<g>
		<g class="st4">
			<path class="st5" d="M10.3,31.9l-1.4,0.1c-0.1-0.5-0.3-0.9-0.5-1.2C8,30.5,7.6,30.3,7,30.3c-0.4,0-0.8,0.1-1.1,0.4
				c-0.4,0.3-0.8,0.8-1,1.4c-0.2,0.6-0.4,1.5-0.4,2.6c0.3-0.5,0.7-0.9,1.2-1.1c0.5-0.2,1-0.4,1.5-0.4c0.9,0,1.7,0.3,2.3,1
				c0.6,0.7,1,1.5,1,2.6c0,0.7-0.1,1.3-0.5,1.9S9.3,39.7,8.8,40c-0.5,0.3-1.1,0.5-1.8,0.5c-1.1,0-2.1-0.4-2.8-1.3
				c-0.7-0.8-1.1-2.2-1.1-4.1c0-2.1,0.4-3.7,1.2-4.7C5,29.6,6,29.2,7.1,29.2c0.9,0,1.6,0.2,2.1,0.7S10.2,31.1,10.3,31.9z M4.7,36.7
				c0,0.5,0.1,0.9,0.3,1.3c0.2,0.4,0.5,0.8,0.8,1s0.7,0.3,1.1,0.3c0.6,0,1.1-0.2,1.5-0.7c0.4-0.5,0.6-1.1,0.6-1.9
				c0-0.8-0.2-1.4-0.6-1.8s-0.9-0.7-1.5-0.7c-0.6,0-1.1,0.2-1.6,0.7C4.9,35.4,4.7,36,4.7,36.7z"/>
			<path class="st5" d="M11.8,34.9c0-1.3,0.1-2.4,0.4-3.2s0.7-1.4,1.2-1.9c0.5-0.4,1.2-0.7,2-0.7c0.6,0,1.1,0.1,1.6,0.4
				c0.4,0.2,0.8,0.6,1.1,1c0.3,0.5,0.5,1,0.7,1.7s0.2,1.5,0.2,2.6c0,1.3-0.1,2.4-0.4,3.2c-0.3,0.8-0.7,1.4-1.2,1.9
				c-0.5,0.4-1.2,0.7-2,0.7c-1.1,0-1.9-0.4-2.5-1.2C12.2,38.4,11.8,36.9,11.8,34.9z M13.2,34.9c0,1.8,0.2,3,0.6,3.6
				c0.4,0.6,1,0.9,1.6,0.9c0.6,0,1.2-0.3,1.6-0.9c0.4-0.6,0.6-1.8,0.6-3.6c0-1.8-0.2-3-0.6-3.6c-0.4-0.6-1-0.9-1.6-0.9
				c-0.6,0-1.1,0.3-1.5,0.8C13.5,31.8,13.2,33,13.2,34.9z"/>
			<path class="st5" d="M21.2,40.3v-1.6h1.6v1.6H21.2z"/>
			<path class="st5" d="M24.8,34.9c0-1.3,0.1-2.4,0.4-3.2s0.7-1.4,1.2-1.9c0.5-0.4,1.2-0.7,2-0.7c0.6,0,1.1,0.1,1.6,0.4
				c0.4,0.2,0.8,0.6,1.1,1c0.3,0.5,0.5,1,0.7,1.7s0.2,1.5,0.2,2.6c0,1.3-0.1,2.4-0.4,3.2c-0.3,0.8-0.7,1.4-1.2,1.9
				c-0.5,0.4-1.2,0.7-2,0.7c-1.1,0-1.9-0.4-2.5-1.2C25.1,38.4,24.8,36.9,24.8,34.9z M26.2,34.9c0,1.8,0.2,3,0.6,3.6
				c0.4,0.6,1,0.9,1.6,0.9c0.6,0,1.2-0.3,1.6-0.9c0.4-0.6,0.6-1.8,0.6-3.6c0-1.8-0.2-3-0.6-3.6c-0.4-0.6-1-0.9-1.6-0.9
				c-0.6,0-1.1,0.3-1.5,0.8C26.4,31.8,26.2,33,26.2,34.9z"/>
			<path class="st5" d="M33.4,34.9c0-1.3,0.1-2.4,0.4-3.2s0.7-1.4,1.2-1.9c0.5-0.4,1.2-0.7,2-0.7c0.6,0,1.1,0.1,1.6,0.4
				c0.4,0.2,0.8,0.6,1.1,1c0.3,0.5,0.5,1,0.7,1.7s0.2,1.5,0.2,2.6c0,1.3-0.1,2.4-0.4,3.2c-0.3,0.8-0.7,1.4-1.2,1.9
				c-0.5,0.4-1.2,0.7-2,0.7c-1.1,0-1.9-0.4-2.5-1.2C33.7,38.4,33.4,36.9,33.4,34.9z M34.8,34.9c0,1.8,0.2,3,0.6,3.6
				c0.4,0.6,1,0.9,1.6,0.9c0.6,0,1.2-0.3,1.6-0.9c0.4-0.6,0.6-1.8,0.6-3.6c0-1.8-0.2-3-0.6-3.6c-0.4-0.6-1-0.9-1.6-0.9
				c-0.6,0-1.1,0.3-1.5,0.8C35,31.8,34.8,33,34.8,34.9z"/>
		</g>
	</g>
</g>
<g>
	<g>
		<g class="st4">
			<path class="st5" d="M3.3,2.9V1.6h7.2v1.1c-0.7,0.8-1.4,1.8-2.1,3C7.7,6.9,7.2,8.2,6.8,9.5c-0.3,0.9-0.4,1.9-0.5,3H4.8
				c0-0.9,0.2-1.9,0.5-3.2C5.7,8.2,6.2,7,6.8,5.8c0.6-1.1,1.3-2.1,2-2.9H3.3z"/>
			<path class="st5" d="M11.8,7.1c0-1.3,0.1-2.4,0.4-3.2s0.7-1.4,1.2-1.9c0.5-0.4,1.2-0.7,2-0.7c0.6,0,1.1,0.1,1.6,0.4
				c0.4,0.2,0.8,0.6,1.1,1c0.3,0.5,0.5,1,0.7,1.7s0.2,1.5,0.2,2.6c0,1.3-0.1,2.4-0.4,3.2c-0.3,0.8-0.7,1.4-1.2,1.9
				c-0.5,0.4-1.2,0.7-2,0.7c-1.1,0-1.9-0.4-2.5-1.2C12.2,10.7,11.8,9.2,11.8,7.1z M13.2,7.1c0,1.8,0.2,3,0.6,3.6
				c0.4,0.6,1,0.9,1.6,0.9c0.6,0,1.2-0.3,1.6-0.9c0.4-0.6,0.6-1.8,0.6-3.6c0-1.8-0.2-3-0.6-3.6c-0.4-0.6-1-0.9-1.6-0.9
				c-0.6,0-1.1,0.3-1.5,0.8C13.5,4,13.2,5.3,13.2,7.1z"/>
			<path class="st5" d="M21.2,12.6V11h1.6v1.6H21.2z"/>
			<path class="st5" d="M24.8,7.1c0-1.3,0.1-2.4,0.4-3.2s0.7-1.4,1.2-1.9c0.5-0.4,1.2-0.7,2-0.7c0.6,0,1.1,0.1,1.6,0.4
				c0.4,0.2,0.8,0.6,1.1,1c0.3,0.5,0.5,1,0.7,1.7S32,6,32,7.1c0,1.3-0.1,2.4-0.4,3.2c-0.3,0.8-0.7,1.4-1.2,1.9
				c-0.5,0.4-1.2,0.7-2,0.7c-1.1,0-1.9-0.4-2.5-1.2C25.1,10.7,24.8,9.2,24.8,7.1z M26.2,7.1c0,1.8,0.2,3,0.6,3.6
				c0.4,0.6,1,0.9,1.6,0.9c0.6,0,1.2-0.3,1.6-0.9c0.4-0.6,0.6-1.8,0.6-3.6c0-1.8-0.2-3-0.6-3.6c-0.4-0.6-1-0.9-1.6-0.9
				c-0.6,0-1.1,0.3-1.5,0.8C26.4,4,26.2,5.3,26.2,7.1z"/>
			<path class="st5" d="M33.4,7.1c0-1.3,0.1-2.4,0.4-3.2s0.7-1.4,1.2-1.9c0.5-0.4,1.2-0.7,2-0.7c0.6,0,1.1,0.1,1.6,0.4
				c0.4,0.2,0.8,0.6,1.1,1c0.3,0.5,0.5,1,0.7,1.7s0.2,1.5,0.2,2.6c0,1.3-0.1,2.4-0.4,3.2c-0.3,0.8-0.7,1.4-1.2,1.9
				c-0.5,0.4-1.2,0.7-2,0.7c-1.1,0-1.9-0.4-2.5-1.2C33.7,10.7,33.4,9.2,33.4,7.1z M34.8,7.1c0,1.8,0.2,3,0.6,3.6
				c0.4,0.6,1,0.9,1.6,0.9c0.6,0,1.2-0.3,1.6-0.9c0.4-0.6,0.6-1.8,0.6-3.6c0-1.8-0.2-3-0.6-3.6c-0.4-0.6-1-0.9-1.6-0.9
				c-0.6,0-1.1,0.3-1.5,0.8C35,4,34.8,5.3,34.8,7.1z"/>
		</g>
	</g>
</g>
<g>
	<g>
		<g class="st4">
			<path class="st5" d="M59.1,262.4l-0.2-1.3c0.8,0,1.4-0.2,1.7-0.5c0.3-0.3,0.5-0.7,0.5-1.2c0-0.4-0.1-0.7-0.3-1s-0.4-0.5-0.7-0.6
				c-0.3-0.1-0.8-0.2-1.4-0.2h-7.6v-1.5h7.6c0.9,0,1.6,0.1,2.2,0.3c0.5,0.2,0.9,0.6,1.2,1.1c0.3,0.5,0.4,1.1,0.4,1.7
				c0,1-0.3,1.7-0.8,2.2C61.1,262.1,60.2,262.4,59.1,262.4z"/>
			<path class="st5" d="M62.3,248.8h-1.2c0.9,0.6,1.4,1.5,1.4,2.6c0,0.5-0.1,0.9-0.3,1.3s-0.4,0.7-0.7,0.9c-0.3,0.2-0.6,0.3-1,0.4
				c-0.3,0.1-0.7,0.1-1.3,0.1h-5v-1.4h4.5c0.7,0,1.2,0,1.4-0.1c0.4-0.1,0.6-0.3,0.8-0.5s0.3-0.6,0.3-1s-0.1-0.8-0.3-1.2
				c-0.2-0.4-0.5-0.6-0.9-0.8c-0.4-0.1-0.9-0.2-1.6-0.2h-4.3v-1.4h8V248.8z"/>
			<path class="st5" d="M62.3,245.4h-8v-1.2h1.1c-0.9-0.6-1.3-1.4-1.3-2.6c0-0.5,0.1-0.9,0.3-1.3c0.2-0.4,0.4-0.7,0.7-0.9
				c0.3-0.2,0.6-0.3,1-0.4c0.3,0,0.7-0.1,1.3-0.1h4.9v1.4h-4.9c-0.6,0-1,0.1-1.2,0.2c-0.3,0.1-0.5,0.3-0.7,0.6
				c-0.2,0.3-0.2,0.6-0.2,1c0,0.6,0.2,1.1,0.6,1.5c0.4,0.4,1.1,0.6,2.1,0.6h4.4V245.4z"/>
			<path class="st5" d="M58.9,237.3h-1.4v-4.2h1.4V237.3z"/>
			<path class="st5" d="M62.3,226.9v1.4h-8.7c0.3,0.3,0.6,0.8,0.9,1.3c0.3,0.5,0.5,1,0.7,1.4h-1.3c-0.4-0.8-0.8-1.4-1.3-2
				c-0.5-0.6-1-1-1.5-1.2v-0.9H62.3z"/>
			<path class="st5" d="M56.2,221.3c-0.2,0.6-0.5,1-0.9,1.3c-0.4,0.3-0.8,0.4-1.4,0.4c-0.8,0-1.5-0.3-2-0.9
				c-0.5-0.6-0.8-1.4-0.8-2.3c0-1,0.3-1.7,0.8-2.3c0.6-0.6,1.2-0.9,2.1-0.9c0.5,0,1,0.1,1.3,0.4c0.4,0.3,0.7,0.7,0.9,1.2
				c0.2-0.7,0.6-1.2,1.1-1.6c0.5-0.4,1.1-0.5,1.8-0.5c0.9,0,1.7,0.3,2.4,1c0.6,0.7,1,1.6,1,2.6c0,1.1-0.3,2-1,2.6s-1.5,1-2.4,1
				c-0.7,0-1.3-0.2-1.8-0.5C56.8,222.5,56.4,222,56.2,221.3z M53.9,221.6c0.5,0,1-0.2,1.3-0.5c0.3-0.3,0.5-0.8,0.5-1.3
				c0-0.5-0.2-1-0.5-1.3c-0.3-0.3-0.7-0.5-1.2-0.5c-0.5,0-0.9,0.2-1.3,0.5c-0.3,0.3-0.5,0.8-0.5,1.3c0,0.5,0.2,1,0.5,1.3
				C53.1,221.4,53.5,221.6,53.9,221.6z M59.1,222c0.4,0,0.8-0.1,1.1-0.3s0.6-0.5,0.8-0.8s0.3-0.8,0.3-1.2c0-0.7-0.2-1.2-0.6-1.6
				c-0.4-0.4-1-0.6-1.6-0.6c-0.7,0-1.2,0.2-1.6,0.7c-0.4,0.4-0.6,1-0.6,1.6c0,0.6,0.2,1.2,0.6,1.6S58.4,222,59.1,222z"/>
		</g>
	</g>
</g>
<g>
	<g>
		<g class="st4">
			<path class="st5" d="M84.9,265.4l-0.1-1.4c0.6-0.1,1-0.2,1.4-0.5c0.4-0.2,0.6-0.6,0.9-1.1c0.2-0.5,0.3-1.1,0.3-1.7
				c0-0.6-0.1-1.1-0.2-1.5c-0.2-0.4-0.4-0.7-0.7-1c-0.3-0.2-0.6-0.3-1-0.3c-0.3,0-0.7,0.1-0.9,0.3c-0.3,0.2-0.5,0.5-0.7,1
				c-0.1,0.3-0.3,1-0.5,2s-0.5,1.7-0.7,2.1c-0.3,0.5-0.6,0.9-1,1.2s-0.9,0.4-1.4,0.4c-0.6,0-1.1-0.2-1.6-0.5
				c-0.5-0.3-0.9-0.8-1.1-1.4c-0.3-0.6-0.4-1.3-0.4-2c0-0.8,0.1-1.5,0.4-2.2c0.3-0.6,0.7-1.1,1.2-1.4c0.5-0.3,1.1-0.5,1.7-0.5
				l0.1,1.4c-0.7,0.1-1.2,0.3-1.6,0.8c-0.4,0.4-0.5,1.1-0.5,1.9c0,0.9,0.2,1.5,0.5,1.9c0.3,0.4,0.7,0.6,1.2,0.6c0.4,0,0.7-0.1,1-0.4
				c0.3-0.3,0.5-1,0.8-2.2c0.3-1.2,0.5-2,0.7-2.5c0.3-0.6,0.7-1.1,1.1-1.4c0.5-0.3,1-0.5,1.6-0.5c0.6,0,1.1,0.2,1.7,0.5
				c0.5,0.3,0.9,0.8,1.2,1.5c0.3,0.6,0.4,1.3,0.4,2.1c0,1-0.1,1.8-0.4,2.5c-0.3,0.7-0.7,1.2-1.3,1.6S85.6,265.4,84.9,265.4z"/>
			<path class="st5" d="M85.8,249.2l0.2-1.4c0.8,0.2,1.5,0.6,1.9,1.2s0.7,1.4,0.7,2.3c0,1.2-0.4,2.1-1.1,2.8c-0.7,0.7-1.7,1-3,1
				c-1.4,0-2.4-0.3-3.1-1c-0.7-0.7-1.1-1.6-1.1-2.7c0-1.1,0.4-2,1.1-2.6c0.7-0.7,1.8-1,3.1-1c0.1,0,0.2,0,0.4,0v6
				c0.9-0.1,1.6-0.3,2-0.7c0.5-0.4,0.7-1,0.7-1.7c0-0.5-0.1-0.9-0.4-1.3C86.8,249.7,86.4,249.4,85.8,249.2z M83.6,253.7v-4.5
				c-0.7,0.1-1.2,0.2-1.5,0.5c-0.5,0.4-0.8,1-0.8,1.7c0,0.6,0.2,1.2,0.6,1.6C82.4,253.4,82.9,253.7,83.6,253.7z"/>
			<path class="st5" d="M91.5,246.1H80.4v-1.2h1c-0.4-0.3-0.7-0.6-0.9-1s-0.3-0.8-0.3-1.3c0-0.7,0.2-1.3,0.5-1.8
				c0.4-0.5,0.9-0.9,1.5-1.2c0.6-0.3,1.3-0.4,2.1-0.4c0.8,0,1.6,0.1,2.2,0.4c0.7,0.3,1.2,0.7,1.5,1.3s0.5,1.2,0.5,1.8
				c0,0.5-0.1,0.9-0.3,1.2c-0.2,0.4-0.4,0.7-0.7,0.9h3.9V246.1z M84.4,244.9c1,0,1.8-0.2,2.3-0.6c0.5-0.4,0.7-0.9,0.7-1.5
				c0-0.6-0.3-1.1-0.8-1.6c-0.5-0.4-1.3-0.6-2.4-0.6c-1,0-1.8,0.2-2.3,0.6c-0.5,0.4-0.8,0.9-0.8,1.5c0,0.6,0.3,1.1,0.8,1.5
				C82.6,244.7,83.4,244.9,84.4,244.9z"/>
			<path class="st5" d="M85.1,238h-1.4v-4.2h1.4V238z"/>
			<path class="st5" d="M88.4,227.6v1.4h-8.7c0.3,0.3,0.6,0.8,0.9,1.3c0.3,0.5,0.5,1,0.7,1.4h-1.3c-0.4-0.8-0.8-1.4-1.3-2
				c-0.5-0.6-1-1-1.5-1.2v-0.9H88.4z"/>
			<path class="st5" d="M82.4,222c-0.2,0.6-0.5,1-0.9,1.3c-0.4,0.3-0.8,0.4-1.4,0.4c-0.8,0-1.5-0.3-2-0.9c-0.5-0.6-0.8-1.4-0.8-2.3
				c0-1,0.3-1.7,0.8-2.3s1.2-0.9,2.1-0.9c0.5,0,1,0.1,1.3,0.4c0.4,0.3,0.7,0.7,0.9,1.2c0.2-0.7,0.6-1.2,1.1-1.6
				c0.5-0.4,1.1-0.5,1.8-0.5c0.9,0,1.7,0.3,2.4,1c0.6,0.7,1,1.6,1,2.6c0,1.1-0.3,2-1,2.6c-0.6,0.7-1.5,1-2.4,1
				c-0.7,0-1.3-0.2-1.8-0.5C82.9,223.2,82.6,222.7,82.4,222z M80.1,222.3c0.5,0,1-0.2,1.3-0.5c0.3-0.3,0.5-0.8,0.5-1.3
				c0-0.5-0.2-1-0.5-1.3c-0.3-0.3-0.7-0.5-1.2-0.5c-0.5,0-0.9,0.2-1.3,0.5c-0.3,0.3-0.5,0.8-0.5,1.3c0,0.5,0.2,1,0.5,1.3
				S79.6,222.3,80.1,222.3z M85.2,222.7c0.4,0,0.8-0.1,1.1-0.3c0.4-0.2,0.6-0.5,0.8-0.8s0.3-0.8,0.3-1.2c0-0.7-0.2-1.2-0.6-1.6
				c-0.4-0.4-1-0.6-1.6-0.6c-0.7,0-1.2,0.2-1.6,0.7s-0.6,1-0.6,1.6c0,0.6,0.2,1.2,0.6,1.6C84.1,222.5,84.6,222.7,85.2,222.7z"/>
		</g>
	</g>
</g>
<g>
	<g>
		<g class="st4">
			<path class="st5" d="M114.5,265.6h-11.1v-3.8c0-0.9,0.1-1.5,0.2-2c0.1-0.6,0.4-1.2,0.8-1.6c0.5-0.6,1.1-1,1.9-1.3
				c0.8-0.3,1.6-0.4,2.6-0.4c0.8,0,1.6,0.1,2.2,0.3c0.7,0.2,1.2,0.4,1.6,0.8c0.4,0.3,0.8,0.6,1,1c0.2,0.4,0.4,0.8,0.6,1.3
				c0.1,0.5,0.2,1.1,0.2,1.8V265.6z M113.2,264.1v-2.4c0-0.7-0.1-1.3-0.2-1.7c-0.1-0.4-0.3-0.7-0.6-1c-0.3-0.3-0.8-0.6-1.4-0.8
				c-0.6-0.2-1.3-0.3-2.1-0.3c-1.2,0-2.1,0.2-2.7,0.6s-1,0.8-1.3,1.4c-0.2,0.4-0.2,1-0.2,1.9v2.3H113.2z"/>
			<path class="st5" d="M111.9,249l0.2-1.4c0.8,0.2,1.5,0.6,1.9,1.2s0.7,1.4,0.7,2.3c0,1.2-0.4,2.1-1.1,2.8c-0.7,0.7-1.7,1-3,1
				c-1.4,0-2.4-0.3-3.1-1c-0.7-0.7-1.1-1.6-1.1-2.7c0-1.1,0.4-2,1.1-2.6c0.7-0.7,1.8-1,3.1-1c0.1,0,0.2,0,0.4,0v6
				c0.9,0,1.6-0.3,2-0.7c0.5-0.4,0.7-1,0.7-1.7c0-0.5-0.1-0.9-0.4-1.3C112.9,249.5,112.5,249.3,111.9,249z M109.7,253.5V249
				c-0.7,0.1-1.2,0.2-1.5,0.5c-0.5,0.4-0.8,1-0.8,1.7c0,0.6,0.2,1.2,0.6,1.6C108.5,253.2,109,253.5,109.7,253.5z"/>
			<path class="st5" d="M111.6,240.7l0.2-1.3c0.9,0.1,1.6,0.5,2.2,1.1c0.5,0.6,0.8,1.3,0.8,2.2c0,1.1-0.4,2-1.1,2.7
				c-0.7,0.7-1.8,1-3.1,1c-0.9,0-1.6-0.1-2.3-0.4c-0.7-0.3-1.1-0.7-1.5-1.3s-0.5-1.2-0.5-1.9c0-0.9,0.2-1.6,0.7-2.1s1.1-0.9,1.9-1.1
				l0.2,1.3c-0.5,0.1-0.9,0.3-1.2,0.7s-0.4,0.7-0.4,1.2c0,0.7,0.2,1.2,0.7,1.7s1.3,0.6,2.3,0.6c1.1,0,1.9-0.2,2.4-0.6
				c0.5-0.4,0.7-1,0.7-1.6c0-0.5-0.2-1-0.5-1.3C112.8,241,112.3,240.8,111.6,240.7z"/>
			<path class="st5" d="M111.2,238.7h-1.4v-4.2h1.4V238.7z"/>
			<path class="st5" d="M114.5,228.3v1.4h-8.7c0.3,0.3,0.6,0.8,0.9,1.3c0.3,0.5,0.5,1,0.7,1.4h-1.3c-0.4-0.8-0.8-1.4-1.3-2
				c-0.5-0.6-1-1-1.5-1.2v-0.9H114.5z"/>
			<path class="st5" d="M108.5,222.7c-0.2,0.6-0.5,1-0.9,1.3c-0.4,0.3-0.8,0.4-1.4,0.4c-0.8,0-1.5-0.3-2-0.9
				c-0.5-0.6-0.8-1.4-0.8-2.3c0-1,0.3-1.7,0.8-2.3c0.6-0.6,1.2-0.9,2.1-0.9c0.5,0,1,0.1,1.3,0.4c0.4,0.3,0.7,0.7,0.9,1.2
				c0.2-0.7,0.6-1.2,1.1-1.6c0.5-0.4,1.1-0.5,1.8-0.5c0.9,0,1.7,0.3,2.4,1c0.6,0.7,1,1.6,1,2.6c0,1.1-0.3,2-1,2.6s-1.5,1-2.4,1
				c-0.7,0-1.3-0.2-1.8-0.5C109,223.9,108.7,223.4,108.5,222.7z M106.2,222.9c0.5,0,1-0.2,1.3-0.5c0.3-0.3,0.5-0.8,0.5-1.3
				c0-0.5-0.2-1-0.5-1.3c-0.3-0.3-0.7-0.5-1.2-0.5c-0.5,0-0.9,0.2-1.3,0.5c-0.3,0.3-0.5,0.8-0.5,1.3c0,0.5,0.2,1,0.5,1.3
				C105.3,222.8,105.7,222.9,106.2,222.9z M111.3,223.4c0.4,0,0.8-0.1,1.1-0.3s0.6-0.5,0.8-0.8s0.3-0.8,0.3-1.2
				c0-0.7-0.2-1.2-0.6-1.6c-0.4-0.4-1-0.6-1.6-0.6c-0.7,0-1.2,0.2-1.6,0.7c-0.4,0.4-0.6,1-0.6,1.6c0,0.6,0.2,1.2,0.6,1.6
				S110.7,223.4,111.3,223.4z"/>
		</g>
	</g>
</g>
<g>
	<g>
		<g class="st4">
			<path class="st5" d="M140.6,264.1h-11.1v-2.2l7.9-2.6c0.7-0.2,1.3-0.4,1.6-0.5c-0.4-0.1-1-0.3-1.8-0.6l-7.7-2.7v-2h11.1v1.4h-9.3
				l9.3,3.2v1.3l-9.4,3.2h9.4V264.1z"/>
			<path class="st5" d="M139.6,246c0.4,0.5,0.7,1,0.9,1.5s0.3,1,0.3,1.5c0,0.9-0.2,1.6-0.6,2c-0.4,0.5-1,0.7-1.7,0.7
				c-0.4,0-0.8-0.1-1.1-0.3c-0.3-0.2-0.6-0.4-0.8-0.7c-0.2-0.3-0.3-0.6-0.4-1c-0.1-0.3-0.1-0.7-0.2-1.2c-0.1-1.1-0.3-1.9-0.5-2.4
				c-0.2,0-0.3,0-0.4,0c-0.6,0-0.9,0.1-1.2,0.4c-0.3,0.3-0.5,0.9-0.5,1.6c0,0.6,0.1,1.1,0.3,1.4c0.2,0.3,0.6,0.5,1.2,0.7l-0.2,1.3
				c-0.6-0.1-1-0.3-1.4-0.6s-0.6-0.7-0.8-1.2c-0.2-0.5-0.3-1.1-0.3-1.8c0-0.7,0.1-1.2,0.2-1.7c0.2-0.4,0.4-0.7,0.6-0.9
				s0.6-0.3,0.9-0.4c0.2,0,0.7-0.1,1.3-0.1h1.8c1.3,0,2.1,0,2.4-0.1c0.3-0.1,0.7-0.2,1-0.3v1.4C140.3,245.9,140,246,139.6,246z
				 M136.6,246.1c0.2,0.5,0.4,1.2,0.5,2.2c0.1,0.6,0.2,1,0.3,1.2c0.1,0.2,0.2,0.4,0.4,0.5c0.2,0.1,0.4,0.2,0.6,0.2
				c0.4,0,0.7-0.1,0.9-0.4s0.4-0.7,0.4-1.2c0-0.5-0.1-1-0.3-1.4s-0.5-0.7-0.9-0.9c-0.3-0.1-0.8-0.2-1.4-0.2H136.6z"/>
			<path class="st5" d="M140.6,242.7h-8v-1.2h1.2c-0.6-0.3-0.9-0.6-1.1-0.9c-0.2-0.3-0.3-0.6-0.3-0.9c0-0.5,0.1-0.9,0.4-1.4l1.3,0.5
				c-0.2,0.3-0.3,0.7-0.3,1c0,0.3,0.1,0.6,0.3,0.8c0.2,0.2,0.4,0.4,0.7,0.5c0.5,0.2,1,0.2,1.6,0.2h4.2V242.7z"/>
			<path class="st5" d="M137.3,238h-1.4v-4.2h1.4V238z"/>
			<path class="st5" d="M140.6,227.6v1.4h-8.7c0.3,0.3,0.6,0.8,0.9,1.3c0.3,0.5,0.5,1,0.7,1.4h-1.3c-0.4-0.8-0.8-1.4-1.3-2
				c-0.5-0.6-1-1-1.5-1.2v-0.9H140.6z"/>
			<path class="st5" d="M138.1,223.9l-0.1-1.3c0.6-0.1,1.1-0.3,1.3-0.6c0.3-0.3,0.4-0.7,0.4-1.2c0-0.4-0.1-0.8-0.3-1.1
				c-0.2-0.3-0.4-0.6-0.8-0.8c-0.3-0.2-0.8-0.4-1.3-0.5c-0.5-0.1-1.1-0.2-1.7-0.2c-0.1,0-0.2,0-0.3,0c0.4,0.3,0.8,0.6,1.1,1.1
				c0.3,0.5,0.4,1,0.4,1.5c0,0.9-0.3,1.7-1,2.3c-0.7,0.6-1.5,1-2.6,1c-1.1,0-2-0.3-2.7-1c-0.7-0.7-1-1.5-1-2.5c0-0.7,0.2-1.4,0.6-2
				s0.9-1.1,1.7-1.4c0.7-0.3,1.8-0.5,3.1-0.5c1.4,0,2.5,0.2,3.4,0.5c0.8,0.3,1.5,0.8,1.9,1.4c0.4,0.6,0.7,1.3,0.7,2.1
				c0,0.9-0.2,1.6-0.7,2.1C139.6,223.4,138.9,223.8,138.1,223.9z M133.2,218.3c-0.8,0-1.4,0.2-1.9,0.6c-0.5,0.4-0.7,0.9-0.7,1.5
				c0,0.6,0.2,1.1,0.7,1.6s1.1,0.7,1.9,0.7c0.7,0,1.3-0.2,1.7-0.6c0.4-0.4,0.7-1,0.7-1.6c0-0.6-0.2-1.1-0.7-1.6
				S133.9,218.3,133.2,218.3z"/>
		</g>
	</g>
</g>
<g>
	<g>
		<g class="st4">
			<path class="st5" d="M163.6,263.1l-0.2-1.3c0.8,0,1.4-0.2,1.7-0.5c0.3-0.3,0.5-0.7,0.5-1.2c0-0.4-0.1-0.7-0.3-1
				c-0.2-0.3-0.4-0.5-0.7-0.6c-0.3-0.1-0.8-0.2-1.4-0.2h-7.6V257h7.6c0.9,0,1.6,0.1,2.2,0.3c0.5,0.2,0.9,0.6,1.2,1.1
				c0.3,0.5,0.4,1.1,0.4,1.7c0,1-0.3,1.7-0.8,2.2C165.6,262.8,164.7,263.1,163.6,263.1z"/>
			<path class="st5" d="M166.8,249.5h-1.2c0.9,0.6,1.4,1.5,1.4,2.6c0,0.5-0.1,0.9-0.3,1.3s-0.4,0.7-0.7,0.9c-0.3,0.2-0.6,0.3-1,0.4
				c-0.3,0.1-0.7,0.1-1.3,0.1h-5v-1.4h4.5c0.7,0,1.2,0,1.4-0.1c0.4-0.1,0.6-0.3,0.8-0.5s0.3-0.6,0.3-1s-0.1-0.8-0.3-1.2
				c-0.2-0.4-0.5-0.6-0.9-0.8c-0.4-0.1-0.9-0.2-1.6-0.2h-4.3v-1.4h8V249.5z"/>
			<path class="st5" d="M166.8,246.1h-8v-1.2h1.1c-0.9-0.6-1.3-1.4-1.3-2.6c0-0.5,0.1-0.9,0.3-1.3c0.2-0.4,0.4-0.7,0.7-0.9
				c0.3-0.2,0.6-0.3,1-0.4c0.3-0.1,0.7-0.1,1.3-0.1h4.9v1.4h-4.9c-0.6,0-1,0.1-1.2,0.2c-0.3,0.1-0.5,0.3-0.7,0.6
				c-0.2,0.3-0.2,0.6-0.2,0.9c0,0.6,0.2,1.1,0.6,1.5c0.4,0.4,1.1,0.6,2.1,0.6h4.4V246.1z"/>
			<path class="st5" d="M163.4,238h-1.4v-4.2h1.4V238z"/>
			<path class="st5" d="M166.8,227.6v1.4h-8.7c0.3,0.3,0.6,0.8,0.9,1.3c0.3,0.5,0.5,1,0.7,1.4h-1.3c-0.4-0.8-0.8-1.4-1.3-2
				c-0.5-0.6-1-1-1.5-1.2v-0.9H166.8z"/>
			<path class="st5" d="M164.2,223.9l-0.1-1.3c0.6-0.1,1.1-0.3,1.3-0.6c0.3-0.3,0.4-0.7,0.4-1.2c0-0.4-0.1-0.8-0.3-1.1
				c-0.2-0.3-0.4-0.6-0.8-0.8c-0.3-0.2-0.8-0.4-1.3-0.5c-0.5-0.1-1.1-0.2-1.7-0.2c-0.1,0-0.2,0-0.3,0c0.4,0.3,0.8,0.6,1.1,1.1
				c0.3,0.5,0.4,1,0.4,1.5c0,0.9-0.3,1.7-1,2.3c-0.7,0.6-1.5,1-2.6,1c-1.1,0-2-0.3-2.7-1c-0.7-0.7-1-1.5-1-2.5c0-0.7,0.2-1.4,0.6-2
				s0.9-1.1,1.7-1.4c0.7-0.3,1.8-0.5,3.1-0.5c1.4,0,2.5,0.2,3.4,0.5c0.8,0.3,1.5,0.8,1.9,1.4c0.4,0.6,0.7,1.3,0.7,2.1
				c0,0.9-0.2,1.6-0.7,2.1C165.8,223.4,165.1,223.8,164.2,223.9z M159.3,218.3c-0.8,0-1.4,0.2-1.9,0.6c-0.5,0.4-0.7,0.9-0.7,1.5
				c0,0.6,0.2,1.1,0.7,1.6s1.1,0.7,1.9,0.7c0.7,0,1.3-0.2,1.7-0.6c0.4-0.4,0.7-1,0.7-1.6c0-0.6-0.2-1.1-0.7-1.6
				S160.1,218.3,159.3,218.3z"/>
		</g>
	</g>
</g>
<g>
	<g>
		<g class="st4">
			<path class="st5" d="M187.3,265.4l-0.1-1.4c0.6-0.1,1-0.2,1.4-0.5c0.4-0.2,0.6-0.6,0.9-1.1c0.2-0.5,0.3-1.1,0.3-1.7
				c0-0.6-0.1-1.1-0.2-1.5c-0.2-0.4-0.4-0.7-0.7-1s-0.6-0.3-1-0.3c-0.3,0-0.7,0.1-0.9,0.3c-0.3,0.2-0.5,0.5-0.7,1
				c-0.1,0.3-0.3,1-0.5,2c-0.2,1-0.5,1.7-0.7,2.1c-0.3,0.5-0.6,0.9-1,1.2s-0.9,0.4-1.4,0.4c-0.6,0-1.1-0.2-1.6-0.5
				c-0.5-0.3-0.9-0.8-1.1-1.4c-0.3-0.6-0.4-1.3-0.4-2c0-0.8,0.1-1.5,0.4-2.2c0.3-0.6,0.7-1.1,1.2-1.4s1.1-0.5,1.7-0.5l0.1,1.4
				c-0.7,0.1-1.2,0.3-1.6,0.8c-0.4,0.4-0.5,1.1-0.5,1.9c0,0.9,0.2,1.5,0.5,1.9c0.3,0.4,0.7,0.6,1.2,0.6c0.4,0,0.7-0.1,1-0.4
				c0.3-0.3,0.5-1,0.8-2.2c0.3-1.2,0.5-2,0.7-2.5c0.3-0.6,0.7-1.1,1.1-1.4c0.5-0.3,1-0.5,1.6-0.5c0.6,0,1.1,0.2,1.7,0.5
				c0.5,0.3,0.9,0.8,1.2,1.5c0.3,0.6,0.4,1.3,0.4,2.1c0,1-0.1,1.8-0.4,2.5c-0.3,0.7-0.7,1.2-1.3,1.6
				C188.8,265.2,188.1,265.4,187.3,265.4z"/>
			<path class="st5" d="M188.3,249.2l0.2-1.4c0.8,0.2,1.5,0.6,1.9,1.2s0.7,1.4,0.7,2.3c0,1.2-0.4,2.1-1.1,2.8c-0.7,0.7-1.7,1-3,1
				c-1.4,0-2.4-0.3-3.1-1c-0.7-0.7-1.1-1.6-1.1-2.7c0-1.1,0.4-2,1.1-2.6c0.7-0.7,1.8-1,3.1-1c0.1,0,0.2,0,0.4,0v6
				c0.9,0,1.6-0.3,2-0.7c0.5-0.4,0.7-1,0.7-1.7c0-0.5-0.1-0.9-0.4-1.3C189.3,249.7,188.9,249.4,188.3,249.2z M186.1,253.7v-4.5
				c-0.7,0.1-1.2,0.2-1.5,0.5c-0.5,0.4-0.8,1-0.8,1.7c0,0.6,0.2,1.2,0.6,1.6C184.9,253.4,185.4,253.7,186.1,253.7z"/>
			<path class="st5" d="M194,246.1h-11.1v-1.2h1c-0.4-0.3-0.7-0.6-0.9-1c-0.2-0.4-0.3-0.8-0.3-1.3c0-0.7,0.2-1.3,0.5-1.8
				c0.4-0.5,0.9-0.9,1.5-1.2c0.6-0.3,1.3-0.4,2.1-0.4c0.8,0,1.6,0.1,2.2,0.4c0.7,0.3,1.2,0.7,1.5,1.3s0.5,1.2,0.5,1.8
				c0,0.5-0.1,0.9-0.3,1.2c-0.2,0.4-0.4,0.7-0.7,0.9h3.9V246.1z M186.9,244.9c1,0,1.8-0.2,2.3-0.6c0.5-0.4,0.7-0.9,0.7-1.5
				c0-0.6-0.3-1.1-0.8-1.6c-0.5-0.4-1.3-0.6-2.4-0.6c-1,0-1.8,0.2-2.3,0.6c-0.5,0.4-0.8,0.9-0.8,1.5c0,0.6,0.3,1.1,0.8,1.5
				C185.1,244.7,185.9,244.9,186.9,244.9z"/>
			<path class="st5" d="M187.6,238h-1.4v-4.2h1.4V238z"/>
			<path class="st5" d="M190.9,227.6v1.4h-8.7c0.3,0.3,0.6,0.8,0.9,1.3c0.3,0.5,0.5,1,0.7,1.4h-1.3c-0.4-0.8-0.8-1.4-1.3-2
				c-0.5-0.6-1-1-1.5-1.2v-0.9H190.9z"/>
			<path class="st5" d="M188.3,223.9l-0.1-1.3c0.6-0.1,1.1-0.3,1.3-0.6c0.3-0.3,0.4-0.7,0.4-1.2c0-0.4-0.1-0.8-0.3-1.1
				c-0.2-0.3-0.4-0.6-0.8-0.8c-0.3-0.2-0.8-0.4-1.3-0.5s-1.1-0.2-1.7-0.2c-0.1,0-0.2,0-0.3,0c0.4,0.3,0.8,0.6,1.1,1.1
				c0.3,0.5,0.4,1,0.4,1.5c0,0.9-0.3,1.7-1,2.3s-1.5,1-2.6,1c-1.1,0-2-0.3-2.7-1c-0.7-0.7-1-1.5-1-2.5c0-0.7,0.2-1.4,0.6-2
				c0.4-0.6,0.9-1.1,1.7-1.4c0.7-0.3,1.8-0.5,3.1-0.5c1.4,0,2.5,0.2,3.4,0.5c0.8,0.3,1.5,0.8,1.9,1.4c0.4,0.6,0.7,1.3,0.7,2.1
				c0,0.9-0.2,1.6-0.7,2.1C189.9,223.4,189.2,223.8,188.3,223.9z M183.4,218.3c-0.8,0-1.4,0.2-1.9,0.6c-0.5,0.4-0.7,0.9-0.7,1.5
				c0,0.6,0.2,1.1,0.7,1.6c0.5,0.4,1.1,0.7,1.9,0.7c0.7,0,1.3-0.2,1.7-0.6s0.7-1,0.7-1.6c0-0.6-0.2-1.1-0.7-1.6
				S184.2,218.3,183.4,218.3z"/>
		</g>
	</g>
</g>
<g>
	<g>
		<g class="st4">
			<path class="st5" d="M219,264.9h-11.1v-3.8c0-0.9,0.1-1.5,0.2-2c0.1-0.6,0.4-1.2,0.8-1.6c0.5-0.6,1.1-1,1.9-1.3
				c0.8-0.3,1.6-0.4,2.6-0.4c0.8,0,1.6,0.1,2.2,0.3c0.7,0.2,1.2,0.4,1.6,0.8c0.4,0.3,0.8,0.6,1,1c0.2,0.4,0.4,0.8,0.6,1.3
				s0.2,1.1,0.2,1.8V264.9z M217.7,263.4V261c0-0.7-0.1-1.3-0.2-1.7c-0.1-0.4-0.3-0.7-0.6-1c-0.3-0.3-0.8-0.6-1.4-0.8
				c-0.6-0.2-1.3-0.3-2.1-0.3c-1.2,0-2.1,0.2-2.7,0.6c-0.6,0.4-1,0.8-1.3,1.4c-0.2,0.4-0.2,1-0.2,1.9v2.3H217.7z"/>
			<path class="st5" d="M216.4,248.4l0.2-1.4c0.8,0.2,1.5,0.6,1.9,1.2s0.7,1.4,0.7,2.3c0,1.2-0.4,2.1-1.1,2.8c-0.7,0.7-1.7,1-3,1
				c-1.4,0-2.4-0.3-3.1-1c-0.7-0.7-1.1-1.6-1.1-2.7c0-1.1,0.4-2,1.1-2.6c0.7-0.7,1.8-1,3.1-1c0.1,0,0.2,0,0.4,0v6
				c0.9-0.1,1.6-0.3,2-0.7c0.5-0.4,0.7-1,0.7-1.7c0-0.5-0.1-0.9-0.4-1.3C217.4,248.9,217,248.6,216.4,248.4z M214.2,252.8v-4.5
				c-0.7,0.1-1.2,0.2-1.5,0.5c-0.5,0.4-0.8,1-0.8,1.7c0,0.6,0.2,1.2,0.6,1.6C212.9,252.6,213.5,252.8,214.2,252.8z"/>
			<path class="st5" d="M216.1,240l0.2-1.3c0.9,0.1,1.6,0.5,2.2,1.1c0.5,0.6,0.8,1.3,0.8,2.2c0,1.1-0.4,2-1.1,2.7
				c-0.7,0.7-1.8,1-3.1,1c-0.9,0-1.6-0.1-2.3-0.4c-0.7-0.3-1.1-0.7-1.5-1.3s-0.5-1.2-0.5-1.9c0-0.9,0.2-1.6,0.7-2.1s1.1-0.9,1.9-1.1
				l0.2,1.3c-0.5,0.1-0.9,0.3-1.2,0.7s-0.4,0.7-0.4,1.2c0,0.7,0.2,1.2,0.7,1.7s1.3,0.6,2.3,0.6c1.1,0,1.9-0.2,2.4-0.6s0.7-1,0.7-1.6
				c0-0.5-0.2-1-0.5-1.3C217.2,240.3,216.7,240.1,216.1,240z"/>
			<path class="st5" d="M215.7,238h-1.4v-4.2h1.4V238z"/>
			<path class="st5" d="M219,227.6v1.4h-8.7c0.3,0.3,0.6,0.8,0.9,1.3c0.3,0.5,0.5,1,0.7,1.4h-1.3c-0.4-0.8-0.8-1.4-1.3-2
				c-0.5-0.6-1-1-1.5-1.2v-0.9H219z"/>
			<path class="st5" d="M216.4,223.9l-0.1-1.3c0.6-0.1,1.1-0.3,1.3-0.6c0.3-0.3,0.4-0.7,0.4-1.2c0-0.4-0.1-0.8-0.3-1.1
				c-0.2-0.3-0.4-0.6-0.8-0.8c-0.3-0.2-0.8-0.4-1.3-0.5c-0.5-0.1-1.1-0.2-1.7-0.2c-0.1,0-0.2,0-0.3,0c0.4,0.3,0.8,0.6,1.1,1.1
				c0.3,0.5,0.4,1,0.4,1.5c0,0.9-0.3,1.7-1,2.3c-0.7,0.6-1.5,1-2.6,1c-1.1,0-2-0.3-2.7-1c-0.7-0.7-1-1.5-1-2.5c0-0.7,0.2-1.4,0.6-2
				s0.9-1.1,1.7-1.4c0.7-0.3,1.8-0.5,3.1-0.5c1.4,0,2.5,0.2,3.4,0.5c0.8,0.3,1.5,0.8,1.9,1.4c0.4,0.6,0.7,1.3,0.7,2.1
				c0,0.9-0.2,1.6-0.7,2.1C218,223.4,217.3,223.8,216.4,223.9z M211.5,218.3c-0.8,0-1.4,0.2-1.9,0.6c-0.5,0.4-0.7,0.9-0.7,1.5
				c0,0.6,0.2,1.1,0.7,1.6s1.1,0.7,1.9,0.7c0.7,0,1.3-0.2,1.7-0.6c0.4-0.4,0.7-1,0.7-1.6c0-0.6-0.2-1.1-0.7-1.6
				S212.3,218.3,211.5,218.3z"/>
		</g>
	</g>
</g>
<g>
	<g>
		<g class="st4">
			<path class="st5" d="M242.2,264.1h-11.1v-2.2l7.9-2.6c0.7-0.2,1.3-0.4,1.6-0.5c-0.4-0.1-1-0.3-1.8-0.6l-7.7-2.7v-2h11.1v1.4h-9.3
				l9.3,3.2v1.3l-9.4,3.2h9.4V264.1z"/>
			<path class="st5" d="M241.2,246c0.4,0.5,0.7,1,0.9,1.5s0.3,1,0.3,1.5c0,0.9-0.2,1.6-0.6,2c-0.4,0.5-1,0.7-1.7,0.7
				c-0.4,0-0.8-0.1-1.1-0.3c-0.3-0.2-0.6-0.4-0.8-0.7c-0.2-0.3-0.3-0.6-0.4-1c-0.1-0.3-0.1-0.7-0.2-1.2c-0.1-1.1-0.3-1.9-0.5-2.4
				c-0.2,0-0.3,0-0.4,0c-0.6,0-0.9,0.1-1.2,0.4c-0.3,0.3-0.5,0.9-0.5,1.6c0,0.6,0.1,1.1,0.3,1.4c0.2,0.3,0.6,0.5,1.2,0.7l-0.2,1.3
				c-0.6-0.1-1-0.3-1.4-0.6s-0.6-0.7-0.8-1.2c-0.2-0.5-0.3-1.1-0.3-1.8c0-0.7,0.1-1.2,0.2-1.7c0.2-0.4,0.4-0.7,0.6-0.9
				s0.6-0.3,0.9-0.4c0.2,0,0.7-0.1,1.3-0.1h1.8c1.3,0,2.1,0,2.4-0.1c0.3-0.1,0.7-0.2,1-0.3v1.4C241.9,245.9,241.6,246,241.2,246z
				 M238.2,246.1c0.2,0.5,0.4,1.2,0.5,2.2c0.1,0.6,0.2,1,0.3,1.2c0.1,0.2,0.2,0.4,0.4,0.5c0.2,0.1,0.4,0.2,0.6,0.2
				c0.4,0,0.7-0.1,0.9-0.4s0.4-0.7,0.4-1.2c0-0.5-0.1-1-0.3-1.4s-0.5-0.7-0.9-0.9c-0.3-0.1-0.8-0.2-1.4-0.2H238.2z"/>
			<path class="st5" d="M242.2,242.7h-8v-1.2h1.2c-0.6-0.3-0.9-0.6-1.1-0.9c-0.2-0.3-0.3-0.6-0.3-0.9c0-0.5,0.1-0.9,0.4-1.4l1.3,0.5
				c-0.2,0.3-0.3,0.7-0.3,1c0,0.3,0.1,0.6,0.3,0.8c0.2,0.2,0.4,0.4,0.7,0.5c0.5,0.2,1,0.2,1.6,0.2h4.2V242.7z"/>
			<path class="st5" d="M238.9,238h-1.4v-4.2h1.4V238z"/>
			<path class="st5" d="M240.9,225.6h1.3v7.3c-0.3,0-0.6,0-0.9-0.2c-0.5-0.2-1-0.5-1.5-0.9c-0.5-0.4-1-1-1.7-1.8
				c-1-1.2-1.8-2-2.3-2.4s-1.1-0.6-1.6-0.6c-0.5,0-1,0.2-1.4,0.6c-0.4,0.4-0.6,0.9-0.6,1.5c0,0.7,0.2,1.2,0.6,1.6s0.9,0.6,1.6,0.6
				l-0.1,1.4c-1-0.1-1.8-0.5-2.4-1.1c-0.5-0.6-0.8-1.5-0.8-2.5c0-1.1,0.3-1.9,0.9-2.5c0.6-0.6,1.3-0.9,2.2-0.9
				c0.4,0,0.9,0.1,1.3,0.3s0.9,0.5,1.4,0.9s1.1,1.1,2,2.1c0.7,0.8,1.2,1.3,1.4,1.6c0.2,0.2,0.5,0.4,0.7,0.6V225.6z"/>
			<path class="st5" d="M236.7,224.1c-1.3,0-2.4-0.1-3.2-0.4c-0.8-0.3-1.4-0.7-1.9-1.2c-0.4-0.5-0.7-1.2-0.7-2
				c0-0.6,0.1-1.1,0.4-1.6c0.2-0.4,0.6-0.8,1-1.1c0.5-0.3,1-0.5,1.7-0.7c0.6-0.2,1.5-0.2,2.6-0.2c1.3,0,2.4,0.1,3.2,0.4
				c0.8,0.3,1.4,0.7,1.9,1.2s0.7,1.2,0.7,2c0,1.1-0.4,1.9-1.2,2.5C240.3,223.7,238.8,224.1,236.7,224.1z M236.7,222.7
				c1.8,0,3-0.2,3.6-0.6c0.6-0.4,0.9-1,0.9-1.6c0-0.6-0.3-1.2-0.9-1.6c-0.6-0.4-1.8-0.6-3.6-0.6c-1.8,0-3,0.2-3.6,0.6
				c-0.6,0.4-0.9,1-0.9,1.6c0,0.6,0.3,1.1,0.8,1.5C233.7,222.5,234.9,222.7,236.7,222.7z"/>
		</g>
	</g>
</g>
<g>
	<g>
		<g class="st4">
			<path class="st5" d="M268,263.1l-0.2-1.3c0.8,0,1.4-0.2,1.7-0.5c0.3-0.3,0.5-0.7,0.5-1.2c0-0.4-0.1-0.7-0.3-1s-0.4-0.5-0.7-0.6
				c-0.3-0.1-0.8-0.2-1.4-0.2h-7.6V257h7.6c0.9,0,1.6,0.1,2.2,0.3c0.5,0.2,0.9,0.6,1.2,1.1c0.3,0.5,0.4,1.1,0.4,1.7
				c0,1-0.3,1.7-0.8,2.2C270,262.8,269.1,263.1,268,263.1z"/>
			<path class="st5" d="M271.2,249.5H270c0.9,0.6,1.4,1.5,1.4,2.6c0,0.5-0.1,0.9-0.3,1.3s-0.4,0.7-0.7,0.9c-0.3,0.2-0.6,0.3-1,0.4
				c-0.3,0.1-0.7,0.1-1.3,0.1h-5v-1.4h4.5c0.7,0,1.2,0,1.4-0.1c0.4-0.1,0.6-0.3,0.8-0.5s0.3-0.6,0.3-1s-0.1-0.8-0.3-1.2
				c-0.2-0.4-0.5-0.6-0.9-0.8c-0.4-0.1-0.9-0.2-1.6-0.2h-4.3v-1.4h8V249.5z"/>
			<path class="st5" d="M271.2,246.1h-8v-1.2h1.1c-0.9-0.6-1.3-1.4-1.3-2.6c0-0.5,0.1-0.9,0.3-1.3c0.2-0.4,0.4-0.7,0.7-0.9
				c0.3-0.2,0.6-0.3,1-0.4c0.3,0,0.7-0.1,1.3-0.1h4.9v1.4h-4.9c-0.6,0-1,0.1-1.2,0.2c-0.3,0.1-0.5,0.3-0.7,0.6
				c-0.2,0.3-0.2,0.6-0.2,1c0,0.6,0.2,1.1,0.6,1.5c0.4,0.4,1.1,0.6,2.1,0.6h4.4V246.1z"/>
			<path class="st5" d="M267.8,238h-1.4v-4.2h1.4V238z"/>
			<path class="st5" d="M269.9,225.6h1.3v7.3c-0.3,0-0.6,0-0.9-0.2c-0.5-0.2-1-0.5-1.5-0.9s-1-1-1.7-1.8c-1-1.2-1.8-2-2.3-2.4
				s-1.1-0.6-1.6-0.6c-0.5,0-1,0.2-1.4,0.6c-0.4,0.4-0.6,0.9-0.6,1.5c0,0.7,0.2,1.2,0.6,1.6c0.4,0.4,0.9,0.6,1.6,0.6l-0.1,1.4
				c-1-0.1-1.8-0.5-2.4-1.1c-0.5-0.6-0.8-1.5-0.8-2.5c0-1.1,0.3-1.9,0.9-2.5c0.6-0.6,1.3-0.9,2.2-0.9c0.4,0,0.9,0.1,1.3,0.3
				s0.9,0.5,1.4,0.9c0.5,0.4,1.1,1.1,2,2.1c0.7,0.8,1.2,1.3,1.4,1.6c0.2,0.2,0.5,0.4,0.7,0.6V225.6z"/>
			<path class="st5" d="M265.7,224.1c-1.3,0-2.4-0.1-3.2-0.4c-0.8-0.3-1.4-0.7-1.9-1.2c-0.4-0.5-0.7-1.2-0.7-2
				c0-0.6,0.1-1.1,0.4-1.6c0.2-0.4,0.6-0.8,1-1.1c0.5-0.3,1-0.5,1.7-0.7c0.6-0.2,1.5-0.2,2.6-0.2c1.3,0,2.4,0.1,3.2,0.4
				s1.4,0.7,1.9,1.2c0.4,0.5,0.7,1.2,0.7,2c0,1.1-0.4,1.9-1.2,2.5C269.3,223.7,267.8,224.1,265.7,224.1z M265.7,222.7
				c1.8,0,3-0.2,3.6-0.6c0.6-0.4,0.9-1,0.9-1.6c0-0.6-0.3-1.2-0.9-1.6c-0.6-0.4-1.8-0.6-3.6-0.6c-1.8,0-3,0.2-3.6,0.6
				c-0.6,0.4-0.9,1-0.9,1.6c0,0.6,0.3,1.1,0.8,1.5C262.6,222.5,263.9,222.7,265.7,222.7z"/>
		</g>
	</g>
</g>
<g>
	<g>
		<g class="st4">
			<path class="st5" d="M293.8,265.4l-0.1-1.4c0.6-0.1,1-0.2,1.4-0.5c0.4-0.2,0.6-0.6,0.9-1.1c0.2-0.5,0.3-1.1,0.3-1.7
				c0-0.6-0.1-1.1-0.2-1.5c-0.2-0.4-0.4-0.7-0.7-1s-0.6-0.3-1-0.3c-0.3,0-0.7,0.1-0.9,0.3c-0.3,0.2-0.5,0.5-0.7,1
				c-0.1,0.3-0.3,1-0.5,2c-0.2,1-0.5,1.7-0.7,2.1c-0.3,0.5-0.6,0.9-1,1.2s-0.9,0.4-1.4,0.4c-0.6,0-1.1-0.2-1.6-0.5
				c-0.5-0.3-0.9-0.8-1.1-1.4c-0.3-0.6-0.4-1.3-0.4-2c0-0.8,0.1-1.5,0.4-2.2c0.3-0.6,0.7-1.1,1.2-1.4s1.1-0.5,1.7-0.5l0.1,1.4
				c-0.7,0.1-1.2,0.3-1.6,0.8c-0.4,0.4-0.5,1.1-0.5,1.9c0,0.9,0.2,1.5,0.5,1.9c0.3,0.4,0.7,0.6,1.2,0.6c0.4,0,0.7-0.1,1-0.4
				c0.3-0.3,0.5-1,0.8-2.2c0.3-1.2,0.5-2,0.7-2.5c0.3-0.6,0.7-1.1,1.1-1.4c0.5-0.3,1-0.5,1.6-0.5c0.6,0,1.1,0.2,1.7,0.5
				c0.5,0.3,0.9,0.8,1.2,1.5c0.3,0.6,0.4,1.3,0.4,2.1c0,1-0.1,1.8-0.4,2.5c-0.3,0.7-0.7,1.2-1.3,1.6
				C295.2,265.2,294.5,265.4,293.8,265.4z"/>
			<path class="st5" d="M294.7,249.2l0.2-1.4c0.8,0.2,1.5,0.6,1.9,1.2s0.7,1.4,0.7,2.3c0,1.2-0.4,2.1-1.1,2.8c-0.7,0.7-1.7,1-3,1
				c-1.4,0-2.4-0.3-3.1-1c-0.7-0.7-1.1-1.6-1.1-2.7c0-1.1,0.4-2,1.1-2.6c0.7-0.7,1.8-1,3.1-1c0.1,0,0.2,0,0.4,0v6
				c0.9,0,1.6-0.3,2-0.7c0.5-0.4,0.7-1,0.7-1.7c0-0.5-0.1-0.9-0.4-1.3C295.7,249.7,295.3,249.4,294.7,249.2z M292.5,253.7v-4.5
				c-0.7,0.1-1.2,0.2-1.5,0.5c-0.5,0.4-0.8,1-0.8,1.7c0,0.6,0.2,1.2,0.6,1.6C291.3,253.4,291.8,253.7,292.5,253.7z"/>
			<path class="st5" d="M300.4,246.1h-11.1v-1.2h1c-0.4-0.3-0.7-0.6-0.9-1c-0.2-0.4-0.3-0.8-0.3-1.3c0-0.7,0.2-1.3,0.5-1.8
				c0.4-0.5,0.9-0.9,1.5-1.2c0.6-0.3,1.3-0.4,2.1-0.4c0.8,0,1.6,0.1,2.2,0.4c0.7,0.3,1.2,0.7,1.5,1.3s0.5,1.2,0.5,1.8
				c0,0.5-0.1,0.9-0.3,1.2c-0.2,0.4-0.4,0.7-0.7,0.9h3.9V246.1z M293.4,244.9c1,0,1.8-0.2,2.3-0.6c0.5-0.4,0.7-0.9,0.7-1.5
				c0-0.6-0.3-1.1-0.8-1.6c-0.5-0.4-1.3-0.6-2.4-0.6c-1,0-1.8,0.2-2.3,0.6c-0.5,0.4-0.8,0.9-0.8,1.5c0,0.6,0.3,1.1,0.8,1.5
				C291.5,244.7,292.3,244.9,293.4,244.9z"/>
			<path class="st5" d="M294,238h-1.4v-4.2h1.4V238z"/>
			<path class="st5" d="M296,225.6h1.3v7.3c-0.3,0-0.6,0-0.9-0.2c-0.5-0.2-1-0.5-1.5-0.9c-0.5-0.4-1-1-1.7-1.8c-1-1.2-1.8-2-2.3-2.4
				c-0.6-0.4-1.1-0.6-1.6-0.6c-0.5,0-1,0.2-1.4,0.6c-0.4,0.4-0.6,0.9-0.6,1.5c0,0.7,0.2,1.2,0.6,1.6s0.9,0.6,1.6,0.6l-0.1,1.4
				c-1-0.1-1.8-0.5-2.4-1.1c-0.5-0.6-0.8-1.5-0.8-2.5c0-1.1,0.3-1.9,0.9-2.5c0.6-0.6,1.3-0.9,2.2-0.9c0.4,0,0.9,0.1,1.3,0.3
				s0.9,0.5,1.4,0.9s1.1,1.1,2,2.1c0.7,0.8,1.2,1.3,1.4,1.6c0.2,0.2,0.5,0.4,0.7,0.6V225.6z"/>
			<path class="st5" d="M291.9,224.1c-1.3,0-2.4-0.1-3.2-0.4s-1.4-0.7-1.9-1.2c-0.4-0.5-0.7-1.2-0.7-2c0-0.6,0.1-1.1,0.4-1.6
				c0.2-0.4,0.6-0.8,1-1.1c0.5-0.3,1-0.5,1.7-0.7s1.5-0.2,2.6-0.2c1.3,0,2.4,0.1,3.2,0.4s1.4,0.7,1.9,1.2c0.4,0.5,0.7,1.2,0.7,2
				c0,1.1-0.4,1.9-1.2,2.5C295.4,223.7,293.9,224.1,291.9,224.1z M291.9,222.7c1.8,0,3-0.2,3.6-0.6c0.6-0.4,0.9-1,0.9-1.6
				c0-0.6-0.3-1.2-0.9-1.6c-0.6-0.4-1.8-0.6-3.6-0.6c-1.8,0-3,0.2-3.6,0.6c-0.6,0.4-0.9,1-0.9,1.6c0,0.6,0.3,1.1,0.8,1.5
				C288.8,222.5,290,222.7,291.9,222.7z"/>
		</g>
	</g>
</g>
<g>
	<g>
		<g class="st4">
			<path class="st5" d="M323.4,264.9h-11.1v-3.8c0-0.9,0.1-1.5,0.2-2c0.1-0.6,0.4-1.2,0.8-1.6c0.5-0.6,1.1-1,1.9-1.3
				c0.8-0.3,1.6-0.4,2.6-0.4c0.8,0,1.6,0.1,2.2,0.3c0.7,0.2,1.2,0.4,1.6,0.8c0.4,0.3,0.8,0.6,1,1c0.2,0.4,0.4,0.8,0.6,1.3
				c0.1,0.5,0.2,1.1,0.2,1.8V264.9z M322.1,263.4V261c0-0.7-0.1-1.3-0.2-1.7c-0.1-0.4-0.3-0.7-0.6-1c-0.3-0.3-0.8-0.6-1.4-0.8
				c-0.6-0.2-1.3-0.3-2.1-0.3c-1.2,0-2.1,0.2-2.7,0.6s-1,0.8-1.3,1.4c-0.2,0.4-0.2,1-0.2,1.9v2.3H322.1z"/>
			<path class="st5" d="M320.8,248.4l0.2-1.4c0.8,0.2,1.5,0.6,1.9,1.2s0.7,1.4,0.7,2.3c0,1.2-0.4,2.1-1.1,2.8c-0.7,0.7-1.7,1-3,1
				c-1.4,0-2.4-0.3-3.1-1c-0.7-0.7-1.1-1.6-1.1-2.7c0-1.1,0.4-2,1.1-2.6c0.7-0.7,1.8-1,3.1-1c0.1,0,0.2,0,0.4,0v6
				c0.9,0,1.6-0.3,2-0.7c0.5-0.4,0.7-1,0.7-1.7c0-0.5-0.1-0.9-0.4-1.3C321.8,248.8,321.4,248.6,320.8,248.4z M318.6,252.8v-4.5
				c-0.7,0.1-1.2,0.2-1.5,0.5c-0.5,0.4-0.8,1-0.8,1.7c0,0.6,0.2,1.2,0.6,1.6C317.4,252.6,317.9,252.8,318.6,252.8z"/>
			<path class="st5" d="M320.5,240l0.2-1.3c0.9,0.1,1.6,0.5,2.2,1.1c0.5,0.6,0.8,1.3,0.8,2.2c0,1.1-0.4,2-1.1,2.7
				c-0.7,0.7-1.8,1-3.1,1c-0.9,0-1.6-0.1-2.3-0.4c-0.7-0.3-1.1-0.7-1.5-1.3s-0.5-1.2-0.5-1.9c0-0.9,0.2-1.6,0.7-2.1s1.1-0.9,1.9-1.1
				l0.2,1.3c-0.5,0.1-0.9,0.3-1.2,0.7s-0.4,0.7-0.4,1.2c0,0.7,0.2,1.2,0.7,1.7s1.3,0.6,2.3,0.6c1.1,0,1.9-0.2,2.4-0.6
				c0.5-0.4,0.7-1,0.7-1.6c0-0.5-0.2-1-0.5-1.3C321.7,240.3,321.2,240.1,320.5,240z"/>
			<path class="st5" d="M320.1,238h-1.4v-4.2h1.4V238z"/>
			<path class="st5" d="M322.1,225.6h1.3v7.3c-0.3,0-0.6,0-0.9-0.2c-0.5-0.2-1-0.5-1.5-0.9s-1-1-1.7-1.8c-1-1.2-1.8-2-2.3-2.4
				s-1.1-0.6-1.6-0.6c-0.5,0-1,0.2-1.4,0.6c-0.4,0.4-0.6,0.9-0.6,1.5c0,0.7,0.2,1.2,0.6,1.6c0.4,0.4,0.9,0.6,1.6,0.6l-0.1,1.4
				c-1-0.1-1.8-0.5-2.4-1.1c-0.5-0.6-0.8-1.5-0.8-2.5c0-1.1,0.3-1.9,0.9-2.5c0.6-0.6,1.3-0.9,2.2-0.9c0.4,0,0.9,0.1,1.3,0.3
				s0.9,0.5,1.4,0.9c0.5,0.4,1.1,1.1,2,2.1c0.7,0.8,1.2,1.3,1.4,1.6c0.2,0.2,0.5,0.4,0.7,0.6V225.6z"/>
			<path class="st5" d="M318,224.1c-1.3,0-2.4-0.1-3.2-0.4c-0.8-0.3-1.4-0.7-1.9-1.2c-0.4-0.5-0.7-1.2-0.7-2c0-0.6,0.1-1.1,0.4-1.6
				c0.2-0.4,0.6-0.8,1-1.1c0.5-0.3,1-0.5,1.7-0.7c0.6-0.2,1.5-0.2,2.6-0.2c1.3,0,2.4,0.1,3.2,0.4s1.4,0.7,1.9,1.2
				c0.4,0.5,0.7,1.2,0.7,2c0,1.1-0.4,1.9-1.2,2.5C321.6,223.7,320,224.1,318,224.1z M318,222.7c1.8,0,3-0.2,3.6-0.6
				c0.6-0.4,0.9-1,0.9-1.6c0-0.6-0.3-1.2-0.9-1.6c-0.6-0.4-1.8-0.6-3.6-0.6c-1.8,0-3,0.2-3.6,0.6c-0.6,0.4-0.9,1-0.9,1.6
				c0,0.6,0.3,1.1,0.8,1.5C314.9,222.5,316.1,222.7,318,222.7z"/>
		</g>
	</g>
</g>
<g>
	<g>
		<g class="st4">
			<path class="st5" d="M349.6,264.1h-11.1v-2.2l7.9-2.6c0.7-0.2,1.3-0.4,1.6-0.5c-0.4-0.1-1-0.3-1.8-0.6l-7.7-2.7v-2h11.1v1.4h-9.3
				l9.3,3.2v1.3l-9.4,3.2h9.4V264.1z"/>
			<path class="st5" d="M348.6,246c0.4,0.5,0.7,1,0.9,1.5s0.3,1,0.3,1.5c0,0.9-0.2,1.6-0.6,2c-0.4,0.5-1,0.7-1.7,0.7
				c-0.4,0-0.8-0.1-1.1-0.3c-0.3-0.2-0.6-0.4-0.8-0.7c-0.2-0.3-0.3-0.6-0.4-1c-0.1-0.3-0.1-0.7-0.2-1.2c-0.1-1.1-0.3-1.9-0.5-2.4
				c-0.2,0-0.3,0-0.4,0c-0.6,0-0.9,0.1-1.2,0.4c-0.3,0.3-0.5,0.9-0.5,1.6c0,0.6,0.1,1.1,0.3,1.4c0.2,0.3,0.6,0.5,1.2,0.7l-0.2,1.3
				c-0.6-0.1-1-0.3-1.4-0.6s-0.6-0.7-0.8-1.2c-0.2-0.5-0.3-1.1-0.3-1.8c0-0.7,0.1-1.2,0.2-1.7c0.2-0.4,0.4-0.7,0.6-0.9
				s0.6-0.3,0.9-0.4c0.2,0,0.7-0.1,1.3-0.1h1.8c1.3,0,2.1,0,2.4-0.1c0.3-0.1,0.7-0.2,1-0.3v1.4C349.3,245.9,349,246,348.6,246z
				 M345.6,246.1c0.2,0.5,0.4,1.2,0.5,2.2c0.1,0.6,0.2,1,0.3,1.2c0.1,0.2,0.2,0.4,0.4,0.5c0.2,0.1,0.4,0.2,0.6,0.2
				c0.4,0,0.7-0.1,0.9-0.4s0.4-0.7,0.4-1.2c0-0.5-0.1-1-0.3-1.4s-0.5-0.7-0.9-0.9c-0.3-0.1-0.8-0.2-1.4-0.2H345.6z"/>
			<path class="st5" d="M349.6,242.7h-8v-1.2h1.2c-0.6-0.3-0.9-0.6-1.1-0.9c-0.2-0.3-0.3-0.6-0.3-0.9c0-0.5,0.1-0.9,0.4-1.4l1.3,0.5
				c-0.2,0.3-0.3,0.7-0.3,1c0,0.3,0.1,0.6,0.3,0.8c0.2,0.2,0.4,0.4,0.7,0.5c0.5,0.2,1,0.2,1.6,0.2h4.2V242.7z"/>
			<path class="st5" d="M346.3,238h-1.4v-4.2h1.4V238z"/>
			<path class="st5" d="M348.3,225.6h1.3v7.3c-0.3,0-0.6,0-0.9-0.2c-0.5-0.2-1-0.5-1.5-0.9c-0.5-0.4-1-1-1.7-1.8
				c-1-1.2-1.8-2-2.3-2.4s-1.1-0.6-1.6-0.6c-0.5,0-1,0.2-1.4,0.6c-0.4,0.4-0.6,0.9-0.6,1.5c0,0.7,0.2,1.2,0.6,1.6s0.9,0.6,1.6,0.6
				l-0.1,1.4c-1-0.1-1.8-0.5-2.4-1.1c-0.5-0.6-0.8-1.5-0.8-2.5c0-1.1,0.3-1.9,0.9-2.5c0.6-0.6,1.3-0.9,2.2-0.9
				c0.4,0,0.9,0.1,1.3,0.3s0.9,0.5,1.4,0.9s1.1,1.1,2,2.1c0.7,0.8,1.2,1.3,1.4,1.6c0.2,0.2,0.5,0.4,0.7,0.6V225.6z"/>
			<path class="st5" d="M349.6,219v1.4h-8.7c0.3,0.3,0.6,0.8,0.9,1.3c0.3,0.5,0.5,1,0.7,1.4h-1.3c-0.4-0.8-0.8-1.4-1.3-2
				c-0.5-0.6-1-1-1.5-1.2V219H349.6z"/>
		</g>
	</g>
</g>
<g>
	<g>
		<g class="st4">
			<path class="st5" d="M372.5,263.1l-0.2-1.3c0.8,0,1.4-0.2,1.7-0.5c0.3-0.3,0.5-0.7,0.5-1.2c0-0.4-0.1-0.7-0.3-1s-0.4-0.5-0.7-0.6
				c-0.3-0.1-0.8-0.2-1.4-0.2h-7.6V257h7.6c0.9,0,1.6,0.1,2.2,0.3c0.5,0.2,0.9,0.6,1.2,1.1c0.3,0.5,0.4,1.1,0.4,1.7
				c0,1-0.3,1.7-0.8,2.2C374.5,262.8,373.6,263.1,372.5,263.1z"/>
			<path class="st5" d="M375.7,249.5h-1.2c0.9,0.6,1.4,1.5,1.4,2.6c0,0.5-0.1,0.9-0.3,1.3s-0.4,0.7-0.7,0.9c-0.3,0.2-0.6,0.3-1,0.4
				c-0.3,0.1-0.7,0.1-1.3,0.1h-5v-1.4h4.5c0.7,0,1.2,0,1.4-0.1c0.4-0.1,0.6-0.3,0.8-0.5s0.3-0.6,0.3-1s-0.1-0.8-0.3-1.2
				c-0.2-0.4-0.5-0.6-0.9-0.8c-0.4-0.1-0.9-0.2-1.6-0.2h-4.3v-1.4h8V249.5z"/>
			<path class="st5" d="M375.7,246.1h-8v-1.2h1.1c-0.9-0.6-1.3-1.4-1.3-2.6c0-0.5,0.1-0.9,0.3-1.3c0.2-0.4,0.4-0.7,0.7-0.9
				c0.3-0.2,0.6-0.3,1-0.4c0.3,0,0.7-0.1,1.3-0.1h4.9v1.4h-4.9c-0.6,0-1,0.1-1.2,0.2c-0.3,0.1-0.5,0.3-0.7,0.6
				c-0.2,0.3-0.2,0.6-0.2,1c0,0.6,0.2,1.1,0.6,1.5c0.4,0.4,1.1,0.6,2.1,0.6h4.4V246.1z"/>
			<path class="st5" d="M372.4,238H371v-4.2h1.4V238z"/>
			<path class="st5" d="M374.4,225.6h1.3v7.3c-0.3,0-0.6,0-0.9-0.2c-0.5-0.2-1-0.5-1.5-0.9s-1-1-1.7-1.8c-1-1.2-1.8-2-2.3-2.4
				s-1.1-0.6-1.6-0.6c-0.5,0-1,0.2-1.4,0.6c-0.4,0.4-0.6,0.9-0.6,1.5c0,0.7,0.2,1.2,0.6,1.6c0.4,0.4,0.9,0.6,1.6,0.6l-0.1,1.4
				c-1-0.1-1.8-0.5-2.4-1.1c-0.5-0.6-0.8-1.5-0.8-2.5c0-1.1,0.3-1.9,0.9-2.5c0.6-0.6,1.3-0.9,2.2-0.9c0.4,0,0.9,0.1,1.3,0.3
				s0.9,0.5,1.4,0.9c0.5,0.4,1.1,1.1,2,2.1c0.7,0.8,1.2,1.3,1.4,1.6c0.2,0.2,0.5,0.4,0.7,0.6V225.6z"/>
			<path class="st5" d="M375.7,219v1.4H367c0.3,0.3,0.6,0.8,0.9,1.3c0.3,0.5,0.5,1,0.7,1.4h-1.3c-0.4-0.8-0.8-1.4-1.3-2
				c-0.5-0.6-1-1-1.5-1.2V219H375.7z"/>
		</g>
	</g>
</g>
<g>
	<g>
		<g class="st4">
			<path class="st5" d="M398.3,265.4l-0.1-1.4c0.6-0.1,1-0.2,1.4-0.5c0.4-0.2,0.6-0.6,0.9-1.1c0.2-0.5,0.3-1.1,0.3-1.7
				c0-0.6-0.1-1.1-0.2-1.5c-0.2-0.4-0.4-0.7-0.7-1c-0.3-0.2-0.6-0.3-1-0.3c-0.3,0-0.7,0.1-0.9,0.3c-0.3,0.2-0.5,0.5-0.7,1
				c-0.1,0.3-0.3,1-0.5,2s-0.5,1.7-0.7,2.1c-0.3,0.5-0.6,0.9-1,1.2s-0.9,0.4-1.4,0.4c-0.6,0-1.1-0.2-1.6-0.5
				c-0.5-0.3-0.9-0.8-1.1-1.4c-0.3-0.6-0.4-1.3-0.4-2c0-0.8,0.1-1.5,0.4-2.2c0.3-0.6,0.7-1.1,1.2-1.4c0.5-0.3,1.1-0.5,1.7-0.5
				l0.1,1.4c-0.7,0.1-1.2,0.3-1.6,0.8c-0.4,0.4-0.5,1.1-0.5,1.9c0,0.9,0.2,1.5,0.5,1.9c0.3,0.4,0.7,0.6,1.2,0.6c0.4,0,0.7-0.1,1-0.4
				c0.3-0.3,0.5-1,0.8-2.2c0.3-1.2,0.5-2,0.7-2.5c0.3-0.6,0.7-1.1,1.1-1.4c0.5-0.3,1-0.5,1.6-0.5c0.6,0,1.1,0.2,1.7,0.5
				c0.5,0.3,0.9,0.8,1.2,1.5c0.3,0.6,0.4,1.3,0.4,2.1c0,1-0.1,1.8-0.4,2.5c-0.3,0.7-0.7,1.2-1.3,1.6S399,265.4,398.3,265.4z"/>
			<path class="st5" d="M399.3,249.2l0.2-1.4c0.8,0.2,1.5,0.6,1.9,1.2s0.7,1.4,0.7,2.3c0,1.2-0.4,2.1-1.1,2.8c-0.7,0.7-1.7,1-3,1
				c-1.4,0-2.4-0.3-3.1-1c-0.7-0.7-1.1-1.6-1.1-2.7c0-1.1,0.4-2,1.1-2.6c0.7-0.7,1.8-1,3.1-1c0.1,0,0.2,0,0.4,0v6
				c0.9-0.1,1.6-0.3,2-0.7c0.5-0.4,0.7-1,0.7-1.7c0-0.5-0.1-0.9-0.4-1.3C400.2,249.7,399.8,249.4,399.3,249.2z M397.1,253.7v-4.5
				c-0.7,0.1-1.2,0.2-1.5,0.5c-0.5,0.4-0.8,1-0.8,1.7c0,0.6,0.2,1.2,0.6,1.6C395.8,253.4,396.3,253.7,397.1,253.7z"/>
			<path class="st5" d="M404.9,246.1h-11.1v-1.2h1c-0.4-0.3-0.7-0.6-0.9-1s-0.3-0.8-0.3-1.3c0-0.7,0.2-1.3,0.5-1.8
				c0.4-0.5,0.9-0.9,1.5-1.2c0.6-0.3,1.3-0.4,2.1-0.4c0.8,0,1.6,0.1,2.2,0.4c0.7,0.3,1.2,0.7,1.5,1.3s0.5,1.2,0.5,1.8
				c0,0.5-0.1,0.9-0.3,1.2c-0.2,0.4-0.4,0.7-0.7,0.9h3.9V246.1z M397.9,244.9c1,0,1.8-0.2,2.3-0.6c0.5-0.4,0.7-0.9,0.7-1.5
				c0-0.6-0.3-1.1-0.8-1.6c-0.5-0.4-1.3-0.6-2.4-0.6c-1,0-1.8,0.2-2.3,0.6c-0.5,0.4-0.8,0.9-0.8,1.5c0,0.6,0.3,1.1,0.8,1.5
				C396,244.7,396.8,244.9,397.9,244.9z"/>
			<path class="st5" d="M398.5,238h-1.4v-4.2h1.4V238z"/>
			<path class="st5" d="M400.5,225.6h1.3v7.3c-0.3,0-0.6,0-0.9-0.2c-0.5-0.2-1-0.5-1.5-0.9c-0.5-0.4-1-1-1.7-1.8
				c-1-1.2-1.8-2-2.3-2.4s-1.1-0.6-1.6-0.6c-0.5,0-1,0.2-1.4,0.6c-0.4,0.4-0.6,0.9-0.6,1.5c0,0.7,0.2,1.2,0.6,1.6s0.9,0.6,1.6,0.6
				l-0.1,1.4c-1-0.1-1.8-0.5-2.4-1.1c-0.5-0.6-0.8-1.5-0.8-2.5c0-1.1,0.3-1.9,0.9-2.5c0.6-0.6,1.3-0.9,2.2-0.9
				c0.4,0,0.9,0.1,1.3,0.3s0.9,0.5,1.4,0.9s1.1,1.1,2,2.1c0.7,0.8,1.2,1.3,1.4,1.6c0.2,0.2,0.5,0.4,0.7,0.6V225.6z"/>
			<path class="st5" d="M401.8,219v1.4h-8.7c0.3,0.3,0.6,0.8,0.9,1.3c0.3,0.5,0.5,1,0.7,1.4h-1.3c-0.4-0.8-0.8-1.4-1.3-2
				c-0.5-0.6-1-1-1.5-1.2V219H401.8z"/>
		</g>
	</g>
</g>
<g>
	<g>
		<g class="st4">
			<path class="st5" d="M427.9,264.9h-11.1v-3.8c0-0.9,0.1-1.5,0.2-2c0.1-0.6,0.4-1.2,0.8-1.6c0.5-0.6,1.1-1,1.9-1.3
				c0.8-0.3,1.6-0.4,2.6-0.4c0.8,0,1.6,0.1,2.2,0.3c0.7,0.2,1.2,0.4,1.6,0.8c0.4,0.3,0.8,0.6,1,1c0.2,0.4,0.4,0.8,0.6,1.3
				c0.1,0.5,0.2,1.1,0.2,1.8V264.9z M426.6,263.4V261c0-0.7-0.1-1.3-0.2-1.7c-0.1-0.4-0.3-0.7-0.6-1c-0.3-0.3-0.8-0.6-1.4-0.8
				c-0.6-0.2-1.3-0.3-2.1-0.3c-1.2,0-2.1,0.2-2.7,0.6s-1,0.8-1.3,1.4c-0.2,0.4-0.2,1-0.2,1.9v2.3H426.6z"/>
			<path class="st5" d="M425.3,248.4l0.2-1.4c0.8,0.2,1.5,0.6,1.9,1.2s0.7,1.4,0.7,2.3c0,1.2-0.4,2.1-1.1,2.8c-0.7,0.7-1.7,1-3,1
				c-1.4,0-2.4-0.3-3.1-1c-0.7-0.7-1.1-1.6-1.1-2.7c0-1.1,0.4-2,1.1-2.6c0.7-0.7,1.8-1,3.1-1c0.1,0,0.2,0,0.4,0v6
				c0.9,0,1.6-0.3,2-0.7c0.5-0.4,0.7-1,0.7-1.7c0-0.5-0.1-0.9-0.4-1.3C426.3,248.8,425.9,248.6,425.3,248.4z M423.1,252.8v-4.5
				c-0.7,0.1-1.2,0.2-1.5,0.5c-0.5,0.4-0.8,1-0.8,1.7c0,0.6,0.2,1.2,0.6,1.6C421.9,252.6,422.4,252.8,423.1,252.8z"/>
			<path class="st5" d="M425,240l0.2-1.3c0.9,0.1,1.6,0.5,2.2,1.1c0.5,0.6,0.8,1.3,0.8,2.2c0,1.1-0.4,2-1.1,2.7
				c-0.7,0.7-1.8,1-3.1,1c-0.9,0-1.6-0.1-2.3-0.4c-0.7-0.3-1.1-0.7-1.5-1.3s-0.5-1.2-0.5-1.9c0-0.9,0.2-1.6,0.7-2.1s1.1-0.9,1.9-1.1
				l0.2,1.3c-0.5,0.1-0.9,0.3-1.2,0.7s-0.4,0.7-0.4,1.2c0,0.7,0.2,1.2,0.7,1.7s1.3,0.6,2.3,0.6c1.1,0,1.9-0.2,2.4-0.6
				c0.5-0.4,0.7-1,0.7-1.6c0-0.5-0.2-1-0.5-1.3C426.2,240.3,425.7,240.1,425,240z"/>
			<path class="st5" d="M424.6,238h-1.4v-4.2h1.4V238z"/>
			<path class="st5" d="M426.6,225.6h1.3v7.3c-0.3,0-0.6,0-0.9-0.2c-0.5-0.2-1-0.5-1.5-0.9s-1-1-1.7-1.8c-1-1.2-1.8-2-2.3-2.4
				s-1.1-0.6-1.6-0.6c-0.5,0-1,0.2-1.4,0.6c-0.4,0.4-0.6,0.9-0.6,1.5c0,0.7,0.2,1.2,0.6,1.6c0.4,0.4,0.9,0.6,1.6,0.6l-0.1,1.4
				c-1-0.1-1.8-0.5-2.4-1.1c-0.5-0.6-0.8-1.5-0.8-2.5c0-1.1,0.3-1.9,0.9-2.5c0.6-0.6,1.3-0.9,2.2-0.9c0.4,0,0.9,0.1,1.3,0.3
				s0.9,0.5,1.4,0.9c0.5,0.4,1.1,1.1,2,2.1c0.7,0.8,1.2,1.3,1.4,1.6c0.2,0.2,0.5,0.4,0.7,0.6V225.6z"/>
			<path class="st5" d="M427.9,219v1.4h-8.7c0.3,0.3,0.6,0.8,0.9,1.3c0.3,0.5,0.5,1,0.7,1.4h-1.3c-0.4-0.8-0.8-1.4-1.3-2
				c-0.5-0.6-1-1-1.5-1.2V219H427.9z"/>
		</g>
	</g>
</g>
<g>
	<g>
		<g class="st4">
			<path class="st5" d="M454,264.1h-11.1v-2.2l7.9-2.6c0.7-0.2,1.3-0.4,1.6-0.5c-0.4-0.1-1-0.3-1.8-0.6l-7.7-2.7v-2H454v1.4h-9.3
				l9.3,3.2v1.3l-9.4,3.2h9.4V264.1z"/>
			<path class="st5" d="M453,246c0.4,0.5,0.7,1,0.9,1.5s0.3,1,0.3,1.5c0,0.9-0.2,1.6-0.6,2c-0.4,0.5-1,0.7-1.7,0.7
				c-0.4,0-0.8-0.1-1.1-0.3c-0.3-0.2-0.6-0.4-0.8-0.7c-0.2-0.3-0.3-0.6-0.4-1c-0.1-0.3-0.1-0.7-0.2-1.2c-0.1-1.1-0.3-1.9-0.5-2.4
				c-0.2,0-0.3,0-0.4,0c-0.6,0-0.9,0.1-1.2,0.4c-0.3,0.3-0.5,0.9-0.5,1.6c0,0.6,0.1,1.1,0.3,1.4c0.2,0.3,0.6,0.5,1.2,0.7l-0.2,1.3
				c-0.6-0.1-1-0.3-1.4-0.6s-0.6-0.7-0.8-1.2c-0.2-0.5-0.3-1.1-0.3-1.8c0-0.7,0.1-1.2,0.2-1.7c0.2-0.4,0.4-0.7,0.6-0.9
				s0.6-0.3,0.9-0.4c0.2,0,0.7-0.1,1.3-0.1h1.8c1.3,0,2.1,0,2.4-0.1c0.3-0.1,0.7-0.2,1-0.3v1.4C453.7,245.9,453.4,246,453,246z
				 M450,246.1c0.2,0.5,0.4,1.2,0.5,2.2c0.1,0.6,0.2,1,0.3,1.2c0.1,0.2,0.2,0.4,0.4,0.5c0.2,0.1,0.4,0.2,0.6,0.2
				c0.4,0,0.7-0.1,0.9-0.4s0.4-0.7,0.4-1.2c0-0.5-0.1-1-0.3-1.4s-0.5-0.7-0.9-0.9c-0.3-0.1-0.8-0.2-1.4-0.2H450z"/>
			<path class="st5" d="M454,242.7h-8v-1.2h1.2c-0.6-0.3-0.9-0.6-1.1-0.9c-0.2-0.3-0.3-0.6-0.3-0.9c0-0.5,0.1-0.9,0.4-1.4l1.3,0.5
				c-0.2,0.3-0.3,0.7-0.3,1c0,0.3,0.1,0.6,0.3,0.8c0.2,0.2,0.4,0.4,0.7,0.5c0.5,0.2,1,0.2,1.6,0.2h4.2V242.7z"/>
			<path class="st5" d="M450.7,238h-1.4v-4.2h1.4V238z"/>
			<path class="st5" d="M452.7,225.6h1.3v7.3c-0.3,0-0.6,0-0.9-0.2c-0.5-0.2-1-0.5-1.5-0.9c-0.5-0.4-1-1-1.7-1.8
				c-1-1.2-1.8-2-2.3-2.4s-1.1-0.6-1.6-0.6c-0.5,0-1,0.2-1.4,0.6c-0.4,0.4-0.6,0.9-0.6,1.5c0,0.7,0.2,1.2,0.6,1.6s0.9,0.6,1.6,0.6
				l-0.1,1.4c-1-0.1-1.8-0.5-2.4-1.1c-0.5-0.6-0.8-1.5-0.8-2.5c0-1.1,0.3-1.9,0.9-2.5c0.6-0.6,1.3-0.9,2.2-0.9
				c0.4,0,0.9,0.1,1.3,0.3s0.9,0.5,1.4,0.9s1.1,1.1,2,2.1c0.7,0.8,1.2,1.3,1.4,1.6c0.2,0.2,0.5,0.4,0.7,0.6V225.6z"/>
			<path class="st5" d="M452.7,216.9h1.3v7.3c-0.3,0-0.6,0-0.9-0.2c-0.5-0.2-1-0.5-1.5-0.9c-0.5-0.4-1-1-1.7-1.8
				c-1-1.2-1.8-2-2.3-2.4s-1.1-0.6-1.6-0.6c-0.5,0-1,0.2-1.4,0.6c-0.4,0.4-0.6,0.9-0.6,1.5c0,0.7,0.2,1.2,0.6,1.6s0.9,0.6,1.6,0.6
				l-0.1,1.4c-1-0.1-1.8-0.5-2.4-1.1c-0.5-0.6-0.8-1.5-0.8-2.5c0-1.1,0.3-1.9,0.9-2.5c0.6-0.6,1.3-0.9,2.2-0.9
				c0.4,0,0.9,0.1,1.3,0.3s0.9,0.5,1.4,0.9s1.1,1.1,2,2.1c0.7,0.8,1.2,1.3,1.4,1.6c0.2,0.2,0.5,0.4,0.7,0.6V216.9z"/>
		</g>
	</g>
</g>
<g>
	<g>
		<g class="st4">
			<path class="st5" d="M477,263.1l-0.2-1.3c0.8,0,1.4-0.2,1.7-0.5c0.3-0.3,0.5-0.7,0.5-1.2c0-0.4-0.1-0.7-0.3-1s-0.4-0.5-0.7-0.6
				c-0.3-0.1-0.8-0.2-1.4-0.2h-7.6V257h7.6c0.9,0,1.6,0.1,2.2,0.3c0.5,0.2,0.9,0.6,1.2,1.1c0.3,0.5,0.4,1.1,0.4,1.7
				c0,1-0.3,1.7-0.8,2.2C479,262.8,478.1,263.1,477,263.1z"/>
			<path class="st5" d="M480.2,249.5H479c0.9,0.6,1.4,1.5,1.4,2.6c0,0.5-0.1,0.9-0.3,1.3s-0.4,0.7-0.7,0.9c-0.3,0.2-0.6,0.3-1,0.4
				c-0.3,0.1-0.7,0.1-1.3,0.1h-5v-1.4h4.5c0.7,0,1.2,0,1.4-0.1c0.4-0.1,0.6-0.3,0.8-0.5s0.3-0.6,0.3-1s-0.1-0.8-0.3-1.2
				c-0.2-0.4-0.5-0.6-0.9-0.8c-0.4-0.1-0.9-0.2-1.6-0.2h-4.3v-1.4h8V249.5z"/>
			<path class="st5" d="M480.2,246.1h-8v-1.2h1.1c-0.9-0.6-1.3-1.4-1.3-2.6c0-0.5,0.1-0.9,0.3-1.3c0.2-0.4,0.4-0.7,0.7-0.9
				c0.3-0.2,0.6-0.3,1-0.4c0.3,0,0.7-0.1,1.3-0.1h4.9v1.4h-4.9c-0.6,0-1,0.1-1.2,0.2c-0.3,0.1-0.5,0.3-0.7,0.6
				c-0.2,0.3-0.2,0.6-0.2,1c0,0.6,0.2,1.1,0.6,1.5c0.4,0.4,1.1,0.6,2.1,0.6h4.4V246.1z"/>
			<path class="st5" d="M476.8,238h-1.4v-4.2h1.4V238z"/>
			<path class="st5" d="M478.9,225.6h1.3v7.3c-0.3,0-0.6,0-0.9-0.2c-0.5-0.2-1-0.5-1.5-0.9s-1-1-1.7-1.8c-1-1.2-1.8-2-2.3-2.4
				s-1.1-0.6-1.6-0.6c-0.5,0-1,0.2-1.4,0.6c-0.4,0.4-0.6,0.9-0.6,1.5c0,0.7,0.2,1.2,0.6,1.6c0.4,0.4,0.9,0.6,1.6,0.6l-0.1,1.4
				c-1-0.1-1.8-0.5-2.4-1.1c-0.5-0.6-0.8-1.5-0.8-2.5c0-1.1,0.3-1.9,0.9-2.5c0.6-0.6,1.3-0.9,2.2-0.9c0.4,0,0.9,0.1,1.3,0.3
				s0.9,0.5,1.4,0.9c0.5,0.4,1.1,1.1,2,2.1c0.7,0.8,1.2,1.3,1.4,1.6c0.2,0.2,0.5,0.4,0.7,0.6V225.6z"/>
			<path class="st5" d="M478.9,216.9h1.3v7.3c-0.3,0-0.6,0-0.9-0.2c-0.5-0.2-1-0.5-1.5-0.9c-0.5-0.4-1-1-1.7-1.8
				c-1-1.2-1.8-2-2.3-2.4c-0.6-0.4-1.1-0.6-1.6-0.6c-0.5,0-1,0.2-1.4,0.6c-0.4,0.4-0.6,0.9-0.6,1.5c0,0.7,0.2,1.2,0.6,1.6
				s0.9,0.6,1.6,0.6l-0.1,1.4c-1-0.1-1.8-0.5-2.4-1.1c-0.5-0.6-0.8-1.5-0.8-2.5c0-1.1,0.3-1.9,0.9-2.5c0.6-0.6,1.3-0.9,2.2-0.9
				c0.4,0,0.9,0.1,1.3,0.3s0.9,0.5,1.4,0.9s1.1,1.1,2,2.1c0.7,0.8,1.2,1.3,1.4,1.6c0.2,0.2,0.5,0.4,0.7,0.6V216.9z"/>
		</g>
	</g>
</g>
<g>
	<g>
		<g class="st4">
			<path class="st5" d="M502.7,265.4l-0.1-1.4c0.6-0.1,1-0.2,1.4-0.5c0.4-0.2,0.6-0.6,0.9-1.1c0.2-0.5,0.3-1.1,0.3-1.7
				c0-0.6-0.1-1.1-0.2-1.5c-0.2-0.4-0.4-0.7-0.7-1c-0.3-0.2-0.6-0.3-1-0.3c-0.3,0-0.7,0.1-0.9,0.3c-0.3,0.2-0.5,0.5-0.7,1
				c-0.1,0.3-0.3,1-0.5,2s-0.5,1.7-0.7,2.1c-0.3,0.5-0.6,0.9-1,1.2s-0.9,0.4-1.4,0.4c-0.6,0-1.1-0.2-1.6-0.5
				c-0.5-0.3-0.9-0.8-1.1-1.4c-0.3-0.6-0.4-1.3-0.4-2c0-0.8,0.1-1.5,0.4-2.2c0.3-0.6,0.7-1.1,1.2-1.4c0.5-0.3,1.1-0.5,1.7-0.5
				l0.1,1.4c-0.7,0.1-1.2,0.3-1.6,0.8c-0.4,0.4-0.5,1.1-0.5,1.9c0,0.9,0.2,1.5,0.5,1.9c0.3,0.4,0.7,0.6,1.2,0.6c0.4,0,0.7-0.1,1-0.4
				c0.3-0.3,0.5-1,0.8-2.2c0.3-1.2,0.5-2,0.7-2.5c0.3-0.6,0.7-1.1,1.1-1.4c0.5-0.3,1-0.5,1.6-0.5c0.6,0,1.1,0.2,1.7,0.5
				c0.5,0.3,0.9,0.8,1.2,1.5c0.3,0.6,0.4,1.3,0.4,2.1c0,1-0.1,1.8-0.4,2.5c-0.3,0.7-0.7,1.2-1.3,1.6S503.4,265.4,502.7,265.4z"/>
			<path class="st5" d="M503.7,249.2l0.2-1.4c0.8,0.2,1.5,0.6,1.9,1.2s0.7,1.4,0.7,2.3c0,1.2-0.4,2.1-1.1,2.8c-0.7,0.7-1.7,1-3,1
				c-1.4,0-2.4-0.3-3.1-1c-0.7-0.7-1.1-1.6-1.1-2.7c0-1.1,0.4-2,1.1-2.6c0.7-0.7,1.8-1,3.1-1c0.1,0,0.2,0,0.4,0v6
				c0.9-0.1,1.6-0.3,2-0.7c0.5-0.4,0.7-1,0.7-1.7c0-0.5-0.1-0.9-0.4-1.3C504.7,249.7,504.2,249.4,503.7,249.2z M501.5,253.7v-4.5
				c-0.7,0.1-1.2,0.2-1.5,0.5c-0.5,0.4-0.8,1-0.8,1.7c0,0.6,0.2,1.2,0.6,1.6C500.2,253.4,500.8,253.7,501.5,253.7z"/>
			<path class="st5" d="M509.3,246.1h-11.1v-1.2h1c-0.4-0.3-0.7-0.6-0.9-1s-0.3-0.8-0.3-1.3c0-0.7,0.2-1.3,0.5-1.8
				c0.4-0.5,0.9-0.9,1.5-1.2c0.6-0.3,1.3-0.4,2.1-0.4c0.8,0,1.6,0.1,2.2,0.4c0.7,0.3,1.2,0.7,1.5,1.3s0.5,1.2,0.5,1.8
				c0,0.5-0.1,0.9-0.3,1.2c-0.2,0.4-0.4,0.7-0.7,0.9h3.9V246.1z M502.3,244.9c1,0,1.8-0.2,2.3-0.6c0.5-0.4,0.7-0.9,0.7-1.5
				c0-0.6-0.3-1.1-0.8-1.6c-0.5-0.4-1.3-0.6-2.4-0.6c-1,0-1.8,0.2-2.3,0.6c-0.5,0.4-0.8,0.9-0.8,1.5c0,0.6,0.3,1.1,0.8,1.5
				C500.5,244.7,501.2,244.9,502.3,244.9z"/>
			<path class="st5" d="M502.9,238h-1.4v-4.2h1.4V238z"/>
			<path class="st5" d="M504.9,225.6h1.3v7.3c-0.3,0-0.6,0-0.9-0.2c-0.5-0.2-1-0.5-1.5-0.9c-0.5-0.4-1-1-1.7-1.8
				c-1-1.2-1.8-2-2.3-2.4s-1.1-0.6-1.6-0.6c-0.5,0-1,0.2-1.4,0.6c-0.4,0.4-0.6,0.9-0.6,1.5c0,0.7,0.2,1.2,0.6,1.6s0.9,0.6,1.6,0.6
				l-0.1,1.4c-1-0.1-1.8-0.5-2.4-1.1c-0.5-0.6-0.8-1.5-0.8-2.5c0-1.1,0.3-1.9,0.9-2.5c0.6-0.6,1.3-0.9,2.2-0.9
				c0.4,0,0.9,0.1,1.3,0.3s0.9,0.5,1.4,0.9s1.1,1.1,2,2.1c0.7,0.8,1.2,1.3,1.4,1.6c0.2,0.2,0.5,0.4,0.7,0.6V225.6z"/>
			<path class="st5" d="M504.9,216.9h1.3v7.3c-0.3,0-0.6,0-0.9-0.2c-0.5-0.2-1-0.5-1.5-0.9s-1-1-1.7-1.8c-1-1.2-1.8-2-2.3-2.4
				s-1.1-0.6-1.6-0.6c-0.5,0-1,0.2-1.4,0.6c-0.4,0.4-0.6,0.9-0.6,1.5c0,0.7,0.2,1.2,0.6,1.6c0.4,0.4,0.9,0.6,1.6,0.6l-0.1,1.4
				c-1-0.1-1.8-0.5-2.4-1.1c-0.5-0.6-0.8-1.5-0.8-2.5c0-1.1,0.3-1.9,0.9-2.5c0.6-0.6,1.3-0.9,2.2-0.9c0.4,0,0.9,0.1,1.3,0.3
				s0.9,0.5,1.4,0.9c0.5,0.4,1.1,1.1,2,2.1c0.7,0.8,1.2,1.3,1.4,1.6c0.2,0.2,0.5,0.4,0.7,0.6V216.9z"/>
		</g>
	</g>
</g>
<g>
	<g>
		<g class="st4">
			<path class="st5" d="M532.4,264.9h-11.1v-3.8c0-0.9,0.1-1.5,0.2-2c0.1-0.6,0.4-1.2,0.8-1.6c0.5-0.6,1.1-1,1.9-1.3
				c0.8-0.3,1.6-0.4,2.6-0.4c0.8,0,1.6,0.1,2.2,0.3c0.7,0.2,1.2,0.4,1.6,0.8c0.4,0.3,0.8,0.6,1,1c0.2,0.4,0.4,0.8,0.6,1.3
				s0.2,1.1,0.2,1.8V264.9z M531.1,263.4V261c0-0.7-0.1-1.3-0.2-1.7c-0.1-0.4-0.3-0.7-0.6-1c-0.3-0.3-0.8-0.6-1.4-0.8
				c-0.6-0.2-1.3-0.3-2.1-0.3c-1.2,0-2.1,0.2-2.7,0.6c-0.6,0.4-1,0.8-1.3,1.4c-0.2,0.4-0.2,1-0.2,1.9v2.3H531.1z"/>
			<path class="st5" d="M529.8,248.4l0.2-1.4c0.8,0.2,1.5,0.6,1.9,1.2s0.7,1.4,0.7,2.3c0,1.2-0.4,2.1-1.1,2.8c-0.7,0.7-1.7,1-3,1
				c-1.4,0-2.4-0.3-3.1-1c-0.7-0.7-1.1-1.6-1.1-2.7c0-1.1,0.4-2,1.1-2.6c0.7-0.7,1.8-1,3.1-1c0.1,0,0.2,0,0.4,0v6
				c0.9-0.1,1.6-0.3,2-0.7c0.5-0.4,0.7-1,0.7-1.7c0-0.5-0.1-0.9-0.4-1.3C530.8,248.9,530.4,248.6,529.8,248.4z M527.6,252.8v-4.5
				c-0.7,0.1-1.2,0.2-1.5,0.5c-0.5,0.4-0.8,1-0.8,1.7c0,0.6,0.2,1.2,0.6,1.6C526.3,252.6,526.9,252.8,527.6,252.8z"/>
			<path class="st5" d="M529.5,240l0.2-1.3c0.9,0.1,1.6,0.5,2.2,1.1c0.5,0.6,0.8,1.3,0.8,2.2c0,1.1-0.4,2-1.1,2.7
				c-0.7,0.7-1.8,1-3.1,1c-0.9,0-1.6-0.1-2.3-0.4c-0.7-0.3-1.1-0.7-1.5-1.3s-0.5-1.2-0.5-1.9c0-0.9,0.2-1.6,0.7-2.1s1.1-0.9,1.9-1.1
				l0.2,1.3c-0.5,0.1-0.9,0.3-1.2,0.7s-0.4,0.7-0.4,1.2c0,0.7,0.2,1.2,0.7,1.7s1.3,0.6,2.3,0.6c1.1,0,1.9-0.2,2.4-0.6s0.7-1,0.7-1.6
				c0-0.5-0.2-1-0.5-1.3C530.6,240.3,530.1,240.1,529.5,240z"/>
			<path class="st5" d="M529.1,238h-1.4v-4.2h1.4V238z"/>
			<path class="st5" d="M531.1,225.6h1.3v7.3c-0.3,0-0.6,0-0.9-0.2c-0.5-0.2-1-0.5-1.5-0.9c-0.5-0.4-1-1-1.7-1.8
				c-1-1.2-1.8-2-2.3-2.4c-0.6-0.4-1.1-0.6-1.6-0.6c-0.5,0-1,0.2-1.4,0.6s-0.6,0.9-0.6,1.5c0,0.7,0.2,1.2,0.6,1.6
				c0.4,0.4,0.9,0.6,1.6,0.6l-0.1,1.4c-1-0.1-1.8-0.5-2.4-1.1c-0.5-0.6-0.8-1.5-0.8-2.5c0-1.1,0.3-1.9,0.9-2.5
				c0.6-0.6,1.3-0.9,2.2-0.9c0.4,0,0.9,0.1,1.3,0.3s0.9,0.5,1.4,0.9c0.5,0.4,1.1,1.1,2,2.1c0.7,0.8,1.2,1.3,1.4,1.6
				c0.2,0.2,0.5,0.4,0.7,0.6V225.6z"/>
			<path class="st5" d="M531.1,216.9h1.3v7.3c-0.3,0-0.6,0-0.9-0.2c-0.5-0.2-1-0.5-1.5-0.9c-0.5-0.4-1-1-1.7-1.8
				c-1-1.2-1.8-2-2.3-2.4s-1.1-0.6-1.6-0.6c-0.5,0-1,0.2-1.4,0.6c-0.4,0.4-0.6,0.9-0.6,1.5c0,0.7,0.2,1.2,0.6,1.6s0.9,0.6,1.6,0.6
				l-0.1,1.4c-1-0.1-1.8-0.5-2.4-1.1c-0.5-0.6-0.8-1.5-0.8-2.5c0-1.1,0.3-1.9,0.9-2.5c0.6-0.6,1.3-0.9,2.2-0.9
				c0.4,0,0.9,0.1,1.3,0.3s0.9,0.5,1.4,0.9s1.1,1.1,2,2.1c0.7,0.8,1.2,1.3,1.4,1.6c0.2,0.2,0.5,0.4,0.7,0.6V216.9z"/>
		</g>
	</g>
</g>
<line class="st6" x1="118.4" y1="292.9" x2="168.2" y2="292.9"/>
<g>
	<g>
		<g class="st4">
			<path class="st5" d="M174.8,297.7v-11.1h3.8c0.9,0,1.5,0.1,2,0.2c0.6,0.1,1.2,0.4,1.6,0.8c0.6,0.5,1,1.1,1.3,1.9
				c0.3,0.8,0.4,1.6,0.4,2.6c0,0.8-0.1,1.6-0.3,2.2c-0.2,0.7-0.4,1.2-0.8,1.6c-0.3,0.4-0.6,0.8-1,1c-0.4,0.2-0.8,0.4-1.3,0.6
				c-0.5,0.1-1.1,0.2-1.8,0.2H174.8z M176.3,296.4h2.4c0.7,0,1.3-0.1,1.7-0.2c0.4-0.1,0.7-0.3,1-0.6c0.3-0.3,0.6-0.8,0.8-1.4
				s0.3-1.3,0.3-2.1c0-1.2-0.2-2.1-0.6-2.7c-0.4-0.6-0.8-1-1.4-1.3c-0.4-0.2-1-0.2-1.9-0.2h-2.3V296.4z"/>
			<path class="st5" d="M186,297.7v-11.1h8v1.3h-6.6v3.4h6.1v1.3h-6.1v3.8h6.8v1.3H186z"/>
			<path class="st5" d="M196.3,297.7v-11.1h1.5v9.8h5.5v1.3H196.3z"/>
			<path class="st5" d="M206.6,297.7v-9.8H203v-1.3h8.8v1.3h-3.7v9.8H206.6z"/>
			<path class="st5" d="M210.9,297.7l4.3-11.1h1.6l4.5,11.1h-1.7l-1.3-3.4h-4.6l-1.2,3.4H210.9z M214.1,293.1h3.8l-1.2-3.1
				c-0.4-0.9-0.6-1.7-0.8-2.3c-0.1,0.7-0.3,1.4-0.6,2.1L214.1,293.1z"/>
		</g>
	</g>
</g>
<line class="st2" x1="235.7" y1="292.9" x2="285.5" y2="292.9"/>
<g>
	<g>
		<g class="st4">
			<path class="st5" d="M291.7,294.1l1.4-0.1c0.1,0.6,0.2,1,0.5,1.4c0.2,0.4,0.6,0.6,1.1,0.9c0.5,0.2,1.1,0.3,1.7,0.3
				c0.6,0,1.1-0.1,1.5-0.2c0.4-0.2,0.7-0.4,1-0.7s0.3-0.6,0.3-1c0-0.3-0.1-0.7-0.3-0.9c-0.2-0.3-0.5-0.5-1-0.7c-0.3-0.1-1-0.3-2-0.5
				c-1-0.2-1.7-0.5-2.1-0.7c-0.5-0.3-0.9-0.6-1.2-1s-0.4-0.9-0.4-1.4c0-0.6,0.2-1.1,0.5-1.6c0.3-0.5,0.8-0.9,1.4-1.1
				c0.6-0.3,1.3-0.4,2-0.4c0.8,0,1.5,0.1,2.2,0.4c0.6,0.3,1.1,0.7,1.4,1.2s0.5,1.1,0.5,1.7l-1.4,0.1c-0.1-0.7-0.3-1.2-0.8-1.6
				s-1.1-0.5-1.9-0.5c-0.9,0-1.5,0.2-1.9,0.5c-0.4,0.3-0.6,0.7-0.6,1.2c0,0.4,0.1,0.7,0.4,1c0.3,0.3,1,0.5,2.2,0.8
				c1.2,0.3,2,0.5,2.5,0.7c0.6,0.3,1.1,0.7,1.4,1.1c0.3,0.5,0.5,1,0.5,1.6c0,0.6-0.2,1.1-0.5,1.7c-0.3,0.5-0.8,0.9-1.5,1.2
				c-0.6,0.3-1.3,0.4-2.1,0.4c-1,0-1.8-0.1-2.5-0.4c-0.7-0.3-1.2-0.7-1.6-1.3S291.7,294.9,291.7,294.1z"/>
			<path class="st5" d="M302.5,297.7v-11.1h4.2c0.7,0,1.3,0,1.7,0.1c0.5,0.1,1,0.3,1.4,0.5c0.4,0.3,0.7,0.6,0.9,1.1
				c0.2,0.5,0.3,1,0.3,1.5c0,0.9-0.3,1.7-0.9,2.4s-1.7,1-3.3,1H304v4.5H302.5z M304,291.9h2.9c0.9,0,1.6-0.2,2-0.5
				c0.4-0.4,0.6-0.8,0.6-1.5c0-0.5-0.1-0.9-0.4-1.2s-0.5-0.5-0.9-0.7c-0.2-0.1-0.7-0.1-1.4-0.1H304V291.9z"/>
			<path class="st5" d="M312.3,294.8l1.4-0.1c0.1,0.7,0.4,1.2,0.7,1.6c0.4,0.4,0.9,0.5,1.4,0.5c0.7,0,1.2-0.2,1.7-0.7
				c0.5-0.5,0.7-1.2,0.7-2c0-0.8-0.2-1.4-0.7-1.8s-1-0.7-1.7-0.7c-0.4,0-0.8,0.1-1.2,0.3c-0.4,0.2-0.6,0.5-0.8,0.8l-1.3-0.2l1.1-5.7
				h5.5v1.3h-4.4l-0.6,3c0.7-0.5,1.4-0.7,2.1-0.7c1,0,1.8,0.3,2.5,1c0.7,0.7,1,1.5,1,2.6c0,1-0.3,1.9-0.9,2.6
				c-0.7,0.9-1.7,1.3-2.9,1.3c-1,0-1.8-0.3-2.5-0.8C312.8,296.5,312.4,295.7,312.3,294.8z"/>
			<path class="st5" d="M320.9,292.2c0-1.3,0.1-2.4,0.4-3.2c0.3-0.8,0.7-1.4,1.2-1.9c0.5-0.4,1.2-0.7,2-0.7c0.6,0,1.1,0.1,1.6,0.4
				c0.4,0.2,0.8,0.6,1.1,1c0.3,0.5,0.5,1,0.7,1.7c0.2,0.6,0.2,1.5,0.2,2.6c0,1.3-0.1,2.4-0.4,3.2s-0.7,1.4-1.2,1.9
				c-0.5,0.4-1.2,0.7-2,0.7c-1.1,0-1.9-0.4-2.5-1.2C321.3,295.8,320.9,294.3,320.9,292.2z M322.3,292.2c0,1.8,0.2,3,0.6,3.6
				c0.4,0.6,1,0.9,1.6,0.9s1.2-0.3,1.6-0.9s0.6-1.8,0.6-3.6c0-1.8-0.2-3-0.6-3.6s-1-0.9-1.6-0.9c-0.6,0-1.1,0.3-1.5,0.8
				C322.6,289.2,322.3,290.4,322.3,292.2z"/>
			<path class="st5" d="M329.6,292.2c0-1.3,0.1-2.4,0.4-3.2c0.3-0.8,0.7-1.4,1.2-1.9s1.2-0.7,2-0.7c0.6,0,1.1,0.1,1.6,0.4
				c0.4,0.2,0.8,0.6,1.1,1c0.3,0.5,0.5,1,0.7,1.7c0.2,0.6,0.2,1.5,0.2,2.6c0,1.3-0.1,2.4-0.4,3.2c-0.3,0.8-0.7,1.4-1.2,1.9
				s-1.2,0.7-2,0.7c-1.1,0-1.9-0.4-2.5-1.2C329.9,295.8,329.6,294.3,329.6,292.2z M331,292.2c0,1.8,0.2,3,0.6,3.6
				c0.4,0.6,1,0.9,1.6,0.9c0.6,0,1.2-0.3,1.6-0.9c0.4-0.6,0.6-1.8,0.6-3.6c0-1.8-0.2-3-0.6-3.6c-0.4-0.6-1-0.9-1.6-0.9
				c-0.6,0-1.1,0.3-1.5,0.8C331.2,289.2,331,290.4,331,292.2z"/>
		</g>
	</g>
</g>
<line class="st3" x1="351.6" y1="292.9" x2="401.4" y2="292.9"/>
<g>
	<g>
		<g class="st4">
			<path class="st5" d="M408,297.7v-11.1h4.2c0.8,0,1.5,0.1,2,0.3c0.5,0.2,0.9,0.6,1.2,1c0.3,0.5,0.4,1,0.4,1.5
				c0,0.5-0.1,0.9-0.4,1.3c-0.3,0.4-0.6,0.8-1.2,1c0.7,0.2,1.2,0.5,1.5,1c0.4,0.5,0.5,1,0.5,1.7c0,0.5-0.1,1-0.3,1.4
				c-0.2,0.4-0.5,0.8-0.8,1s-0.7,0.4-1.2,0.5c-0.5,0.1-1.1,0.2-1.8,0.2H408z M409.5,291.3h2.4c0.7,0,1.1,0,1.4-0.1
				c0.4-0.1,0.7-0.3,0.8-0.6c0.2-0.3,0.3-0.6,0.3-1c0-0.4-0.1-0.7-0.3-1c-0.2-0.3-0.4-0.5-0.8-0.6c-0.3-0.1-0.9-0.2-1.7-0.2h-2.2
				V291.3z M409.5,296.4h2.8c0.5,0,0.8,0,1-0.1c0.3-0.1,0.6-0.2,0.8-0.3c0.2-0.1,0.4-0.3,0.6-0.6c0.1-0.3,0.2-0.6,0.2-0.9
				c0-0.4-0.1-0.8-0.3-1.1c-0.2-0.3-0.5-0.5-0.9-0.6s-0.9-0.2-1.6-0.2h-2.6V296.4z"/>
			<path class="st5" d="M418.5,297.7v-11.1h1.5v4.6h5.8v-4.6h1.5v11.1h-1.5v-5.2h-5.8v5.2H418.5z"/>
			<path class="st5" d="M429.7,297.7v-11.1h7.5v1.3h-6v3.4h5.2v1.3h-5.2v5H429.7z"/>
			<path class="st5" d="M439.3,297.7v-11.1h1.5v11.1H439.3z"/>
		</g>
	</g>
</g>
</svg>
