<?xml version="1.0" encoding="utf-8"?>
<!-- Generator: Adobe Illustrator 27.2.0, SVG Export Plug-In . SVG Version: 6.00 Build 0)  -->
<svg version="1.1" id="Layer_1" xmlns="http://www.w3.org/2000/svg" xmlns:xlink="http://www.w3.org/1999/xlink" x="0px" y="0px"
	 viewBox="0 0 540 280" style="enable-background:new 0 0 540 280;" xml:space="preserve">
<style type="text/css">
	.st0{fill:none;stroke:#214166;stroke-width:5.3029;stroke-linecap:round;stroke-miterlimit:10;}
	.st1{enable-background:new    ;}
	.st2{fill:#214166;}
	
		.st3{opacity:0.6;fill:none;stroke:#214166;stroke-width:5.3029;stroke-linecap:round;stroke-miterlimit:10;enable-background:new    ;}
	.st4{fill:none;stroke:#D9D9D9;stroke-width:5.3029;stroke-linecap:round;stroke-linejoin:round;stroke-miterlimit:10;}
	.st5{fill:none;stroke:#D9D9D9;stroke-width:1.8;stroke-linejoin:round;stroke-miterlimit:10;}
	.st6{fill:none;stroke:#002060;stroke-width:5.4;stroke-linecap:round;stroke-linejoin:round;stroke-miterlimit:10;}
	.st7{fill:#595959;}
</style>
<line class="st0" x1="107.9" y1="264.9" x2="157.2" y2="264.9"/>
<g>
	<g>
		<g class="st1">
			<path class="st2" d="M169,265.5v-1.3l4.7,0v4.1c-0.7,0.6-1.5,1-2.2,1.3c-0.8,0.3-1.6,0.4-2.4,0.4c-1.1,0-2.1-0.2-3-0.7
				c-0.9-0.5-1.6-1.1-2-2s-0.7-1.9-0.7-3c0-1.1,0.2-2.1,0.7-3s1.1-1.6,1.9-2.1s1.8-0.7,2.9-0.7c0.8,0,1.5,0.1,2.2,0.4
				c0.6,0.3,1.2,0.6,1.5,1.1c0.4,0.5,0.6,1.1,0.8,1.8l-1.3,0.4c-0.2-0.6-0.4-1-0.6-1.3c-0.2-0.3-0.6-0.6-1.1-0.8
				c-0.5-0.2-1-0.3-1.5-0.3c-0.7,0-1.3,0.1-1.7,0.3c-0.5,0.2-0.9,0.5-1.2,0.8c-0.3,0.3-0.5,0.7-0.7,1.1c-0.3,0.7-0.4,1.4-0.4,2.2
				c0,1,0.2,1.8,0.5,2.5s0.8,1.2,1.5,1.5c0.7,0.3,1.3,0.5,2.1,0.5c0.6,0,1.3-0.1,1.9-0.4c0.6-0.2,1.1-0.5,1.4-0.8v-2.1H169z"/>
			<path class="st2" d="M174.6,269.9l4.3-11.1h1.6l4.5,11.1h-1.7l-1.3-3.4h-4.6l-1.2,3.4H174.6z M177.8,265.3h3.8l-1.2-3.1
				c-0.4-0.9-0.6-1.7-0.8-2.3c-0.1,0.7-0.3,1.4-0.6,2.1L177.8,265.3z"/>
			<path class="st2" d="M186.2,269.9v-11.1h2.2l2.6,7.9c0.2,0.7,0.4,1.3,0.5,1.6c0.1-0.4,0.3-1,0.6-1.8l2.7-7.7h2v11.1h-1.4v-9.3
				l-3.2,9.3h-1.3l-3.2-9.4v9.4H186.2z"/>
			<path class="st2" d="M199.1,269.9v-11.1h2.2l2.6,7.9c0.2,0.7,0.4,1.3,0.5,1.6c0.1-0.4,0.3-1,0.6-1.8l2.7-7.7h2v11.1h-1.4v-9.3
				l-3.2,9.3h-1.3l-3.2-9.4v9.4H199.1z"/>
			<path class="st2" d="M210.8,269.9l4.3-11.1h1.6l4.5,11.1h-1.7l-1.3-3.4h-4.6l-1.2,3.4H210.8z M214,265.3h3.8l-1.2-3.1
				c-0.4-0.9-0.6-1.7-0.8-2.3c-0.1,0.7-0.3,1.4-0.6,2.1L214,265.3z"/>
		</g>
	</g>
</g>
<line class="st3" x1="238.1" y1="264.9" x2="287.4" y2="264.9"/>
<g>
	<g>
		<g class="st1">
			<path class="st2" d="M293.6,266.3l1.4-0.1c0.1,0.6,0.2,1,0.5,1.4c0.2,0.4,0.6,0.6,1.1,0.9s1.1,0.3,1.7,0.3c0.6,0,1.1-0.1,1.5-0.2
				c0.4-0.2,0.7-0.4,1-0.7c0.2-0.3,0.3-0.6,0.3-1c0-0.3-0.1-0.7-0.3-0.9c-0.2-0.3-0.5-0.5-1-0.7c-0.3-0.1-1-0.3-2-0.5
				s-1.7-0.5-2.1-0.7c-0.5-0.3-0.9-0.6-1.2-1s-0.4-0.9-0.4-1.4c0-0.6,0.2-1.1,0.5-1.6c0.3-0.5,0.8-0.9,1.4-1.1
				c0.6-0.3,1.3-0.4,2-0.4c0.8,0,1.5,0.1,2.2,0.4s1.1,0.7,1.4,1.2c0.3,0.5,0.5,1.1,0.5,1.7l-1.4,0.1c-0.1-0.7-0.3-1.2-0.8-1.6
				s-1.1-0.5-1.9-0.5c-0.9,0-1.5,0.2-1.9,0.5c-0.4,0.3-0.6,0.7-0.6,1.2c0,0.4,0.1,0.7,0.4,1c0.3,0.3,1,0.5,2.2,0.8
				c1.2,0.3,2,0.5,2.5,0.7c0.6,0.3,1.1,0.7,1.4,1.1c0.3,0.5,0.5,1,0.5,1.6c0,0.6-0.2,1.1-0.5,1.7c-0.3,0.5-0.8,0.9-1.5,1.2
				c-0.6,0.3-1.3,0.4-2.1,0.4c-1,0-1.8-0.1-2.5-0.4c-0.7-0.3-1.2-0.7-1.6-1.3C293.8,267.7,293.6,267.1,293.6,266.3z"/>
			<path class="st2" d="M304.4,269.9v-11.1h4.2c0.7,0,1.3,0,1.7,0.1c0.5,0.1,1,0.3,1.4,0.5c0.4,0.3,0.7,0.6,0.9,1.1s0.3,1,0.3,1.5
				c0,0.9-0.3,1.7-0.9,2.4c-0.6,0.7-1.7,1-3.3,1h-2.8v4.5H304.4z M305.9,264.1h2.9c0.9,0,1.6-0.2,2-0.5c0.4-0.4,0.6-0.8,0.6-1.5
				c0-0.5-0.1-0.9-0.4-1.2c-0.2-0.3-0.5-0.5-0.9-0.7c-0.2-0.1-0.7-0.1-1.4-0.1h-2.8V264.1z"/>
			<path class="st2" d="M314.2,267l1.4-0.1c0.1,0.7,0.4,1.2,0.7,1.6s0.9,0.5,1.4,0.5c0.7,0,1.2-0.2,1.7-0.7c0.5-0.5,0.7-1.2,0.7-2
				c0-0.8-0.2-1.4-0.7-1.8s-1-0.7-1.7-0.7c-0.4,0-0.8,0.1-1.2,0.3c-0.4,0.2-0.6,0.5-0.8,0.8l-1.3-0.2l1.1-5.7h5.5v1.3h-4.4l-0.6,3
				c0.7-0.5,1.4-0.7,2.1-0.7c1,0,1.8,0.3,2.5,1c0.7,0.7,1,1.5,1,2.6c0,1-0.3,1.9-0.9,2.6c-0.7,0.9-1.7,1.3-2.9,1.3
				c-1,0-1.8-0.3-2.5-0.8C314.6,268.7,314.3,267.9,314.2,267z"/>
			<path class="st2" d="M322.8,264.4c0-1.3,0.1-2.4,0.4-3.2c0.3-0.8,0.7-1.4,1.2-1.9s1.2-0.7,2-0.7c0.6,0,1.1,0.1,1.6,0.4
				c0.4,0.2,0.8,0.6,1.1,1c0.3,0.5,0.5,1,0.7,1.7c0.2,0.6,0.2,1.5,0.2,2.6c0,1.3-0.1,2.4-0.4,3.2c-0.3,0.8-0.7,1.4-1.2,1.9
				s-1.2,0.7-2,0.7c-1.1,0-1.9-0.4-2.5-1.2C323.2,268,322.8,266.5,322.8,264.4z M324.2,264.4c0,1.8,0.2,3,0.6,3.6
				c0.4,0.6,1,0.9,1.6,0.9c0.6,0,1.2-0.3,1.6-0.9c0.4-0.6,0.6-1.8,0.6-3.6c0-1.8-0.2-3-0.6-3.6c-0.4-0.6-1-0.9-1.6-0.9
				c-0.6,0-1.1,0.3-1.5,0.8C324.4,261.4,324.2,262.6,324.2,264.4z"/>
			<path class="st2" d="M331.4,264.4c0-1.3,0.1-2.4,0.4-3.2c0.3-0.8,0.7-1.4,1.2-1.9c0.5-0.4,1.2-0.7,2-0.7c0.6,0,1.1,0.1,1.6,0.4
				c0.4,0.2,0.8,0.6,1.1,1c0.3,0.5,0.5,1,0.7,1.7c0.2,0.6,0.2,1.5,0.2,2.6c0,1.3-0.1,2.4-0.4,3.2s-0.7,1.4-1.2,1.9
				c-0.5,0.4-1.2,0.7-2,0.7c-1.1,0-1.9-0.4-2.5-1.2C331.8,268,331.4,266.5,331.4,264.4z M332.8,264.4c0,1.8,0.2,3,0.6,3.6
				c0.4,0.6,1,0.9,1.6,0.9s1.2-0.3,1.6-0.9s0.6-1.8,0.6-3.6c0-1.8-0.2-3-0.6-3.6s-1-0.9-1.6-0.9c-0.6,0-1.1,0.3-1.5,0.8
				C333.1,261.4,332.8,262.6,332.8,264.4z"/>
		</g>
	</g>
</g>
<line class="st4" x1="361.3" y1="264.9" x2="410.7" y2="264.9"/>
<g>
	<g>
		<g class="st1">
			<path class="st2" d="M417.2,269.9v-11.1h4.2c0.8,0,1.5,0.1,2,0.3c0.5,0.2,0.9,0.6,1.2,1s0.4,1,0.4,1.5c0,0.5-0.1,0.9-0.4,1.3
				c-0.3,0.4-0.6,0.8-1.2,1c0.7,0.2,1.2,0.5,1.5,1c0.4,0.5,0.5,1,0.5,1.7c0,0.5-0.1,1-0.3,1.4c-0.2,0.4-0.5,0.8-0.8,1
				c-0.3,0.2-0.7,0.4-1.2,0.5c-0.5,0.1-1.1,0.2-1.8,0.2H417.2z M418.7,263.5h2.4c0.7,0,1.1,0,1.4-0.1c0.4-0.1,0.7-0.3,0.8-0.6
				c0.2-0.3,0.3-0.6,0.3-1c0-0.4-0.1-0.7-0.3-1c-0.2-0.3-0.4-0.5-0.8-0.6s-0.9-0.2-1.7-0.2h-2.2V263.5z M418.7,268.6h2.8
				c0.5,0,0.8,0,1-0.1c0.3-0.1,0.6-0.2,0.8-0.3c0.2-0.1,0.4-0.3,0.6-0.6c0.1-0.3,0.2-0.6,0.2-0.9c0-0.4-0.1-0.8-0.3-1.1
				c-0.2-0.3-0.5-0.5-0.9-0.6s-0.9-0.2-1.6-0.2h-2.6V268.6z"/>
			<path class="st2" d="M427.7,269.9v-11.1h1.5v4.6h5.8v-4.6h1.5v11.1h-1.5v-5.2h-5.8v5.2H427.7z"/>
			<path class="st2" d="M438.9,269.9v-11.1h7.5v1.3h-6v3.4h5.2v1.3h-5.2v5H438.9z"/>
			<path class="st2" d="M448.5,269.9v-11.1h1.5v11.1H448.5z"/>
		</g>
	</g>
</g>
<path class="st5" d="M35.7,5h467 M35.7,47.3h467 M35.7,89.9h467 M35.7,132.2h467"/>
<line class="st5" x1="35.7" y1="174.7" x2="502.8" y2="174.7"/>
<path class="st5" d="M502.8,174.7v4.6 M451,174.7v4.6 M398.8,174.7v4.6 M347,174.7v4.6 M295.2,174.7v4.6 M243.3,174.7v4.6
	 M191.5,174.7v4.6 M139.6,174.7v4.6 M87.5,174.7v4.6 M35.7,174.7v4.6"/>
<polyline class="st6" points="61.7,89.9 113.7,88.2 165.6,81.3 217.4,83.9 269.2,74.6 321.1,70.3 372.9,65.1 425,57.7 476.8,52.5 
	"/>
<polyline class="st3" points="61.7,97.5 113.7,97.5 165.6,104.3 217.4,97.5 269.2,100.9 321.1,107.7 372.9,102.6 425,98.3 
	476.8,102.6 "/>
<polyline class="st4" points="61.7,92.4 113.7,93.4 165.6,95.7 217.4,94.2 269.2,94.2 321.1,97.5 372.9,95.7 425,93.4 476.8,94.2 
	"/>
<g class="st1">
	<path class="st7" d="M49.8,197.5c0,0.1,0,0.1,0,0.2c0,0,0,0.1,0,0.1c0,0-0.1,0-0.1,0c-0.1,0-0.1,0-0.2,0c-0.1,0-0.2,0-0.2,0
		c-0.1,0-0.1,0-0.1,0c0,0-0.1,0-0.1-0.1c0,0,0-0.1,0-0.1l-0.9-2.4h-4l-0.8,2.4c0,0,0,0.1,0,0.1s0,0-0.1,0.1c0,0-0.1,0-0.1,0
		c-0.1,0-0.1,0-0.2,0c-0.1,0-0.2,0-0.2,0c-0.1,0-0.1,0-0.1,0c0,0,0-0.1,0-0.1c0,0,0-0.1,0-0.2l3.2-8.7c0,0,0-0.1,0.1-0.1
		c0,0,0.1,0,0.1-0.1c0,0,0.1,0,0.2,0c0.1,0,0.1,0,0.2,0c0.1,0,0.2,0,0.2,0c0.1,0,0.1,0,0.2,0c0,0,0.1,0,0.1,0.1c0,0,0,0.1,0.1,0.1
		L49.8,197.5z M46.1,189.6L46.1,189.6l-1.7,4.9h3.5L46.1,189.6z"/>
</g>
<g class="st1">
	<path class="st7" d="M56.9,194.4c0,0.5-0.1,1-0.2,1.5c-0.1,0.4-0.3,0.8-0.5,1.1c-0.2,0.3-0.5,0.5-0.9,0.7c-0.3,0.2-0.7,0.2-1.2,0.2
		c-0.2,0-0.4,0-0.5-0.1s-0.3-0.1-0.5-0.2c-0.2-0.1-0.3-0.2-0.5-0.3c-0.2-0.1-0.3-0.3-0.5-0.5v3.3c0,0,0,0.1,0,0.1s0,0-0.1,0.1
		c0,0-0.1,0-0.1,0s-0.1,0-0.2,0c-0.1,0-0.1,0-0.2,0s-0.1,0-0.1,0c0,0-0.1,0-0.1-0.1s0,0,0-0.1v-8.9c0,0,0-0.1,0-0.1s0,0,0.1-0.1
		c0,0,0.1,0,0.1,0c0,0,0.1,0,0.2,0s0.1,0,0.2,0c0,0,0.1,0,0.1,0s0.1,0,0.1,0.1s0,0.1,0,0.1v0.9c0.2-0.2,0.4-0.4,0.6-0.5
		s0.4-0.3,0.5-0.4s0.4-0.2,0.5-0.2s0.4-0.1,0.6-0.1c0.5,0,0.9,0.1,1.2,0.3c0.3,0.2,0.6,0.4,0.8,0.7c0.2,0.3,0.4,0.7,0.4,1.1
		C56.8,193.5,56.9,193.9,56.9,194.4z M56,194.5c0-0.4,0-0.7-0.1-1c-0.1-0.3-0.2-0.6-0.3-0.9c-0.1-0.3-0.3-0.5-0.5-0.6
		c-0.2-0.2-0.5-0.2-0.8-0.2c-0.2,0-0.3,0-0.5,0.1c-0.2,0-0.3,0.1-0.5,0.2c-0.2,0.1-0.3,0.2-0.5,0.4c-0.2,0.2-0.4,0.4-0.6,0.6v2.8
		c0.4,0.4,0.7,0.8,1,1c0.3,0.2,0.7,0.3,1,0.3c0.3,0,0.6-0.1,0.8-0.2c0.2-0.2,0.4-0.4,0.6-0.6c0.1-0.3,0.3-0.5,0.3-0.9
		C56,195.2,56,194.8,56,194.5z"/>
</g>
<g class="st1">
	<path class="st7" d="M62.4,191.6c0,0.1,0,0.1,0,0.2c0,0,0,0.1,0,0.1s0,0.1,0,0.1c0,0,0,0-0.1,0c0,0-0.1,0-0.1,0s-0.1,0-0.2-0.1
		c-0.1,0-0.2,0-0.2-0.1c-0.1,0-0.2,0-0.3,0c-0.1,0-0.3,0-0.4,0.1c-0.1,0.1-0.2,0.1-0.4,0.3c-0.1,0.1-0.3,0.3-0.4,0.5
		c-0.1,0.2-0.3,0.4-0.5,0.7v4.3c0,0,0,0.1,0,0.1s0,0-0.1,0.1c0,0-0.1,0-0.1,0c-0.1,0-0.1,0-0.2,0c-0.1,0-0.1,0-0.2,0
		c-0.1,0-0.1,0-0.1,0c0,0-0.1,0-0.1-0.1s0,0,0-0.1v-6.4c0,0,0-0.1,0-0.1s0,0,0.1-0.1c0,0,0.1,0,0.1,0c0,0,0.1,0,0.2,0
		c0.1,0,0.1,0,0.2,0c0.1,0,0.1,0,0.1,0c0,0,0,0,0.1,0.1s0,0,0,0.1v1c0.2-0.3,0.4-0.5,0.5-0.6s0.3-0.3,0.4-0.4
		c0.1-0.1,0.3-0.2,0.4-0.2c0.1,0,0.3,0,0.4,0c0.1,0,0.1,0,0.2,0c0.1,0,0.2,0,0.3,0c0.1,0,0.2,0,0.2,0.1c0.1,0,0.1,0,0.2,0.1
		c0,0,0,0,0.1,0.1s0,0,0,0.1c0,0,0,0.1,0,0.1C62.4,191.5,62.4,191.5,62.4,191.6z"/>
</g>
<g class="st1">
	<path class="st7" d="M66.4,194.2c0,0.1,0,0.2-0.1,0.3c0,0-0.1,0.1-0.1,0.1h-2.9c-0.1,0-0.1,0-0.2-0.1c0-0.1-0.1-0.1-0.1-0.3
		c0-0.1,0-0.2,0.1-0.3c0-0.1,0.1-0.1,0.2-0.1h2.9c0,0,0.1,0,0.1,0c0,0,0,0,0.1,0.1c0,0,0,0.1,0,0.1
		C66.4,194.1,66.4,194.2,66.4,194.2z"/>
</g>
<g class="st1">
	<path class="st7" d="M73.4,197.4c0,0.1,0,0.1,0,0.2c0,0,0,0.1,0,0.1s0,0.1-0.1,0.1s-0.1,0-0.1,0h-4.9c0,0-0.1,0-0.1,0
		c0,0-0.1,0-0.1-0.1s0-0.1-0.1-0.1c0-0.1,0-0.1,0-0.2c0-0.1,0-0.1,0-0.2c0,0,0-0.1,0-0.1c0,0,0-0.1,0.1-0.1c0,0,0.1-0.1,0.1-0.1
		l1.9-2c0.5-0.5,0.8-0.9,1.1-1.3c0.3-0.4,0.5-0.7,0.6-1c0.1-0.3,0.2-0.6,0.3-0.8c0-0.3,0.1-0.5,0.1-0.7c0-0.2,0-0.4-0.1-0.6
		s-0.2-0.4-0.3-0.5s-0.3-0.3-0.5-0.4c-0.2-0.1-0.4-0.1-0.7-0.1c-0.3,0-0.6,0-0.8,0.1s-0.4,0.2-0.6,0.3s-0.3,0.2-0.4,0.3
		s-0.2,0.1-0.3,0.1c0,0-0.1,0-0.1,0s0,0-0.1-0.1c0,0,0-0.1,0-0.1c0,0,0-0.1,0-0.2c0-0.1,0-0.1,0-0.1c0,0,0-0.1,0-0.1
		c0,0,0-0.1,0-0.1c0,0,0.1-0.1,0.1-0.1c0.1,0,0.1-0.1,0.3-0.2c0.1-0.1,0.3-0.2,0.5-0.2s0.4-0.2,0.7-0.2c0.2-0.1,0.5-0.1,0.7-0.1
		c0.4,0,0.8,0.1,1.1,0.2c0.3,0.1,0.6,0.3,0.8,0.5s0.4,0.5,0.5,0.7c0.1,0.3,0.2,0.6,0.2,0.9c0,0.3,0,0.6-0.1,0.9
		c0,0.3-0.2,0.6-0.3,0.9c-0.2,0.3-0.4,0.7-0.7,1.1c-0.3,0.4-0.7,0.9-1.2,1.4L69,197h4.2c0,0,0.1,0,0.1,0c0,0,0.1,0,0.1,0.1
		s0,0.1,0.1,0.1S73.4,197.3,73.4,197.4z"/>
</g>
<g class="st1">
	<path class="st7" d="M80.7,197.4c0,0.1,0,0.1,0,0.2c0,0,0,0.1,0,0.1s0,0.1-0.1,0.1s-0.1,0-0.1,0h-4.9c0,0-0.1,0-0.1,0
		c0,0-0.1,0-0.1-0.1s0-0.1-0.1-0.1c0-0.1,0-0.1,0-0.2c0-0.1,0-0.1,0-0.2c0,0,0-0.1,0-0.1c0,0,0-0.1,0.1-0.1c0,0,0.1-0.1,0.1-0.1
		l1.9-2c0.5-0.5,0.8-0.9,1.1-1.3c0.3-0.4,0.5-0.7,0.6-1c0.1-0.3,0.2-0.6,0.3-0.8c0-0.3,0.1-0.5,0.1-0.7c0-0.2,0-0.4-0.1-0.6
		s-0.2-0.4-0.3-0.5s-0.3-0.3-0.5-0.4c-0.2-0.1-0.4-0.1-0.7-0.1c-0.3,0-0.6,0-0.8,0.1s-0.4,0.2-0.6,0.3s-0.3,0.2-0.4,0.3
		s-0.2,0.1-0.3,0.1c0,0-0.1,0-0.1,0s0,0-0.1-0.1c0,0,0-0.1,0-0.1c0,0,0-0.1,0-0.2c0-0.1,0-0.1,0-0.1c0,0,0-0.1,0-0.1
		c0,0,0-0.1,0-0.1c0,0,0.1-0.1,0.1-0.1c0.1,0,0.1-0.1,0.3-0.2c0.1-0.1,0.3-0.2,0.5-0.2s0.4-0.2,0.7-0.2c0.2-0.1,0.5-0.1,0.7-0.1
		c0.4,0,0.8,0.1,1.1,0.2c0.3,0.1,0.6,0.3,0.8,0.5s0.4,0.5,0.5,0.7c0.1,0.3,0.2,0.6,0.2,0.9c0,0.3,0,0.6-0.1,0.9
		c0,0.3-0.2,0.6-0.3,0.9c-0.2,0.3-0.4,0.7-0.7,1.1c-0.3,0.4-0.7,0.9-1.2,1.4l-1.7,1.7h4.2c0,0,0.1,0,0.1,0c0,0,0.1,0,0.1,0.1
		s0,0.1,0.1,0.1S80.7,197.3,80.7,197.4z"/>
</g>
<g class="st1">
	<path class="st7" d="M102.4,197.6C102.4,197.7,102.4,197.7,102.4,197.6c0,0.1-0.1,0.1-0.1,0.1c0,0-0.1,0-0.1,0c-0.1,0-0.1,0-0.2,0
		c-0.1,0-0.1,0-0.2,0c-0.1,0-0.1,0-0.1,0c0,0-0.1,0-0.1-0.1s0,0,0-0.1v-8.2h0l-3.6,8.3c0,0,0,0,0,0.1c0,0,0,0-0.1,0s-0.1,0-0.1,0
		c0,0-0.1,0-0.2,0c-0.1,0-0.1,0-0.2,0c0,0-0.1,0-0.1,0c0,0-0.1,0-0.1,0c0,0,0,0,0-0.1l-3.4-8.3h0v8.2c0,0,0,0.1,0,0.1s0,0-0.1,0.1
		c0,0-0.1,0-0.1,0c-0.1,0-0.1,0-0.2,0c-0.1,0-0.1,0-0.2,0c-0.1,0-0.1,0-0.1,0c0,0-0.1,0-0.1-0.1c0,0,0,0,0-0.1v-8.5
		c0-0.2,0-0.3,0.1-0.3c0.1-0.1,0.2-0.1,0.3-0.1h0.5c0.1,0,0.2,0,0.3,0c0.1,0,0.2,0.1,0.2,0.1s0.1,0.1,0.2,0.2s0.1,0.1,0.1,0.2l3,7.2
		h0l3.1-7.2c0-0.1,0.1-0.2,0.2-0.3c0.1-0.1,0.1-0.1,0.2-0.2s0.1-0.1,0.2-0.1s0.1,0,0.2,0h0.5c0,0,0.1,0,0.1,0c0,0,0.1,0,0.1,0.1
		s0.1,0.1,0.1,0.1c0,0.1,0,0.1,0,0.2V197.6z"/>
</g>
<g class="st1">
	<path class="st7" d="M109.3,197.6c0,0,0,0.1,0,0.1c0,0-0.1,0-0.1,0.1s-0.1,0-0.2,0c-0.1,0-0.1,0-0.2,0s-0.1,0-0.1-0.1
		c0,0,0-0.1,0-0.1v-0.7c-0.3,0.3-0.6,0.5-0.9,0.7c-0.3,0.2-0.7,0.3-1.1,0.3c-0.3,0-0.6,0-0.9-0.1s-0.5-0.2-0.7-0.4
		c-0.2-0.2-0.3-0.4-0.4-0.6c-0.1-0.2-0.1-0.5-0.1-0.8c0-0.4,0.1-0.7,0.2-0.9c0.1-0.3,0.4-0.5,0.6-0.7c0.3-0.2,0.6-0.3,1-0.4
		s0.8-0.1,1.3-0.1h1v-0.5c0-0.3,0-0.5-0.1-0.7c-0.1-0.2-0.1-0.4-0.3-0.5c-0.1-0.1-0.3-0.2-0.5-0.3c-0.2-0.1-0.4-0.1-0.7-0.1
		c-0.3,0-0.5,0-0.8,0.1c-0.2,0.1-0.4,0.1-0.6,0.2c-0.2,0.1-0.3,0.2-0.4,0.2c-0.1,0.1-0.2,0.1-0.2,0.1c0,0-0.1,0-0.1,0
		c0,0,0,0-0.1-0.1c0,0,0-0.1,0-0.1c0,0,0-0.1,0-0.1c0-0.1,0-0.2,0-0.2s0.1-0.1,0.1-0.2s0.2-0.1,0.3-0.2c0.1-0.1,0.3-0.2,0.5-0.2
		c0.2-0.1,0.4-0.1,0.6-0.2c0.2,0,0.5-0.1,0.7-0.1c0.4,0,0.8,0.1,1.1,0.2c0.3,0.1,0.5,0.3,0.7,0.5s0.3,0.4,0.4,0.7
		c0.1,0.3,0.1,0.6,0.1,1V197.6z M108.5,194.6h-1.2c-0.3,0-0.6,0-0.9,0.1c-0.3,0.1-0.5,0.2-0.6,0.3c-0.2,0.1-0.3,0.3-0.4,0.4
		s-0.1,0.4-0.1,0.6c0,0.4,0.1,0.7,0.3,0.9s0.6,0.3,1,0.3c0.3,0,0.6-0.1,0.9-0.3c0.3-0.2,0.6-0.4,0.9-0.8V194.6z"/>
</g>
<g class="st1">
	<path class="st7" d="M114.2,197.8l-0.9,2.4c0,0.1-0.1,0.1-0.1,0.1c-0.1,0-0.2,0.1-0.4,0.1c-0.1,0-0.2,0-0.2,0c-0.1,0-0.1,0-0.1-0.1
		c0,0,0-0.1-0.1-0.1c0,0,0-0.1,0-0.1l0.9-2.3c0,0-0.1,0-0.1-0.1c0,0,0-0.1-0.1-0.1l-2.3-6.2c0-0.1,0-0.1,0-0.2c0,0,0-0.1,0-0.1
		c0,0,0.1,0,0.1,0c0.1,0,0.1,0,0.2,0c0.1,0,0.2,0,0.2,0c0.1,0,0.1,0,0.1,0s0.1,0,0.1,0.1c0,0,0,0.1,0,0.1l2,5.6h0l2-5.6
		c0-0.1,0.1-0.1,0.1-0.1c0,0,0.1,0,0.2,0c0.1,0,0.1,0,0.2,0c0.1,0,0.2,0,0.2,0c0.1,0,0.1,0,0.1,0c0,0,0,0.1,0,0.1s0,0.1,0,0.2
		L114.2,197.8z"/>
</g>
<g class="st1">
	<path class="st7" d="M120.8,194.2c0,0.1,0,0.2-0.1,0.3c0,0-0.1,0.1-0.1,0.1h-2.9c-0.1,0-0.1,0-0.2-0.1c0-0.1-0.1-0.1-0.1-0.3
		c0-0.1,0-0.2,0.1-0.3c0-0.1,0.1-0.1,0.2-0.1h2.9c0,0,0.1,0,0.1,0c0,0,0,0,0.1,0.1c0,0,0,0.1,0,0.1
		C120.8,194.1,120.8,194.2,120.8,194.2z"/>
</g>
<g class="st1">
	<path class="st7" d="M127.7,197.4c0,0.1,0,0.1,0,0.2c0,0,0,0.1,0,0.1s0,0.1-0.1,0.1s-0.1,0-0.1,0h-4.9c0,0-0.1,0-0.1,0
		c0,0-0.1,0-0.1-0.1s0-0.1-0.1-0.1c0-0.1,0-0.1,0-0.2c0-0.1,0-0.1,0-0.2c0,0,0-0.1,0-0.1c0,0,0-0.1,0.1-0.1c0,0,0.1-0.1,0.1-0.1
		l1.9-2c0.5-0.5,0.8-0.9,1.1-1.3c0.3-0.4,0.5-0.7,0.6-1c0.1-0.3,0.2-0.6,0.3-0.8c0-0.3,0.1-0.5,0.1-0.7c0-0.2,0-0.4-0.1-0.6
		s-0.2-0.4-0.3-0.5s-0.3-0.3-0.5-0.4c-0.2-0.1-0.4-0.1-0.7-0.1c-0.3,0-0.6,0-0.8,0.1s-0.4,0.2-0.6,0.3s-0.3,0.2-0.4,0.3
		s-0.2,0.1-0.3,0.1c0,0-0.1,0-0.1,0s0,0-0.1-0.1c0,0,0-0.1,0-0.1c0,0,0-0.1,0-0.2c0-0.1,0-0.1,0-0.1c0,0,0-0.1,0-0.1
		c0,0,0-0.1,0-0.1c0,0,0.1-0.1,0.1-0.1c0.1,0,0.1-0.1,0.3-0.2c0.1-0.1,0.3-0.2,0.5-0.2s0.4-0.2,0.7-0.2c0.2-0.1,0.5-0.1,0.7-0.1
		c0.4,0,0.8,0.1,1.1,0.2c0.3,0.1,0.6,0.3,0.8,0.5s0.4,0.5,0.5,0.7c0.1,0.3,0.2,0.6,0.2,0.9c0,0.3,0,0.6-0.1,0.9
		c0,0.3-0.2,0.6-0.3,0.9c-0.2,0.3-0.4,0.7-0.7,1.1c-0.3,0.4-0.7,0.9-1.2,1.4l-1.7,1.7h4.2c0,0,0.1,0,0.1,0c0,0,0.1,0,0.1,0.1
		s0,0.1,0.1,0.1S127.7,197.3,127.7,197.4z"/>
</g>
<g class="st1">
	<path class="st7" d="M134.9,197.4c0,0.1,0,0.1,0,0.2c0,0,0,0.1,0,0.1s0,0.1-0.1,0.1s-0.1,0-0.1,0h-4.9c0,0-0.1,0-0.1,0
		c0,0-0.1,0-0.1-0.1s0-0.1-0.1-0.1c0-0.1,0-0.1,0-0.2c0-0.1,0-0.1,0-0.2c0,0,0-0.1,0-0.1c0,0,0-0.1,0.1-0.1c0,0,0.1-0.1,0.1-0.1
		l1.9-2c0.5-0.5,0.8-0.9,1.1-1.3c0.3-0.4,0.5-0.7,0.6-1c0.1-0.3,0.2-0.6,0.3-0.8c0-0.3,0.1-0.5,0.1-0.7c0-0.2,0-0.4-0.1-0.6
		s-0.2-0.4-0.3-0.5s-0.3-0.3-0.5-0.4c-0.2-0.1-0.4-0.1-0.7-0.1c-0.3,0-0.6,0-0.8,0.1s-0.4,0.2-0.6,0.3s-0.3,0.2-0.4,0.3
		s-0.2,0.1-0.3,0.1c0,0-0.1,0-0.1,0s0,0-0.1-0.1c0,0,0-0.1,0-0.1c0,0,0-0.1,0-0.2c0-0.1,0-0.1,0-0.1c0,0,0-0.1,0-0.1
		c0,0,0-0.1,0-0.1c0,0,0.1-0.1,0.1-0.1c0.1,0,0.1-0.1,0.3-0.2c0.1-0.1,0.3-0.2,0.5-0.2s0.4-0.2,0.7-0.2c0.2-0.1,0.5-0.1,0.7-0.1
		c0.4,0,0.8,0.1,1.1,0.2c0.3,0.1,0.6,0.3,0.8,0.5s0.4,0.5,0.5,0.7c0.1,0.3,0.2,0.6,0.2,0.9c0,0.3,0,0.6-0.1,0.9
		c0,0.3-0.2,0.6-0.3,0.9c-0.2,0.3-0.4,0.7-0.7,1.1c-0.3,0.4-0.7,0.9-1.2,1.4l-1.7,1.7h4.2c0,0,0.1,0,0.1,0c0,0,0.1,0,0.1,0.1
		s0,0.1,0.1,0.1S134.9,197.3,134.9,197.4z"/>
</g>
<g class="st1">
	<path class="st7" d="M149.6,195.6c0,0.3,0,0.6-0.1,0.9c-0.1,0.3-0.2,0.5-0.3,0.7c-0.1,0.2-0.3,0.4-0.6,0.5
		c-0.2,0.1-0.5,0.2-0.9,0.2c-0.1,0-0.3,0-0.4,0c-0.1,0-0.2-0.1-0.3-0.1s-0.2-0.1-0.3-0.1c-0.1,0-0.1-0.1-0.2-0.1s0-0.1-0.1-0.1
		c0,0,0-0.1,0-0.1c0,0,0-0.1,0-0.1c0,0,0-0.1,0-0.2c0-0.1,0-0.1,0-0.2c0,0,0-0.1,0-0.1c0,0,0,0,0.1-0.1s0.1,0,0.1,0
		c0,0,0.1,0,0.1,0.1s0.1,0.1,0.2,0.1c0.1,0,0.2,0.1,0.3,0.1s0.3,0.1,0.4,0.1c0.2,0,0.3,0,0.4-0.1c0.1,0,0.2-0.1,0.3-0.2
		c0.1-0.1,0.1-0.3,0.2-0.5c0-0.2,0.1-0.5,0.1-0.8v-6.7c0,0,0-0.1,0-0.1s0,0,0.1-0.1c0,0,0.1,0,0.1,0c0.1,0,0.1,0,0.2,0s0.1,0,0.2,0
		c0.1,0,0.1,0,0.1,0c0,0,0.1,0,0.1,0.1c0,0,0,0,0,0.1V195.6z"/>
</g>
<g class="st1">
	<path class="st7" d="M157.3,197.6C157.3,197.7,157.3,197.7,157.3,197.6c0,0.1-0.1,0.1-0.1,0.1c0,0-0.1,0-0.1,0c-0.1,0-0.1,0-0.2,0
		c-0.1,0-0.2,0-0.2,0c-0.1,0-0.1,0-0.1,0c0,0,0,0-0.1-0.1s0,0,0-0.1v-0.9c-0.4,0.4-0.7,0.7-1.1,0.9c-0.3,0.2-0.7,0.3-1,0.3
		c-0.4,0-0.8-0.1-1.1-0.2c-0.3-0.1-0.5-0.3-0.7-0.6c-0.2-0.2-0.3-0.5-0.4-0.8c-0.1-0.3-0.1-0.7-0.1-1.2v-3.8c0,0,0-0.1,0-0.1
		s0,0,0.1-0.1c0,0,0.1,0,0.1,0c0.1,0,0.1,0,0.2,0c0.1,0,0.2,0,0.2,0c0.1,0,0.1,0,0.1,0c0,0,0.1,0,0.1,0.1c0,0,0,0,0,0.1v3.8
		c0,0.4,0,0.7,0.1,1c0.1,0.2,0.2,0.5,0.3,0.6c0.1,0.2,0.3,0.3,0.5,0.4c0.2,0.1,0.4,0.1,0.7,0.1c0.3,0,0.6-0.1,1-0.3
		c0.3-0.2,0.7-0.6,1-1v-4.6c0,0,0-0.1,0-0.1s0,0,0.1-0.1c0,0,0.1,0,0.1,0c0.1,0,0.1,0,0.2,0c0.1,0,0.1,0,0.2,0c0.1,0,0.1,0,0.1,0
		c0,0,0.1,0,0.1,0.1c0,0,0,0,0,0.1V197.6z"/>
	<path class="st7" d="M164.8,197.6C164.8,197.7,164.8,197.7,164.8,197.6c0,0.1-0.1,0.1-0.1,0.1c0,0-0.1,0-0.1,0c-0.1,0-0.1,0-0.2,0
		c-0.1,0-0.2,0-0.2,0c-0.1,0-0.1,0-0.1,0c0,0-0.1,0-0.1-0.1s0,0,0-0.1v-3.8c0-0.4,0-0.7-0.1-1c-0.1-0.2-0.2-0.5-0.3-0.6
		s-0.3-0.3-0.5-0.4c-0.2-0.1-0.4-0.1-0.7-0.1c-0.3,0-0.6,0.1-1,0.3c-0.3,0.2-0.7,0.6-1,1v4.6c0,0,0,0.1,0,0.1s0,0-0.1,0.1
		c0,0-0.1,0-0.1,0c-0.1,0-0.1,0-0.2,0c-0.1,0-0.1,0-0.2,0c-0.1,0-0.1,0-0.1,0c0,0-0.1,0-0.1-0.1s0,0,0-0.1v-6.4c0,0,0-0.1,0-0.1
		s0,0,0.1-0.1c0,0,0.1,0,0.1,0c0,0,0.1,0,0.2,0c0.1,0,0.1,0,0.2,0c0.1,0,0.1,0,0.1,0c0,0,0,0,0.1,0.1s0,0,0,0.1v0.9
		c0.4-0.4,0.7-0.7,1.1-0.9c0.4-0.2,0.7-0.3,1-0.3c0.4,0,0.8,0.1,1.1,0.2c0.3,0.1,0.5,0.3,0.7,0.6s0.3,0.5,0.4,0.8
		c0.1,0.3,0.1,0.7,0.1,1.2V197.6z"/>
</g>
<g class="st1">
	<path class="st7" d="M169.8,194.2c0,0.1,0,0.2-0.1,0.3c0,0-0.1,0.1-0.1,0.1h-2.9c-0.1,0-0.1,0-0.2-0.1c0-0.1-0.1-0.1-0.1-0.3
		c0-0.1,0-0.2,0.1-0.3c0-0.1,0.1-0.1,0.2-0.1h2.9c0,0,0.1,0,0.1,0c0,0,0,0,0.1,0.1c0,0,0,0.1,0,0.1
		C169.8,194.1,169.8,194.2,169.8,194.2z"/>
	<path class="st7" d="M176.7,197.4c0,0.1,0,0.1,0,0.2c0,0,0,0.1,0,0.1s0,0.1-0.1,0.1s-0.1,0-0.1,0h-4.9c0,0-0.1,0-0.1,0
		c0,0-0.1,0-0.1-0.1s0-0.1-0.1-0.1c0-0.1,0-0.1,0-0.2c0-0.1,0-0.1,0-0.2c0,0,0-0.1,0-0.1c0,0,0-0.1,0.1-0.1c0,0,0.1-0.1,0.1-0.1
		l1.9-2c0.5-0.5,0.8-0.9,1.1-1.3c0.3-0.4,0.5-0.7,0.6-1c0.1-0.3,0.2-0.6,0.3-0.8c0-0.3,0.1-0.5,0.1-0.7c0-0.2,0-0.4-0.1-0.6
		s-0.2-0.4-0.3-0.5s-0.3-0.3-0.5-0.4c-0.2-0.1-0.4-0.1-0.7-0.1c-0.3,0-0.6,0-0.8,0.1s-0.4,0.2-0.6,0.3s-0.3,0.2-0.4,0.3
		s-0.2,0.1-0.3,0.1c0,0-0.1,0-0.1,0s0,0-0.1-0.1c0,0,0-0.1,0-0.1c0,0,0-0.1,0-0.2c0-0.1,0-0.1,0-0.1c0,0,0-0.1,0-0.1
		c0,0,0-0.1,0-0.1c0,0,0.1-0.1,0.1-0.1c0.1,0,0.1-0.1,0.3-0.2c0.1-0.1,0.3-0.2,0.5-0.2s0.4-0.2,0.7-0.2c0.2-0.1,0.5-0.1,0.7-0.1
		c0.4,0,0.8,0.1,1.1,0.2c0.3,0.1,0.6,0.3,0.8,0.5s0.4,0.5,0.5,0.7c0.1,0.3,0.2,0.6,0.2,0.9c0,0.3,0,0.6-0.1,0.9
		c0,0.3-0.2,0.6-0.3,0.9c-0.2,0.3-0.4,0.7-0.7,1.1c-0.3,0.4-0.7,0.9-1.2,1.4l-1.7,1.7h4.2c0,0,0.1,0,0.1,0c0,0,0.1,0,0.1,0.1
		s0,0.1,0.1,0.1S176.7,197.3,176.7,197.4z"/>
</g>
<g class="st1">
	<path class="st7" d="M183.9,197.4c0,0.1,0,0.1,0,0.2c0,0,0,0.1,0,0.1s0,0.1-0.1,0.1s-0.1,0-0.1,0h-4.9c0,0-0.1,0-0.1,0
		c0,0-0.1,0-0.1-0.1s0-0.1-0.1-0.1c0-0.1,0-0.1,0-0.2c0-0.1,0-0.1,0-0.2c0,0,0-0.1,0-0.1c0,0,0-0.1,0.1-0.1c0,0,0.1-0.1,0.1-0.1
		l1.9-2c0.5-0.5,0.8-0.9,1.1-1.3c0.3-0.4,0.5-0.7,0.6-1c0.1-0.3,0.2-0.6,0.3-0.8c0-0.3,0.1-0.5,0.1-0.7c0-0.2,0-0.4-0.1-0.6
		s-0.2-0.4-0.3-0.5s-0.3-0.3-0.5-0.4c-0.2-0.1-0.4-0.1-0.7-0.1c-0.3,0-0.6,0-0.8,0.1s-0.4,0.2-0.6,0.3s-0.3,0.2-0.4,0.3
		s-0.2,0.1-0.3,0.1c0,0-0.1,0-0.1,0s0,0-0.1-0.1c0,0,0-0.1,0-0.1c0,0,0-0.1,0-0.2c0-0.1,0-0.1,0-0.1c0,0,0-0.1,0-0.1
		c0,0,0-0.1,0-0.1c0,0,0.1-0.1,0.1-0.1c0.1,0,0.1-0.1,0.3-0.2c0.1-0.1,0.3-0.2,0.5-0.2s0.4-0.2,0.7-0.2c0.2-0.1,0.5-0.1,0.7-0.1
		c0.4,0,0.8,0.1,1.1,0.2c0.3,0.1,0.6,0.3,0.8,0.5s0.4,0.5,0.5,0.7c0.1,0.3,0.2,0.6,0.2,0.9c0,0.3,0,0.6-0.1,0.9
		c0,0.3-0.2,0.6-0.3,0.9c-0.2,0.3-0.4,0.7-0.7,1.1c-0.3,0.4-0.7,0.9-1.2,1.4l-1.7,1.7h4.2c0,0,0.1,0,0.1,0c0,0,0.1,0,0.1,0.1
		s0,0.1,0.1,0.1S183.9,197.3,183.9,197.4z"/>
</g>
<g class="st1">
	<path class="st7" d="M203.6,195.6c0,0.3,0,0.6-0.1,0.9c-0.1,0.3-0.2,0.5-0.3,0.7c-0.1,0.2-0.3,0.4-0.6,0.5
		c-0.2,0.1-0.5,0.2-0.9,0.2c-0.1,0-0.3,0-0.4,0c-0.1,0-0.2-0.1-0.3-0.1s-0.2-0.1-0.3-0.1c-0.1,0-0.1-0.1-0.2-0.1s0-0.1-0.1-0.1
		c0,0,0-0.1,0-0.1c0,0,0-0.1,0-0.1c0,0,0-0.1,0-0.2c0-0.1,0-0.1,0-0.2c0,0,0-0.1,0-0.1c0,0,0,0,0.1-0.1s0.1,0,0.1,0
		c0,0,0.1,0,0.1,0.1s0.1,0.1,0.2,0.1c0.1,0,0.2,0.1,0.3,0.1s0.3,0.1,0.4,0.1c0.2,0,0.3,0,0.4-0.1c0.1,0,0.2-0.1,0.3-0.2
		c0.1-0.1,0.1-0.3,0.2-0.5c0-0.2,0.1-0.5,0.1-0.8v-6.7c0,0,0-0.1,0-0.1s0,0,0.1-0.1c0,0,0.1,0,0.1,0c0.1,0,0.1,0,0.2,0s0.1,0,0.2,0
		c0.1,0,0.1,0,0.1,0c0,0,0.1,0,0.1,0.1c0,0,0,0,0,0.1V195.6z"/>
</g>
<g class="st1">
	<path class="st7" d="M211.4,197.6C211.4,197.7,211.4,197.7,211.4,197.6c0,0.1-0.1,0.1-0.1,0.1c0,0-0.1,0-0.1,0c-0.1,0-0.1,0-0.2,0
		c-0.1,0-0.2,0-0.2,0c-0.1,0-0.1,0-0.1,0c0,0,0,0-0.1-0.1s0,0,0-0.1v-0.9c-0.4,0.4-0.7,0.7-1.1,0.9c-0.3,0.2-0.7,0.3-1,0.3
		c-0.4,0-0.8-0.1-1.1-0.2c-0.3-0.1-0.5-0.3-0.7-0.6c-0.2-0.2-0.3-0.5-0.4-0.8c-0.1-0.3-0.1-0.7-0.1-1.2v-3.8c0,0,0-0.1,0-0.1
		s0,0,0.1-0.1c0,0,0.1,0,0.1,0c0.1,0,0.1,0,0.2,0c0.1,0,0.2,0,0.2,0c0.1,0,0.1,0,0.1,0c0,0,0.1,0,0.1,0.1c0,0,0,0,0,0.1v3.8
		c0,0.4,0,0.7,0.1,1c0.1,0.2,0.2,0.5,0.3,0.6c0.1,0.2,0.3,0.3,0.5,0.4c0.2,0.1,0.4,0.1,0.7,0.1c0.3,0,0.6-0.1,1-0.3
		c0.3-0.2,0.7-0.6,1-1v-4.6c0,0,0-0.1,0-0.1s0,0,0.1-0.1c0,0,0.1,0,0.1,0c0.1,0,0.1,0,0.2,0c0.1,0,0.1,0,0.2,0c0.1,0,0.1,0,0.1,0
		c0,0,0.1,0,0.1,0.1c0,0,0,0,0,0.1V197.6z"/>
	<path class="st7" d="M214.5,197.6C214.5,197.7,214.5,197.7,214.5,197.6c0,0.1-0.1,0.1-0.1,0.1c0,0-0.1,0-0.1,0c-0.1,0-0.1,0-0.2,0
		c-0.1,0-0.1,0-0.2,0c-0.1,0-0.1,0-0.1,0c0,0-0.1,0-0.1-0.1s0,0,0-0.1v-9.5c0,0,0-0.1,0-0.1s0,0,0.1-0.1c0,0,0.1,0,0.1,0
		s0.1,0,0.2,0c0.1,0,0.2,0,0.2,0s0.1,0,0.1,0c0,0,0.1,0,0.1,0.1s0,0,0,0.1V197.6z"/>
</g>
<g class="st1">
	<path class="st7" d="M219.5,194.2c0,0.1,0,0.2-0.1,0.3c0,0-0.1,0.1-0.1,0.1h-2.9c-0.1,0-0.1,0-0.2-0.1c0-0.1-0.1-0.1-0.1-0.3
		c0-0.1,0-0.2,0.1-0.3c0-0.1,0.1-0.1,0.2-0.1h2.9c0,0,0.1,0,0.1,0c0,0,0,0,0.1,0.1c0,0,0,0.1,0,0.1
		C219.5,194.1,219.5,194.2,219.5,194.2z"/>
</g>
<g class="st1">
	<path class="st7" d="M226.4,197.4c0,0.1,0,0.1,0,0.2c0,0,0,0.1,0,0.1s0,0.1-0.1,0.1s-0.1,0-0.1,0h-4.9c0,0-0.1,0-0.1,0
		c0,0-0.1,0-0.1-0.1s0-0.1-0.1-0.1c0-0.1,0-0.1,0-0.2c0-0.1,0-0.1,0-0.2c0,0,0-0.1,0-0.1c0,0,0-0.1,0.1-0.1c0,0,0.1-0.1,0.1-0.1
		l1.9-2c0.5-0.5,0.8-0.9,1.1-1.3c0.3-0.4,0.5-0.7,0.6-1c0.1-0.3,0.2-0.6,0.3-0.8c0-0.3,0.1-0.5,0.1-0.7c0-0.2,0-0.4-0.1-0.6
		s-0.2-0.4-0.3-0.5s-0.3-0.3-0.5-0.4c-0.2-0.1-0.4-0.1-0.7-0.1c-0.3,0-0.6,0-0.8,0.1s-0.4,0.2-0.6,0.3s-0.3,0.2-0.4,0.3
		s-0.2,0.1-0.3,0.1c0,0-0.1,0-0.1,0s0,0-0.1-0.1c0,0,0-0.1,0-0.1c0,0,0-0.1,0-0.2c0-0.1,0-0.1,0-0.1c0,0,0-0.1,0-0.1
		c0,0,0-0.1,0-0.1c0,0,0.1-0.1,0.1-0.1c0.1,0,0.1-0.1,0.3-0.2c0.1-0.1,0.3-0.2,0.5-0.2s0.4-0.2,0.7-0.2c0.2-0.1,0.5-0.1,0.7-0.1
		c0.4,0,0.8,0.1,1.1,0.2c0.3,0.1,0.6,0.3,0.8,0.5s0.4,0.5,0.5,0.7c0.1,0.3,0.2,0.6,0.2,0.9c0,0.3,0,0.6-0.1,0.9
		c0,0.3-0.2,0.6-0.3,0.9c-0.2,0.3-0.4,0.7-0.7,1.1c-0.3,0.4-0.7,0.9-1.2,1.4L222,197h4.2c0,0,0.1,0,0.1,0c0,0,0.1,0,0.1,0.1
		s0,0.1,0.1,0.1S226.4,197.3,226.4,197.4z"/>
</g>
<g class="st1">
	<path class="st7" d="M233.6,197.4c0,0.1,0,0.1,0,0.2c0,0,0,0.1,0,0.1s0,0.1-0.1,0.1s-0.1,0-0.1,0h-4.9c0,0-0.1,0-0.1,0
		c0,0-0.1,0-0.1-0.1s0-0.1-0.1-0.1c0-0.1,0-0.1,0-0.2c0-0.1,0-0.1,0-0.2c0,0,0-0.1,0-0.1c0,0,0-0.1,0.1-0.1c0,0,0.1-0.1,0.1-0.1
		l1.9-2c0.5-0.5,0.8-0.9,1.1-1.3c0.3-0.4,0.5-0.7,0.6-1c0.1-0.3,0.2-0.6,0.3-0.8c0-0.3,0.1-0.5,0.1-0.7c0-0.2,0-0.4-0.1-0.6
		s-0.2-0.4-0.3-0.5s-0.3-0.3-0.5-0.4c-0.2-0.1-0.4-0.1-0.7-0.1c-0.3,0-0.6,0-0.8,0.1s-0.4,0.2-0.6,0.3s-0.3,0.2-0.4,0.3
		s-0.2,0.1-0.3,0.1c0,0-0.1,0-0.1,0s0,0-0.1-0.1c0,0,0-0.1,0-0.1c0,0,0-0.1,0-0.2c0-0.1,0-0.1,0-0.1c0,0,0-0.1,0-0.1
		c0,0,0-0.1,0-0.1c0,0,0.1-0.1,0.1-0.1c0.1,0,0.1-0.1,0.3-0.2c0.1-0.1,0.3-0.2,0.5-0.2s0.4-0.2,0.7-0.2c0.2-0.1,0.5-0.1,0.7-0.1
		c0.4,0,0.8,0.1,1.1,0.2c0.3,0.1,0.6,0.3,0.8,0.5s0.4,0.5,0.5,0.7c0.1,0.3,0.2,0.6,0.2,0.9c0,0.3,0,0.6-0.1,0.9
		c0,0.3-0.2,0.6-0.3,0.9c-0.2,0.3-0.4,0.7-0.7,1.1c-0.3,0.4-0.7,0.9-1.2,1.4l-1.7,1.7h4.2c0,0,0.1,0,0.1,0c0,0,0.1,0,0.1,0.1
		s0,0.1,0.1,0.1S233.6,197.3,233.6,197.4z"/>
</g>
<g class="st1">
	<path class="st7" d="M256.6,197.5c0,0.1,0,0.1,0,0.2c0,0,0,0.1,0,0.1c0,0-0.1,0-0.1,0c-0.1,0-0.1,0-0.2,0c-0.1,0-0.2,0-0.2,0
		c-0.1,0-0.1,0-0.1,0c0,0-0.1,0-0.1-0.1c0,0,0-0.1,0-0.1l-0.9-2.4h-4l-0.8,2.4c0,0,0,0.1,0,0.1s0,0-0.1,0.1c0,0-0.1,0-0.1,0
		c-0.1,0-0.1,0-0.2,0c-0.1,0-0.2,0-0.2,0c-0.1,0-0.1,0-0.1,0c0,0,0-0.1,0-0.1c0,0,0-0.1,0-0.2l3.2-8.7c0,0,0-0.1,0.1-0.1
		c0,0,0.1,0,0.1-0.1c0,0,0.1,0,0.2,0c0.1,0,0.1,0,0.2,0c0.1,0,0.2,0,0.2,0c0.1,0,0.1,0,0.2,0c0,0,0.1,0,0.1,0.1c0,0,0,0.1,0.1,0.1
		L256.6,197.5z M252.8,189.6L252.8,189.6l-1.7,4.9h3.5L252.8,189.6z"/>
</g>
<g class="st1">
	<path class="st7" d="M263.2,197.6C263.2,197.7,263.2,197.7,263.2,197.6c0,0.1-0.1,0.1-0.1,0.1c0,0-0.1,0-0.1,0c-0.1,0-0.1,0-0.2,0
		c-0.1,0-0.2,0-0.2,0c-0.1,0-0.1,0-0.1,0c0,0,0,0-0.1-0.1s0,0,0-0.1v-0.9c-0.4,0.4-0.7,0.7-1.1,0.9c-0.3,0.2-0.7,0.3-1,0.3
		c-0.4,0-0.8-0.1-1.1-0.2c-0.3-0.1-0.5-0.3-0.7-0.6c-0.2-0.2-0.3-0.5-0.4-0.8c-0.1-0.3-0.1-0.7-0.1-1.2v-3.8c0,0,0-0.1,0-0.1
		s0,0,0.1-0.1c0,0,0.1,0,0.1,0c0.1,0,0.1,0,0.2,0c0.1,0,0.2,0,0.2,0c0.1,0,0.1,0,0.1,0c0,0,0.1,0,0.1,0.1c0,0,0,0,0,0.1v3.8
		c0,0.4,0,0.7,0.1,1c0.1,0.2,0.2,0.5,0.3,0.6c0.1,0.2,0.3,0.3,0.5,0.4c0.2,0.1,0.4,0.1,0.7,0.1c0.3,0,0.6-0.1,1-0.3
		c0.3-0.2,0.7-0.6,1-1v-4.6c0,0,0-0.1,0-0.1s0,0,0.1-0.1c0,0,0.1,0,0.1,0c0.1,0,0.1,0,0.2,0c0.1,0,0.1,0,0.2,0c0.1,0,0.1,0,0.1,0
		c0,0,0.1,0,0.1,0.1c0,0,0,0,0,0.1V197.6z"/>
</g>
<g class="st1">
	<path class="st7" d="M270.7,191.5c0,0.1,0,0.2-0.1,0.3c0,0.1-0.1,0.1-0.2,0.1h-1c0.2,0.2,0.3,0.4,0.4,0.7c0.1,0.2,0.1,0.5,0.1,0.7
		c0,0.4-0.1,0.7-0.2,1s-0.3,0.5-0.5,0.7s-0.5,0.3-0.8,0.4c-0.3,0.1-0.6,0.2-1,0.2c-0.3,0-0.6,0-0.8-0.1c-0.3-0.1-0.5-0.2-0.6-0.3
		c-0.1,0.1-0.2,0.2-0.2,0.3c-0.1,0.1-0.1,0.3-0.1,0.4c0,0.2,0.1,0.3,0.3,0.5c0.2,0.1,0.4,0.2,0.7,0.2l1.7,0.1c0.3,0,0.6,0,0.8,0.1
		c0.3,0.1,0.5,0.2,0.7,0.3c0.2,0.1,0.3,0.3,0.5,0.5c0.1,0.2,0.2,0.4,0.2,0.7c0,0.3-0.1,0.6-0.2,0.8c-0.1,0.3-0.3,0.5-0.5,0.7
		c-0.2,0.2-0.5,0.3-0.9,0.5c-0.4,0.1-0.8,0.2-1.3,0.2c-0.5,0-0.9,0-1.3-0.1s-0.6-0.2-0.9-0.4s-0.4-0.3-0.5-0.5
		c-0.1-0.2-0.2-0.4-0.2-0.7c0-0.2,0-0.3,0.1-0.5c0-0.1,0.1-0.3,0.2-0.4c0.1-0.1,0.2-0.3,0.3-0.4s0.2-0.2,0.4-0.4
		c-0.2-0.1-0.4-0.3-0.5-0.4c-0.1-0.2-0.2-0.4-0.2-0.6c0-0.3,0.1-0.5,0.2-0.8c0.1-0.2,0.2-0.4,0.4-0.6c-0.1-0.2-0.2-0.4-0.3-0.6
		c-0.1-0.2-0.1-0.5-0.1-0.8c0-0.4,0.1-0.7,0.2-1c0.1-0.3,0.3-0.5,0.5-0.7s0.5-0.3,0.7-0.5s0.6-0.2,1-0.2c0.2,0,0.4,0,0.5,0
		s0.3,0,0.4,0.1h1.9c0.1,0,0.1,0,0.2,0.1C270.6,191.3,270.7,191.4,270.7,191.5z M269.8,198.3c0-0.3-0.1-0.5-0.4-0.7
		c-0.3-0.2-0.6-0.3-1-0.3l-1.8-0.1c-0.2,0.1-0.3,0.3-0.4,0.4s-0.2,0.2-0.3,0.3c-0.1,0.1-0.1,0.2-0.1,0.3s0,0.2,0,0.3
		c0,0.3,0.2,0.6,0.5,0.8c0.3,0.2,0.8,0.3,1.5,0.3c0.4,0,0.7,0,1-0.1s0.5-0.2,0.6-0.3c0.2-0.1,0.3-0.3,0.4-0.4
		S269.8,198.5,269.8,198.3z M269.1,193.3c0-0.5-0.1-0.9-0.4-1.1c-0.3-0.3-0.6-0.4-1.1-0.4c-0.2,0-0.5,0-0.7,0.1
		c-0.2,0.1-0.3,0.2-0.5,0.3s-0.2,0.3-0.3,0.5c-0.1,0.2-0.1,0.4-0.1,0.6c0,0.5,0.1,0.8,0.4,1.1s0.6,0.4,1.1,0.4c0.3,0,0.5,0,0.7-0.1
		c0.2-0.1,0.3-0.2,0.5-0.3c0.1-0.1,0.2-0.3,0.3-0.5C269.1,193.7,269.1,193.5,269.1,193.3z"/>
</g>
<g class="st1">
	<path class="st7" d="M275.1,194.2c0,0.1,0,0.2-0.1,0.3c0,0-0.1,0.1-0.1,0.1h-2.9c-0.1,0-0.1,0-0.2-0.1c0-0.1-0.1-0.1-0.1-0.3
		c0-0.1,0-0.2,0.1-0.3c0-0.1,0.1-0.1,0.2-0.1h2.9c0,0,0.1,0,0.1,0s0,0,0.1,0.1c0,0,0,0.1,0,0.1C275.1,194.1,275.1,194.2,275.1,194.2
		z"/>
	<path class="st7" d="M282,197.4c0,0.1,0,0.1,0,0.2c0,0,0,0.1,0,0.1c0,0,0,0.1-0.1,0.1c0,0-0.1,0-0.1,0h-4.9c0,0-0.1,0-0.1,0
		c0,0-0.1,0-0.1-0.1s0-0.1-0.1-0.1c0-0.1,0-0.1,0-0.2c0-0.1,0-0.1,0-0.2s0-0.1,0-0.1c0,0,0-0.1,0.1-0.1c0,0,0.1-0.1,0.1-0.1l1.9-2
		c0.5-0.5,0.8-0.9,1.1-1.3c0.3-0.4,0.5-0.7,0.6-1c0.1-0.3,0.2-0.6,0.3-0.8s0.1-0.5,0.1-0.7c0-0.2,0-0.4-0.1-0.6
		c-0.1-0.2-0.2-0.4-0.3-0.5s-0.3-0.3-0.5-0.4c-0.2-0.1-0.4-0.1-0.7-0.1c-0.3,0-0.6,0-0.8,0.1s-0.4,0.2-0.6,0.3s-0.3,0.2-0.4,0.3
		s-0.2,0.1-0.3,0.1c0,0-0.1,0-0.1,0s0,0-0.1-0.1c0,0,0-0.1,0-0.1c0,0,0-0.1,0-0.2c0-0.1,0-0.1,0-0.1c0,0,0-0.1,0-0.1
		c0,0,0-0.1,0-0.1s0.1-0.1,0.1-0.1s0.1-0.1,0.3-0.2c0.1-0.1,0.3-0.2,0.5-0.2c0.2-0.1,0.4-0.2,0.7-0.2s0.5-0.1,0.7-0.1
		c0.4,0,0.8,0.1,1.1,0.2c0.3,0.1,0.6,0.3,0.8,0.5s0.4,0.5,0.5,0.7c0.1,0.3,0.2,0.6,0.2,0.9c0,0.3,0,0.6-0.1,0.9
		c0,0.3-0.2,0.6-0.3,0.9c-0.2,0.3-0.4,0.7-0.7,1.1c-0.3,0.4-0.7,0.9-1.2,1.4l-1.7,1.7h4.2c0,0,0.1,0,0.1,0c0,0,0.1,0,0.1,0.1
		s0,0.1,0.1,0.1S282,197.3,282,197.4z"/>
</g>
<g class="st1">
	<path class="st7" d="M289.2,197.4c0,0.1,0,0.1,0,0.2c0,0,0,0.1,0,0.1c0,0,0,0.1-0.1,0.1c0,0-0.1,0-0.1,0H284c0,0-0.1,0-0.1,0
		c0,0-0.1,0-0.1-0.1s0-0.1-0.1-0.1c0-0.1,0-0.1,0-0.2c0-0.1,0-0.1,0-0.2s0-0.1,0-0.1c0,0,0-0.1,0.1-0.1c0,0,0.1-0.1,0.1-0.1l1.9-2
		c0.5-0.5,0.8-0.9,1.1-1.3c0.3-0.4,0.5-0.7,0.6-1c0.1-0.3,0.2-0.6,0.3-0.8s0.1-0.5,0.1-0.7c0-0.2,0-0.4-0.1-0.6
		c-0.1-0.2-0.2-0.4-0.3-0.5s-0.3-0.3-0.5-0.4c-0.2-0.1-0.4-0.1-0.7-0.1c-0.3,0-0.6,0-0.8,0.1s-0.4,0.2-0.6,0.3s-0.3,0.2-0.4,0.3
		s-0.2,0.1-0.3,0.1c0,0-0.1,0-0.1,0s0,0-0.1-0.1c0,0,0-0.1,0-0.1c0,0,0-0.1,0-0.2c0-0.1,0-0.1,0-0.1c0,0,0-0.1,0-0.1
		c0,0,0-0.1,0-0.1s0.1-0.1,0.1-0.1s0.1-0.1,0.3-0.2c0.1-0.1,0.3-0.2,0.5-0.2c0.2-0.1,0.4-0.2,0.7-0.2s0.5-0.1,0.7-0.1
		c0.4,0,0.8,0.1,1.1,0.2c0.3,0.1,0.6,0.3,0.8,0.5s0.4,0.5,0.5,0.7c0.1,0.3,0.2,0.6,0.2,0.9c0,0.3,0,0.6-0.1,0.9
		c0,0.3-0.2,0.6-0.3,0.9c-0.2,0.3-0.4,0.7-0.7,1.1c-0.3,0.4-0.7,0.9-1.2,1.4l-1.7,1.7h4.2c0,0,0.1,0,0.1,0c0,0,0.1,0,0.1,0.1
		s0,0.1,0.1,0.1S289.2,197.3,289.2,197.4z"/>
</g>
<g class="st1">
	<path class="st7" d="M307.2,195.3c0,0.4-0.1,0.8-0.2,1.1c-0.1,0.3-0.3,0.6-0.6,0.8c-0.3,0.2-0.6,0.4-0.9,0.5
		c-0.4,0.1-0.8,0.2-1.2,0.2c-0.3,0-0.6,0-0.8-0.1c-0.3-0.1-0.5-0.1-0.7-0.2c-0.2-0.1-0.4-0.2-0.5-0.2c-0.1-0.1-0.2-0.1-0.3-0.2
		c-0.1-0.1-0.1-0.1-0.1-0.2c0-0.1,0-0.2,0-0.3c0-0.1,0-0.1,0-0.2c0-0.1,0-0.1,0-0.1c0,0,0-0.1,0.1-0.1c0,0,0.1,0,0.1,0
		c0.1,0,0.2,0,0.3,0.1c0.1,0.1,0.3,0.2,0.5,0.3c0.2,0.1,0.4,0.2,0.7,0.3s0.6,0.1,0.9,0.1c0.3,0,0.5,0,0.8-0.1s0.4-0.2,0.6-0.3
		c0.2-0.1,0.3-0.3,0.4-0.5c0.1-0.2,0.1-0.5,0.1-0.7c0-0.3-0.1-0.5-0.2-0.7c-0.1-0.2-0.3-0.4-0.5-0.5s-0.4-0.3-0.7-0.4
		s-0.5-0.2-0.8-0.4c-0.3-0.1-0.5-0.3-0.8-0.4c-0.3-0.1-0.5-0.3-0.7-0.5c-0.2-0.2-0.4-0.4-0.5-0.7c-0.1-0.3-0.2-0.6-0.2-0.9
		c0-0.4,0.1-0.7,0.2-0.9c0.1-0.3,0.3-0.5,0.5-0.7c0.2-0.2,0.5-0.3,0.8-0.4c0.3-0.1,0.7-0.2,1.1-0.2c0.2,0,0.4,0,0.6,0.1
		c0.2,0,0.4,0.1,0.6,0.1s0.3,0.1,0.5,0.2c0.1,0.1,0.2,0.1,0.3,0.2c0,0,0.1,0.1,0.1,0.1c0,0,0,0,0,0.1c0,0,0,0.1,0,0.1
		c0,0,0,0.1,0,0.2c0,0.1,0,0.1,0,0.2c0,0,0,0.1,0,0.1c0,0,0,0.1-0.1,0.1c0,0,0,0-0.1,0c-0.1,0-0.1,0-0.2-0.1
		c-0.1-0.1-0.2-0.1-0.4-0.2c-0.2-0.1-0.3-0.2-0.6-0.2c-0.2-0.1-0.5-0.1-0.8-0.1c-0.3,0-0.5,0-0.7,0.1s-0.4,0.2-0.5,0.3
		s-0.2,0.3-0.3,0.5c-0.1,0.2-0.1,0.4-0.1,0.5c0,0.3,0.1,0.5,0.2,0.7c0.1,0.2,0.3,0.4,0.5,0.5c0.2,0.2,0.4,0.3,0.7,0.4
		c0.3,0.1,0.5,0.2,0.8,0.4s0.5,0.3,0.8,0.4c0.3,0.1,0.5,0.3,0.7,0.5s0.4,0.4,0.5,0.7C307.1,194.7,307.2,195,307.2,195.3z"/>
</g>
<g class="st1">
	<path class="st7" d="M314.2,194.1c0,0.2,0,0.3-0.1,0.3c-0.1,0.1-0.2,0.1-0.3,0.1h-4.3c0,0.4,0,0.8,0.1,1.1c0.1,0.3,0.2,0.6,0.4,0.8
		c0.2,0.2,0.4,0.4,0.7,0.5c0.3,0.1,0.6,0.2,1.1,0.2c0.3,0,0.6,0,0.8-0.1c0.2-0.1,0.4-0.1,0.6-0.2c0.2-0.1,0.3-0.1,0.4-0.2
		c0.1-0.1,0.2-0.1,0.2-0.1c0,0,0.1,0,0.1,0s0,0,0.1,0.1c0,0,0,0.1,0,0.1s0,0.1,0,0.2c0,0,0,0.1,0,0.1c0,0,0,0.1,0,0.1c0,0,0,0,0,0.1
		c0,0,0,0-0.1,0.1c0,0-0.1,0.1-0.2,0.1s-0.3,0.1-0.5,0.2c-0.2,0.1-0.4,0.1-0.7,0.2c-0.3,0-0.5,0.1-0.8,0.1c-0.5,0-0.9-0.1-1.3-0.2
		c-0.4-0.1-0.7-0.4-1-0.7s-0.5-0.6-0.6-1.1s-0.2-0.9-0.2-1.5c0-0.5,0.1-1,0.2-1.4c0.1-0.4,0.3-0.8,0.6-1.1s0.6-0.5,0.9-0.7
		s0.8-0.2,1.2-0.2c0.5,0,0.9,0.1,1.2,0.2c0.3,0.2,0.6,0.4,0.8,0.6c0.2,0.3,0.4,0.6,0.5,0.9c0.1,0.4,0.2,0.7,0.2,1.1V194.1z
		 M313.3,193.9c0-0.7-0.1-1.2-0.5-1.6s-0.8-0.6-1.4-0.6c-0.3,0-0.6,0.1-0.8,0.2c-0.2,0.1-0.4,0.3-0.6,0.5c-0.2,0.2-0.3,0.4-0.4,0.7
		c-0.1,0.3-0.1,0.5-0.2,0.8H313.3z"/>
</g>
<g class="st1">
	<path class="st7" d="M321.5,194.4c0,0.5-0.1,1-0.2,1.5c-0.1,0.4-0.3,0.8-0.5,1.1s-0.5,0.5-0.9,0.7c-0.3,0.2-0.7,0.2-1.2,0.2
		c-0.2,0-0.4,0-0.5-0.1s-0.3-0.1-0.5-0.2c-0.2-0.1-0.3-0.2-0.5-0.3c-0.2-0.1-0.3-0.3-0.5-0.5v3.3c0,0,0,0.1,0,0.1c0,0,0,0-0.1,0.1
		c0,0-0.1,0-0.1,0s-0.1,0-0.2,0c-0.1,0-0.1,0-0.2,0s-0.1,0-0.1,0s-0.1,0-0.1-0.1s0,0,0-0.1v-8.9c0,0,0-0.1,0-0.1s0,0,0.1-0.1
		c0,0,0.1,0,0.1,0c0,0,0.1,0,0.2,0s0.1,0,0.2,0c0,0,0.1,0,0.1,0c0,0,0.1,0,0.1,0.1c0,0,0,0.1,0,0.1v0.9c0.2-0.2,0.4-0.4,0.6-0.5
		c0.2-0.1,0.4-0.3,0.5-0.4c0.2-0.1,0.4-0.2,0.5-0.2s0.4-0.1,0.6-0.1c0.5,0,0.9,0.1,1.2,0.3c0.3,0.2,0.6,0.4,0.8,0.7
		c0.2,0.3,0.4,0.7,0.4,1.1C321.4,193.5,321.5,193.9,321.5,194.4z M320.6,194.5c0-0.4,0-0.7-0.1-1c-0.1-0.3-0.2-0.6-0.3-0.9
		c-0.1-0.3-0.3-0.5-0.5-0.6c-0.2-0.2-0.5-0.2-0.8-0.2c-0.2,0-0.3,0-0.5,0.1c-0.2,0-0.3,0.1-0.5,0.2c-0.2,0.1-0.3,0.2-0.5,0.4
		s-0.4,0.4-0.6,0.6v2.8c0.4,0.4,0.7,0.8,1,1c0.3,0.2,0.7,0.3,1,0.3c0.3,0,0.6-0.1,0.8-0.2s0.4-0.4,0.6-0.6c0.1-0.3,0.3-0.5,0.3-0.9
		C320.6,195.2,320.6,194.8,320.6,194.5z"/>
</g>
<g class="st1">
	<path class="st7" d="M326.1,194.2c0,0.1,0,0.2-0.1,0.3c0,0-0.1,0.1-0.1,0.1H323c-0.1,0-0.1,0-0.2-0.1c0-0.1-0.1-0.1-0.1-0.3
		c0-0.1,0-0.2,0.1-0.3s0.1-0.1,0.2-0.1h2.9c0,0,0.1,0,0.1,0c0,0,0,0,0.1,0.1s0,0.1,0,0.1C326.1,194.1,326.1,194.2,326.1,194.2z"/>
</g>
<g class="st1">
	<path class="st7" d="M333.2,197.4c0,0.1,0,0.1,0,0.2c0,0,0,0.1,0,0.1c0,0,0,0.1-0.1,0.1c0,0-0.1,0-0.1,0h-4.9c0,0-0.1,0-0.1,0
		c0,0-0.1,0-0.1-0.1s0-0.1-0.1-0.1s0-0.1,0-0.2c0-0.1,0-0.1,0-0.2c0,0,0-0.1,0-0.1c0,0,0-0.1,0.1-0.1c0,0,0.1-0.1,0.1-0.1l1.9-2
		c0.5-0.5,0.8-0.9,1.1-1.3c0.3-0.4,0.5-0.7,0.6-1s0.2-0.6,0.3-0.8c0-0.3,0.1-0.5,0.1-0.7c0-0.2,0-0.4-0.1-0.6
		c-0.1-0.2-0.2-0.4-0.3-0.5s-0.3-0.3-0.5-0.4c-0.2-0.1-0.4-0.1-0.7-0.1c-0.3,0-0.6,0-0.8,0.1s-0.4,0.2-0.6,0.3s-0.3,0.2-0.4,0.3
		s-0.2,0.1-0.3,0.1c0,0-0.1,0-0.1,0s0,0-0.1-0.1c0,0,0-0.1,0-0.1s0-0.1,0-0.2c0-0.1,0-0.1,0-0.1c0,0,0-0.1,0-0.1s0-0.1,0-0.1
		c0,0,0.1-0.1,0.1-0.1c0.1,0,0.1-0.1,0.3-0.2c0.1-0.1,0.3-0.2,0.5-0.2c0.2-0.1,0.4-0.2,0.7-0.2c0.2-0.1,0.5-0.1,0.7-0.1
		c0.4,0,0.8,0.1,1.1,0.2c0.3,0.1,0.6,0.3,0.8,0.5s0.4,0.5,0.5,0.7c0.1,0.3,0.2,0.6,0.2,0.9c0,0.3,0,0.6-0.1,0.9s-0.2,0.6-0.3,0.9
		s-0.4,0.7-0.7,1.1c-0.3,0.4-0.7,0.9-1.2,1.4l-1.7,1.7h4.2c0,0,0.1,0,0.1,0c0,0,0.1,0,0.1,0.1s0,0.1,0.1,0.1
		S333.2,197.3,333.2,197.4z"/>
</g>
<g class="st1">
	<path class="st7" d="M340.4,197.4c0,0.1,0,0.1,0,0.2c0,0,0,0.1,0,0.1c0,0,0,0.1-0.1,0.1c0,0-0.1,0-0.1,0h-4.9c0,0-0.1,0-0.1,0
		c0,0-0.1,0-0.1-0.1s0-0.1-0.1-0.1c0-0.1,0-0.1,0-0.2c0-0.1,0-0.1,0-0.2s0-0.1,0-0.1c0,0,0-0.1,0.1-0.1c0,0,0.1-0.1,0.1-0.1l1.9-2
		c0.5-0.5,0.8-0.9,1.1-1.3c0.3-0.4,0.5-0.7,0.6-1c0.1-0.3,0.2-0.6,0.3-0.8s0.1-0.5,0.1-0.7c0-0.2,0-0.4-0.1-0.6
		c-0.1-0.2-0.2-0.4-0.3-0.5s-0.3-0.3-0.5-0.4c-0.2-0.1-0.4-0.1-0.7-0.1c-0.3,0-0.6,0-0.8,0.1s-0.4,0.2-0.6,0.3s-0.3,0.2-0.4,0.3
		s-0.2,0.1-0.3,0.1c0,0-0.1,0-0.1,0s0,0-0.1-0.1c0,0,0-0.1,0-0.1c0,0,0-0.1,0-0.2c0-0.1,0-0.1,0-0.1c0,0,0-0.1,0-0.1
		c0,0,0-0.1,0-0.1s0.1-0.1,0.1-0.1s0.1-0.1,0.3-0.2c0.1-0.1,0.3-0.2,0.5-0.2c0.2-0.1,0.4-0.2,0.7-0.2s0.5-0.1,0.7-0.1
		c0.4,0,0.8,0.1,1.1,0.2c0.3,0.1,0.6,0.3,0.8,0.5s0.4,0.5,0.5,0.7c0.1,0.3,0.2,0.6,0.2,0.9c0,0.3,0,0.6-0.1,0.9
		c0,0.3-0.2,0.6-0.3,0.9c-0.2,0.3-0.4,0.7-0.7,1.1c-0.3,0.4-0.7,0.9-1.2,1.4L336,197h4.2c0,0,0.1,0,0.1,0c0,0,0.1,0,0.1,0.1
		s0,0.1,0.1,0.1S340.4,197.3,340.4,197.4z"/>
</g>
<g class="st1">
	<path class="st7" d="M362.3,193.1c0,0.7-0.1,1.4-0.2,2c-0.2,0.6-0.4,1.1-0.7,1.5s-0.8,0.7-1.3,1c-0.5,0.2-1.1,0.3-1.8,0.3
		c-0.7,0-1.3-0.1-1.7-0.3c-0.5-0.2-0.9-0.5-1.2-0.9c-0.3-0.4-0.5-0.9-0.7-1.5s-0.2-1.2-0.2-1.9c0-0.7,0.1-1.4,0.2-1.9
		s0.4-1.1,0.7-1.5s0.8-0.7,1.3-1c0.5-0.2,1.1-0.3,1.8-0.3c0.7,0,1.2,0.1,1.7,0.3c0.5,0.2,0.9,0.5,1.2,0.9c0.3,0.4,0.6,0.9,0.7,1.4
		S362.3,192.4,362.3,193.1z M361.4,193.2c0-0.5,0-1-0.2-1.5c-0.1-0.5-0.3-0.9-0.5-1.2c-0.2-0.3-0.5-0.6-0.9-0.8
		c-0.4-0.2-0.9-0.3-1.4-0.3c-0.6,0-1,0.1-1.4,0.3c-0.4,0.2-0.7,0.5-0.9,0.8s-0.4,0.8-0.5,1.2s-0.2,1-0.2,1.5c0,0.6,0,1.1,0.1,1.5
		c0.1,0.5,0.3,0.9,0.5,1.2s0.5,0.6,0.9,0.8c0.4,0.2,0.9,0.3,1.4,0.3c0.6,0,1.1-0.1,1.4-0.3c0.4-0.2,0.7-0.5,0.9-0.9s0.4-0.8,0.5-1.2
		C361.3,194.2,361.4,193.7,361.4,193.2z"/>
</g>
<g class="st1">
	<path class="st7" d="M368.7,196.7c0,0.1,0,0.1,0,0.2s0,0.1,0,0.1c0,0,0,0.1,0,0.1c0,0-0.1,0.1-0.1,0.1c-0.1,0.1-0.2,0.1-0.3,0.2
		c-0.1,0.1-0.3,0.2-0.5,0.2c-0.2,0.1-0.4,0.1-0.6,0.2s-0.4,0.1-0.6,0.1c-0.4,0-0.8-0.1-1.2-0.2c-0.3-0.1-0.6-0.4-0.9-0.7
		s-0.4-0.6-0.5-1.1c-0.1-0.4-0.2-0.9-0.2-1.5c0-0.6,0.1-1.1,0.2-1.6s0.4-0.8,0.6-1.1s0.6-0.5,0.9-0.6s0.7-0.2,1.1-0.2
		c0.2,0,0.4,0,0.6,0.1s0.4,0.1,0.5,0.2c0.2,0.1,0.3,0.1,0.4,0.2c0.1,0.1,0.2,0.2,0.3,0.2s0.1,0.1,0.1,0.1c0,0,0,0.1,0,0.1
		s0,0.1,0,0.1s0,0.1,0,0.2c0,0.1,0,0.2-0.1,0.3c0,0.1-0.1,0.1-0.1,0.1c-0.1,0-0.1,0-0.2-0.1c-0.1-0.1-0.2-0.2-0.4-0.3
		c-0.1-0.1-0.3-0.2-0.5-0.3c-0.2-0.1-0.5-0.1-0.8-0.1c-0.6,0-1.1,0.2-1.4,0.7c-0.3,0.5-0.5,1.1-0.5,2c0,0.4,0,0.8,0.1,1.2
		s0.2,0.6,0.4,0.8c0.2,0.2,0.4,0.4,0.6,0.5s0.5,0.2,0.8,0.2c0.3,0,0.5,0,0.7-0.1c0.2-0.1,0.4-0.2,0.6-0.3s0.3-0.2,0.4-0.3
		c0.1-0.1,0.2-0.1,0.2-0.1c0,0,0.1,0,0.1,0c0,0,0,0,0.1,0.1c0,0,0,0.1,0,0.1C368.7,196.6,368.7,196.6,368.7,196.7z"/>
</g>
<g class="st1">
	<path class="st7" d="M373.4,197.3c0,0.1,0,0.2,0,0.2c0,0.1,0,0.1-0.1,0.1s-0.1,0.1-0.2,0.1c-0.1,0-0.1,0.1-0.2,0.1
		c-0.1,0-0.2,0-0.3,0s-0.2,0-0.3,0c-0.3,0-0.6,0-0.8-0.1c-0.2-0.1-0.4-0.2-0.5-0.4s-0.2-0.4-0.3-0.7s-0.1-0.6-0.1-0.9v-4h-0.9
		c-0.1,0-0.1,0-0.2-0.1c0-0.1-0.1-0.1-0.1-0.3c0-0.1,0-0.1,0-0.2c0,0,0-0.1,0-0.1c0,0,0-0.1,0.1-0.1c0,0,0.1,0,0.1,0h0.9v-1.6
		c0,0,0-0.1,0-0.1s0,0,0.1-0.1c0,0,0.1,0,0.1,0c0.1,0,0.1,0,0.2,0c0.1,0,0.2,0,0.2,0s0.1,0,0.1,0s0.1,0,0.1,0.1c0,0,0,0,0,0.1v1.6
		h1.8c0,0,0.1,0,0.1,0c0,0,0,0,0.1,0.1s0,0.1,0,0.1c0,0,0,0.1,0,0.2c0,0.1,0,0.2-0.1,0.3c0,0.1-0.1,0.1-0.2,0.1h-1.8v3.8
		c0,0.5,0.1,0.9,0.2,1.1c0.1,0.3,0.4,0.4,0.8,0.4c0.1,0,0.2,0,0.3,0c0.1,0,0.2,0,0.2-0.1c0.1,0,0.1-0.1,0.2-0.1c0,0,0.1,0,0.1,0
		c0,0,0,0,0.1,0c0,0,0,0,0,0.1c0,0,0,0.1,0,0.1C373.4,197.2,373.4,197.2,373.4,197.3z"/>
</g>
<g class="st1">
	<path class="st7" d="M377.6,194.2c0,0.1,0,0.2-0.1,0.3c0,0-0.1,0.1-0.1,0.1h-2.9c-0.1,0-0.1,0-0.2-0.1c0-0.1-0.1-0.1-0.1-0.3
		c0-0.1,0-0.2,0.1-0.3c0-0.1,0.1-0.1,0.2-0.1h2.9c0,0,0.1,0,0.1,0s0,0,0.1,0.1c0,0,0,0.1,0,0.1C377.6,194.1,377.6,194.2,377.6,194.2
		z"/>
</g>
<g class="st1">
	<path class="st7" d="M384.7,197.4c0,0.1,0,0.1,0,0.2c0,0,0,0.1,0,0.1c0,0,0,0.1-0.1,0.1c0,0-0.1,0-0.1,0h-4.9c0,0-0.1,0-0.1,0
		c0,0-0.1,0-0.1-0.1s0-0.1-0.1-0.1s0-0.1,0-0.2c0-0.1,0-0.1,0-0.2c0,0,0-0.1,0-0.1c0,0,0-0.1,0.1-0.1c0,0,0.1-0.1,0.1-0.1l1.9-2
		c0.5-0.5,0.8-0.9,1.1-1.3c0.3-0.4,0.5-0.7,0.6-1s0.2-0.6,0.3-0.8c0-0.3,0.1-0.5,0.1-0.7c0-0.2,0-0.4-0.1-0.6
		c-0.1-0.2-0.2-0.4-0.3-0.5s-0.3-0.3-0.5-0.4c-0.2-0.1-0.4-0.1-0.7-0.1c-0.3,0-0.6,0-0.8,0.1s-0.4,0.2-0.6,0.3s-0.3,0.2-0.4,0.3
		s-0.2,0.1-0.3,0.1c0,0-0.1,0-0.1,0s0,0-0.1-0.1c0,0,0-0.1,0-0.1s0-0.1,0-0.2c0-0.1,0-0.1,0-0.1c0,0,0-0.1,0-0.1s0-0.1,0-0.1
		c0,0,0.1-0.1,0.1-0.1c0.1,0,0.1-0.1,0.3-0.2c0.1-0.1,0.3-0.2,0.5-0.2c0.2-0.1,0.4-0.2,0.7-0.2c0.2-0.1,0.5-0.1,0.7-0.1
		c0.4,0,0.8,0.1,1.1,0.2c0.3,0.1,0.6,0.3,0.8,0.5s0.4,0.5,0.5,0.7c0.1,0.3,0.2,0.6,0.2,0.9c0,0.3,0,0.6-0.1,0.9s-0.2,0.6-0.3,0.9
		s-0.4,0.7-0.7,1.1c-0.3,0.4-0.7,0.9-1.2,1.4l-1.7,1.7h4.2c0,0,0.1,0,0.1,0c0,0,0.1,0,0.1,0.1s0,0.1,0.1,0.1
		S384.7,197.3,384.7,197.4z"/>
</g>
<g class="st1">
	<path class="st7" d="M391.9,197.4c0,0.1,0,0.1,0,0.2c0,0,0,0.1,0,0.1c0,0,0,0.1-0.1,0.1c0,0-0.1,0-0.1,0h-4.9c0,0-0.1,0-0.1,0
		c0,0-0.1,0-0.1-0.1s0-0.1-0.1-0.1s0-0.1,0-0.2c0-0.1,0-0.1,0-0.2c0,0,0-0.1,0-0.1c0,0,0-0.1,0.1-0.1c0,0,0.1-0.1,0.1-0.1l1.9-2
		c0.5-0.5,0.8-0.9,1.1-1.3c0.3-0.4,0.5-0.7,0.6-1s0.2-0.6,0.3-0.8c0-0.3,0.1-0.5,0.1-0.7c0-0.2,0-0.4-0.1-0.6
		c-0.1-0.2-0.2-0.4-0.3-0.5s-0.3-0.3-0.5-0.4c-0.2-0.1-0.4-0.1-0.7-0.1c-0.3,0-0.6,0-0.8,0.1s-0.4,0.2-0.6,0.3s-0.3,0.2-0.4,0.3
		s-0.2,0.1-0.3,0.1c0,0-0.1,0-0.1,0s0,0-0.1-0.1c0,0,0-0.1,0-0.1s0-0.1,0-0.2c0-0.1,0-0.1,0-0.1c0,0,0-0.1,0-0.1s0-0.1,0-0.1
		c0,0,0.1-0.1,0.1-0.1c0.1,0,0.1-0.1,0.3-0.2c0.1-0.1,0.3-0.2,0.5-0.2c0.2-0.1,0.4-0.2,0.7-0.2c0.2-0.1,0.5-0.1,0.7-0.1
		c0.4,0,0.8,0.1,1.1,0.2c0.3,0.1,0.6,0.3,0.8,0.5s0.4,0.5,0.5,0.7c0.1,0.3,0.2,0.6,0.2,0.9c0,0.3,0,0.6-0.1,0.9s-0.2,0.6-0.3,0.9
		s-0.4,0.7-0.7,1.1c-0.3,0.4-0.7,0.9-1.2,1.4l-1.7,1.7h4.2c0,0,0.1,0,0.1,0c0,0,0.1,0,0.1,0.1s0,0.1,0.1,0.1
		S391.9,197.3,391.9,197.4z"/>
</g>
<g class="st1">
	<path class="st7" d="M412,197.4c0,0.1,0,0.2,0,0.2c0,0.1-0.1,0.1-0.1,0.1c0,0-0.1,0.1-0.1,0.1c0,0-0.1,0-0.1,0h-0.2
		c-0.1,0-0.2,0-0.3,0c-0.1,0-0.2-0.1-0.2-0.1s-0.1-0.1-0.2-0.2c-0.1-0.1-0.2-0.2-0.2-0.4l-3.2-5.7c-0.2-0.3-0.3-0.6-0.5-0.9
		s-0.3-0.6-0.5-0.9h0c0,0.3,0,0.7,0,1.1s0,0.7,0,1.1v5.9c0,0,0,0.1,0,0.1c0,0,0,0-0.1,0.1c0,0-0.1,0-0.1,0c-0.1,0-0.1,0-0.2,0
		c-0.1,0-0.1,0-0.2,0c-0.1,0-0.1,0-0.1,0c0,0-0.1,0-0.1-0.1c0,0,0,0,0-0.1v-8.5c0-0.2,0-0.3,0.1-0.3c0.1-0.1,0.2-0.1,0.3-0.1h0.4
		c0.1,0,0.2,0,0.3,0s0.1,0.1,0.2,0.1c0.1,0,0.1,0.1,0.2,0.2s0.1,0.2,0.2,0.3l2.5,4.4c0.2,0.3,0.3,0.5,0.4,0.8
		c0.1,0.2,0.3,0.5,0.4,0.7c0.1,0.2,0.3,0.5,0.4,0.7s0.3,0.5,0.4,0.7h0c0-0.4,0-0.8,0-1.2c0-0.4,0-0.8,0-1.2v-5.3c0,0,0-0.1,0-0.1
		s0,0,0.1-0.1c0,0,0.1,0,0.1,0c0.1,0,0.1,0,0.2,0c0.1,0,0.1,0,0.2,0c0.1,0,0.1,0,0.1,0c0,0,0.1,0,0.1,0.1c0,0,0,0,0,0.1V197.4z"/>
	<path class="st7" d="M420.1,194.4c0,0.5-0.1,1-0.2,1.4c-0.1,0.4-0.3,0.8-0.6,1.1c-0.3,0.3-0.6,0.6-1,0.7c-0.4,0.2-0.8,0.3-1.4,0.3
		c-0.5,0-0.9-0.1-1.3-0.2c-0.4-0.2-0.7-0.4-0.9-0.7c-0.3-0.3-0.4-0.6-0.6-1.1c-0.1-0.4-0.2-0.9-0.2-1.4c0-0.5,0.1-1,0.2-1.4
		s0.3-0.8,0.6-1.1c0.3-0.3,0.6-0.6,1-0.7c0.4-0.2,0.8-0.3,1.4-0.3c0.5,0,0.9,0.1,1.3,0.2c0.4,0.2,0.7,0.4,0.9,0.7
		c0.2,0.3,0.4,0.6,0.6,1.1C420.1,193.4,420.1,193.9,420.1,194.4z M419.2,194.5c0-0.4,0-0.7-0.1-1s-0.2-0.6-0.4-0.9s-0.4-0.5-0.7-0.6
		c-0.3-0.1-0.6-0.2-1-0.2c-0.4,0-0.7,0.1-1,0.2s-0.5,0.3-0.7,0.6s-0.3,0.5-0.4,0.9c-0.1,0.3-0.1,0.7-0.1,1.1c0,0.4,0,0.7,0.1,1
		s0.2,0.6,0.4,0.9c0.2,0.2,0.4,0.4,0.7,0.6c0.3,0.1,0.6,0.2,1,0.2c0.4,0,0.7-0.1,1-0.2c0.3-0.1,0.5-0.3,0.7-0.6
		c0.2-0.2,0.3-0.5,0.4-0.9C419.2,195.2,419.2,194.9,419.2,194.5z"/>
	<path class="st7" d="M426.8,191.3C426.8,191.3,426.8,191.3,426.8,191.3C426.8,191.3,426.8,191.3,426.8,191.3c0,0.1,0,0.1,0,0.1
		c0,0,0,0,0,0l-2.3,6.2c0,0,0,0.1-0.1,0.1s-0.1,0-0.1,0.1c0,0-0.1,0-0.2,0s-0.1,0-0.2,0c-0.1,0-0.2,0-0.2,0c-0.1,0-0.1,0-0.2,0
		s-0.1,0-0.1-0.1s0-0.1-0.1-0.1l-2.3-6.2c0,0,0-0.1,0-0.1c0,0,0,0,0-0.1c0,0,0,0,0,0c0,0,0-0.1,0-0.1s0,0,0.1-0.1c0,0,0.1,0,0.1,0
		c0.1,0,0.1,0,0.2,0c0.1,0,0.2,0,0.2,0c0.1,0,0.1,0,0.1,0s0.1,0,0.1,0.1c0,0,0,0.1,0,0.1l2,5.6l0,0l0,0l2-5.6c0,0,0-0.1,0-0.1
		c0,0,0,0,0.1-0.1s0.1,0,0.1,0c0.1,0,0.1,0,0.2,0c0.1,0,0.1,0,0.2,0c0,0,0.1,0,0.1,0C426.8,191.2,426.8,191.2,426.8,191.3
		C426.8,191.2,426.8,191.2,426.8,191.3z"/>
</g>
<g class="st1">
	<path class="st7" d="M431,194.2c0,0.1,0,0.2-0.1,0.3c0,0-0.1,0.1-0.1,0.1h-2.9c-0.1,0-0.1,0-0.2-0.1c0-0.1-0.1-0.1-0.1-0.3
		c0-0.1,0-0.2,0.1-0.3s0.1-0.1,0.2-0.1h2.9c0,0,0.1,0,0.1,0c0,0,0,0,0.1,0.1s0,0.1,0,0.1C431,194.1,431,194.2,431,194.2z"/>
</g>
<g class="st1">
	<path class="st7" d="M437.9,197.4c0,0.1,0,0.1,0,0.2c0,0,0,0.1,0,0.1c0,0,0,0.1-0.1,0.1c0,0-0.1,0-0.1,0h-4.9c0,0-0.1,0-0.1,0
		c0,0-0.1,0-0.1-0.1s0-0.1-0.1-0.1s0-0.1,0-0.2c0-0.1,0-0.1,0-0.2c0,0,0-0.1,0-0.1c0,0,0-0.1,0.1-0.1c0,0,0.1-0.1,0.1-0.1l1.9-2
		c0.5-0.5,0.8-0.9,1.1-1.3c0.3-0.4,0.5-0.7,0.6-1s0.2-0.6,0.3-0.8c0-0.3,0.1-0.5,0.1-0.7c0-0.2,0-0.4-0.1-0.6
		c-0.1-0.2-0.2-0.4-0.3-0.5s-0.3-0.3-0.5-0.4c-0.2-0.1-0.4-0.1-0.7-0.1c-0.3,0-0.6,0-0.8,0.1s-0.4,0.2-0.6,0.3s-0.3,0.2-0.4,0.3
		s-0.2,0.1-0.3,0.1c0,0-0.1,0-0.1,0s0,0-0.1-0.1c0,0,0-0.1,0-0.1s0-0.1,0-0.2c0-0.1,0-0.1,0-0.1c0,0,0-0.1,0-0.1s0-0.1,0-0.1
		c0,0,0.1-0.1,0.1-0.1c0.1,0,0.1-0.1,0.3-0.2c0.1-0.1,0.3-0.2,0.5-0.2c0.2-0.1,0.4-0.2,0.7-0.2c0.2-0.1,0.5-0.1,0.7-0.1
		c0.4,0,0.8,0.1,1.1,0.2c0.3,0.1,0.6,0.3,0.8,0.5s0.4,0.5,0.5,0.7c0.1,0.3,0.2,0.6,0.2,0.9c0,0.3,0,0.6-0.1,0.9s-0.2,0.6-0.3,0.9
		s-0.4,0.7-0.7,1.1c-0.3,0.4-0.7,0.9-1.2,1.4l-1.7,1.7h4.2c0,0,0.1,0,0.1,0c0,0,0.1,0,0.1,0.1s0,0.1,0.1,0.1
		S437.9,197.3,437.9,197.4z"/>
</g>
<g class="st1">
	<path class="st7" d="M445.3,197.4c0,0.1,0,0.1,0,0.2c0,0,0,0.1,0,0.1c0,0,0,0.1-0.1,0.1c0,0-0.1,0-0.1,0h-4.9c0,0-0.1,0-0.1,0
		c0,0-0.1,0-0.1-0.1s0-0.1-0.1-0.1c0-0.1,0-0.1,0-0.2c0-0.1,0-0.1,0-0.2s0-0.1,0-0.1c0,0,0-0.1,0.1-0.1c0,0,0.1-0.1,0.1-0.1l1.9-2
		c0.5-0.5,0.8-0.9,1.1-1.3c0.3-0.4,0.5-0.7,0.6-1c0.1-0.3,0.2-0.6,0.3-0.8s0.1-0.5,0.1-0.7c0-0.2,0-0.4-0.1-0.6
		c-0.1-0.2-0.2-0.4-0.3-0.5s-0.3-0.3-0.5-0.4c-0.2-0.1-0.4-0.1-0.7-0.1c-0.3,0-0.6,0-0.8,0.1s-0.4,0.2-0.6,0.3s-0.3,0.2-0.4,0.3
		s-0.2,0.1-0.3,0.1c0,0-0.1,0-0.1,0s0,0-0.1-0.1c0,0,0-0.1,0-0.1c0,0,0-0.1,0-0.2c0-0.1,0-0.1,0-0.1c0,0,0-0.1,0-0.1
		c0,0,0-0.1,0-0.1s0.1-0.1,0.1-0.1s0.1-0.1,0.3-0.2c0.1-0.1,0.3-0.2,0.5-0.2c0.2-0.1,0.4-0.2,0.7-0.2s0.5-0.1,0.7-0.1
		c0.4,0,0.8,0.1,1.1,0.2c0.3,0.1,0.6,0.3,0.8,0.5s0.4,0.5,0.5,0.7c0.1,0.3,0.2,0.6,0.2,0.9c0,0.3,0,0.6-0.1,0.9
		c0,0.3-0.2,0.6-0.3,0.9c-0.2,0.3-0.4,0.7-0.7,1.1c-0.3,0.4-0.7,0.9-1.2,1.4l-1.7,1.7h4.2c0,0,0.1,0,0.1,0c0,0,0.1,0,0.1,0.1
		s0,0.1,0.1,0.1S445.3,197.3,445.3,197.4z"/>
</g>
<g class="st1">
	<path class="st7" d="M464.6,193.1c0,0.8-0.1,1.4-0.3,2c-0.2,0.6-0.5,1.1-0.9,1.5s-0.8,0.7-1.4,0.9c-0.6,0.2-1.2,0.3-2,0.3h-1.8
		c-0.1,0-0.2,0-0.3-0.1s-0.1-0.2-0.1-0.3v-8.2c0-0.2,0-0.3,0.1-0.3c0.1-0.1,0.2-0.1,0.3-0.1h1.9c0.8,0,1.4,0.1,2,0.3s1,0.5,1.3,0.9
		s0.6,0.9,0.8,1.4C464.5,191.8,464.6,192.4,464.6,193.1z M463.6,193.1c0-0.5-0.1-1-0.2-1.5c-0.1-0.5-0.3-0.8-0.6-1.2
		c-0.3-0.3-0.6-0.6-1.1-0.8c-0.4-0.2-1-0.3-1.6-0.3h-1.4v7.6h1.4c0.6,0,1.1-0.1,1.6-0.2c0.4-0.2,0.8-0.4,1.1-0.7
		c0.3-0.3,0.5-0.7,0.6-1.2C463.6,194.4,463.6,193.8,463.6,193.1z"/>
</g>
<g class="st1">
	<path class="st7" d="M471.6,194.1c0,0.2,0,0.3-0.1,0.3c-0.1,0.1-0.2,0.1-0.3,0.1h-4.3c0,0.4,0,0.8,0.1,1.1c0.1,0.3,0.2,0.6,0.4,0.8
		c0.2,0.2,0.4,0.4,0.7,0.5c0.3,0.1,0.6,0.2,1.1,0.2c0.3,0,0.6,0,0.8-0.1c0.2-0.1,0.4-0.1,0.6-0.2c0.2-0.1,0.3-0.1,0.4-0.2
		c0.1-0.1,0.2-0.1,0.2-0.1c0,0,0.1,0,0.1,0s0,0,0.1,0.1c0,0,0,0.1,0,0.1c0,0,0,0.1,0,0.2c0,0,0,0.1,0,0.1c0,0,0,0.1,0,0.1
		c0,0,0,0,0,0.1c0,0,0,0-0.1,0.1s-0.1,0.1-0.2,0.1c-0.1,0.1-0.3,0.1-0.5,0.2s-0.4,0.1-0.7,0.2s-0.5,0.1-0.8,0.1
		c-0.5,0-0.9-0.1-1.3-0.2c-0.4-0.1-0.7-0.4-1-0.7s-0.5-0.6-0.6-1.1s-0.2-0.9-0.2-1.5c0-0.5,0.1-1,0.2-1.4c0.1-0.4,0.3-0.8,0.6-1.1
		s0.6-0.5,0.9-0.7s0.8-0.2,1.2-0.2c0.5,0,0.9,0.1,1.2,0.2c0.3,0.2,0.6,0.4,0.8,0.6c0.2,0.3,0.4,0.6,0.5,0.9c0.1,0.4,0.2,0.7,0.2,1.1
		V194.1z M470.8,193.9c0-0.7-0.1-1.2-0.5-1.6c-0.3-0.4-0.8-0.6-1.4-0.6c-0.3,0-0.6,0.1-0.8,0.2c-0.2,0.1-0.4,0.3-0.6,0.5
		c-0.2,0.2-0.3,0.4-0.4,0.7c-0.1,0.3-0.1,0.5-0.2,0.8H470.8z"/>
</g>
<g class="st1">
	<path class="st7" d="M478,196.7c0,0.1,0,0.1,0,0.2s0,0.1,0,0.1c0,0,0,0.1,0,0.1c0,0-0.1,0.1-0.1,0.1c-0.1,0.1-0.2,0.1-0.3,0.2
		c-0.1,0.1-0.3,0.2-0.5,0.2c-0.2,0.1-0.4,0.1-0.6,0.2s-0.4,0.1-0.6,0.1c-0.4,0-0.8-0.1-1.2-0.2c-0.3-0.1-0.6-0.4-0.9-0.7
		s-0.4-0.6-0.5-1.1c-0.1-0.4-0.2-0.9-0.2-1.5c0-0.6,0.1-1.1,0.2-1.6s0.4-0.8,0.6-1.1s0.6-0.5,0.9-0.6s0.7-0.2,1.1-0.2
		c0.2,0,0.4,0,0.6,0.1s0.4,0.1,0.5,0.2c0.2,0.1,0.3,0.1,0.4,0.2c0.1,0.1,0.2,0.2,0.3,0.2s0.1,0.1,0.1,0.1c0,0,0,0.1,0,0.1
		s0,0.1,0,0.1s0,0.1,0,0.2c0,0.1,0,0.2-0.1,0.3c0,0.1-0.1,0.1-0.1,0.1c-0.1,0-0.1,0-0.2-0.1c-0.1-0.1-0.2-0.2-0.4-0.3
		c-0.1-0.1-0.3-0.2-0.5-0.3c-0.2-0.1-0.5-0.1-0.8-0.1c-0.6,0-1.1,0.2-1.4,0.7c-0.3,0.5-0.5,1.1-0.5,2c0,0.4,0,0.8,0.1,1.2
		s0.2,0.6,0.4,0.8c0.2,0.2,0.4,0.4,0.6,0.5s0.5,0.2,0.8,0.2c0.3,0,0.5,0,0.7-0.1c0.2-0.1,0.4-0.2,0.6-0.3s0.3-0.2,0.4-0.3
		c0.1-0.1,0.2-0.1,0.2-0.1c0,0,0.1,0,0.1,0c0,0,0,0,0.1,0.1c0,0,0,0.1,0,0.1C478,196.6,478,196.6,478,196.7z"/>
</g>
<g class="st1">
	<path class="st7" d="M482.3,194.2c0,0.1,0,0.2-0.1,0.3c0,0-0.1,0.1-0.1,0.1h-2.9c-0.1,0-0.1,0-0.2-0.1c0-0.1-0.1-0.1-0.1-0.3
		c0-0.1,0-0.2,0.1-0.3c0-0.1,0.1-0.1,0.2-0.1h2.9c0,0,0.1,0,0.1,0s0,0,0.1,0.1c0,0,0,0.1,0,0.1C482.3,194.1,482.3,194.2,482.3,194.2
		z"/>
</g>
<g class="st1">
	<path class="st7" d="M489.4,197.4c0,0.1,0,0.1,0,0.2c0,0,0,0.1,0,0.1c0,0,0,0.1-0.1,0.1c0,0-0.1,0-0.1,0h-4.9c0,0-0.1,0-0.1,0
		c0,0-0.1,0-0.1-0.1s0-0.1-0.1-0.1c0-0.1,0-0.1,0-0.2c0-0.1,0-0.1,0-0.2s0-0.1,0-0.1c0,0,0-0.1,0.1-0.1c0,0,0.1-0.1,0.1-0.1l1.9-2
		c0.5-0.5,0.8-0.9,1.1-1.3c0.3-0.4,0.5-0.7,0.6-1c0.1-0.3,0.2-0.6,0.3-0.8s0.1-0.5,0.1-0.7c0-0.2,0-0.4-0.1-0.6
		c-0.1-0.2-0.2-0.4-0.3-0.5s-0.3-0.3-0.5-0.4c-0.2-0.1-0.4-0.1-0.7-0.1c-0.3,0-0.6,0-0.8,0.1s-0.4,0.2-0.6,0.3s-0.3,0.2-0.4,0.3
		s-0.2,0.1-0.3,0.1c0,0-0.1,0-0.1,0s0,0-0.1-0.1c0,0,0-0.1,0-0.1c0,0,0-0.1,0-0.2c0-0.1,0-0.1,0-0.1c0,0,0-0.1,0-0.1
		c0,0,0-0.1,0-0.1s0.1-0.1,0.1-0.1s0.1-0.1,0.3-0.2c0.1-0.1,0.3-0.2,0.5-0.2c0.2-0.1,0.4-0.2,0.7-0.2s0.5-0.1,0.7-0.1
		c0.4,0,0.8,0.1,1.1,0.2c0.3,0.1,0.6,0.3,0.8,0.5s0.4,0.5,0.5,0.7c0.1,0.3,0.2,0.6,0.2,0.9c0,0.3,0,0.6-0.1,0.9
		c0,0.3-0.2,0.6-0.3,0.9c-0.2,0.3-0.4,0.7-0.7,1.1c-0.3,0.4-0.7,0.9-1.2,1.4L485,197h4.2c0,0,0.1,0,0.1,0c0,0,0.1,0,0.1,0.1
		s0,0.1,0.1,0.1S489.4,197.3,489.4,197.4z"/>
</g>
<g class="st1">
	<path class="st7" d="M496.6,197.4c0,0.1,0,0.1,0,0.2c0,0,0,0.1,0,0.1s0,0.1-0.1,0.1s-0.1,0-0.1,0h-4.9c0,0-0.1,0-0.1,0
		c0,0-0.1,0-0.1-0.1s0-0.1-0.1-0.1s0-0.1,0-0.2c0-0.1,0-0.1,0-0.2c0,0,0-0.1,0-0.1c0,0,0-0.1,0.1-0.1c0,0,0.1-0.1,0.1-0.1l1.9-2
		c0.5-0.5,0.8-0.9,1.1-1.3c0.3-0.4,0.5-0.7,0.6-1c0.1-0.3,0.2-0.6,0.3-0.8s0.1-0.5,0.1-0.7c0-0.2,0-0.4-0.1-0.6
		c-0.1-0.2-0.2-0.4-0.3-0.5s-0.3-0.3-0.5-0.4c-0.2-0.1-0.4-0.1-0.7-0.1c-0.3,0-0.6,0-0.8,0.1s-0.4,0.2-0.6,0.3s-0.3,0.2-0.4,0.3
		s-0.2,0.1-0.3,0.1c0,0-0.1,0-0.1,0s0,0-0.1-0.1c0,0,0-0.1,0-0.1c0,0,0-0.1,0-0.2c0-0.1,0-0.1,0-0.1c0,0,0-0.1,0-0.1s0-0.1,0-0.1
		c0,0,0.1-0.1,0.1-0.1c0.1,0,0.1-0.1,0.3-0.2c0.1-0.1,0.3-0.2,0.5-0.2s0.4-0.2,0.7-0.2c0.2-0.1,0.5-0.1,0.7-0.1
		c0.4,0,0.8,0.1,1.1,0.2c0.3,0.1,0.6,0.3,0.8,0.5s0.4,0.5,0.5,0.7c0.1,0.3,0.2,0.6,0.2,0.9c0,0.3,0,0.6-0.1,0.9s-0.2,0.6-0.3,0.9
		s-0.4,0.7-0.7,1.1c-0.3,0.4-0.7,0.9-1.2,1.4l-1.7,1.7h4.2c0,0,0.1,0,0.1,0c0,0,0.1,0,0.1,0.1s0,0.1,0.1,0.1
		S496.6,197.3,496.6,197.4z"/>
</g>
</svg>
