<?xml version="1.0" encoding="utf-8"?>
<!-- Generator: Adobe Illustrator 27.2.0, SVG Export Plug-In . SVG Version: 6.00 Build 0)  -->
<svg version="1.1" id="Layer_1" xmlns="http://www.w3.org/2000/svg" xmlns:xlink="http://www.w3.org/1999/xlink" x="0px" y="0px"
	 viewBox="0 0 1120 94" style="enable-background:new 0 0 1120 94;" xml:space="preserve">
<style type="text/css">
	.st0{fill:#214166;stroke:#214166;stroke-miterlimit:10;}
	.st1{enable-background:new    ;}
	.st2{fill:#FFFFFF;}
	.st3{fill:#214166;}
	.st4{fill:none;stroke:#214166;stroke-miterlimit:10;}
</style>
<rect x="0.5" y="1.2" class="st0" width="63.9" height="91.6"/>
<rect x="64.4" y="1.2" class="st0" width="1055" height="31.6"/>
<g class="st1">
	<path class="st2" d="M15.1,52.8c0-0.4,0-0.9,0.1-1.2s0.2-0.7,0.4-1.1c0.2-0.3,0.5-0.7,0.8-1s0.8-0.6,1.3-0.9
		c0.4-0.2,0.7-0.4,1.1-0.6c0.3-0.2,0.6-0.3,0.9-0.5c0.3-0.2,0.5-0.3,0.6-0.5c0.1-0.2,0.2-0.4,0.2-0.6c0-0.3-0.1-0.6-0.4-0.9
		c-0.3-0.3-0.7-0.4-1.3-0.4c-0.3,0-0.6,0-0.8,0.1c-0.2,0.1-0.5,0.2-0.7,0.3c-0.2,0.1-0.4,0.3-0.5,0.4c-0.1,0.1-0.3,0.3-0.4,0.4
		L15.2,45c0.1-0.1,0.3-0.3,0.5-0.4s0.5-0.3,0.8-0.5c0.3-0.2,0.7-0.3,1.1-0.4s0.9-0.2,1.4-0.2c0.5,0,1,0.1,1.4,0.2
		c0.4,0.1,0.8,0.3,1,0.6s0.5,0.5,0.6,0.8s0.2,0.7,0.2,1c0,0.4-0.1,0.7-0.2,1.1c-0.2,0.3-0.4,0.6-0.6,0.8c-0.2,0.2-0.5,0.4-0.8,0.6
		c-0.3,0.2-0.5,0.3-0.8,0.4c-0.2,0.1-0.5,0.2-0.8,0.4c-0.3,0.1-0.6,0.3-0.8,0.5s-0.5,0.4-0.7,0.6c-0.2,0.2-0.4,0.4-0.4,0.7h5.3v1.6
		H15.1z"/>
	<path class="st2" d="M32.2,48.1c0,0.7-0.1,1.4-0.3,1.9s-0.5,1.1-0.9,1.5s-0.8,0.8-1.3,1s-1,0.4-1.6,0.4c-0.6,0-1.1-0.1-1.6-0.4
		s-0.9-0.6-1.3-1s-0.6-0.9-0.9-1.5S24,48.8,24,48.1c0-0.7,0.1-1.4,0.3-1.9s0.5-1.1,0.9-1.5s0.8-0.8,1.3-1c0.5-0.2,1-0.4,1.6-0.4
		c0.6,0,1.1,0.1,1.6,0.4c0.5,0.2,0.9,0.6,1.3,1s0.7,0.9,0.9,1.5S32.2,47.4,32.2,48.1z M30.4,48.1c0-0.5-0.1-0.9-0.2-1.3
		c-0.1-0.4-0.3-0.7-0.5-1c-0.2-0.3-0.5-0.5-0.7-0.7c-0.3-0.2-0.6-0.2-0.9-0.2c-0.4,0-0.7,0.1-1,0.2c-0.3,0.2-0.5,0.4-0.7,0.7
		c-0.2,0.3-0.4,0.6-0.5,1c-0.1,0.4-0.2,0.8-0.2,1.3c0,0.5,0.1,0.9,0.2,1.3c0.1,0.4,0.3,0.7,0.5,1c0.2,0.3,0.5,0.5,0.7,0.7
		c0.3,0.2,0.6,0.2,1,0.2c0.3,0,0.6-0.1,0.9-0.2c0.3-0.2,0.5-0.4,0.7-0.7c0.2-0.3,0.4-0.6,0.5-1C30.4,49,30.4,48.6,30.4,48.1z"/>
	<path class="st2" d="M33.7,52.8c0-0.4,0-0.9,0.1-1.2s0.2-0.7,0.4-1.1c0.2-0.3,0.5-0.7,0.8-1s0.8-0.6,1.3-0.9
		c0.4-0.2,0.7-0.4,1.1-0.6c0.3-0.2,0.6-0.3,0.9-0.5c0.3-0.2,0.5-0.3,0.6-0.5c0.1-0.2,0.2-0.4,0.2-0.6c0-0.3-0.1-0.6-0.4-0.9
		c-0.3-0.3-0.7-0.4-1.3-0.4c-0.3,0-0.6,0-0.8,0.1c-0.2,0.1-0.5,0.2-0.7,0.3c-0.2,0.1-0.4,0.3-0.5,0.4c-0.1,0.1-0.3,0.3-0.4,0.4
		L33.8,45c0.1-0.1,0.3-0.3,0.5-0.4s0.5-0.3,0.8-0.5c0.3-0.2,0.7-0.3,1.1-0.4s0.9-0.2,1.4-0.2c0.5,0,1,0.1,1.4,0.2
		c0.4,0.1,0.8,0.3,1,0.6s0.5,0.5,0.6,0.8s0.2,0.7,0.2,1c0,0.4-0.1,0.7-0.2,1.1c-0.2,0.3-0.4,0.6-0.6,0.8c-0.2,0.2-0.5,0.4-0.8,0.6
		c-0.3,0.2-0.5,0.3-0.8,0.4c-0.2,0.1-0.5,0.2-0.8,0.4c-0.3,0.1-0.6,0.3-0.8,0.5s-0.5,0.4-0.7,0.6c-0.2,0.2-0.4,0.4-0.4,0.7h5.3v1.6
		H33.7z"/>
	<path class="st2" d="M42.5,52.8c0-0.4,0-0.9,0.1-1.2s0.2-0.7,0.4-1.1c0.2-0.3,0.5-0.7,0.8-1s0.8-0.6,1.3-0.9
		c0.4-0.2,0.7-0.4,1.1-0.6c0.3-0.2,0.6-0.3,0.9-0.5c0.3-0.2,0.5-0.3,0.6-0.5c0.1-0.2,0.2-0.4,0.2-0.6c0-0.3-0.1-0.6-0.4-0.9
		c-0.3-0.3-0.7-0.4-1.3-0.4c-0.3,0-0.6,0-0.8,0.1c-0.2,0.1-0.5,0.2-0.7,0.3c-0.2,0.1-0.4,0.3-0.5,0.4c-0.1,0.1-0.3,0.3-0.4,0.4
		L42.6,45c0.1-0.1,0.3-0.3,0.5-0.4s0.5-0.3,0.8-0.5c0.3-0.2,0.7-0.3,1.1-0.4s0.9-0.2,1.4-0.2c0.5,0,1,0.1,1.4,0.2
		c0.4,0.1,0.8,0.3,1,0.6s0.5,0.5,0.6,0.8s0.2,0.7,0.2,1c0,0.4-0.1,0.7-0.2,1.1c-0.2,0.3-0.4,0.6-0.6,0.8c-0.2,0.2-0.5,0.4-0.8,0.6
		c-0.3,0.2-0.5,0.3-0.8,0.4c-0.2,0.1-0.5,0.2-0.8,0.4c-0.3,0.1-0.6,0.3-0.8,0.5s-0.5,0.4-0.7,0.6c-0.2,0.2-0.4,0.4-0.4,0.7h5.3v1.6
		H42.5z"/>
</g>
<g class="st1">
	<path class="st2" d="M15.1,82.8c0-0.4,0-0.9,0.1-1.2s0.2-0.7,0.4-1.1c0.2-0.3,0.5-0.7,0.8-1s0.8-0.6,1.3-0.9
		c0.4-0.2,0.7-0.4,1.1-0.6c0.3-0.2,0.6-0.3,0.9-0.5c0.3-0.2,0.5-0.3,0.6-0.5c0.1-0.2,0.2-0.4,0.2-0.6c0-0.3-0.1-0.6-0.4-0.9
		c-0.3-0.3-0.7-0.4-1.3-0.4c-0.3,0-0.6,0-0.8,0.1c-0.2,0.1-0.5,0.2-0.7,0.3c-0.2,0.1-0.4,0.3-0.5,0.4c-0.1,0.1-0.3,0.3-0.4,0.4
		L15.2,75c0.1-0.1,0.3-0.3,0.5-0.4s0.5-0.3,0.8-0.5c0.3-0.2,0.7-0.3,1.1-0.4s0.9-0.2,1.4-0.2c0.5,0,1,0.1,1.4,0.2
		c0.4,0.1,0.8,0.3,1,0.6s0.5,0.5,0.6,0.8s0.2,0.7,0.2,1c0,0.4-0.1,0.7-0.2,1.1c-0.2,0.3-0.4,0.6-0.6,0.8c-0.2,0.2-0.5,0.4-0.8,0.6
		c-0.3,0.2-0.5,0.3-0.8,0.4c-0.2,0.1-0.5,0.2-0.8,0.4c-0.3,0.1-0.6,0.3-0.8,0.5s-0.5,0.4-0.7,0.6c-0.2,0.2-0.4,0.4-0.4,0.7h5.3v1.6
		H15.1z"/>
	<path class="st2" d="M32.2,78.1c0,0.7-0.1,1.4-0.3,1.9s-0.5,1.1-0.9,1.5s-0.8,0.8-1.3,1s-1,0.4-1.6,0.4c-0.6,0-1.1-0.1-1.6-0.4
		s-0.9-0.6-1.3-1s-0.6-0.9-0.9-1.5S24,78.8,24,78.1c0-0.7,0.1-1.4,0.3-1.9s0.5-1.1,0.9-1.5s0.8-0.8,1.3-1c0.5-0.2,1-0.4,1.6-0.4
		c0.6,0,1.1,0.1,1.6,0.4c0.5,0.2,0.9,0.6,1.3,1s0.7,0.9,0.9,1.5S32.2,77.4,32.2,78.1z M30.4,78.1c0-0.5-0.1-0.9-0.2-1.3
		c-0.1-0.4-0.3-0.7-0.5-1c-0.2-0.3-0.5-0.5-0.7-0.7c-0.3-0.2-0.6-0.2-0.9-0.2c-0.4,0-0.7,0.1-1,0.2c-0.3,0.2-0.5,0.4-0.7,0.7
		c-0.2,0.3-0.4,0.6-0.5,1c-0.1,0.4-0.2,0.8-0.2,1.3c0,0.5,0.1,0.9,0.2,1.3c0.1,0.4,0.3,0.7,0.5,1c0.2,0.3,0.5,0.5,0.7,0.7
		c0.3,0.2,0.6,0.2,1,0.2c0.3,0,0.6-0.1,0.9-0.2c0.3-0.2,0.5-0.4,0.7-0.7c0.2-0.3,0.4-0.6,0.5-1C30.4,79,30.4,78.6,30.4,78.1z"/>
	<path class="st2" d="M33.7,82.8c0-0.4,0-0.9,0.1-1.2s0.2-0.7,0.4-1.1c0.2-0.3,0.5-0.7,0.8-1s0.8-0.6,1.3-0.9
		c0.4-0.2,0.7-0.4,1.1-0.6c0.3-0.2,0.6-0.3,0.9-0.5c0.3-0.2,0.5-0.3,0.6-0.5c0.1-0.2,0.2-0.4,0.2-0.6c0-0.3-0.1-0.6-0.4-0.9
		c-0.3-0.3-0.7-0.4-1.3-0.4c-0.3,0-0.6,0-0.8,0.1c-0.2,0.1-0.5,0.2-0.7,0.3c-0.2,0.1-0.4,0.3-0.5,0.4c-0.1,0.1-0.3,0.3-0.4,0.4
		L33.8,75c0.1-0.1,0.3-0.3,0.5-0.4s0.5-0.3,0.8-0.5c0.3-0.2,0.7-0.3,1.1-0.4s0.9-0.2,1.4-0.2c0.5,0,1,0.1,1.4,0.2
		c0.4,0.1,0.8,0.3,1,0.6s0.5,0.5,0.6,0.8s0.2,0.7,0.2,1c0,0.4-0.1,0.7-0.2,1.1c-0.2,0.3-0.4,0.6-0.6,0.8c-0.2,0.2-0.5,0.4-0.8,0.6
		c-0.3,0.2-0.5,0.3-0.8,0.4c-0.2,0.1-0.5,0.2-0.8,0.4c-0.3,0.1-0.6,0.3-0.8,0.5s-0.5,0.4-0.7,0.6c-0.2,0.2-0.4,0.4-0.4,0.7h5.3v1.6
		H33.7z"/>
	<path class="st2" d="M47.7,79c0.3,0.1,0.6,0.2,0.9,0.3c0.3,0.2,0.5,0.4,0.7,0.6c0.2,0.2,0.3,0.5,0.4,0.8c0.1,0.3,0.2,0.7,0.2,1
		c0,0.5-0.1,1-0.3,1.4c-0.2,0.4-0.5,0.7-0.8,1s-0.8,0.5-1.3,0.7c-0.5,0.2-1,0.2-1.6,0.2c-0.8,0-1.5-0.1-2.1-0.4
		c-0.6-0.3-1.1-0.7-1.5-1.2l1.1-1.2c0.3,0.4,0.6,0.7,1,0.9c0.4,0.2,0.9,0.3,1.5,0.3c0.7,0,1.2-0.1,1.6-0.4s0.6-0.7,0.6-1.3
		c0-0.6-0.2-1.1-0.6-1.5c-0.4-0.4-1.1-0.5-1.9-0.5h-0.4v-1.4h0.5c0.7,0,1.3-0.2,1.6-0.5c0.4-0.3,0.6-0.8,0.6-1.3
		c0-0.5-0.2-0.9-0.5-1.1c-0.3-0.2-0.8-0.4-1.3-0.4s-1,0.1-1.4,0.4c-0.4,0.2-0.7,0.6-1,1l-1.1-1.2c0.1-0.3,0.4-0.5,0.6-0.7
		c0.3-0.2,0.5-0.4,0.9-0.5c0.3-0.2,0.7-0.3,1.1-0.4c0.4-0.1,0.8-0.1,1.2-0.1c0.5,0,1,0.1,1.4,0.2s0.8,0.3,1.1,0.6
		c0.3,0.2,0.6,0.5,0.7,0.9c0.2,0.4,0.3,0.7,0.3,1.2c0,0.3,0,0.6-0.1,0.9c-0.1,0.3-0.2,0.5-0.4,0.8c-0.2,0.2-0.4,0.4-0.6,0.6
		C48.3,78.9,48,79,47.7,79z"/>
</g>
<g>
	<g class="st1">
		<path class="st2" d="M93,20.8c0.2,0.1,0.5,0.3,0.8,0.4c0.4,0.1,0.8,0.2,1.2,0.2c0.5,0,0.9-0.1,1.2-0.3s0.5-0.4,0.7-0.8
			c0.2-0.3,0.3-0.8,0.3-1.3c0-0.5,0.1-1.1,0.1-1.8v-5.8h1.8v5.8c0,0.9,0,1.7-0.1,2.4c-0.1,0.7-0.3,1.3-0.5,1.8
			c-0.3,0.5-0.7,0.9-1.2,1.2C96.7,22.8,96,23,95.1,23c-1,0-1.8-0.2-2.5-0.7L93,20.8z"/>
		<path class="st2" d="M103.4,22.9c-0.4,0-0.8-0.1-1.1-0.2s-0.6-0.3-0.9-0.6s-0.4-0.5-0.6-0.8s-0.2-0.7-0.2-1c0-0.4,0.1-0.8,0.3-1.1
			c0.2-0.3,0.4-0.6,0.7-0.8c0.3-0.2,0.7-0.4,1.1-0.5c0.4-0.1,0.9-0.2,1.4-0.2c0.4,0,0.8,0,1.2,0.1c0.4,0.1,0.7,0.2,1,0.3v-0.6
			c0-0.6-0.2-1.1-0.5-1.4s-0.9-0.5-1.5-0.5c-0.4,0-0.9,0.1-1.3,0.2c-0.4,0.2-0.9,0.4-1.3,0.7l-0.5-1.1c1.1-0.7,2.2-1.1,3.4-1.1
			c1.2,0,2,0.3,2.7,0.9c0.6,0.6,1,1.4,1,2.5v3c0,0.4,0.2,0.6,0.5,0.6v1.5c-0.2,0-0.3,0.1-0.4,0.1c-0.1,0-0.2,0-0.4,0
			c-0.3,0-0.6-0.1-0.8-0.3c-0.2-0.2-0.3-0.4-0.3-0.7l0-0.5c-0.4,0.5-0.8,0.9-1.4,1.1C104.6,22.8,104,22.9,103.4,22.9z M103.9,21.7
			c0.4,0,0.8-0.1,1.2-0.2c0.4-0.2,0.7-0.4,0.9-0.6c0.2-0.2,0.3-0.4,0.3-0.6v-1.1c-0.3-0.1-0.6-0.2-1-0.3c-0.3-0.1-0.7-0.1-1-0.1
			c-0.6,0-1.1,0.1-1.5,0.4c-0.4,0.3-0.6,0.6-0.6,1.1c0,0.4,0.2,0.8,0.5,1C103,21.5,103.4,21.7,103.9,21.7z"/>
		<path class="st2" d="M117.7,22.8H116v-4.7c0-0.8-0.1-1.4-0.4-1.7s-0.6-0.5-1.1-0.5c-0.3,0-0.5,0-0.8,0.1c-0.3,0.1-0.5,0.2-0.7,0.4
			c-0.2,0.2-0.4,0.4-0.6,0.6c-0.2,0.2-0.3,0.5-0.4,0.8v5h-1.8v-8.4h1.6v1.7c0.3-0.6,0.8-1,1.4-1.3c0.6-0.3,1.3-0.5,2-0.5
			c0.5,0,0.9,0.1,1.2,0.3c0.3,0.2,0.6,0.4,0.8,0.7c0.2,0.3,0.3,0.7,0.4,1.1c0.1,0.4,0.1,0.8,0.1,1.3V22.8z"/>
	</g>
	<g class="st1">
		<path class="st3" d="M82.7,78.9v-1h4.7v1H82.7z"/>
		<path class="st3" d="M93.1,79c0.7,0.1,1.3,0.4,1.7,1c0.4,0.5,0.6,1.2,0.6,1.9c0,0.5-0.1,0.9-0.3,1.3c-0.2,0.4-0.4,0.7-0.8,1
			c-0.3,0.3-0.7,0.5-1.2,0.7c-0.5,0.2-1,0.2-1.5,0.2c-0.8,0-1.5-0.2-2.1-0.5c-0.6-0.3-1.1-0.8-1.4-1.4l0.8-0.7
			c0.2,0.5,0.6,0.8,1,1.1c0.5,0.3,1,0.4,1.7,0.4c0.8,0,1.4-0.2,1.9-0.6c0.5-0.4,0.7-0.9,0.7-1.7c0-0.7-0.2-1.3-0.7-1.7
			c-0.5-0.4-1.2-0.6-2.1-0.6h-0.4v-0.9h0.4c0.8,0,1.5-0.2,1.9-0.6c0.4-0.4,0.7-0.9,0.7-1.5c0-0.3-0.1-0.6-0.2-0.8
			c-0.1-0.2-0.3-0.5-0.5-0.6s-0.5-0.3-0.7-0.4c-0.3-0.1-0.6-0.1-0.9-0.1c-0.6,0-1.1,0.1-1.6,0.4c-0.5,0.3-0.8,0.6-1,1.1l-0.7-0.7
			c0.1-0.3,0.3-0.5,0.5-0.8c0.2-0.2,0.5-0.4,0.8-0.6c0.3-0.2,0.6-0.3,1-0.4c0.4-0.1,0.7-0.1,1.1-0.1c0.5,0,0.9,0.1,1.4,0.2
			s0.8,0.3,1.1,0.6c0.3,0.3,0.5,0.6,0.7,0.9c0.2,0.4,0.2,0.7,0.2,1.2c0,0.3,0,0.6-0.1,0.9c-0.1,0.3-0.2,0.6-0.4,0.8
			c-0.2,0.2-0.4,0.4-0.7,0.6C93.7,78.9,93.4,79,93.1,79z"/>
		<path class="st3" d="M97.2,82.8v-1.6h0.9v1.6H97.2z"/>
		<path class="st3" d="M104.9,84.8V82h-5.3v-1l5.7-7.4h0.7V81h1.4v1H106v2.8H104.9z M100.7,81h4.3v-5.6L100.7,81z"/>
		<path class="st3" d="M116.6,79.6c0,0.5-0.1,1-0.3,1.4c-0.2,0.4-0.5,0.7-0.9,1c-0.4,0.3-0.8,0.5-1.3,0.7c-0.5,0.2-1,0.2-1.5,0.2
			c-0.6,0-1.1-0.1-1.6-0.3c-0.5-0.2-0.9-0.4-1.2-0.7c-0.3-0.3-0.6-0.7-0.8-1.1s-0.3-0.8-0.3-1.3c0-0.4,0.1-0.7,0.2-1
			s0.3-0.6,0.5-0.8s0.5-0.4,0.7-0.6s0.5-0.3,0.8-0.4c-0.3-0.1-0.5-0.2-0.7-0.4c-0.2-0.2-0.4-0.3-0.6-0.5c-0.2-0.2-0.3-0.4-0.4-0.7
			c-0.1-0.2-0.2-0.5-0.2-0.8c0-0.5,0.1-0.9,0.3-1.2s0.5-0.7,0.8-0.9c0.3-0.2,0.7-0.4,1.1-0.6s0.8-0.2,1.3-0.2s0.9,0.1,1.3,0.2
			s0.8,0.3,1.1,0.6s0.6,0.5,0.8,0.9s0.3,0.8,0.3,1.2c0,0.3-0.1,0.5-0.2,0.8c-0.1,0.2-0.2,0.5-0.4,0.7c-0.2,0.2-0.4,0.4-0.6,0.5
			c-0.2,0.2-0.5,0.3-0.7,0.4c0.3,0.1,0.6,0.3,0.9,0.4s0.5,0.4,0.7,0.6c0.2,0.2,0.4,0.5,0.5,0.8S116.6,79.3,116.6,79.6z M115.5,79.6
			c0-0.4-0.1-0.7-0.3-1c-0.2-0.3-0.4-0.5-0.7-0.7c-0.3-0.2-0.6-0.4-0.9-0.5s-0.7-0.2-1-0.2c-0.4,0-0.7,0.1-1,0.2
			c-0.3,0.1-0.6,0.3-0.9,0.5s-0.5,0.5-0.6,0.8c-0.2,0.3-0.2,0.6-0.2,1c0,0.4,0.1,0.7,0.3,1c0.2,0.3,0.4,0.5,0.7,0.7
			c0.3,0.2,0.6,0.4,0.9,0.5s0.7,0.2,1,0.2c0.3,0,0.7-0.1,1-0.2c0.3-0.1,0.6-0.3,0.9-0.5s0.5-0.5,0.6-0.8
			C115.4,80.2,115.5,79.9,115.5,79.6z M110.2,74.4c0,0.3,0.1,0.6,0.2,0.8c0.1,0.2,0.3,0.4,0.6,0.6c0.2,0.2,0.5,0.3,0.8,0.4
			c0.3,0.1,0.6,0.1,0.9,0.1c0.3,0,0.6,0,0.9-0.1c0.3-0.1,0.6-0.2,0.8-0.4c0.2-0.2,0.4-0.4,0.6-0.6c0.1-0.2,0.2-0.5,0.2-0.8
			c0-0.3-0.1-0.6-0.2-0.8c-0.1-0.2-0.3-0.4-0.6-0.6c-0.2-0.2-0.5-0.3-0.8-0.4c-0.3-0.1-0.6-0.1-0.9-0.1c-0.3,0-0.6,0-0.9,0.1
			c-0.3,0.1-0.6,0.2-0.8,0.4c-0.2,0.2-0.4,0.4-0.5,0.6C110.3,73.8,110.2,74.1,110.2,74.4z"/>
		<path class="st3" d="M120.5,75.9c-0.3,0-0.6-0.1-0.9-0.2c-0.3-0.1-0.5-0.3-0.8-0.5c-0.2-0.2-0.4-0.5-0.5-0.7s-0.2-0.6-0.2-0.9
			c0-0.3,0.1-0.6,0.2-0.9s0.3-0.5,0.5-0.7c0.2-0.2,0.5-0.4,0.8-0.5s0.6-0.2,0.9-0.2s0.6,0.1,0.9,0.2c0.3,0.1,0.5,0.3,0.8,0.5
			c0.2,0.2,0.4,0.5,0.5,0.7c0.1,0.3,0.2,0.6,0.2,0.9c0,0.3-0.1,0.6-0.2,0.9c-0.1,0.3-0.3,0.5-0.5,0.7c-0.2,0.2-0.5,0.4-0.8,0.5
			C121.1,75.8,120.8,75.9,120.5,75.9z M118.5,82.4l4.5-5.4l4.4-5.6l0.6,0.5l-4.5,5.4l-4.4,5.6L118.5,82.4z M120.5,75.2
			c0.2,0,0.4,0,0.6-0.1c0.2-0.1,0.4-0.2,0.5-0.4c0.1-0.2,0.3-0.3,0.3-0.5c0.1-0.2,0.1-0.4,0.1-0.6c0-0.2,0-0.5-0.1-0.7
			c-0.1-0.2-0.2-0.4-0.3-0.5c-0.1-0.1-0.3-0.3-0.5-0.4c-0.2-0.1-0.4-0.1-0.6-0.1c-0.2,0-0.4,0-0.6,0.1s-0.4,0.2-0.5,0.4
			s-0.3,0.3-0.3,0.5c-0.1,0.2-0.1,0.4-0.1,0.6c0,0.2,0,0.4,0.1,0.6c0.1,0.2,0.2,0.4,0.3,0.5c0.1,0.2,0.3,0.3,0.5,0.4
			C120,75.2,120.2,75.2,120.5,75.2z M125.8,82.9c-0.3,0-0.6-0.1-0.9-0.2c-0.3-0.1-0.5-0.3-0.8-0.5s-0.4-0.5-0.5-0.7
			c-0.1-0.3-0.2-0.6-0.2-0.9c0-0.3,0.1-0.6,0.2-0.9c0.1-0.3,0.3-0.5,0.5-0.7s0.5-0.4,0.8-0.5c0.3-0.1,0.6-0.2,0.9-0.2
			s0.6,0.1,0.9,0.2s0.5,0.3,0.8,0.5c0.2,0.2,0.4,0.5,0.5,0.7s0.2,0.6,0.2,0.9c0,0.3-0.1,0.6-0.2,0.9c-0.1,0.3-0.3,0.5-0.5,0.7
			c-0.2,0.2-0.5,0.4-0.8,0.5S126.1,82.9,125.8,82.9z M125.8,82.3c0.2,0,0.4,0,0.6-0.1c0.2-0.1,0.4-0.2,0.5-0.4
			c0.1-0.1,0.3-0.3,0.3-0.5c0.1-0.2,0.1-0.4,0.1-0.6c0-0.2,0-0.4-0.1-0.6c-0.1-0.2-0.2-0.4-0.3-0.5c-0.1-0.2-0.3-0.3-0.5-0.4
			c-0.2-0.1-0.4-0.1-0.6-0.1c-0.2,0-0.4,0-0.6,0.1s-0.4,0.2-0.5,0.4c-0.1,0.2-0.3,0.3-0.3,0.5c-0.1,0.2-0.1,0.4-0.1,0.6
			c0,0.2,0,0.5,0.1,0.7c0.1,0.2,0.2,0.4,0.3,0.5s0.3,0.3,0.5,0.4C125.4,82.3,125.6,82.3,125.8,82.3z"/>
	</g>
</g>
<g class="st1">
	<path class="st2" d="M173.7,22.8V11.4h7.6V13h-5.8v3.4h4.8v1.5h-4.8v4.9H173.7z"/>
	<path class="st2" d="M185.9,22.9c-0.7,0-1.2-0.1-1.8-0.3c-0.5-0.2-1-0.5-1.4-0.9c-0.4-0.4-0.7-0.9-0.9-1.4s-0.3-1.1-0.3-1.7
		c0-0.6,0.1-1.1,0.3-1.7s0.5-1,0.9-1.4c0.4-0.4,0.8-0.7,1.4-0.9c0.5-0.2,1.1-0.3,1.8-0.3c0.7,0,1.2,0.1,1.8,0.4
		c0.5,0.2,1,0.5,1.4,0.9c0.4,0.4,0.7,0.8,0.9,1.4c0.2,0.5,0.3,1.1,0.3,1.6c0,0.1,0,0.2,0,0.4c0,0.1,0,0.2,0,0.3h-6.7
		c0,0.4,0.1,0.7,0.3,1s0.3,0.6,0.6,0.8c0.2,0.2,0.5,0.4,0.8,0.5c0.3,0.1,0.6,0.2,0.9,0.2c0.2,0,0.5,0,0.7-0.1s0.4-0.1,0.6-0.3
		c0.2-0.1,0.4-0.2,0.5-0.4s0.3-0.3,0.4-0.5l1.5,0.4c-0.3,0.6-0.8,1.1-1.4,1.5C187.6,22.7,186.8,22.9,185.9,22.9z M188.5,18
		c0-0.4-0.1-0.7-0.3-1s-0.3-0.6-0.6-0.8c-0.2-0.2-0.5-0.4-0.8-0.5c-0.3-0.1-0.6-0.2-0.9-0.2c-0.3,0-0.6,0.1-0.9,0.2
		c-0.3,0.1-0.6,0.3-0.8,0.5c-0.2,0.2-0.4,0.5-0.5,0.8s-0.2,0.6-0.3,1H188.5z"/>
	<path class="st2" d="M196.2,22.9c-0.6,0-1.2-0.2-1.7-0.5c-0.5-0.3-0.9-0.7-1.2-1.2v1.5h-1.6V11.1h1.8V16c0.3-0.5,0.7-1,1.2-1.3
		c0.5-0.3,1.1-0.5,1.8-0.5c0.6,0,1.1,0.1,1.5,0.4c0.5,0.2,0.9,0.6,1.2,1c0.3,0.4,0.6,0.9,0.8,1.4c0.2,0.5,0.3,1.1,0.3,1.7
		c0,0.6-0.1,1.2-0.3,1.7s-0.5,1-0.8,1.4c-0.4,0.4-0.8,0.7-1.3,0.9C197.3,22.8,196.7,22.9,196.2,22.9z M195.7,21.4
		c0.4,0,0.7-0.1,1.1-0.2c0.3-0.2,0.6-0.4,0.8-0.6c0.2-0.3,0.4-0.6,0.5-0.9s0.2-0.7,0.2-1.1c0-0.4-0.1-0.7-0.2-1.1s-0.3-0.7-0.5-0.9
		c-0.2-0.3-0.5-0.5-0.8-0.6c-0.3-0.2-0.6-0.2-1-0.2c-0.5,0-1,0.2-1.4,0.5c-0.4,0.4-0.7,0.8-1,1.3v2.2c0.1,0.2,0.2,0.5,0.3,0.7
		c0.2,0.2,0.3,0.4,0.6,0.5s0.4,0.3,0.7,0.3C195.3,21.4,195.5,21.4,195.7,21.4z"/>
</g>
<g class="st1">
	<path class="st2" d="M264.3,22.8v-8.2l-3.4,6.2h-1l-3.4-6.2v8.2h-1.8V11.4h1.9l3.8,6.9l3.8-6.9h1.9v11.4H264.3z"/>
	<path class="st2" d="M270.6,22.9c-0.4,0-0.8-0.1-1.1-0.2s-0.6-0.3-0.9-0.6s-0.4-0.5-0.6-0.8s-0.2-0.7-0.2-1c0-0.4,0.1-0.8,0.3-1.1
		c0.2-0.3,0.4-0.6,0.7-0.8c0.3-0.2,0.7-0.4,1.1-0.5c0.4-0.1,0.9-0.2,1.4-0.2c0.4,0,0.8,0,1.2,0.1c0.4,0.1,0.7,0.2,1,0.3v-0.6
		c0-0.6-0.2-1.1-0.5-1.4s-0.9-0.5-1.5-0.5c-0.4,0-0.9,0.1-1.3,0.2c-0.4,0.2-0.9,0.4-1.3,0.7l-0.5-1.1c1.1-0.7,2.2-1.1,3.4-1.1
		c1.2,0,2,0.3,2.7,0.9c0.6,0.6,1,1.4,1,2.5v3c0,0.4,0.2,0.6,0.5,0.6v1.5c-0.2,0-0.3,0.1-0.4,0.1c-0.1,0-0.2,0-0.4,0
		c-0.3,0-0.6-0.1-0.8-0.3c-0.2-0.2-0.3-0.4-0.3-0.7l0-0.5c-0.4,0.5-0.8,0.9-1.4,1.1C271.8,22.8,271.2,22.9,270.6,22.9z M271.1,21.7
		c0.4,0,0.8-0.1,1.2-0.2c0.4-0.2,0.7-0.4,0.9-0.6c0.2-0.2,0.3-0.4,0.3-0.6v-1.1c-0.3-0.1-0.6-0.2-1-0.3c-0.3-0.1-0.7-0.1-1-0.1
		c-0.6,0-1.1,0.1-1.5,0.4c-0.4,0.3-0.6,0.6-0.6,1.1c0,0.4,0.2,0.8,0.5,1C270.2,21.5,270.6,21.7,271.1,21.7z"/>
	<path class="st2" d="M282.1,15.9c-0.7,0-1.3,0.2-1.8,0.5c-0.5,0.3-0.9,0.7-1.1,1.3v5.1h-1.8v-8.4h1.6v1.9c0.3-0.6,0.7-1,1.1-1.4
		s1-0.5,1.5-0.6c0.1,0,0.2,0,0.3,0c0.1,0,0.1,0,0.2,0V15.9z"/>
</g>
<g class="st1">
	<path class="st2" d="M340.3,11.4h1.6l4.5,11.4h-1.9l-1.2-3.1h-4.4l-1.2,3.1h-1.9L340.3,11.4z M342.9,18.4l-1.8-4.9l-1.9,4.9H342.9z
		"/>
	<path class="st2" d="M352.3,22.9c-0.7,0-1.3-0.2-1.8-0.5c-0.5-0.3-0.9-0.7-1.2-1.2v5h-1.8V14.4h1.6v1.5c0.3-0.5,0.7-0.9,1.2-1.2
		c0.5-0.3,1.1-0.4,1.7-0.4c0.6,0,1.1,0.1,1.6,0.4c0.5,0.2,0.9,0.5,1.2,0.9s0.6,0.9,0.8,1.4c0.2,0.5,0.3,1.1,0.3,1.6
		c0,0.6-0.1,1.2-0.3,1.7c-0.2,0.5-0.4,1-0.8,1.4c-0.3,0.4-0.7,0.7-1.2,0.9C353.3,22.8,352.8,22.9,352.3,22.9z M351.7,21.4
		c0.4,0,0.7-0.1,1-0.2c0.3-0.2,0.6-0.4,0.8-0.6c0.2-0.3,0.4-0.6,0.5-0.9c0.1-0.3,0.2-0.7,0.2-1.1c0-0.4-0.1-0.7-0.2-1.1
		c-0.1-0.3-0.3-0.6-0.5-0.9s-0.5-0.5-0.8-0.6s-0.7-0.2-1-0.2c-0.2,0-0.5,0-0.7,0.1c-0.2,0.1-0.5,0.2-0.7,0.4s-0.4,0.3-0.6,0.5
		c-0.2,0.2-0.3,0.4-0.3,0.6v2.2c0.1,0.3,0.2,0.5,0.4,0.7c0.2,0.2,0.4,0.4,0.6,0.6s0.4,0.3,0.7,0.4C351.2,21.4,351.5,21.4,351.7,21.4
		z"/>
	<path class="st2" d="M362.3,15.9c-0.7,0-1.3,0.2-1.8,0.5c-0.5,0.3-0.9,0.7-1.1,1.3v5.1h-1.8v-8.4h1.6v1.9c0.3-0.6,0.7-1,1.1-1.4
		s1-0.5,1.5-0.6c0.1,0,0.2,0,0.3,0c0.1,0,0.1,0,0.2,0V15.9z"/>
</g>
<g class="st1">
	<path class="st3" d="M336.2,48.1c0,0.7-0.1,1.4-0.3,1.9s-0.5,1.1-0.8,1.5s-0.8,0.8-1.3,1c-0.5,0.2-1,0.4-1.6,0.4s-1.1-0.1-1.6-0.4
		s-0.9-0.6-1.3-1s-0.6-0.9-0.8-1.5s-0.3-1.2-0.3-1.9c0-0.7,0.1-1.4,0.3-1.9s0.5-1.1,0.8-1.5s0.8-0.8,1.3-1c0.5-0.2,1-0.4,1.6-0.4
		s1.1,0.1,1.6,0.4c0.5,0.2,0.9,0.6,1.3,1s0.6,0.9,0.8,1.5S336.2,47.4,336.2,48.1z M335.1,48.1c0-0.6-0.1-1.1-0.2-1.6
		c-0.1-0.5-0.3-0.9-0.6-1.2c-0.3-0.3-0.6-0.6-0.9-0.8s-0.7-0.3-1.2-0.3c-0.4,0-0.8,0.1-1.2,0.3c-0.4,0.2-0.7,0.4-0.9,0.8
		c-0.3,0.3-0.5,0.7-0.6,1.2s-0.2,1-0.2,1.6c0,0.6,0.1,1.1,0.2,1.6c0.1,0.5,0.3,0.9,0.6,1.2c0.3,0.3,0.6,0.6,0.9,0.8
		c0.4,0.2,0.8,0.3,1.2,0.3c0.4,0,0.8-0.1,1.2-0.3s0.7-0.4,0.9-0.8c0.3-0.3,0.5-0.7,0.6-1.2C335,49.2,335.1,48.7,335.1,48.1z"/>
	<path class="st3" d="M338.1,52.8v-1.6h0.9v1.6H338.1z"/>
	<path class="st3" d="M349,49c0,0.5-0.1,1.1-0.3,1.5s-0.5,0.9-0.9,1.2c-0.4,0.4-0.8,0.6-1.3,0.8c-0.5,0.2-1,0.3-1.6,0.3
		c-0.6,0-1.1-0.1-1.6-0.3c-0.5-0.2-0.9-0.5-1.3-0.9c-0.4-0.4-0.6-0.9-0.8-1.5c-0.2-0.6-0.3-1.3-0.3-2c0-1.2,0.1-2.2,0.3-3
		c0.2-0.9,0.5-1.6,0.9-2.1c0.4-0.6,0.8-1,1.3-1.3c0.5-0.3,1.1-0.4,1.7-0.4c0.8,0,1.4,0.2,2,0.6c0.6,0.4,1.1,0.9,1.4,1.6l-0.7,0.6
		c-0.2-0.5-0.6-1-1.1-1.3c-0.5-0.3-1-0.5-1.6-0.5c-0.5,0-0.9,0.1-1.3,0.3c-0.4,0.2-0.7,0.5-1,1c-0.3,0.4-0.5,0.9-0.6,1.6
		c-0.2,0.6-0.2,1.3-0.2,2.1c0.2-0.6,0.6-1.1,1.2-1.5c0.6-0.4,1.2-0.6,1.9-0.6c0.5,0,1.1,0.1,1.5,0.3s0.9,0.5,1.2,0.8
		s0.6,0.8,0.8,1.2C348.9,48,349,48.5,349,49z M345,52c0.4,0,0.8-0.1,1.1-0.2c0.4-0.2,0.7-0.4,0.9-0.6c0.3-0.3,0.5-0.6,0.6-0.9
		s0.2-0.7,0.2-1.1s-0.1-0.8-0.2-1.1c-0.2-0.4-0.4-0.7-0.6-0.9s-0.6-0.5-0.9-0.6c-0.4-0.2-0.7-0.2-1.1-0.2c-0.4,0-0.8,0.1-1.1,0.2
		c-0.4,0.2-0.7,0.4-0.9,0.6s-0.5,0.6-0.6,0.9c-0.2,0.4-0.2,0.7-0.2,1.1s0.1,0.8,0.2,1.1c0.2,0.4,0.4,0.7,0.6,0.9
		c0.3,0.3,0.6,0.5,0.9,0.6C344.3,51.9,344.6,52,345,52z"/>
	<path class="st3" d="M358.7,49c0,0.5-0.1,1.1-0.3,1.5s-0.5,0.9-0.9,1.2c-0.4,0.4-0.8,0.6-1.3,0.8c-0.5,0.2-1,0.3-1.6,0.3
		c-0.6,0-1.1-0.1-1.6-0.3c-0.5-0.2-0.9-0.5-1.3-0.9c-0.4-0.4-0.6-0.9-0.8-1.5c-0.2-0.6-0.3-1.3-0.3-2c0-1.2,0.1-2.2,0.3-3
		c0.2-0.9,0.5-1.6,0.9-2.1c0.4-0.6,0.8-1,1.3-1.3c0.5-0.3,1.1-0.4,1.7-0.4c0.8,0,1.4,0.2,2,0.6c0.6,0.4,1.1,0.9,1.4,1.6l-0.7,0.6
		c-0.2-0.5-0.6-1-1.1-1.3c-0.5-0.3-1-0.5-1.6-0.5c-0.5,0-0.9,0.1-1.3,0.3c-0.4,0.2-0.7,0.5-1,1c-0.3,0.4-0.5,0.9-0.6,1.6
		c-0.2,0.6-0.2,1.3-0.2,2.1c0.2-0.6,0.6-1.1,1.2-1.5c0.6-0.4,1.2-0.6,1.9-0.6c0.5,0,1.1,0.1,1.5,0.3s0.9,0.5,1.2,0.8
		s0.6,0.8,0.8,1.2C358.6,48,358.7,48.5,358.7,49z M354.7,52c0.4,0,0.8-0.1,1.1-0.2c0.4-0.2,0.7-0.4,0.9-0.6c0.3-0.3,0.5-0.6,0.6-0.9
		s0.2-0.7,0.2-1.1s-0.1-0.8-0.2-1.1c-0.2-0.4-0.4-0.7-0.6-0.9s-0.6-0.5-0.9-0.6c-0.4-0.2-0.7-0.2-1.1-0.2c-0.4,0-0.8,0.1-1.1,0.2
		c-0.4,0.2-0.7,0.4-0.9,0.6s-0.5,0.6-0.6,0.9c-0.2,0.4-0.2,0.7-0.2,1.1s0.1,0.8,0.2,1.1c0.2,0.4,0.4,0.7,0.6,0.9
		c0.3,0.3,0.6,0.5,0.9,0.6C353.9,51.9,354.3,52,354.7,52z"/>
	<path class="st3" d="M362.4,45.9c-0.3,0-0.6-0.1-0.9-0.2c-0.3-0.1-0.5-0.3-0.8-0.5c-0.2-0.2-0.4-0.5-0.5-0.7s-0.2-0.6-0.2-0.9
		c0-0.3,0.1-0.6,0.2-0.9s0.3-0.5,0.5-0.7c0.2-0.2,0.5-0.4,0.8-0.5s0.6-0.2,0.9-0.2s0.6,0.1,0.9,0.2c0.3,0.1,0.5,0.3,0.8,0.5
		c0.2,0.2,0.4,0.5,0.5,0.7c0.1,0.3,0.2,0.6,0.2,0.9c0,0.3-0.1,0.6-0.2,0.9c-0.1,0.3-0.3,0.5-0.5,0.7c-0.2,0.2-0.5,0.4-0.8,0.5
		C363.1,45.8,362.8,45.9,362.4,45.9z M360.4,52.4l4.5-5.4l4.4-5.6l0.6,0.5l-4.5,5.4l-4.4,5.6L360.4,52.4z M362.4,45.2
		c0.2,0,0.4,0,0.6-0.1c0.2-0.1,0.4-0.2,0.5-0.4c0.1-0.2,0.3-0.3,0.3-0.5c0.1-0.2,0.1-0.4,0.1-0.6c0-0.2,0-0.5-0.1-0.7
		c-0.1-0.2-0.2-0.4-0.3-0.5c-0.1-0.1-0.3-0.3-0.5-0.4c-0.2-0.1-0.4-0.1-0.6-0.1c-0.2,0-0.4,0-0.6,0.1s-0.4,0.2-0.5,0.4
		s-0.3,0.3-0.3,0.5c-0.1,0.2-0.1,0.4-0.1,0.6c0,0.2,0,0.4,0.1,0.6c0.1,0.2,0.2,0.4,0.3,0.5c0.1,0.2,0.3,0.3,0.5,0.4
		C362,45.2,362.2,45.2,362.4,45.2z M367.8,52.9c-0.3,0-0.6-0.1-0.9-0.2c-0.3-0.1-0.5-0.3-0.8-0.5s-0.4-0.5-0.5-0.7
		c-0.1-0.3-0.2-0.6-0.2-0.9c0-0.3,0.1-0.6,0.2-0.9c0.1-0.3,0.3-0.5,0.5-0.7s0.5-0.4,0.8-0.5c0.3-0.1,0.6-0.2,0.9-0.2
		s0.6,0.1,0.9,0.2s0.5,0.3,0.8,0.5c0.2,0.2,0.4,0.5,0.5,0.7s0.2,0.6,0.2,0.9c0,0.3-0.1,0.6-0.2,0.9c-0.1,0.3-0.3,0.5-0.5,0.7
		c-0.2,0.2-0.5,0.4-0.8,0.5S368.1,52.9,367.8,52.9z M367.8,52.3c0.2,0,0.4,0,0.6-0.1c0.2-0.1,0.4-0.2,0.5-0.4
		c0.1-0.1,0.3-0.3,0.3-0.5c0.1-0.2,0.1-0.4,0.1-0.6c0-0.2,0-0.4-0.1-0.6c-0.1-0.2-0.2-0.4-0.3-0.5c-0.1-0.2-0.3-0.3-0.5-0.4
		c-0.2-0.1-0.4-0.1-0.6-0.1c-0.2,0-0.4,0-0.6,0.1s-0.4,0.2-0.5,0.4c-0.1,0.2-0.3,0.3-0.3,0.5c-0.1,0.2-0.1,0.4-0.1,0.6
		c0,0.2,0,0.5,0.1,0.7c0.1,0.2,0.2,0.4,0.3,0.5s0.3,0.3,0.5,0.4C367.4,52.3,367.6,52.3,367.8,52.3z"/>
</g>
<g class="st1">
	<path class="st2" d="M425.2,22.8v-8.2l-3.4,6.2h-1l-3.4-6.2v8.2h-1.8V11.4h1.9l3.8,6.9l3.8-6.9h1.9v11.4H425.2z"/>
	<path class="st2" d="M431.5,22.9c-0.4,0-0.8-0.1-1.1-0.2s-0.6-0.3-0.9-0.6s-0.4-0.5-0.6-0.8s-0.2-0.7-0.2-1c0-0.4,0.1-0.8,0.3-1.1
		c0.2-0.3,0.4-0.6,0.7-0.8c0.3-0.2,0.7-0.4,1.1-0.5c0.4-0.1,0.9-0.2,1.4-0.2c0.4,0,0.8,0,1.2,0.1c0.4,0.1,0.7,0.2,1,0.3v-0.6
		c0-0.6-0.2-1.1-0.5-1.4s-0.9-0.5-1.5-0.5c-0.4,0-0.9,0.1-1.3,0.2c-0.4,0.2-0.9,0.4-1.3,0.7l-0.5-1.1c1.1-0.7,2.2-1.1,3.4-1.1
		c1.2,0,2,0.3,2.7,0.9c0.6,0.6,1,1.4,1,2.5v3c0,0.4,0.2,0.6,0.5,0.6v1.5c-0.2,0-0.3,0.1-0.4,0.1c-0.1,0-0.2,0-0.4,0
		c-0.3,0-0.6-0.1-0.8-0.3c-0.2-0.2-0.3-0.4-0.3-0.7l0-0.5c-0.4,0.5-0.8,0.9-1.4,1.1C432.8,22.8,432.2,22.9,431.5,22.9z M432,21.7
		c0.4,0,0.8-0.1,1.2-0.2c0.4-0.2,0.7-0.4,0.9-0.6c0.2-0.2,0.3-0.4,0.3-0.6v-1.1c-0.3-0.1-0.6-0.2-1-0.3c-0.3-0.1-0.7-0.1-1-0.1
		c-0.6,0-1.1,0.1-1.5,0.4c-0.4,0.3-0.6,0.6-0.6,1.1c0,0.4,0.2,0.8,0.5,1C431.1,21.5,431.5,21.7,432,21.7z"/>
	<path class="st2" d="M438.4,24.8c0.2,0,0.3,0.1,0.5,0.1s0.3,0,0.4,0c0.1,0,0.3,0,0.4-0.1c0.1-0.1,0.2-0.2,0.3-0.3
		c0.1-0.1,0.2-0.4,0.3-0.6c0.1-0.3,0.2-0.6,0.4-1l-3.4-8.4h1.8l2.6,6.8l2.3-6.8h1.7l-3.8,10.3c-0.2,0.5-0.5,0.9-0.9,1.2
		c-0.4,0.3-1,0.5-1.6,0.5c-0.1,0-0.3,0-0.4,0c-0.1,0-0.3-0.1-0.5-0.1V24.8z"/>
</g>
<g class="st1">
	<path class="st3" d="M416.5,51.8v1h-5.4v-1h2.3v-6.8c-0.1,0.1-0.2,0.3-0.4,0.4s-0.4,0.3-0.7,0.4s-0.5,0.2-0.8,0.3
		c-0.3,0.1-0.5,0.1-0.7,0.1v-1.1c0.2,0,0.5-0.1,0.8-0.2s0.6-0.3,0.8-0.5c0.3-0.2,0.5-0.4,0.7-0.5c0.2-0.2,0.3-0.3,0.3-0.3h1.1v8.1
		H416.5z"/>
	<path class="st3" d="M417.9,52.8v-1.6h0.9v1.6H417.9z"/>
	<path class="st3" d="M428.6,49.6c0,0.5-0.1,1-0.3,1.4c-0.2,0.4-0.5,0.7-0.9,1c-0.4,0.3-0.8,0.5-1.3,0.7c-0.5,0.2-1,0.2-1.5,0.2
		c-0.6,0-1.1-0.1-1.6-0.3c-0.5-0.2-0.9-0.4-1.2-0.7c-0.3-0.3-0.6-0.7-0.8-1.1s-0.3-0.8-0.3-1.3c0-0.4,0.1-0.7,0.2-1s0.3-0.6,0.5-0.8
		s0.5-0.4,0.7-0.6s0.5-0.3,0.8-0.4c-0.3-0.1-0.5-0.2-0.7-0.4c-0.2-0.2-0.4-0.3-0.6-0.5c-0.2-0.2-0.3-0.4-0.4-0.7
		c-0.1-0.2-0.2-0.5-0.2-0.8c0-0.5,0.1-0.9,0.3-1.2s0.5-0.7,0.8-0.9c0.3-0.2,0.7-0.4,1.1-0.6s0.8-0.2,1.3-0.2s0.9,0.1,1.3,0.2
		s0.8,0.3,1.1,0.6s0.6,0.5,0.8,0.9s0.3,0.8,0.3,1.2c0,0.3-0.1,0.5-0.2,0.8c-0.1,0.2-0.2,0.5-0.4,0.7c-0.2,0.2-0.4,0.4-0.6,0.5
		c-0.2,0.2-0.5,0.3-0.7,0.4c0.3,0.1,0.6,0.3,0.9,0.4s0.5,0.4,0.7,0.6c0.2,0.2,0.4,0.5,0.5,0.8S428.6,49.3,428.6,49.6z M427.5,49.6
		c0-0.4-0.1-0.7-0.3-1c-0.2-0.3-0.4-0.5-0.7-0.7c-0.3-0.2-0.6-0.4-0.9-0.5s-0.7-0.2-1-0.2c-0.4,0-0.7,0.1-1,0.2
		c-0.3,0.1-0.6,0.3-0.9,0.5c-0.3,0.2-0.5,0.5-0.6,0.8c-0.2,0.3-0.2,0.6-0.2,1c0,0.4,0.1,0.7,0.3,1c0.2,0.3,0.4,0.5,0.7,0.7
		c0.3,0.2,0.6,0.4,0.9,0.5s0.7,0.2,1,0.2c0.3,0,0.7-0.1,1-0.2c0.3-0.1,0.6-0.3,0.9-0.5s0.5-0.5,0.6-0.8
		C427.4,50.2,427.5,49.9,427.5,49.6z M422.2,44.4c0,0.3,0.1,0.6,0.2,0.8c0.1,0.2,0.3,0.4,0.6,0.6c0.2,0.2,0.5,0.3,0.8,0.4
		c0.3,0.1,0.6,0.1,0.9,0.1c0.3,0,0.6,0,0.9-0.1c0.3-0.1,0.6-0.2,0.8-0.4c0.2-0.2,0.4-0.4,0.6-0.6c0.1-0.2,0.2-0.5,0.2-0.8
		c0-0.3-0.1-0.6-0.2-0.8c-0.1-0.2-0.3-0.4-0.6-0.6c-0.2-0.2-0.5-0.3-0.8-0.4c-0.3-0.1-0.6-0.1-0.9-0.1c-0.3,0-0.6,0-0.9,0.1
		c-0.3,0.1-0.6,0.2-0.8,0.4c-0.2,0.2-0.4,0.4-0.5,0.6C422.2,43.8,422.2,44.1,422.2,44.4z"/>
	<path class="st3" d="M438.3,48.1c0,0.7-0.1,1.4-0.3,1.9s-0.5,1.1-0.8,1.5s-0.8,0.8-1.3,1c-0.5,0.2-1,0.4-1.6,0.4s-1.1-0.1-1.6-0.4
		s-0.9-0.6-1.3-1s-0.6-0.9-0.8-1.5s-0.3-1.2-0.3-1.9c0-0.7,0.1-1.4,0.3-1.9s0.5-1.1,0.8-1.5s0.8-0.8,1.3-1c0.5-0.2,1-0.4,1.6-0.4
		s1.1,0.1,1.6,0.4c0.5,0.2,0.9,0.6,1.3,1s0.6,0.9,0.8,1.5S438.3,47.4,438.3,48.1z M437.2,48.1c0-0.6-0.1-1.1-0.2-1.6
		c-0.1-0.5-0.3-0.9-0.6-1.2c-0.3-0.3-0.6-0.6-0.9-0.8s-0.7-0.3-1.2-0.3c-0.4,0-0.8,0.1-1.2,0.3c-0.4,0.2-0.7,0.4-0.9,0.8
		c-0.3,0.3-0.5,0.7-0.6,1.2s-0.2,1-0.2,1.6c0,0.6,0.1,1.1,0.2,1.6c0.1,0.5,0.3,0.9,0.6,1.2c0.3,0.3,0.6,0.6,0.9,0.8
		c0.4,0.2,0.8,0.3,1.2,0.3c0.4,0,0.8-0.1,1.2-0.3s0.7-0.4,0.9-0.8c0.3-0.3,0.5-0.7,0.6-1.2C437.1,49.2,437.2,48.7,437.2,48.1z"/>
	<path class="st3" d="M442.2,45.9c-0.3,0-0.6-0.1-0.9-0.2c-0.3-0.1-0.5-0.3-0.8-0.5c-0.2-0.2-0.4-0.5-0.5-0.7s-0.2-0.6-0.2-0.9
		c0-0.3,0.1-0.6,0.2-0.9s0.3-0.5,0.5-0.7c0.2-0.2,0.5-0.4,0.8-0.5s0.6-0.2,0.9-0.2s0.6,0.1,0.9,0.2c0.3,0.1,0.5,0.3,0.8,0.5
		c0.2,0.2,0.4,0.5,0.5,0.7c0.1,0.3,0.2,0.6,0.2,0.9c0,0.3-0.1,0.6-0.2,0.9c-0.1,0.3-0.3,0.5-0.5,0.7c-0.2,0.2-0.5,0.4-0.8,0.5
		C442.8,45.8,442.5,45.9,442.2,45.9z M440.2,52.4l4.5-5.4l4.4-5.6l0.6,0.5l-4.5,5.4l-4.4,5.6L440.2,52.4z M442.2,45.2
		c0.2,0,0.4,0,0.6-0.1c0.2-0.1,0.4-0.2,0.5-0.4c0.1-0.2,0.3-0.3,0.3-0.5c0.1-0.2,0.1-0.4,0.1-0.6c0-0.2,0-0.5-0.1-0.7
		c-0.1-0.2-0.2-0.4-0.3-0.5c-0.1-0.1-0.3-0.3-0.5-0.4c-0.2-0.1-0.4-0.1-0.6-0.1c-0.2,0-0.4,0-0.6,0.1s-0.4,0.2-0.5,0.4
		s-0.3,0.3-0.3,0.5c-0.1,0.2-0.1,0.4-0.1,0.6c0,0.2,0,0.4,0.1,0.6c0.1,0.2,0.2,0.4,0.3,0.5c0.1,0.2,0.3,0.3,0.5,0.4
		C441.8,45.2,442,45.2,442.2,45.2z M447.6,52.9c-0.3,0-0.6-0.1-0.9-0.2c-0.3-0.1-0.5-0.3-0.8-0.5s-0.4-0.5-0.5-0.7
		c-0.1-0.3-0.2-0.6-0.2-0.9c0-0.3,0.1-0.6,0.2-0.9c0.1-0.3,0.3-0.5,0.5-0.7s0.5-0.4,0.8-0.5c0.3-0.1,0.6-0.2,0.9-0.2
		s0.6,0.1,0.9,0.2s0.5,0.3,0.8,0.5c0.2,0.2,0.4,0.5,0.5,0.7s0.2,0.6,0.2,0.9c0,0.3-0.1,0.6-0.2,0.9c-0.1,0.3-0.3,0.5-0.5,0.7
		c-0.2,0.2-0.5,0.4-0.8,0.5S447.9,52.9,447.6,52.9z M447.6,52.3c0.2,0,0.4,0,0.6-0.1c0.2-0.1,0.4-0.2,0.5-0.4
		c0.1-0.1,0.3-0.3,0.3-0.5c0.1-0.2,0.1-0.4,0.1-0.6c0-0.2,0-0.4-0.1-0.6c-0.1-0.2-0.2-0.4-0.3-0.5c-0.1-0.2-0.3-0.3-0.5-0.4
		c-0.2-0.1-0.4-0.1-0.6-0.1c-0.2,0-0.4,0-0.6,0.1s-0.4,0.2-0.5,0.4c-0.1,0.2-0.3,0.3-0.3,0.5c-0.1,0.2-0.1,0.4-0.1,0.6
		c0,0.2,0,0.5,0.1,0.7c0.1,0.2,0.2,0.4,0.3,0.5s0.3,0.3,0.5,0.4C447.2,52.3,447.4,52.3,447.6,52.3z"/>
</g>
<g class="st1">
	<path class="st2" d="M498.5,20.8c0.2,0.1,0.5,0.3,0.8,0.4c0.4,0.1,0.8,0.2,1.2,0.2c0.5,0,0.9-0.1,1.2-0.3s0.5-0.4,0.7-0.8
		c0.2-0.3,0.3-0.8,0.3-1.3c0-0.5,0.1-1.1,0.1-1.8v-5.8h1.8v5.8c0,0.9,0,1.7-0.1,2.4c-0.1,0.7-0.3,1.3-0.5,1.8
		c-0.3,0.5-0.7,0.9-1.2,1.2c-0.5,0.3-1.2,0.4-2.1,0.4c-1,0-1.8-0.2-2.5-0.7L498.5,20.8z"/>
	<path class="st2" d="M509.3,22.9c-0.9,0-1.5-0.3-2-0.9c-0.4-0.6-0.7-1.4-0.7-2.6v-5.1h1.8v4.8c0,1.5,0.5,2.3,1.6,2.3
		c0.5,0,1-0.2,1.4-0.5c0.4-0.3,0.8-0.8,1-1.3v-5.2h1.8v6.3c0,0.2,0,0.3,0.1,0.4c0.1,0.1,0.2,0.1,0.4,0.1v1.5c-0.2,0-0.3,0.1-0.4,0.1
		c-0.1,0-0.2,0-0.3,0c-0.3,0-0.6-0.1-0.8-0.3c-0.2-0.2-0.3-0.4-0.4-0.7l0-0.8c-0.4,0.6-0.9,1.1-1.5,1.4
		C510.7,22.8,510,22.9,509.3,22.9z"/>
	<path class="st2" d="M524,22.8h-1.8v-4.7c0-0.8-0.1-1.4-0.4-1.7s-0.6-0.5-1.1-0.5c-0.3,0-0.5,0-0.8,0.1c-0.3,0.1-0.5,0.2-0.7,0.4
		c-0.2,0.2-0.4,0.4-0.6,0.6c-0.2,0.2-0.3,0.5-0.4,0.8v5h-1.8v-8.4h1.6v1.7c0.3-0.6,0.8-1,1.4-1.3c0.6-0.3,1.3-0.5,2-0.5
		c0.5,0,0.9,0.1,1.2,0.3c0.3,0.2,0.6,0.4,0.8,0.7c0.2,0.3,0.3,0.7,0.4,1.1c0.1,0.4,0.1,0.8,0.1,1.3V22.8z"/>
</g>
<g class="st1">
	<path class="st3" d="M497.5,44.5h-6.1v-1h7.9l-5.7,11.4h-1.2L497.5,44.5z"/>
	<path class="st3" d="M499.3,52.8v-1.6h0.9v1.6H499.3z"/>
	<path class="st3" d="M507.5,44.5h-6.1v-1h7.9l-5.7,11.4h-1.2L507.5,44.5z"/>
	<path class="st3" d="M518.1,49.6c0,0.5-0.1,1-0.3,1.4c-0.2,0.4-0.5,0.7-0.9,1c-0.4,0.3-0.8,0.5-1.3,0.7c-0.5,0.2-1,0.2-1.5,0.2
		c-0.6,0-1.1-0.1-1.6-0.3c-0.5-0.2-0.9-0.4-1.2-0.7c-0.3-0.3-0.6-0.7-0.8-1.1s-0.3-0.8-0.3-1.3c0-0.4,0.1-0.7,0.2-1s0.3-0.6,0.5-0.8
		s0.5-0.4,0.7-0.6s0.5-0.3,0.8-0.4c-0.3-0.1-0.5-0.2-0.7-0.4c-0.2-0.2-0.4-0.3-0.6-0.5c-0.2-0.2-0.3-0.4-0.4-0.7
		c-0.1-0.2-0.2-0.5-0.2-0.8c0-0.5,0.1-0.9,0.3-1.2s0.5-0.7,0.8-0.9c0.3-0.2,0.7-0.4,1.1-0.6s0.8-0.2,1.3-0.2s0.9,0.1,1.3,0.2
		s0.8,0.3,1.1,0.6s0.6,0.5,0.8,0.9s0.3,0.8,0.3,1.2c0,0.3-0.1,0.5-0.2,0.8c-0.1,0.2-0.2,0.5-0.4,0.7c-0.2,0.2-0.4,0.4-0.6,0.5
		c-0.2,0.2-0.5,0.3-0.7,0.4c0.3,0.1,0.6,0.3,0.9,0.4s0.5,0.4,0.7,0.6c0.2,0.2,0.4,0.5,0.5,0.8S518.1,49.3,518.1,49.6z M517,49.6
		c0-0.4-0.1-0.7-0.3-1c-0.2-0.3-0.4-0.5-0.7-0.7c-0.3-0.2-0.6-0.4-0.9-0.5s-0.7-0.2-1-0.2c-0.4,0-0.7,0.1-1,0.2
		c-0.3,0.1-0.6,0.3-0.9,0.5c-0.3,0.2-0.5,0.5-0.6,0.8c-0.2,0.3-0.2,0.6-0.2,1c0,0.4,0.1,0.7,0.3,1c0.2,0.3,0.4,0.5,0.7,0.7
		c0.3,0.2,0.6,0.4,0.9,0.5s0.7,0.2,1,0.2c0.3,0,0.7-0.1,1-0.2c0.3-0.1,0.6-0.3,0.9-0.5s0.5-0.5,0.6-0.8
		C516.9,50.2,517,49.9,517,49.6z M511.7,44.4c0,0.3,0.1,0.6,0.2,0.8c0.1,0.2,0.3,0.4,0.6,0.6c0.2,0.2,0.5,0.3,0.8,0.4
		c0.3,0.1,0.6,0.1,0.9,0.1c0.3,0,0.6,0,0.9-0.1c0.3-0.1,0.6-0.2,0.8-0.4c0.2-0.2,0.4-0.4,0.6-0.6c0.1-0.2,0.2-0.5,0.2-0.8
		c0-0.3-0.1-0.6-0.2-0.8c-0.1-0.2-0.3-0.4-0.6-0.6c-0.2-0.2-0.5-0.3-0.8-0.4c-0.3-0.1-0.6-0.1-0.9-0.1c-0.3,0-0.6,0-0.9,0.1
		c-0.3,0.1-0.6,0.2-0.8,0.4c-0.2,0.2-0.4,0.4-0.5,0.6C511.8,43.8,511.7,44.1,511.7,44.4z"/>
	<path class="st3" d="M521.9,45.9c-0.3,0-0.6-0.1-0.9-0.2c-0.3-0.1-0.5-0.3-0.8-0.5c-0.2-0.2-0.4-0.5-0.5-0.7s-0.2-0.6-0.2-0.9
		c0-0.3,0.1-0.6,0.2-0.9s0.3-0.5,0.5-0.7c0.2-0.2,0.5-0.4,0.8-0.5s0.6-0.2,0.9-0.2s0.6,0.1,0.9,0.2c0.3,0.1,0.5,0.3,0.8,0.5
		c0.2,0.2,0.4,0.5,0.5,0.7c0.1,0.3,0.2,0.6,0.2,0.9c0,0.3-0.1,0.6-0.2,0.9c-0.1,0.3-0.3,0.5-0.5,0.7c-0.2,0.2-0.5,0.4-0.8,0.5
		C522.6,45.8,522.3,45.9,521.9,45.9z M519.9,52.4l4.5-5.4l4.4-5.6l0.6,0.5l-4.5,5.4l-4.4,5.6L519.9,52.4z M521.9,45.2
		c0.2,0,0.4,0,0.6-0.1c0.2-0.1,0.4-0.2,0.5-0.4c0.1-0.2,0.3-0.3,0.3-0.5c0.1-0.2,0.1-0.4,0.1-0.6c0-0.2,0-0.5-0.1-0.7
		c-0.1-0.2-0.2-0.4-0.3-0.5c-0.1-0.1-0.3-0.3-0.5-0.4c-0.2-0.1-0.4-0.1-0.6-0.1c-0.2,0-0.4,0-0.6,0.1s-0.4,0.2-0.5,0.4
		s-0.3,0.3-0.3,0.5c-0.1,0.2-0.1,0.4-0.1,0.6c0,0.2,0,0.4,0.1,0.6c0.1,0.2,0.2,0.4,0.3,0.5c0.1,0.2,0.3,0.3,0.5,0.4
		C521.5,45.2,521.7,45.2,521.9,45.2z M527.3,52.9c-0.3,0-0.6-0.1-0.9-0.2c-0.3-0.1-0.5-0.3-0.8-0.5s-0.4-0.5-0.5-0.7
		c-0.1-0.3-0.2-0.6-0.2-0.9c0-0.3,0.1-0.6,0.2-0.9c0.1-0.3,0.3-0.5,0.5-0.7s0.5-0.4,0.8-0.5c0.3-0.1,0.6-0.2,0.9-0.2
		s0.6,0.1,0.9,0.2s0.5,0.3,0.8,0.5c0.2,0.2,0.4,0.5,0.5,0.7s0.2,0.6,0.2,0.9c0,0.3-0.1,0.6-0.2,0.9c-0.1,0.3-0.3,0.5-0.5,0.7
		c-0.2,0.2-0.5,0.4-0.8,0.5S527.6,52.9,527.3,52.9z M527.3,52.3c0.2,0,0.4,0,0.6-0.1c0.2-0.1,0.4-0.2,0.5-0.4
		c0.1-0.1,0.3-0.3,0.3-0.5c0.1-0.2,0.1-0.4,0.1-0.6c0-0.2,0-0.4-0.1-0.6c-0.1-0.2-0.2-0.4-0.3-0.5c-0.1-0.2-0.3-0.3-0.5-0.4
		c-0.2-0.1-0.4-0.1-0.6-0.1c-0.2,0-0.4,0-0.6,0.1s-0.4,0.2-0.5,0.4c-0.1,0.2-0.3,0.3-0.3,0.5c-0.1,0.2-0.1,0.4-0.1,0.6
		c0,0.2,0,0.5,0.1,0.7c0.1,0.2,0.2,0.4,0.3,0.5s0.3,0.3,0.5,0.4C526.9,52.3,527.1,52.3,527.3,52.3z"/>
</g>
<g class="st1">
	<path class="st2" d="M582,20.8c0.2,0.1,0.5,0.3,0.8,0.4c0.4,0.1,0.8,0.2,1.2,0.2c0.5,0,0.9-0.1,1.2-0.3c0.3-0.2,0.5-0.4,0.7-0.8
		s0.3-0.8,0.3-1.3c0-0.5,0.1-1.1,0.1-1.8v-5.8h1.8v5.8c0,0.9,0,1.7-0.1,2.4c-0.1,0.7-0.3,1.3-0.5,1.8c-0.3,0.5-0.7,0.9-1.2,1.2
		S584.9,23,584,23c-1,0-1.8-0.2-2.5-0.7L582,20.8z"/>
	<path class="st2" d="M592.8,22.9c-0.9,0-1.5-0.3-2-0.9c-0.4-0.6-0.7-1.4-0.7-2.6v-5.1h1.8v4.8c0,1.5,0.5,2.3,1.6,2.3
		c0.5,0,1-0.2,1.4-0.5s0.8-0.8,1-1.3v-5.2h1.8v6.3c0,0.2,0,0.3,0.1,0.4c0.1,0.1,0.2,0.1,0.4,0.1v1.5c-0.2,0-0.3,0.1-0.4,0.1
		c-0.1,0-0.2,0-0.3,0c-0.3,0-0.6-0.1-0.8-0.3c-0.2-0.2-0.3-0.4-0.4-0.7l0-0.8c-0.4,0.6-0.9,1.1-1.5,1.4
		C594.2,22.8,593.5,22.9,592.8,22.9z"/>
	<path class="st2" d="M600,11.1h1.8v9.3c0,0.3,0.1,0.6,0.2,0.7c0.2,0.2,0.4,0.3,0.7,0.3c0.1,0,0.3,0,0.4-0.1c0.2,0,0.3-0.1,0.4-0.1
		l0.3,1.4c-0.3,0.1-0.6,0.2-0.9,0.3c-0.4,0.1-0.7,0.1-0.9,0.1c-0.6,0-1.1-0.2-1.4-0.5c-0.3-0.3-0.5-0.8-0.5-1.4V11.1z"/>
</g>
<g class="st1">
	<path class="st3" d="M569.8,48.9v-1h4.7v1H569.8z"/>
	<path class="st3" d="M576.1,52.8c0-0.4,0-0.7,0.1-1.1c0.1-0.4,0.2-0.7,0.4-1.1c0.2-0.4,0.5-0.7,0.8-1s0.8-0.7,1.4-1
		c0.3-0.2,0.6-0.3,1-0.5c0.3-0.2,0.6-0.3,0.9-0.5c0.3-0.2,0.5-0.4,0.7-0.6c0.2-0.2,0.3-0.5,0.3-0.8c0-0.2,0-0.4-0.1-0.6
		c-0.1-0.2-0.2-0.4-0.4-0.5s-0.4-0.3-0.7-0.4c-0.3-0.1-0.6-0.1-0.9-0.1c-0.4,0-0.7,0.1-0.9,0.2s-0.5,0.2-0.7,0.4s-0.4,0.3-0.5,0.4
		c-0.1,0.2-0.3,0.3-0.3,0.4l-0.7-0.8c0.1-0.1,0.2-0.2,0.4-0.4s0.4-0.3,0.7-0.5c0.3-0.2,0.6-0.3,1-0.5c0.4-0.1,0.8-0.2,1.3-0.2
		c0.5,0,0.9,0.1,1.3,0.2c0.4,0.1,0.7,0.3,1,0.6c0.3,0.2,0.5,0.5,0.6,0.8c0.1,0.3,0.2,0.6,0.2,1c0,0.4-0.1,0.8-0.3,1.1
		c-0.2,0.3-0.4,0.6-0.7,0.8c-0.3,0.2-0.6,0.4-0.9,0.6c-0.3,0.2-0.6,0.3-0.9,0.4c-0.3,0.1-0.7,0.3-1,0.5c-0.3,0.2-0.6,0.4-0.9,0.6
		c-0.3,0.2-0.5,0.5-0.6,0.8c-0.2,0.3-0.2,0.6-0.2,0.9h5.7v1H576.1z"/>
	<path class="st3" d="M584.7,52.8v-1.6h0.9v1.6H584.7z"/>
	<path class="st3" d="M587.4,52.8c0-0.4,0-0.7,0.1-1.1c0.1-0.4,0.2-0.7,0.4-1.1c0.2-0.4,0.5-0.7,0.8-1c0.3-0.3,0.8-0.7,1.4-1
		c0.3-0.2,0.6-0.3,1-0.5c0.3-0.2,0.6-0.3,0.9-0.5c0.3-0.2,0.5-0.4,0.7-0.6s0.3-0.5,0.3-0.8c0-0.2,0-0.4-0.1-0.6
		c-0.1-0.2-0.2-0.4-0.4-0.5s-0.4-0.3-0.7-0.4c-0.3-0.1-0.6-0.1-0.9-0.1c-0.4,0-0.7,0.1-0.9,0.2s-0.5,0.2-0.7,0.4s-0.4,0.3-0.5,0.4
		c-0.1,0.2-0.3,0.3-0.3,0.4l-0.7-0.8c0.1-0.1,0.2-0.2,0.4-0.4c0.2-0.2,0.4-0.3,0.7-0.5c0.3-0.2,0.6-0.3,1-0.5
		c0.4-0.1,0.8-0.2,1.3-0.2s0.9,0.1,1.3,0.2c0.4,0.1,0.7,0.3,1,0.6s0.5,0.5,0.6,0.8c0.1,0.3,0.2,0.6,0.2,1c0,0.4-0.1,0.8-0.3,1.1
		c-0.2,0.3-0.4,0.6-0.7,0.8c-0.3,0.2-0.6,0.4-0.9,0.6s-0.6,0.3-0.9,0.4c-0.3,0.1-0.7,0.3-1,0.5s-0.6,0.4-0.9,0.6
		c-0.3,0.2-0.5,0.5-0.6,0.8s-0.2,0.6-0.2,0.9h5.7v1H587.4z"/>
	<path class="st3" d="M604,49c0,0.5-0.1,1.1-0.3,1.5s-0.5,0.9-0.9,1.2c-0.4,0.4-0.8,0.6-1.3,0.8c-0.5,0.2-1,0.3-1.6,0.3
		c-0.6,0-1.1-0.1-1.6-0.3c-0.5-0.2-0.9-0.5-1.3-0.9c-0.4-0.4-0.6-0.9-0.8-1.5c-0.2-0.6-0.3-1.3-0.3-2c0-1.2,0.1-2.2,0.3-3
		c0.2-0.9,0.5-1.6,0.9-2.1s0.8-1,1.3-1.3c0.5-0.3,1.1-0.4,1.7-0.4c0.8,0,1.4,0.2,2,0.6c0.6,0.4,1,0.9,1.4,1.6l-0.7,0.6
		c-0.2-0.5-0.6-1-1.1-1.3c-0.5-0.3-1-0.5-1.6-0.5c-0.5,0-0.9,0.1-1.3,0.3c-0.4,0.2-0.7,0.5-1,1c-0.3,0.4-0.5,0.9-0.6,1.6
		c-0.2,0.6-0.2,1.3-0.2,2.1c0.2-0.6,0.6-1.1,1.2-1.5c0.6-0.4,1.2-0.6,1.9-0.6c0.5,0,1.1,0.1,1.5,0.3s0.9,0.5,1.2,0.8
		c0.4,0.3,0.6,0.8,0.8,1.2C603.9,48,604,48.5,604,49z M600,52c0.4,0,0.8-0.1,1.1-0.2c0.4-0.2,0.7-0.4,0.9-0.6s0.5-0.6,0.6-0.9
		c0.2-0.4,0.2-0.7,0.2-1.1s-0.1-0.8-0.2-1.1c-0.2-0.4-0.4-0.7-0.6-0.9c-0.3-0.3-0.6-0.5-0.9-0.6c-0.4-0.2-0.7-0.2-1.1-0.2
		c-0.4,0-0.8,0.1-1.1,0.2c-0.4,0.2-0.7,0.4-0.9,0.6c-0.3,0.3-0.5,0.6-0.6,0.9c-0.2,0.4-0.2,0.7-0.2,1.1s0.1,0.8,0.2,1.1
		c0.2,0.4,0.4,0.7,0.6,0.9c0.3,0.3,0.6,0.5,0.9,0.6C599.2,51.9,599.6,52,600,52z"/>
	<path class="st3" d="M607.7,45.9c-0.3,0-0.6-0.1-0.9-0.2c-0.3-0.1-0.5-0.3-0.8-0.5c-0.2-0.2-0.4-0.5-0.5-0.7s-0.2-0.6-0.2-0.9
		c0-0.3,0.1-0.6,0.2-0.9s0.3-0.5,0.5-0.7c0.2-0.2,0.5-0.4,0.8-0.5c0.3-0.1,0.6-0.2,0.9-0.2c0.3,0,0.6,0.1,0.9,0.2s0.5,0.3,0.8,0.5
		s0.4,0.5,0.5,0.7c0.1,0.3,0.2,0.6,0.2,0.9c0,0.3-0.1,0.6-0.2,0.9c-0.1,0.3-0.3,0.5-0.5,0.7s-0.5,0.4-0.8,0.5
		C608.4,45.8,608.1,45.9,607.7,45.9z M605.7,52.4l4.5-5.4l4.4-5.6l0.6,0.5l-4.5,5.4l-4.4,5.6L605.7,52.4z M607.7,45.2
		c0.2,0,0.4,0,0.6-0.1c0.2-0.1,0.4-0.2,0.5-0.4c0.1-0.2,0.3-0.3,0.3-0.5c0.1-0.2,0.1-0.4,0.1-0.6c0-0.2,0-0.5-0.1-0.7
		c-0.1-0.2-0.2-0.4-0.3-0.5c-0.1-0.1-0.3-0.3-0.5-0.4c-0.2-0.1-0.4-0.1-0.6-0.1c-0.2,0-0.4,0-0.6,0.1c-0.2,0.1-0.4,0.2-0.5,0.4
		c-0.1,0.2-0.3,0.3-0.3,0.5c-0.1,0.2-0.1,0.4-0.1,0.6c0,0.2,0,0.4,0.1,0.6c0.1,0.2,0.2,0.4,0.3,0.5c0.1,0.2,0.3,0.3,0.5,0.4
		C607.3,45.2,607.5,45.2,607.7,45.2z M613.1,52.9c-0.3,0-0.6-0.1-0.9-0.2s-0.5-0.3-0.8-0.5s-0.4-0.5-0.5-0.7
		c-0.1-0.3-0.2-0.6-0.2-0.9c0-0.3,0.1-0.6,0.2-0.9c0.1-0.3,0.3-0.5,0.5-0.7s0.5-0.4,0.8-0.5s0.6-0.2,0.9-0.2c0.3,0,0.6,0.1,0.9,0.2
		c0.3,0.1,0.5,0.3,0.8,0.5c0.2,0.2,0.4,0.5,0.5,0.7s0.2,0.6,0.2,0.9c0,0.3-0.1,0.6-0.2,0.9c-0.1,0.3-0.3,0.5-0.5,0.7
		c-0.2,0.2-0.5,0.4-0.8,0.5C613.7,52.9,613.4,52.9,613.1,52.9z M613.1,52.3c0.2,0,0.4,0,0.6-0.1c0.2-0.1,0.4-0.2,0.5-0.4
		s0.3-0.3,0.3-0.5c0.1-0.2,0.1-0.4,0.1-0.6c0-0.2,0-0.4-0.1-0.6c-0.1-0.2-0.2-0.4-0.3-0.5c-0.1-0.2-0.3-0.3-0.5-0.4
		c-0.2-0.1-0.4-0.1-0.6-0.1c-0.2,0-0.4,0-0.6,0.1c-0.2,0.1-0.4,0.2-0.5,0.4c-0.1,0.2-0.3,0.3-0.3,0.5c-0.1,0.2-0.1,0.4-0.1,0.6
		c0,0.2,0,0.5,0.1,0.7c0.1,0.2,0.2,0.4,0.3,0.5c0.1,0.1,0.3,0.3,0.5,0.4C612.7,52.3,612.9,52.3,613.1,52.3z"/>
</g>
<g class="st1">
	<path class="st2" d="M663.1,11.4h1.6l4.5,11.4h-1.9l-1.2-3.1h-4.4l-1.2,3.1h-1.9L663.1,11.4z M665.7,18.4l-1.8-4.9l-1.9,4.9H665.7z
		"/>
	<path class="st2" d="M672.7,22.9c-0.9,0-1.5-0.3-2-0.9c-0.4-0.6-0.7-1.4-0.7-2.6v-5.1h1.8v4.8c0,1.5,0.5,2.3,1.6,2.3
		c0.5,0,1-0.2,1.4-0.5c0.4-0.3,0.8-0.8,1-1.3v-5.2h1.8v6.3c0,0.2,0,0.3,0.1,0.4c0.1,0.1,0.2,0.1,0.4,0.1v1.5c-0.2,0-0.3,0.1-0.4,0.1
		c-0.1,0-0.2,0-0.3,0c-0.3,0-0.6-0.1-0.8-0.3c-0.2-0.2-0.3-0.4-0.4-0.7l0-0.8c-0.4,0.6-0.9,1.1-1.5,1.4
		C674,22.8,673.4,22.9,672.7,22.9z"/>
	<path class="st2" d="M683.1,22.9c-0.6,0-1.1-0.1-1.6-0.3c-0.5-0.2-0.9-0.5-1.2-0.9s-0.6-0.8-0.8-1.4c-0.2-0.5-0.3-1.1-0.3-1.6
		c0-0.6,0.1-1.2,0.3-1.7c0.2-0.5,0.5-1,0.8-1.4c0.3-0.4,0.7-0.7,1.2-0.9s1-0.3,1.6-0.3c0.7,0,1.3,0.2,1.8,0.5
		c0.5,0.3,0.9,0.7,1.3,1.2v-1.6h1.6v8.1c0,0.6-0.1,1.1-0.3,1.6s-0.5,0.9-0.9,1.2c-0.4,0.3-0.9,0.6-1.4,0.7c-0.5,0.2-1.1,0.3-1.8,0.3
		c-0.9,0-1.7-0.2-2.3-0.5c-0.6-0.3-1.1-0.8-1.5-1.3l1-0.9c0.3,0.4,0.7,0.8,1.2,1s1,0.4,1.6,0.4c0.4,0,0.7,0,1-0.1s0.6-0.2,0.9-0.4
		c0.2-0.2,0.4-0.5,0.6-0.8c0.1-0.3,0.2-0.7,0.2-1.1v-1.3c-0.3,0.5-0.7,0.9-1.2,1.2S683.7,22.9,683.1,22.9z M683.7,21.4
		c0.3,0,0.5,0,0.8-0.1c0.2-0.1,0.5-0.2,0.7-0.4c0.2-0.2,0.4-0.3,0.5-0.5s0.3-0.4,0.3-0.6v-2.2c-0.1-0.3-0.2-0.5-0.4-0.7
		c-0.2-0.2-0.4-0.4-0.6-0.6c-0.2-0.2-0.5-0.3-0.7-0.4s-0.5-0.1-0.7-0.1c-0.4,0-0.7,0.1-1,0.2c-0.3,0.2-0.6,0.4-0.8,0.7
		c-0.2,0.3-0.4,0.6-0.5,0.9c-0.1,0.3-0.2,0.7-0.2,1.1c0,0.4,0.1,0.7,0.2,1.1c0.1,0.3,0.3,0.6,0.6,0.9c0.2,0.3,0.5,0.5,0.8,0.6
		C683,21.4,683.3,21.4,683.7,21.4z"/>
</g>
<g class="st1">
	<path class="st3" d="M652.9,47.6c0-0.5,0.1-1.1,0.3-1.5s0.5-0.9,0.9-1.2s0.8-0.6,1.3-0.8c0.5-0.2,1-0.3,1.6-0.3
		c0.6,0,1.1,0.1,1.6,0.3c0.5,0.2,0.9,0.5,1.3,0.9s0.6,0.9,0.8,1.5c0.2,0.6,0.3,1.3,0.3,2c0,1.2-0.1,2.2-0.3,3
		c-0.2,0.9-0.5,1.6-0.9,2.1c-0.4,0.6-0.8,1-1.3,1.3s-1.1,0.4-1.7,0.4c-0.7,0-1.4-0.2-2-0.6c-0.6-0.4-1.1-0.9-1.4-1.6l0.7-0.6
		c0.2,0.5,0.6,1,1.1,1.3s1,0.5,1.6,0.5c0.5,0,0.9-0.1,1.3-0.3s0.7-0.5,1-1c0.3-0.4,0.5-0.9,0.6-1.6s0.2-1.3,0.2-2.1
		c-0.2,0.6-0.7,1.1-1.2,1.5c-0.6,0.4-1.2,0.6-1.9,0.6c-0.5,0-1.1-0.1-1.5-0.3c-0.5-0.2-0.9-0.5-1.2-0.8c-0.4-0.3-0.6-0.8-0.8-1.2
		C653,48.6,652.9,48.1,652.9,47.6z M656.9,44.6c-0.4,0-0.8,0.1-1.1,0.2c-0.4,0.2-0.7,0.4-0.9,0.6c-0.3,0.3-0.5,0.6-0.6,0.9
		s-0.2,0.7-0.2,1.1c0,0.4,0.1,0.8,0.2,1.1s0.4,0.7,0.6,0.9c0.3,0.3,0.6,0.5,0.9,0.6c0.4,0.2,0.7,0.2,1.1,0.2s0.8-0.1,1.2-0.2
		c0.4-0.2,0.7-0.4,0.9-0.6c0.3-0.3,0.5-0.6,0.6-0.9c0.2-0.4,0.2-0.7,0.2-1.1c0-0.4-0.1-0.8-0.2-1.1c-0.2-0.4-0.4-0.7-0.6-0.9
		c-0.3-0.3-0.6-0.5-0.9-0.6C657.7,44.7,657.3,44.6,656.9,44.6z"/>
	<path class="st3" d="M662.7,52.8v-1.6h0.9v1.6H662.7z"/>
	<path class="st3" d="M673.4,49.6c0,0.5-0.1,1-0.3,1.4c-0.2,0.4-0.5,0.7-0.9,1c-0.4,0.3-0.8,0.5-1.3,0.7c-0.5,0.2-1,0.2-1.5,0.2
		c-0.6,0-1.1-0.1-1.6-0.3s-0.9-0.4-1.2-0.7c-0.3-0.3-0.6-0.7-0.8-1.1c-0.2-0.4-0.3-0.8-0.3-1.3c0-0.4,0.1-0.7,0.2-1
		c0.1-0.3,0.3-0.6,0.5-0.8c0.2-0.2,0.5-0.4,0.7-0.6c0.3-0.2,0.5-0.3,0.8-0.4c-0.3-0.1-0.5-0.2-0.7-0.4c-0.2-0.2-0.4-0.3-0.6-0.5
		c-0.2-0.2-0.3-0.4-0.4-0.7s-0.2-0.5-0.2-0.8c0-0.5,0.1-0.9,0.3-1.2c0.2-0.4,0.5-0.7,0.8-0.9c0.3-0.2,0.7-0.4,1.1-0.6
		c0.4-0.1,0.8-0.2,1.3-0.2s0.9,0.1,1.3,0.2c0.4,0.1,0.8,0.3,1.1,0.6s0.6,0.5,0.8,0.9c0.2,0.4,0.3,0.8,0.3,1.2c0,0.3-0.1,0.5-0.2,0.8
		c-0.1,0.2-0.2,0.5-0.4,0.7c-0.2,0.2-0.4,0.4-0.6,0.5c-0.2,0.2-0.5,0.3-0.7,0.4c0.3,0.1,0.6,0.3,0.9,0.4s0.5,0.4,0.7,0.6
		c0.2,0.2,0.4,0.5,0.5,0.8C673.4,48.9,673.4,49.3,673.4,49.6z M672.3,49.6c0-0.4-0.1-0.7-0.3-1c-0.2-0.3-0.4-0.5-0.7-0.7
		c-0.3-0.2-0.6-0.4-0.9-0.5c-0.3-0.1-0.7-0.2-1-0.2c-0.4,0-0.7,0.1-1,0.2c-0.3,0.1-0.6,0.3-0.9,0.5c-0.3,0.2-0.5,0.5-0.6,0.8
		c-0.2,0.3-0.2,0.6-0.2,1c0,0.4,0.1,0.7,0.3,1s0.4,0.5,0.7,0.7c0.3,0.2,0.6,0.4,0.9,0.5s0.7,0.2,1,0.2s0.7-0.1,1-0.2
		c0.3-0.1,0.6-0.3,0.9-0.5s0.5-0.5,0.6-0.8C672.2,50.2,672.3,49.9,672.3,49.6z M667,44.4c0,0.3,0.1,0.6,0.2,0.8s0.3,0.4,0.6,0.6
		c0.2,0.2,0.5,0.3,0.8,0.4c0.3,0.1,0.6,0.1,0.9,0.1c0.3,0,0.6,0,0.9-0.1c0.3-0.1,0.6-0.2,0.8-0.4c0.2-0.2,0.4-0.4,0.6-0.6
		c0.1-0.2,0.2-0.5,0.2-0.8c0-0.3-0.1-0.6-0.2-0.8c-0.1-0.2-0.3-0.4-0.6-0.6c-0.2-0.2-0.5-0.3-0.8-0.4c-0.3-0.1-0.6-0.1-0.9-0.1
		c-0.3,0-0.6,0-0.9,0.1c-0.3,0.1-0.6,0.2-0.8,0.4c-0.2,0.2-0.4,0.4-0.5,0.6C667.1,43.8,667,44.1,667,44.4z"/>
	<path class="st3" d="M682.9,49.6c0,0.5-0.1,1-0.3,1.4c-0.2,0.4-0.5,0.7-0.9,1c-0.4,0.3-0.8,0.5-1.3,0.7c-0.5,0.2-1,0.2-1.5,0.2
		c-0.6,0-1.1-0.1-1.6-0.3c-0.5-0.2-0.9-0.4-1.2-0.7c-0.3-0.3-0.6-0.7-0.8-1.1c-0.2-0.4-0.3-0.8-0.3-1.3c0-0.4,0.1-0.7,0.2-1
		c0.1-0.3,0.3-0.6,0.5-0.8c0.2-0.2,0.5-0.4,0.7-0.6c0.3-0.2,0.5-0.3,0.8-0.4c-0.3-0.1-0.5-0.2-0.7-0.4c-0.2-0.2-0.4-0.3-0.6-0.5
		c-0.2-0.2-0.3-0.4-0.4-0.7c-0.1-0.2-0.2-0.5-0.2-0.8c0-0.5,0.1-0.9,0.3-1.2c0.2-0.4,0.5-0.7,0.8-0.9c0.3-0.2,0.7-0.4,1.1-0.6
		c0.4-0.1,0.8-0.2,1.3-0.2s0.9,0.1,1.3,0.2c0.4,0.1,0.8,0.3,1.1,0.6s0.6,0.5,0.8,0.9c0.2,0.4,0.3,0.8,0.3,1.2c0,0.3-0.1,0.5-0.2,0.8
		c-0.1,0.2-0.2,0.5-0.4,0.7s-0.4,0.4-0.6,0.5c-0.2,0.2-0.5,0.3-0.7,0.4c0.3,0.1,0.6,0.3,0.9,0.4s0.5,0.4,0.7,0.6
		c0.2,0.2,0.4,0.5,0.5,0.8C682.8,48.9,682.9,49.3,682.9,49.6z M681.8,49.6c0-0.4-0.1-0.7-0.3-1c-0.2-0.3-0.4-0.5-0.7-0.7
		c-0.3-0.2-0.6-0.4-0.9-0.5c-0.3-0.1-0.7-0.2-1-0.2c-0.4,0-0.7,0.1-1,0.2c-0.3,0.1-0.6,0.3-0.9,0.5c-0.3,0.2-0.5,0.5-0.6,0.8
		s-0.2,0.6-0.2,1c0,0.4,0.1,0.7,0.3,1c0.2,0.3,0.4,0.5,0.7,0.7c0.3,0.2,0.6,0.4,0.9,0.5s0.7,0.2,1,0.2c0.3,0,0.7-0.1,1-0.2
		c0.3-0.1,0.6-0.3,0.9-0.5s0.5-0.5,0.6-0.8C681.7,50.2,681.8,49.9,681.8,49.6z M676.5,44.4c0,0.3,0.1,0.6,0.2,0.8
		c0.1,0.2,0.3,0.4,0.6,0.6c0.2,0.2,0.5,0.3,0.8,0.4c0.3,0.1,0.6,0.1,0.9,0.1c0.3,0,0.6,0,0.9-0.1c0.3-0.1,0.6-0.2,0.8-0.4
		c0.2-0.2,0.4-0.4,0.6-0.6c0.1-0.2,0.2-0.5,0.2-0.8c0-0.3-0.1-0.6-0.2-0.8s-0.3-0.4-0.6-0.6c-0.2-0.2-0.5-0.3-0.8-0.4
		c-0.3-0.1-0.6-0.1-0.9-0.1c-0.3,0-0.6,0-0.9,0.1c-0.3,0.1-0.6,0.2-0.8,0.4c-0.2,0.2-0.4,0.4-0.5,0.6
		C676.6,43.8,676.5,44.1,676.5,44.4z"/>
	<path class="st3" d="M686.7,45.9c-0.3,0-0.6-0.1-0.9-0.2c-0.3-0.1-0.5-0.3-0.8-0.5c-0.2-0.2-0.4-0.5-0.5-0.7s-0.2-0.6-0.2-0.9
		c0-0.3,0.1-0.6,0.2-0.9s0.3-0.5,0.5-0.7c0.2-0.2,0.5-0.4,0.8-0.5c0.3-0.1,0.6-0.2,0.9-0.2c0.3,0,0.6,0.1,0.9,0.2s0.5,0.3,0.8,0.5
		s0.4,0.5,0.5,0.7c0.1,0.3,0.2,0.6,0.2,0.9c0,0.3-0.1,0.6-0.2,0.9c-0.1,0.3-0.3,0.5-0.5,0.7s-0.5,0.4-0.8,0.5
		C687.4,45.8,687.1,45.9,686.7,45.9z M684.7,52.4l4.5-5.4l4.4-5.6l0.6,0.5l-4.5,5.4l-4.4,5.6L684.7,52.4z M686.7,45.2
		c0.2,0,0.4,0,0.6-0.1c0.2-0.1,0.4-0.2,0.5-0.4c0.1-0.2,0.3-0.3,0.3-0.5c0.1-0.2,0.1-0.4,0.1-0.6c0-0.2,0-0.5-0.1-0.7
		c-0.1-0.2-0.2-0.4-0.3-0.5c-0.1-0.1-0.3-0.3-0.5-0.4c-0.2-0.1-0.4-0.1-0.6-0.1c-0.2,0-0.4,0-0.6,0.1c-0.2,0.1-0.4,0.2-0.5,0.4
		c-0.1,0.2-0.3,0.3-0.3,0.5c-0.1,0.2-0.1,0.4-0.1,0.6c0,0.2,0,0.4,0.1,0.6c0.1,0.2,0.2,0.4,0.3,0.5c0.1,0.2,0.3,0.3,0.5,0.4
		C686.3,45.2,686.5,45.2,686.7,45.2z M692.1,52.9c-0.3,0-0.6-0.1-0.9-0.2s-0.5-0.3-0.8-0.5s-0.4-0.5-0.5-0.7
		c-0.1-0.3-0.2-0.6-0.2-0.9c0-0.3,0.1-0.6,0.2-0.9c0.1-0.3,0.3-0.5,0.5-0.7s0.5-0.4,0.8-0.5s0.6-0.2,0.9-0.2c0.3,0,0.6,0.1,0.9,0.2
		c0.3,0.1,0.5,0.3,0.8,0.5c0.2,0.2,0.4,0.5,0.5,0.7s0.2,0.6,0.2,0.9c0,0.3-0.1,0.6-0.2,0.9c-0.1,0.3-0.3,0.5-0.5,0.7
		c-0.2,0.2-0.5,0.4-0.8,0.5C692.7,52.9,692.4,52.9,692.1,52.9z M692.1,52.3c0.2,0,0.4,0,0.6-0.1c0.2-0.1,0.4-0.2,0.5-0.4
		s0.3-0.3,0.3-0.5c0.1-0.2,0.1-0.4,0.1-0.6c0-0.2,0-0.4-0.1-0.6c-0.1-0.2-0.2-0.4-0.3-0.5c-0.1-0.2-0.3-0.3-0.5-0.4
		c-0.2-0.1-0.4-0.1-0.6-0.1c-0.2,0-0.4,0-0.6,0.1c-0.2,0.1-0.4,0.2-0.5,0.4c-0.1,0.2-0.3,0.3-0.3,0.5c-0.1,0.2-0.1,0.4-0.1,0.6
		c0,0.2,0,0.5,0.1,0.7c0.1,0.2,0.2,0.4,0.3,0.5c0.1,0.1,0.3,0.3,0.5,0.4C691.7,52.3,691.9,52.3,692.1,52.3z"/>
</g>
<g class="st1">
	<path class="st2" d="M748.2,14.4c-0.1-0.1-0.3-0.2-0.5-0.4c-0.2-0.1-0.4-0.3-0.7-0.4c-0.3-0.1-0.6-0.2-0.9-0.3
		c-0.3-0.1-0.7-0.1-1-0.1c-0.8,0-1.3,0.1-1.7,0.4s-0.5,0.7-0.5,1.2c0,0.3,0.1,0.5,0.2,0.7s0.3,0.3,0.5,0.5c0.2,0.1,0.5,0.3,0.9,0.4
		c0.4,0.1,0.8,0.2,1.2,0.3c0.6,0.1,1.1,0.3,1.6,0.5c0.5,0.2,0.9,0.4,1.2,0.6c0.3,0.2,0.6,0.5,0.7,0.9s0.3,0.8,0.3,1.3
		c0,0.6-0.1,1.1-0.3,1.5s-0.5,0.8-0.9,1c-0.4,0.3-0.8,0.5-1.3,0.6c-0.5,0.1-1,0.2-1.6,0.2c-0.9,0-1.7-0.1-2.5-0.4
		c-0.8-0.3-1.5-0.6-2.2-1.1l0.8-1.5c0.1,0.1,0.3,0.3,0.6,0.5c0.3,0.2,0.6,0.3,0.9,0.5c0.3,0.1,0.7,0.3,1.1,0.4
		c0.4,0.1,0.8,0.2,1.3,0.2c0.7,0,1.2-0.1,1.6-0.4s0.6-0.6,0.6-1.1c0-0.3-0.1-0.5-0.2-0.7c-0.1-0.2-0.3-0.4-0.6-0.5
		c-0.3-0.1-0.6-0.3-1-0.4c-0.4-0.1-0.8-0.2-1.3-0.4c-0.6-0.1-1.1-0.3-1.5-0.5c-0.4-0.2-0.8-0.4-1-0.6c-0.3-0.2-0.5-0.5-0.6-0.8
		c-0.1-0.3-0.2-0.7-0.2-1.1c0-0.6,0.1-1,0.3-1.5c0.2-0.4,0.5-0.8,0.9-1.1c0.4-0.3,0.8-0.5,1.3-0.7c0.5-0.1,1-0.2,1.6-0.2
		c0.8,0,1.5,0.1,2.1,0.4c0.7,0.2,1.2,0.5,1.7,0.9L748.2,14.4z"/>
	<path class="st2" d="M754.8,23.2c-0.7,0-1.2-0.1-1.8-0.3c-0.5-0.2-1-0.5-1.4-0.9s-0.7-0.9-0.9-1.4s-0.3-1.1-0.3-1.7
		c0-0.6,0.1-1.1,0.3-1.7s0.5-1,0.9-1.4c0.4-0.4,0.8-0.7,1.4-0.9s1.1-0.3,1.8-0.3c0.7,0,1.2,0.1,1.8,0.4c0.5,0.2,1,0.5,1.4,0.9
		c0.4,0.4,0.7,0.8,0.9,1.4c0.2,0.5,0.3,1.1,0.3,1.6c0,0.1,0,0.2,0,0.4s0,0.2,0,0.3h-6.7c0,0.4,0.1,0.7,0.3,1
		c0.1,0.3,0.3,0.6,0.6,0.8c0.2,0.2,0.5,0.4,0.8,0.5c0.3,0.1,0.6,0.2,0.9,0.2c0.2,0,0.5,0,0.7-0.1s0.4-0.1,0.6-0.3
		c0.2-0.1,0.4-0.2,0.5-0.4s0.3-0.3,0.4-0.5l1.5,0.4c-0.3,0.6-0.8,1.1-1.4,1.5C756.5,23,755.7,23.2,754.8,23.2z M757.4,18.3
		c0-0.4-0.1-0.7-0.3-1c-0.1-0.3-0.3-0.6-0.6-0.8s-0.5-0.4-0.8-0.5s-0.6-0.2-0.9-0.2c-0.3,0-0.6,0.1-0.9,0.2s-0.6,0.3-0.8,0.5
		c-0.2,0.2-0.4,0.5-0.5,0.8s-0.2,0.6-0.3,1H757.4z"/>
	<path class="st2" d="M765.3,23.2c-0.7,0-1.3-0.2-1.8-0.5c-0.5-0.3-0.9-0.7-1.2-1.2v5h-1.8V14.7h1.6v1.5c0.3-0.5,0.7-0.9,1.2-1.2
		c0.5-0.3,1.1-0.4,1.7-0.4c0.6,0,1.1,0.1,1.6,0.4c0.5,0.2,0.9,0.5,1.2,0.9c0.4,0.4,0.6,0.9,0.8,1.4s0.3,1.1,0.3,1.6
		c0,0.6-0.1,1.2-0.3,1.7c-0.2,0.5-0.4,1-0.8,1.4c-0.3,0.4-0.7,0.7-1.2,0.9C766.4,23.1,765.9,23.2,765.3,23.2z M764.7,21.7
		c0.4,0,0.7-0.1,1-0.2c0.3-0.2,0.6-0.4,0.8-0.6c0.2-0.3,0.4-0.6,0.5-0.9c0.1-0.3,0.2-0.7,0.2-1.1c0-0.4-0.1-0.7-0.2-1.1
		c-0.1-0.3-0.3-0.6-0.5-0.9s-0.5-0.5-0.8-0.6c-0.3-0.1-0.7-0.2-1-0.2c-0.2,0-0.5,0-0.7,0.1s-0.5,0.2-0.7,0.4
		c-0.2,0.1-0.4,0.3-0.6,0.5c-0.2,0.2-0.3,0.4-0.3,0.6v2.2c0.1,0.3,0.2,0.5,0.4,0.7c0.2,0.2,0.4,0.4,0.6,0.6s0.4,0.3,0.7,0.4
		C764.2,21.7,764.5,21.7,764.7,21.7z"/>
</g>
<g class="st1">
	<path class="st3" d="M741.4,55.1v-2.8h-5.3v-1l5.7-7.4h0.7v7.3h1.4v1h-1.4v2.8H741.4z M737.2,51.3h4.3v-5.6L737.2,51.3z"/>
	<path class="st3" d="M745.5,53.1v-1.6h0.9v1.6H745.5z"/>
	<path class="st3" d="M754,52.1v1h-5.4v-1h2.3v-6.8c-0.1,0.1-0.2,0.3-0.4,0.4s-0.4,0.3-0.7,0.4c-0.3,0.1-0.5,0.2-0.8,0.3
		c-0.3,0.1-0.5,0.1-0.7,0.1v-1.1c0.2,0,0.5-0.1,0.8-0.2c0.3-0.1,0.6-0.3,0.8-0.5c0.3-0.2,0.5-0.4,0.7-0.5c0.2-0.2,0.3-0.3,0.3-0.3
		h1.1v8.1H754z"/>
	<path class="st3" d="M755,53.1c0-0.4,0-0.7,0.1-1.1c0.1-0.4,0.2-0.7,0.4-1.1c0.2-0.4,0.5-0.7,0.8-1s0.8-0.7,1.4-1
		c0.3-0.2,0.6-0.3,1-0.5c0.3-0.2,0.6-0.3,0.9-0.5c0.3-0.2,0.5-0.4,0.7-0.6c0.2-0.2,0.3-0.5,0.3-0.8c0-0.2,0-0.4-0.1-0.6
		c-0.1-0.2-0.2-0.4-0.4-0.5s-0.4-0.3-0.7-0.4c-0.3-0.1-0.6-0.1-0.9-0.1c-0.4,0-0.7,0.1-0.9,0.2s-0.5,0.2-0.7,0.4s-0.4,0.3-0.5,0.4
		c-0.1,0.2-0.3,0.3-0.3,0.4l-0.7-0.8c0.1-0.1,0.2-0.2,0.4-0.4s0.4-0.3,0.7-0.5c0.3-0.2,0.6-0.3,1-0.5c0.4-0.1,0.8-0.2,1.3-0.2
		c0.5,0,0.9,0.1,1.3,0.2c0.4,0.1,0.7,0.3,1,0.6c0.3,0.2,0.5,0.5,0.6,0.8c0.1,0.3,0.2,0.6,0.2,1c0,0.4-0.1,0.8-0.3,1.1
		c-0.2,0.3-0.4,0.6-0.7,0.8c-0.3,0.2-0.6,0.4-0.9,0.6c-0.3,0.2-0.6,0.3-0.9,0.4c-0.3,0.1-0.7,0.3-1,0.5c-0.3,0.2-0.6,0.4-0.9,0.6
		c-0.3,0.2-0.5,0.5-0.6,0.8c-0.2,0.3-0.2,0.6-0.2,0.9h5.7v1H755z"/>
	<path class="st3" d="M765.7,46.1c-0.3,0-0.6-0.1-0.9-0.2c-0.3-0.1-0.5-0.3-0.8-0.5c-0.2-0.2-0.4-0.5-0.5-0.7s-0.2-0.6-0.2-0.9
		c0-0.3,0.1-0.6,0.2-0.9s0.3-0.5,0.5-0.7c0.2-0.2,0.5-0.4,0.8-0.5c0.3-0.1,0.6-0.2,0.9-0.2c0.3,0,0.6,0.1,0.9,0.2s0.5,0.3,0.8,0.5
		s0.4,0.5,0.5,0.7c0.1,0.3,0.2,0.6,0.2,0.9c0,0.3-0.1,0.6-0.2,0.9c-0.1,0.3-0.3,0.5-0.5,0.7s-0.5,0.4-0.8,0.5
		C766.3,46.1,766,46.1,765.7,46.1z M763.7,52.6l4.5-5.4l4.4-5.6l0.6,0.5l-4.5,5.4l-4.4,5.6L763.7,52.6z M765.7,45.5
		c0.2,0,0.4,0,0.6-0.1c0.2-0.1,0.4-0.2,0.5-0.4c0.1-0.2,0.3-0.3,0.3-0.5c0.1-0.2,0.1-0.4,0.1-0.6c0-0.2,0-0.5-0.1-0.7
		c-0.1-0.2-0.2-0.4-0.3-0.5c-0.1-0.1-0.3-0.3-0.5-0.4c-0.2-0.1-0.4-0.1-0.6-0.1c-0.2,0-0.4,0-0.6,0.1c-0.2,0.1-0.4,0.2-0.5,0.4
		c-0.1,0.2-0.3,0.3-0.3,0.5c-0.1,0.2-0.1,0.4-0.1,0.6c0,0.2,0,0.4,0.1,0.6c0.1,0.2,0.2,0.4,0.3,0.5c0.1,0.2,0.3,0.3,0.5,0.4
		C765.3,45.5,765.5,45.5,765.7,45.5z M771.1,53.2c-0.3,0-0.6-0.1-0.9-0.2s-0.5-0.3-0.8-0.5s-0.4-0.5-0.5-0.7
		c-0.1-0.3-0.2-0.6-0.2-0.9c0-0.3,0.1-0.6,0.2-0.9c0.1-0.3,0.3-0.5,0.5-0.7s0.5-0.4,0.8-0.5s0.6-0.2,0.9-0.2c0.3,0,0.6,0.1,0.9,0.2
		c0.3,0.1,0.5,0.3,0.8,0.5c0.2,0.2,0.4,0.5,0.5,0.7s0.2,0.6,0.2,0.9c0,0.3-0.1,0.6-0.2,0.9c-0.1,0.3-0.3,0.5-0.5,0.7
		c-0.2,0.2-0.5,0.4-0.8,0.5C771.7,53.2,771.4,53.2,771.1,53.2z M771.1,52.6c0.2,0,0.4,0,0.6-0.1c0.2-0.1,0.4-0.2,0.5-0.4
		s0.3-0.3,0.3-0.5c0.1-0.2,0.1-0.4,0.1-0.6c0-0.2,0-0.4-0.1-0.6c-0.1-0.2-0.2-0.4-0.3-0.5c-0.1-0.2-0.3-0.3-0.5-0.4
		c-0.2-0.1-0.4-0.1-0.6-0.1c-0.2,0-0.4,0-0.6,0.1c-0.2,0.1-0.4,0.2-0.5,0.4c-0.1,0.2-0.3,0.3-0.3,0.5c-0.1,0.2-0.1,0.4-0.1,0.6
		c0,0.2,0,0.5,0.1,0.7c0.1,0.2,0.2,0.4,0.3,0.5c0.1,0.1,0.3,0.3,0.5,0.4C770.6,52.6,770.8,52.6,771.1,52.6z"/>
</g>
<g class="st1">
	<path class="st2" d="M828.6,23.2c-0.8,0-1.5-0.2-2.2-0.5c-0.7-0.3-1.2-0.8-1.7-1.3c-0.5-0.5-0.9-1.2-1.1-1.8
		c-0.3-0.7-0.4-1.4-0.4-2.1c0-0.8,0.1-1.5,0.4-2.2c0.3-0.7,0.7-1.3,1.1-1.8c0.5-0.5,1.1-1,1.7-1.3s1.4-0.5,2.2-0.5
		c0.8,0,1.5,0.2,2.2,0.5c0.7,0.3,1.2,0.8,1.7,1.3s0.8,1.2,1.1,1.8c0.3,0.7,0.4,1.4,0.4,2.1c0,0.8-0.1,1.5-0.4,2.2
		c-0.3,0.7-0.7,1.3-1.1,1.8c-0.5,0.5-1.1,1-1.7,1.3C830.1,23,829.4,23.2,828.6,23.2z M825,17.4c0,0.5,0.1,1.1,0.3,1.6
		s0.4,0.9,0.7,1.3c0.3,0.4,0.7,0.7,1.1,0.9s0.9,0.3,1.5,0.3c0.6,0,1.1-0.1,1.5-0.4c0.4-0.2,0.8-0.6,1.1-1s0.5-0.8,0.7-1.3
		s0.2-1,0.2-1.5c0-0.5-0.1-1.1-0.3-1.6c-0.2-0.5-0.4-0.9-0.7-1.3s-0.7-0.7-1.1-0.9c-0.4-0.2-0.9-0.3-1.5-0.3c-0.6,0-1.1,0.1-1.5,0.4
		c-0.4,0.2-0.8,0.6-1.1,0.9c-0.3,0.4-0.5,0.8-0.7,1.3C825.1,16.4,825,16.9,825,17.4z"/>
	<path class="st2" d="M835.2,18.9c0-0.6,0.1-1.1,0.3-1.7c0.2-0.5,0.5-1,0.9-1.4c0.4-0.4,0.8-0.7,1.4-0.9s1.1-0.3,1.8-0.3
		c0.9,0,1.6,0.2,2.2,0.6c0.6,0.4,1.1,0.9,1.4,1.5l-1.7,0.5c-0.2-0.4-0.5-0.6-0.8-0.8c-0.3-0.2-0.7-0.3-1.1-0.3c-0.4,0-0.7,0.1-1,0.2
		c-0.3,0.1-0.6,0.3-0.8,0.6c-0.2,0.3-0.4,0.5-0.5,0.9c-0.1,0.3-0.2,0.7-0.2,1.1c0,0.4,0.1,0.8,0.2,1.1c0.1,0.3,0.3,0.6,0.5,0.9
		s0.5,0.5,0.8,0.6c0.3,0.1,0.6,0.2,1,0.2c0.2,0,0.4,0,0.6-0.1c0.2-0.1,0.4-0.1,0.6-0.2s0.3-0.2,0.5-0.4c0.1-0.1,0.2-0.3,0.3-0.4
		l1.7,0.5c-0.3,0.6-0.7,1.1-1.4,1.5c-0.7,0.4-1.4,0.6-2.3,0.6c-0.7,0-1.2-0.1-1.8-0.4c-0.5-0.2-1-0.6-1.4-1
		c-0.4-0.4-0.7-0.9-0.9-1.4C835.3,20,835.2,19.5,835.2,18.9z"/>
	<path class="st2" d="M849.3,22.6c-0.2,0.1-0.5,0.2-0.9,0.4c-0.4,0.1-0.8,0.2-1.3,0.2c-0.3,0-0.5,0-0.8-0.1
		c-0.2-0.1-0.5-0.2-0.6-0.3s-0.3-0.3-0.4-0.6c-0.1-0.2-0.2-0.5-0.2-0.9v-5.2H844v-1.4h1.1V12h1.8v2.8h1.8v1.4h-1.8v4.7
		c0,0.3,0.1,0.5,0.3,0.6c0.2,0.1,0.4,0.2,0.6,0.2s0.5,0,0.7-0.1c0.2-0.1,0.4-0.2,0.5-0.2L849.3,22.6z"/>
</g>
<g class="st1">
	<path class="st3" d="M821.2,55.1v-2.8h-5.3v-1l5.7-7.4h0.7v7.3h1.4v1h-1.4v2.8H821.2z M817,51.3h4.3v-5.6L817,51.3z"/>
	<path class="st3" d="M825.3,53.1v-1.6h0.9v1.6H825.3z"/>
	<path class="st3" d="M827.9,47.8c0-0.5,0.1-1.1,0.3-1.5s0.5-0.9,0.9-1.2s0.8-0.6,1.3-0.8c0.5-0.2,1-0.3,1.6-0.3
		c0.6,0,1.1,0.1,1.6,0.3c0.5,0.2,0.9,0.5,1.3,0.9s0.6,0.9,0.8,1.5c0.2,0.6,0.3,1.3,0.3,2c0,1.2-0.1,2.2-0.3,3
		c-0.2,0.9-0.5,1.6-0.9,2.1c-0.4,0.6-0.8,1-1.3,1.3s-1.1,0.4-1.7,0.4c-0.7,0-1.4-0.2-2-0.6c-0.6-0.4-1.1-0.9-1.4-1.6l0.7-0.6
		c0.2,0.5,0.6,1,1.1,1.3s1,0.5,1.6,0.5c0.5,0,0.9-0.1,1.3-0.3s0.7-0.5,1-1c0.3-0.4,0.5-0.9,0.6-1.6s0.2-1.3,0.2-2.1
		c-0.2,0.6-0.7,1.1-1.2,1.5c-0.6,0.4-1.2,0.6-1.9,0.6c-0.5,0-1.1-0.1-1.5-0.3c-0.5-0.2-0.9-0.5-1.2-0.8c-0.4-0.3-0.6-0.8-0.8-1.2
		C828,48.9,827.9,48.4,827.9,47.8z M831.9,44.9c-0.4,0-0.8,0.1-1.1,0.2c-0.4,0.2-0.7,0.4-0.9,0.6c-0.3,0.3-0.5,0.6-0.6,0.9
		s-0.2,0.7-0.2,1.1c0,0.4,0.1,0.8,0.2,1.1s0.4,0.7,0.6,0.9c0.3,0.3,0.6,0.5,0.9,0.6c0.4,0.2,0.7,0.2,1.1,0.2s0.8-0.1,1.2-0.2
		c0.4-0.2,0.7-0.4,0.9-0.6c0.3-0.3,0.5-0.6,0.6-0.9c0.2-0.4,0.2-0.7,0.2-1.1c0-0.4-0.1-0.8-0.2-1.1c-0.2-0.4-0.4-0.7-0.6-0.9
		c-0.3-0.3-0.6-0.5-0.9-0.6C832.7,45,832.3,44.9,831.9,44.9z"/>
	<path class="st3" d="M843,44.8h-6.1v-1h7.9l-5.7,11.4h-1.2L843,44.8z"/>
	<path class="st3" d="M847.9,46.1c-0.3,0-0.6-0.1-0.9-0.2c-0.3-0.1-0.5-0.3-0.8-0.5c-0.2-0.2-0.4-0.5-0.5-0.7s-0.2-0.6-0.2-0.9
		c0-0.3,0.1-0.6,0.2-0.9s0.3-0.5,0.5-0.7c0.2-0.2,0.5-0.4,0.8-0.5c0.3-0.1,0.6-0.2,0.9-0.2c0.3,0,0.6,0.1,0.9,0.2s0.5,0.3,0.8,0.5
		s0.4,0.5,0.5,0.7c0.1,0.3,0.2,0.6,0.2,0.9c0,0.3-0.1,0.6-0.2,0.9c-0.1,0.3-0.3,0.5-0.5,0.7s-0.5,0.4-0.8,0.5
		C848.5,46.1,848.2,46.1,847.9,46.1z M845.9,52.6l4.5-5.4l4.4-5.6l0.6,0.5l-4.5,5.4l-4.4,5.6L845.9,52.6z M847.9,45.5
		c0.2,0,0.4,0,0.6-0.1c0.2-0.1,0.4-0.2,0.5-0.4c0.1-0.2,0.3-0.3,0.3-0.5c0.1-0.2,0.1-0.4,0.1-0.6c0-0.2,0-0.5-0.1-0.7
		c-0.1-0.2-0.2-0.4-0.3-0.5c-0.1-0.1-0.3-0.3-0.5-0.4c-0.2-0.1-0.4-0.1-0.6-0.1c-0.2,0-0.4,0-0.6,0.1c-0.2,0.1-0.4,0.2-0.5,0.4
		c-0.1,0.2-0.3,0.3-0.3,0.5c-0.1,0.2-0.1,0.4-0.1,0.6c0,0.2,0,0.4,0.1,0.6c0.1,0.2,0.2,0.4,0.3,0.5c0.1,0.2,0.3,0.3,0.5,0.4
		C847.5,45.5,847.7,45.5,847.9,45.5z M853.2,53.2c-0.3,0-0.6-0.1-0.9-0.2s-0.5-0.3-0.8-0.5s-0.4-0.5-0.5-0.7
		c-0.1-0.3-0.2-0.6-0.2-0.9c0-0.3,0.1-0.6,0.2-0.9c0.1-0.3,0.3-0.5,0.5-0.7s0.5-0.4,0.8-0.5s0.6-0.2,0.9-0.2c0.3,0,0.6,0.1,0.9,0.2
		c0.3,0.1,0.5,0.3,0.8,0.5c0.2,0.2,0.4,0.5,0.5,0.7s0.2,0.6,0.2,0.9c0,0.3-0.1,0.6-0.2,0.9c-0.1,0.3-0.3,0.5-0.5,0.7
		c-0.2,0.2-0.5,0.4-0.8,0.5C853.9,53.2,853.6,53.2,853.2,53.2z M853.2,52.6c0.2,0,0.4,0,0.6-0.1c0.2-0.1,0.4-0.2,0.5-0.4
		s0.3-0.3,0.3-0.5c0.1-0.2,0.1-0.4,0.1-0.6c0-0.2,0-0.4-0.1-0.6c-0.1-0.2-0.2-0.4-0.3-0.5c-0.1-0.2-0.3-0.3-0.5-0.4
		c-0.2-0.1-0.4-0.1-0.6-0.1c-0.2,0-0.4,0-0.6,0.1c-0.2,0.1-0.4,0.2-0.5,0.4c-0.1,0.2-0.3,0.3-0.3,0.5c-0.1,0.2-0.1,0.4-0.1,0.6
		c0,0.2,0,0.5,0.1,0.7c0.1,0.2,0.2,0.4,0.3,0.5c0.1,0.1,0.3,0.3,0.5,0.4C852.8,52.6,853,52.6,853.2,52.6z"/>
</g>
<g class="st1">
	<path class="st2" d="M905,15.1v8h-1.8V11.7h1.4l6.5,8.2v-8.2h1.8v11.3h-1.5L905,15.1z"/>
	<path class="st2" d="M918.9,23.2c-0.7,0-1.3-0.1-1.8-0.4c-0.5-0.2-1-0.5-1.4-0.9s-0.7-0.9-0.9-1.4c-0.2-0.5-0.3-1.1-0.3-1.7
		s0.1-1.1,0.3-1.7c0.2-0.5,0.5-1,0.9-1.4s0.8-0.7,1.4-0.9c0.5-0.2,1.1-0.4,1.8-0.4s1.2,0.1,1.8,0.4c0.5,0.2,1,0.5,1.4,0.9
		c0.4,0.4,0.7,0.9,0.9,1.4c0.2,0.5,0.3,1.1,0.3,1.7s-0.1,1.1-0.3,1.7c-0.2,0.5-0.5,1-0.9,1.4c-0.4,0.4-0.8,0.7-1.4,0.9
		C920.1,23.1,919.5,23.2,918.9,23.2z M916.4,18.9c0,0.4,0.1,0.8,0.2,1.1c0.1,0.3,0.3,0.6,0.5,0.9c0.2,0.3,0.5,0.4,0.8,0.6
		c0.3,0.1,0.6,0.2,1,0.2c0.4,0,0.7-0.1,1-0.2c0.3-0.1,0.6-0.3,0.8-0.6s0.4-0.6,0.5-0.9c0.1-0.3,0.2-0.7,0.2-1.1
		c0-0.4-0.1-0.8-0.2-1.1s-0.3-0.6-0.5-0.9c-0.2-0.3-0.5-0.5-0.8-0.6s-0.6-0.2-1-0.2c-0.3,0-0.7,0.1-1,0.2s-0.6,0.4-0.8,0.6
		s-0.4,0.6-0.5,0.9C916.5,18.1,916.4,18.5,916.4,18.9z"/>
	<path class="st2" d="M926.8,23.1l-3.2-8.4h1.8l2.4,6.9l2.4-6.9h1.7l-3.2,8.4H926.8z"/>
</g>
<g class="st1">
	<path class="st3" d="M905.9,49.3c0,0.5-0.1,1.1-0.3,1.5s-0.5,0.9-0.9,1.2c-0.4,0.4-0.8,0.6-1.3,0.8c-0.5,0.2-1,0.3-1.6,0.3
		c-0.6,0-1.1-0.1-1.6-0.3c-0.5-0.2-0.9-0.5-1.3-0.9c-0.4-0.4-0.6-0.9-0.8-1.5c-0.2-0.6-0.3-1.3-0.3-2c0-1.2,0.1-2.2,0.3-3
		c0.2-0.9,0.5-1.6,0.9-2.1c0.4-0.6,0.8-1,1.3-1.3c0.5-0.3,1.1-0.4,1.7-0.4c0.8,0,1.4,0.2,2,0.6c0.6,0.4,1,0.9,1.4,1.6l-0.7,0.6
		c-0.2-0.5-0.6-1-1.1-1.3c-0.5-0.3-1-0.5-1.6-0.5c-0.5,0-0.9,0.1-1.3,0.3c-0.4,0.2-0.7,0.5-1,1c-0.3,0.4-0.5,0.9-0.6,1.6
		c-0.2,0.6-0.2,1.3-0.2,2.1c0.2-0.6,0.6-1.1,1.2-1.5c0.6-0.4,1.2-0.6,1.9-0.6c0.5,0,1.1,0.1,1.5,0.3s0.9,0.5,1.2,0.8
		c0.4,0.3,0.6,0.8,0.8,1.2C905.8,48.3,905.9,48.8,905.9,49.3z M901.9,52.3c0.4,0,0.8-0.1,1.1-0.2c0.4-0.2,0.7-0.4,0.9-0.6
		s0.5-0.6,0.6-0.9s0.2-0.7,0.2-1.1s-0.1-0.8-0.2-1.1c-0.2-0.4-0.4-0.7-0.6-0.9c-0.3-0.3-0.6-0.5-0.9-0.6c-0.4-0.2-0.7-0.2-1.1-0.2
		s-0.8,0.1-1.1,0.2c-0.4,0.2-0.7,0.4-0.9,0.6s-0.5,0.6-0.6,0.9c-0.2,0.4-0.2,0.7-0.2,1.1s0.1,0.8,0.2,1.1c0.2,0.4,0.4,0.7,0.6,0.9
		c0.3,0.3,0.6,0.5,0.9,0.6C901.2,52.2,901.5,52.3,901.9,52.3z"/>
	<path class="st3" d="M907.7,53.1v-1.6h0.9v1.6H907.7z"/>
	<path class="st3" d="M918.4,49.9c0,0.5-0.1,1-0.3,1.4c-0.2,0.4-0.5,0.7-0.9,1c-0.4,0.3-0.8,0.5-1.3,0.7c-0.5,0.2-1,0.2-1.5,0.2
		c-0.6,0-1.1-0.1-1.6-0.3c-0.5-0.2-0.9-0.4-1.2-0.7c-0.3-0.3-0.6-0.7-0.8-1.1s-0.3-0.8-0.3-1.3c0-0.4,0.1-0.7,0.2-1s0.3-0.6,0.5-0.8
		c0.2-0.2,0.5-0.4,0.7-0.6s0.5-0.3,0.8-0.4c-0.3-0.1-0.5-0.2-0.7-0.4c-0.2-0.2-0.4-0.3-0.6-0.5c-0.2-0.2-0.3-0.4-0.4-0.7
		s-0.2-0.5-0.2-0.8c0-0.5,0.1-0.9,0.3-1.2c0.2-0.4,0.5-0.7,0.8-0.9c0.3-0.2,0.7-0.4,1.1-0.6c0.4-0.1,0.8-0.2,1.3-0.2
		s0.9,0.1,1.3,0.2c0.4,0.1,0.8,0.3,1.1,0.6s0.6,0.5,0.8,0.9c0.2,0.4,0.3,0.8,0.3,1.2c0,0.3-0.1,0.5-0.2,0.8
		c-0.1,0.2-0.2,0.5-0.4,0.7s-0.4,0.4-0.6,0.5c-0.2,0.2-0.5,0.3-0.7,0.4c0.3,0.1,0.6,0.3,0.9,0.4s0.5,0.4,0.7,0.6
		c0.2,0.2,0.4,0.5,0.5,0.8S918.4,49.6,918.4,49.9z M917.3,49.8c0-0.4-0.1-0.7-0.3-1c-0.2-0.3-0.4-0.5-0.7-0.7
		c-0.3-0.2-0.6-0.4-0.9-0.5c-0.3-0.1-0.7-0.2-1-0.2c-0.4,0-0.7,0.1-1,0.2c-0.3,0.1-0.6,0.3-0.9,0.5c-0.3,0.2-0.5,0.5-0.6,0.8
		s-0.2,0.6-0.2,1c0,0.4,0.1,0.7,0.3,1c0.2,0.3,0.4,0.5,0.7,0.7c0.3,0.2,0.6,0.4,0.9,0.5s0.7,0.2,1,0.2s0.7-0.1,1-0.2
		c0.3-0.1,0.6-0.3,0.9-0.5c0.3-0.2,0.5-0.5,0.6-0.8C917.2,50.5,917.3,50.2,917.3,49.8z M912,44.7c0,0.3,0.1,0.6,0.2,0.8
		s0.3,0.4,0.6,0.6c0.2,0.2,0.5,0.3,0.8,0.4c0.3,0.1,0.6,0.1,0.9,0.1c0.3,0,0.6,0,0.9-0.1c0.3-0.1,0.6-0.2,0.8-0.4
		c0.2-0.2,0.4-0.4,0.6-0.6c0.1-0.2,0.2-0.5,0.2-0.8c0-0.3-0.1-0.6-0.2-0.8s-0.3-0.4-0.6-0.6c-0.2-0.2-0.5-0.3-0.8-0.4
		c-0.3-0.1-0.6-0.1-0.9-0.1c-0.3,0-0.6,0-0.9,0.1c-0.3,0.1-0.6,0.2-0.8,0.4c-0.2,0.2-0.4,0.4-0.5,0.6C912,44.1,912,44.4,912,44.7z"
		/>
	<path class="st3" d="M925.7,52.1v1h-5.4v-1h2.3v-6.8c-0.1,0.1-0.2,0.3-0.4,0.4s-0.4,0.3-0.7,0.4c-0.2,0.1-0.5,0.2-0.8,0.3
		c-0.3,0.1-0.5,0.1-0.7,0.1v-1.1c0.2,0,0.5-0.1,0.8-0.2c0.3-0.1,0.6-0.3,0.8-0.5s0.5-0.4,0.7-0.5c0.2-0.2,0.3-0.3,0.3-0.3h1.1v8.1
		H925.7z"/>
	<path class="st3" d="M929.1,46.1c-0.3,0-0.6-0.1-0.9-0.2c-0.3-0.1-0.5-0.3-0.8-0.5s-0.4-0.5-0.5-0.7s-0.2-0.6-0.2-0.9
		c0-0.3,0.1-0.6,0.2-0.9s0.3-0.5,0.5-0.7s0.5-0.4,0.8-0.5c0.3-0.1,0.6-0.2,0.9-0.2s0.6,0.1,0.9,0.2s0.5,0.3,0.8,0.5
		c0.2,0.2,0.4,0.5,0.5,0.7c0.1,0.3,0.2,0.6,0.2,0.9c0,0.3-0.1,0.6-0.2,0.9c-0.1,0.3-0.3,0.5-0.5,0.7c-0.2,0.2-0.5,0.4-0.8,0.5
		C929.7,46.1,929.4,46.1,929.1,46.1z M927.1,52.6l4.5-5.4l4.4-5.6l0.6,0.5l-4.5,5.4l-4.4,5.6L927.1,52.6z M929.1,45.5
		c0.2,0,0.4,0,0.6-0.1c0.2-0.1,0.4-0.2,0.5-0.4c0.1-0.2,0.3-0.3,0.3-0.5s0.1-0.4,0.1-0.6c0-0.2,0-0.5-0.1-0.7
		c-0.1-0.2-0.2-0.4-0.3-0.5c-0.1-0.1-0.3-0.3-0.5-0.4c-0.2-0.1-0.4-0.1-0.6-0.1c-0.2,0-0.4,0-0.6,0.1s-0.4,0.2-0.5,0.4
		s-0.3,0.3-0.3,0.5s-0.1,0.4-0.1,0.6c0,0.2,0,0.4,0.1,0.6c0.1,0.2,0.2,0.4,0.3,0.5c0.1,0.2,0.3,0.3,0.5,0.4
		C928.6,45.5,928.8,45.5,929.1,45.5z M934.4,53.2c-0.3,0-0.6-0.1-0.9-0.2c-0.3-0.1-0.5-0.3-0.8-0.5s-0.4-0.5-0.5-0.7
		c-0.1-0.3-0.2-0.6-0.2-0.9c0-0.3,0.1-0.6,0.2-0.9c0.1-0.3,0.3-0.5,0.5-0.7s0.5-0.4,0.8-0.5c0.3-0.1,0.6-0.2,0.9-0.2
		c0.3,0,0.6,0.1,0.9,0.2s0.5,0.3,0.8,0.5s0.4,0.5,0.5,0.7c0.1,0.3,0.2,0.6,0.2,0.9c0,0.3-0.1,0.6-0.2,0.9c-0.1,0.3-0.3,0.5-0.5,0.7
		s-0.5,0.4-0.8,0.5S934.7,53.2,934.4,53.2z M934.4,52.6c0.2,0,0.4,0,0.6-0.1c0.2-0.1,0.4-0.2,0.5-0.4c0.1-0.1,0.3-0.3,0.3-0.5
		c0.1-0.2,0.1-0.4,0.1-0.6c0-0.2,0-0.4-0.1-0.6c-0.1-0.2-0.2-0.4-0.3-0.5c-0.1-0.2-0.3-0.3-0.5-0.4c-0.2-0.1-0.4-0.1-0.6-0.1
		c-0.2,0-0.4,0-0.6,0.1s-0.4,0.2-0.5,0.4c-0.1,0.2-0.3,0.3-0.3,0.5c-0.1,0.2-0.1,0.4-0.1,0.6c0,0.2,0,0.5,0.1,0.7
		c0.1,0.2,0.2,0.4,0.3,0.5c0.1,0.1,0.3,0.3,0.5,0.4C934,52.6,934.2,52.6,934.4,52.6z"/>
</g>
<g class="st1">
	<path class="st2" d="M984.7,22.8V11.4h4c0.9,0,1.7,0.1,2.4,0.4c0.7,0.3,1.3,0.7,1.7,1.2c0.5,0.5,0.8,1.1,1,1.8
		c0.2,0.7,0.4,1.4,0.4,2.2c0,0.9-0.1,1.6-0.4,2.3c-0.3,0.7-0.6,1.3-1.1,1.8c-0.5,0.5-1.1,0.9-1.7,1.2c-0.7,0.3-1.4,0.4-2.3,0.4
		H984.7z M992.4,17.1c0-0.6-0.1-1.1-0.2-1.6c-0.2-0.5-0.4-0.9-0.7-1.3s-0.7-0.6-1.2-0.8c-0.5-0.2-1-0.3-1.6-0.3h-2.2v8.2h2.2
		c0.6,0,1.1-0.1,1.6-0.3c0.5-0.2,0.9-0.5,1.2-0.9c0.3-0.4,0.6-0.8,0.7-1.3C992.3,18.2,992.4,17.7,992.4,17.1z"/>
	<path class="st2" d="M999.7,22.9c-0.7,0-1.2-0.1-1.8-0.3c-0.5-0.2-1-0.5-1.4-0.9c-0.4-0.4-0.7-0.9-0.9-1.4s-0.3-1.1-0.3-1.7
		c0-0.6,0.1-1.1,0.3-1.7s0.5-1,0.9-1.4c0.4-0.4,0.8-0.7,1.4-0.9c0.5-0.2,1.1-0.3,1.8-0.3c0.7,0,1.2,0.1,1.8,0.4
		c0.5,0.2,1,0.5,1.4,0.9c0.4,0.4,0.7,0.8,0.9,1.4c0.2,0.5,0.3,1.1,0.3,1.6c0,0.1,0,0.2,0,0.4c0,0.1,0,0.2,0,0.3h-6.7
		c0,0.4,0.1,0.7,0.3,1c0.1,0.3,0.3,0.6,0.6,0.8c0.2,0.2,0.5,0.4,0.8,0.5c0.3,0.1,0.6,0.2,0.9,0.2c0.2,0,0.5,0,0.7-0.1
		s0.4-0.1,0.6-0.3c0.2-0.1,0.4-0.2,0.5-0.4s0.3-0.3,0.4-0.5l1.5,0.4c-0.3,0.6-0.8,1.1-1.4,1.5C1001.4,22.7,1000.6,22.9,999.7,22.9z
		 M1002.2,18c0-0.4-0.1-0.7-0.3-1c-0.1-0.3-0.3-0.6-0.6-0.8c-0.2-0.2-0.5-0.4-0.8-0.5c-0.3-0.1-0.6-0.2-0.9-0.2s-0.6,0.1-0.9,0.2
		c-0.3,0.1-0.6,0.3-0.8,0.5s-0.4,0.5-0.5,0.8s-0.2,0.6-0.3,1H1002.2z"/>
	<path class="st2" d="M1004.9,18.6c0-0.6,0.1-1.1,0.3-1.7c0.2-0.5,0.5-1,0.9-1.4c0.4-0.4,0.8-0.7,1.4-0.9s1.1-0.3,1.8-0.3
		c0.9,0,1.6,0.2,2.2,0.6c0.6,0.4,1.1,0.9,1.4,1.5l-1.7,0.5c-0.2-0.4-0.5-0.6-0.8-0.8c-0.3-0.2-0.7-0.3-1.1-0.3c-0.4,0-0.7,0.1-1,0.2
		c-0.3,0.1-0.6,0.3-0.8,0.6c-0.2,0.3-0.4,0.5-0.5,0.9c-0.1,0.3-0.2,0.7-0.2,1.1c0,0.4,0.1,0.8,0.2,1.1c0.1,0.3,0.3,0.6,0.5,0.9
		s0.5,0.5,0.8,0.6c0.3,0.1,0.6,0.2,1,0.2c0.2,0,0.4,0,0.6-0.1c0.2-0.1,0.4-0.1,0.6-0.2s0.3-0.2,0.5-0.4c0.1-0.1,0.2-0.3,0.3-0.4
		l1.7,0.5c-0.3,0.6-0.7,1.1-1.4,1.5c-0.7,0.4-1.4,0.6-2.3,0.6c-0.7,0-1.2-0.1-1.8-0.4c-0.5-0.2-1-0.6-1.4-1
		c-0.4-0.4-0.7-0.9-0.9-1.4C1005,19.7,1004.9,19.2,1004.9,18.6z"/>
</g>
<g class="st1">
	<path class="st3" d="M984.8,54.8V52h-5.3v-1l5.7-7.4h0.7V51h1.4v1h-1.4v2.8H984.8z M980.6,51h4.3v-5.6L980.6,51z"/>
	<path class="st3" d="M988.9,52.8v-1.6h0.9v1.6H988.9z"/>
	<path class="st3" d="M997.4,51.8v1h-5.4v-1h2.3v-6.8c-0.1,0.1-0.2,0.3-0.4,0.4s-0.4,0.3-0.7,0.4c-0.3,0.1-0.5,0.2-0.8,0.3
		c-0.3,0.1-0.5,0.1-0.7,0.1v-1.1c0.2,0,0.5-0.1,0.8-0.2c0.3-0.1,0.6-0.3,0.8-0.5c0.3-0.2,0.5-0.4,0.7-0.5c0.2-0.2,0.3-0.3,0.3-0.3
		h1.1v8.1H997.4z"/>
	<path class="st3" d="M1003.2,49c0.7,0.1,1.3,0.4,1.7,1c0.4,0.5,0.6,1.2,0.6,1.9c0,0.5-0.1,0.9-0.3,1.3c-0.2,0.4-0.4,0.7-0.8,1
		c-0.3,0.3-0.7,0.5-1.2,0.7c-0.5,0.2-1,0.2-1.5,0.2c-0.8,0-1.5-0.2-2.1-0.5c-0.6-0.3-1.1-0.8-1.4-1.4l0.8-0.7c0.2,0.5,0.6,0.8,1,1.1
		c0.5,0.3,1,0.4,1.7,0.4c0.8,0,1.4-0.2,1.9-0.6c0.5-0.4,0.7-0.9,0.7-1.7c0-0.7-0.2-1.3-0.7-1.7s-1.2-0.6-2.1-0.6h-0.4v-0.9h0.4
		c0.8,0,1.5-0.2,1.9-0.6c0.4-0.4,0.7-0.9,0.7-1.5c0-0.3-0.1-0.6-0.2-0.8c-0.1-0.2-0.3-0.5-0.5-0.6s-0.5-0.3-0.7-0.4
		c-0.3-0.1-0.6-0.1-0.9-0.1c-0.6,0-1.1,0.1-1.6,0.4c-0.5,0.3-0.8,0.6-1,1.1l-0.7-0.7c0.1-0.3,0.3-0.5,0.5-0.8
		c0.2-0.2,0.5-0.4,0.8-0.6c0.3-0.2,0.6-0.3,1-0.4c0.4-0.1,0.7-0.1,1.1-0.1c0.5,0,0.9,0.1,1.4,0.2c0.4,0.1,0.8,0.3,1.1,0.6
		c0.3,0.3,0.5,0.6,0.7,0.9c0.2,0.4,0.2,0.7,0.2,1.2c0,0.3,0,0.6-0.1,0.9c-0.1,0.3-0.2,0.6-0.4,0.8c-0.2,0.2-0.4,0.4-0.7,0.6
		C1003.8,48.9,1003.5,49,1003.2,49z"/>
	<path class="st3" d="M1009.3,45.9c-0.3,0-0.6-0.1-0.9-0.2c-0.3-0.1-0.5-0.3-0.8-0.5c-0.2-0.2-0.4-0.5-0.5-0.7s-0.2-0.6-0.2-0.9
		c0-0.3,0.1-0.6,0.2-0.9s0.3-0.5,0.5-0.7c0.2-0.2,0.5-0.4,0.8-0.5c0.3-0.1,0.6-0.2,0.9-0.2c0.3,0,0.6,0.1,0.9,0.2s0.5,0.3,0.8,0.5
		s0.4,0.5,0.5,0.7c0.1,0.3,0.2,0.6,0.2,0.9c0,0.3-0.1,0.6-0.2,0.9c-0.1,0.3-0.3,0.5-0.5,0.7s-0.5,0.4-0.8,0.5
		C1009.9,45.8,1009.6,45.9,1009.3,45.9z M1007.3,52.4l4.5-5.4l4.4-5.6l0.6,0.5l-4.5,5.4l-4.4,5.6L1007.3,52.4z M1009.3,45.2
		c0.2,0,0.4,0,0.6-0.1c0.2-0.1,0.4-0.2,0.5-0.4c0.1-0.2,0.3-0.3,0.3-0.5c0.1-0.2,0.1-0.4,0.1-0.6c0-0.2,0-0.5-0.1-0.7
		c-0.1-0.2-0.2-0.4-0.3-0.5c-0.1-0.1-0.3-0.3-0.5-0.4c-0.2-0.1-0.4-0.1-0.6-0.1c-0.2,0-0.4,0-0.6,0.1c-0.2,0.1-0.4,0.2-0.5,0.4
		c-0.1,0.2-0.3,0.3-0.3,0.5c-0.1,0.2-0.1,0.4-0.1,0.6c0,0.2,0,0.4,0.1,0.6c0.1,0.2,0.2,0.4,0.3,0.5c0.1,0.2,0.3,0.3,0.5,0.4
		C1008.9,45.2,1009.1,45.2,1009.3,45.2z M1014.7,52.9c-0.3,0-0.6-0.1-0.9-0.2s-0.5-0.3-0.8-0.5s-0.4-0.5-0.5-0.7
		c-0.1-0.3-0.2-0.6-0.2-0.9c0-0.3,0.1-0.6,0.2-0.9c0.1-0.3,0.3-0.5,0.5-0.7s0.5-0.4,0.8-0.5s0.6-0.2,0.9-0.2c0.3,0,0.6,0.1,0.9,0.2
		c0.3,0.1,0.5,0.3,0.8,0.5c0.2,0.2,0.4,0.5,0.5,0.7s0.2,0.6,0.2,0.9c0,0.3-0.1,0.6-0.2,0.9c-0.1,0.3-0.3,0.5-0.5,0.7
		c-0.2,0.2-0.5,0.4-0.8,0.5C1015.3,52.9,1015,52.9,1014.7,52.9z M1014.7,52.3c0.2,0,0.4,0,0.6-0.1c0.2-0.1,0.4-0.2,0.5-0.4
		s0.3-0.3,0.3-0.5c0.1-0.2,0.1-0.4,0.1-0.6c0-0.2,0-0.4-0.1-0.6c-0.1-0.2-0.2-0.4-0.3-0.5c-0.1-0.2-0.3-0.3-0.5-0.4
		c-0.2-0.1-0.4-0.1-0.6-0.1c-0.2,0-0.4,0-0.6,0.1c-0.2,0.1-0.4,0.2-0.5,0.4c-0.1,0.2-0.3,0.3-0.3,0.5c-0.1,0.2-0.1,0.4-0.1,0.6
		c0,0.2,0,0.5,0.1,0.7c0.1,0.2,0.2,0.4,0.3,0.5c0.1,0.1,0.3,0.3,0.5,0.4C1014.2,52.3,1014.4,52.3,1014.7,52.3z"/>
</g>
<g>
	<g class="st1">
		<path class="st2" d="M1064.1,11.4l3.1,5.7l3.2-5.7h2l-4.2,7.3v4.1h-1.8v-4.1l-4.2-7.3H1064.1z"/>
		<path class="st2" d="M1075.9,22.9c-0.7,0-1.2-0.1-1.8-0.3c-0.5-0.2-1-0.5-1.4-0.9c-0.4-0.4-0.7-0.9-0.9-1.4s-0.3-1.1-0.3-1.7
			c0-0.6,0.1-1.1,0.3-1.7s0.5-1,0.9-1.4c0.4-0.4,0.8-0.7,1.4-0.9c0.5-0.2,1.1-0.3,1.8-0.3c0.7,0,1.2,0.1,1.8,0.4
			c0.5,0.2,1,0.5,1.4,0.9c0.4,0.4,0.7,0.8,0.9,1.4c0.2,0.5,0.3,1.1,0.3,1.6c0,0.1,0,0.2,0,0.4c0,0.1,0,0.2,0,0.3h-6.7
			c0,0.4,0.1,0.7,0.3,1c0.1,0.3,0.3,0.6,0.6,0.8c0.2,0.2,0.5,0.4,0.8,0.5c0.3,0.1,0.6,0.2,0.9,0.2c0.2,0,0.5,0,0.7-0.1
			s0.4-0.1,0.6-0.3c0.2-0.1,0.4-0.2,0.5-0.4s0.3-0.3,0.4-0.5l1.5,0.4c-0.3,0.6-0.8,1.1-1.4,1.5C1077.5,22.7,1076.8,22.9,1075.9,22.9
			z M1078.4,18c0-0.4-0.1-0.7-0.3-1c-0.1-0.3-0.3-0.6-0.6-0.8c-0.2-0.2-0.5-0.4-0.8-0.5c-0.3-0.1-0.6-0.2-0.9-0.2s-0.6,0.1-0.9,0.2
			c-0.3,0.1-0.6,0.3-0.8,0.5s-0.4,0.5-0.5,0.8s-0.2,0.6-0.3,1H1078.4z"/>
		<path class="st2" d="M1083.8,22.9c-0.4,0-0.8-0.1-1.1-0.2s-0.6-0.3-0.9-0.6c-0.3-0.2-0.4-0.5-0.6-0.8c-0.1-0.3-0.2-0.7-0.2-1
			c0-0.4,0.1-0.8,0.3-1.1c0.2-0.3,0.4-0.6,0.7-0.8c0.3-0.2,0.7-0.4,1.1-0.5s0.9-0.2,1.4-0.2c0.4,0,0.8,0,1.2,0.1
			c0.4,0.1,0.7,0.2,1,0.3v-0.6c0-0.6-0.2-1.1-0.5-1.4c-0.4-0.3-0.9-0.5-1.5-0.5c-0.4,0-0.9,0.1-1.3,0.2c-0.4,0.2-0.9,0.4-1.3,0.7
			l-0.5-1.1c1.1-0.7,2.2-1.1,3.4-1.1c1.2,0,2,0.3,2.7,0.9c0.6,0.6,1,1.4,1,2.5v3c0,0.4,0.2,0.6,0.5,0.6v1.5c-0.2,0-0.3,0.1-0.4,0.1
			c-0.1,0-0.2,0-0.4,0c-0.3,0-0.6-0.1-0.8-0.3c-0.2-0.2-0.3-0.4-0.3-0.7l0-0.5c-0.4,0.5-0.8,0.9-1.4,1.1
			C1085,22.8,1084.5,22.9,1083.8,22.9z M1084.3,21.7c0.4,0,0.8-0.1,1.2-0.2c0.4-0.2,0.7-0.4,0.9-0.6c0.2-0.2,0.3-0.4,0.3-0.6v-1.1
			c-0.3-0.1-0.6-0.2-1-0.3c-0.3-0.1-0.7-0.1-1-0.1c-0.6,0-1.1,0.1-1.5,0.4c-0.4,0.3-0.6,0.6-0.6,1.1c0,0.4,0.2,0.8,0.5,1
			C1083.4,21.5,1083.8,21.7,1084.3,21.7z"/>
		<path class="st2" d="M1095.3,15.9c-0.7,0-1.3,0.2-1.8,0.5c-0.5,0.3-0.9,0.7-1.1,1.3v5.1h-1.8v-8.4h1.6v1.9c0.3-0.6,0.7-1,1.1-1.4
			s1-0.5,1.5-0.6c0.1,0,0.2,0,0.3,0s0.1,0,0.2,0V15.9z"/>
	</g>
	<g class="st1">
		<path class="st3" d="M1061.1,54.8V52h-5.3v-1l5.7-7.4h0.7V51h1.4v1h-1.4v2.8H1061.1z M1056.9,51h4.3v-5.6L1056.9,51z"/>
		<path class="st3" d="M1069.8,54.8V52h-5.3v-1l5.7-7.4h0.7V51h1.4v1h-1.4v2.8H1069.8z M1065.7,51h4.3v-5.6L1065.7,51z"/>
		<path class="st3" d="M1073.9,52.8v-1.6h0.9v1.6H1073.9z"/>
		<path class="st3" d="M1082.4,51.8v1h-5.4v-1h2.3v-6.8c-0.1,0.1-0.2,0.3-0.4,0.4s-0.4,0.3-0.7,0.4c-0.3,0.1-0.5,0.2-0.8,0.3
			c-0.3,0.1-0.5,0.1-0.7,0.1v-1.1c0.2,0,0.5-0.1,0.8-0.2c0.3-0.1,0.6-0.3,0.8-0.5c0.3-0.2,0.5-0.4,0.7-0.5c0.2-0.2,0.3-0.3,0.3-0.3
			h1.1v8.1H1082.4z"/>
		<path class="st3" d="M1083.3,47.6c0-0.5,0.1-1.1,0.3-1.5s0.5-0.9,0.9-1.2s0.8-0.6,1.3-0.8c0.5-0.2,1-0.3,1.6-0.3
			c0.6,0,1.1,0.1,1.6,0.3c0.5,0.2,0.9,0.5,1.3,0.9s0.6,0.9,0.8,1.5c0.2,0.6,0.3,1.3,0.3,2c0,1.2-0.1,2.2-0.3,3
			c-0.2,0.9-0.5,1.6-0.9,2.1c-0.4,0.6-0.8,1-1.3,1.3s-1.1,0.4-1.7,0.4c-0.7,0-1.4-0.2-2-0.6c-0.6-0.4-1.1-0.9-1.4-1.6l0.7-0.6
			c0.2,0.5,0.6,1,1.1,1.3s1,0.5,1.6,0.5c0.5,0,0.9-0.1,1.3-0.3s0.7-0.5,1-1c0.3-0.4,0.5-0.9,0.6-1.6s0.2-1.3,0.2-2.1
			c-0.2,0.6-0.7,1.1-1.2,1.5c-0.6,0.4-1.2,0.6-1.9,0.6c-0.5,0-1.1-0.1-1.5-0.3c-0.5-0.2-0.9-0.5-1.2-0.8c-0.4-0.3-0.6-0.8-0.8-1.2
			C1083.4,48.6,1083.3,48.1,1083.3,47.6z M1087.3,44.6c-0.4,0-0.8,0.1-1.1,0.2c-0.4,0.2-0.7,0.4-0.9,0.6c-0.3,0.3-0.5,0.6-0.6,0.9
			s-0.2,0.7-0.2,1.1c0,0.4,0.1,0.8,0.2,1.1s0.4,0.7,0.6,0.9c0.3,0.3,0.6,0.5,0.9,0.6c0.4,0.2,0.7,0.2,1.1,0.2s0.8-0.1,1.2-0.2
			c0.4-0.2,0.7-0.4,0.9-0.6c0.3-0.3,0.5-0.6,0.6-0.9c0.2-0.4,0.2-0.7,0.2-1.1c0-0.4-0.1-0.8-0.2-1.1c-0.2-0.4-0.4-0.7-0.6-0.9
			c-0.3-0.3-0.6-0.5-0.9-0.6C1088.1,44.7,1087.7,44.6,1087.3,44.6z"/>
		<path class="st3" d="M1095.2,45.9c-0.3,0-0.6-0.1-0.9-0.2c-0.3-0.1-0.5-0.3-0.8-0.5c-0.2-0.2-0.4-0.5-0.5-0.7s-0.2-0.6-0.2-0.9
			c0-0.3,0.1-0.6,0.2-0.9s0.3-0.5,0.5-0.7c0.2-0.2,0.5-0.4,0.8-0.5c0.3-0.1,0.6-0.2,0.9-0.2c0.3,0,0.6,0.1,0.9,0.2
			c0.3,0.1,0.5,0.3,0.8,0.5c0.2,0.2,0.4,0.5,0.5,0.7c0.1,0.3,0.2,0.6,0.2,0.9c0,0.3-0.1,0.6-0.2,0.9c-0.1,0.3-0.3,0.5-0.5,0.7
			c-0.2,0.2-0.5,0.4-0.8,0.5C1095.8,45.8,1095.5,45.9,1095.2,45.9z M1093.2,52.4l4.5-5.4l4.4-5.6l0.6,0.5l-4.5,5.4l-4.4,5.6
			L1093.2,52.4z M1095.2,45.2c0.2,0,0.4,0,0.6-0.1c0.2-0.1,0.4-0.2,0.5-0.4c0.1-0.2,0.3-0.3,0.3-0.5s0.1-0.4,0.1-0.6
			c0-0.2,0-0.5-0.1-0.7c-0.1-0.2-0.2-0.4-0.3-0.5c-0.1-0.1-0.3-0.3-0.5-0.4c-0.2-0.1-0.4-0.1-0.6-0.1c-0.2,0-0.4,0-0.6,0.1
			c-0.2,0.1-0.4,0.2-0.5,0.4c-0.1,0.2-0.3,0.3-0.3,0.5s-0.1,0.4-0.1,0.6c0,0.2,0,0.4,0.1,0.6c0.1,0.2,0.2,0.4,0.3,0.5
			c0.1,0.2,0.3,0.3,0.5,0.4C1094.7,45.2,1094.9,45.2,1095.2,45.2z M1100.5,52.9c-0.3,0-0.6-0.1-0.9-0.2c-0.3-0.1-0.5-0.3-0.8-0.5
			s-0.4-0.5-0.5-0.7c-0.1-0.3-0.2-0.6-0.2-0.9c0-0.3,0.1-0.6,0.2-0.9c0.1-0.3,0.3-0.5,0.5-0.7s0.5-0.4,0.8-0.5
			c0.3-0.1,0.6-0.2,0.9-0.2c0.3,0,0.6,0.1,0.9,0.2c0.3,0.1,0.5,0.3,0.8,0.5c0.2,0.2,0.4,0.5,0.5,0.7s0.2,0.6,0.2,0.9
			c0,0.3-0.1,0.6-0.2,0.9c-0.1,0.3-0.3,0.5-0.5,0.7c-0.2,0.2-0.5,0.4-0.8,0.5C1101.2,52.9,1100.8,52.9,1100.5,52.9z M1100.5,52.3
			c0.2,0,0.4,0,0.6-0.1c0.2-0.1,0.4-0.2,0.5-0.4c0.1-0.1,0.3-0.3,0.3-0.5c0.1-0.2,0.1-0.4,0.1-0.6c0-0.2,0-0.4-0.1-0.6
			c-0.1-0.2-0.2-0.4-0.3-0.5c-0.1-0.2-0.3-0.3-0.5-0.4c-0.2-0.1-0.4-0.1-0.6-0.1c-0.2,0-0.4,0-0.6,0.1c-0.2,0.1-0.4,0.2-0.5,0.4
			c-0.1,0.2-0.3,0.3-0.3,0.5c-0.1,0.2-0.1,0.4-0.1,0.6c0,0.2,0,0.5,0.1,0.7c0.1,0.2,0.2,0.4,0.3,0.5c0.1,0.1,0.3,0.3,0.5,0.4
			C1100.1,52.3,1100.3,52.3,1100.5,52.3z"/>
	</g>
	<g class="st1">
		<path class="st3" d="M1056.5,78.9v-1h4.7v1H1056.5z"/>
		<path class="st3" d="M1067,79c0.7,0.1,1.3,0.4,1.7,1c0.4,0.5,0.6,1.2,0.6,1.9c0,0.5-0.1,0.9-0.3,1.3c-0.2,0.4-0.4,0.7-0.8,1
			c-0.3,0.3-0.7,0.5-1.2,0.7c-0.5,0.2-1,0.2-1.5,0.2c-0.8,0-1.5-0.2-2.1-0.5c-0.6-0.3-1.1-0.8-1.4-1.4l0.8-0.7
			c0.2,0.5,0.6,0.8,1,1.1c0.5,0.3,1,0.4,1.7,0.4c0.8,0,1.4-0.2,1.9-0.6c0.5-0.4,0.7-0.9,0.7-1.7c0-0.7-0.2-1.3-0.7-1.7
			s-1.2-0.6-2.1-0.6h-0.4v-0.9h0.4c0.8,0,1.5-0.2,1.9-0.6c0.4-0.4,0.7-0.9,0.7-1.5c0-0.3-0.1-0.6-0.2-0.8c-0.1-0.2-0.3-0.5-0.5-0.6
			s-0.5-0.3-0.7-0.4c-0.3-0.1-0.6-0.1-0.9-0.1c-0.6,0-1.1,0.1-1.6,0.4c-0.5,0.3-0.8,0.6-1,1.1l-0.7-0.7c0.1-0.3,0.3-0.5,0.5-0.8
			c0.2-0.2,0.5-0.4,0.8-0.6c0.3-0.2,0.6-0.3,1-0.4c0.4-0.1,0.7-0.1,1.1-0.1c0.5,0,0.9,0.1,1.4,0.2c0.4,0.1,0.8,0.3,1.1,0.6
			c0.3,0.3,0.5,0.6,0.7,0.9c0.2,0.4,0.2,0.7,0.2,1.2c0,0.3,0,0.6-0.1,0.9c-0.1,0.3-0.2,0.6-0.4,0.8c-0.2,0.2-0.4,0.4-0.7,0.6
			C1067.6,78.9,1067.3,79,1067,79z"/>
		<path class="st3" d="M1071.1,82.8v-1.6h0.9v1.6H1071.1z"/>
		<path class="st3" d="M1078.7,84.8V82h-5.3v-1l5.7-7.4h0.7V81h1.4v1h-1.4v2.8H1078.7z M1074.6,81h4.3v-5.6L1074.6,81z"/>
		<path class="st3" d="M1090.5,79.6c0,0.5-0.1,1-0.3,1.4c-0.2,0.4-0.5,0.7-0.9,1c-0.4,0.3-0.8,0.5-1.3,0.7c-0.5,0.2-1,0.2-1.5,0.2
			c-0.6,0-1.1-0.1-1.6-0.3s-0.9-0.4-1.2-0.7c-0.3-0.3-0.6-0.7-0.8-1.1c-0.2-0.4-0.3-0.8-0.3-1.3c0-0.4,0.1-0.7,0.2-1
			c0.1-0.3,0.3-0.6,0.5-0.8c0.2-0.2,0.5-0.4,0.7-0.6c0.3-0.2,0.5-0.3,0.8-0.4c-0.3-0.1-0.5-0.2-0.7-0.4c-0.2-0.2-0.4-0.3-0.6-0.5
			c-0.2-0.2-0.3-0.4-0.4-0.7s-0.2-0.5-0.2-0.8c0-0.5,0.1-0.9,0.3-1.2c0.2-0.4,0.5-0.7,0.8-0.9c0.3-0.2,0.7-0.4,1.1-0.6
			c0.4-0.1,0.8-0.2,1.3-0.2s0.9,0.1,1.3,0.2c0.4,0.1,0.8,0.3,1.1,0.6s0.6,0.5,0.8,0.9c0.2,0.4,0.3,0.8,0.3,1.2
			c0,0.3-0.1,0.5-0.2,0.8c-0.1,0.2-0.2,0.5-0.4,0.7c-0.2,0.2-0.4,0.4-0.6,0.5c-0.2,0.2-0.5,0.3-0.7,0.4c0.3,0.1,0.6,0.3,0.9,0.4
			s0.5,0.4,0.7,0.6c0.2,0.2,0.4,0.5,0.5,0.8C1090.4,78.9,1090.5,79.3,1090.5,79.6z M1089.4,79.6c0-0.4-0.1-0.7-0.3-1
			c-0.2-0.3-0.4-0.5-0.7-0.7c-0.3-0.2-0.6-0.4-0.9-0.5c-0.3-0.1-0.7-0.2-1-0.2c-0.4,0-0.7,0.1-1,0.2c-0.3,0.1-0.6,0.3-0.9,0.5
			s-0.5,0.5-0.6,0.8c-0.2,0.3-0.2,0.6-0.2,1c0,0.4,0.1,0.7,0.3,1s0.4,0.5,0.7,0.7c0.3,0.2,0.6,0.4,0.9,0.5s0.7,0.2,1,0.2
			s0.7-0.1,1-0.2c0.3-0.1,0.6-0.3,0.9-0.5s0.5-0.5,0.6-0.8C1089.3,80.2,1089.4,79.9,1089.4,79.6z M1084.1,74.4
			c0,0.3,0.1,0.6,0.2,0.8s0.3,0.4,0.6,0.6c0.2,0.2,0.5,0.3,0.8,0.4c0.3,0.1,0.6,0.1,0.9,0.1c0.3,0,0.6,0,0.9-0.1
			c0.3-0.1,0.6-0.2,0.8-0.4c0.2-0.2,0.4-0.4,0.6-0.6c0.1-0.2,0.2-0.5,0.2-0.8c0-0.3-0.1-0.6-0.2-0.8c-0.1-0.2-0.3-0.4-0.6-0.6
			c-0.2-0.2-0.5-0.3-0.8-0.4c-0.3-0.1-0.6-0.1-0.9-0.1c-0.3,0-0.6,0-0.9,0.1c-0.3,0.1-0.6,0.2-0.8,0.4c-0.2,0.2-0.4,0.4-0.5,0.6
			C1084.1,73.8,1084.1,74.1,1084.1,74.4z"/>
		<path class="st3" d="M1094.3,75.9c-0.3,0-0.6-0.1-0.9-0.2c-0.3-0.1-0.5-0.3-0.8-0.5c-0.2-0.2-0.4-0.5-0.5-0.7s-0.2-0.6-0.2-0.9
			c0-0.3,0.1-0.6,0.2-0.9s0.3-0.5,0.5-0.7c0.2-0.2,0.5-0.4,0.8-0.5c0.3-0.1,0.6-0.2,0.9-0.2c0.3,0,0.6,0.1,0.9,0.2s0.5,0.3,0.8,0.5
			s0.4,0.5,0.5,0.7c0.1,0.3,0.2,0.6,0.2,0.9c0,0.3-0.1,0.6-0.2,0.9c-0.1,0.3-0.3,0.5-0.5,0.7s-0.5,0.4-0.8,0.5
			C1095,75.8,1094.6,75.9,1094.3,75.9z M1092.3,82.4l4.5-5.4l4.4-5.6l0.6,0.5l-4.5,5.4l-4.4,5.6L1092.3,82.4z M1094.3,75.2
			c0.2,0,0.4,0,0.6-0.1c0.2-0.1,0.4-0.2,0.5-0.4c0.1-0.2,0.3-0.3,0.3-0.5c0.1-0.2,0.1-0.4,0.1-0.6c0-0.2,0-0.5-0.1-0.7
			c-0.1-0.2-0.2-0.4-0.3-0.5c-0.1-0.1-0.3-0.3-0.5-0.4c-0.2-0.1-0.4-0.1-0.6-0.1c-0.2,0-0.4,0-0.6,0.1c-0.2,0.1-0.4,0.2-0.5,0.4
			c-0.1,0.2-0.3,0.3-0.3,0.5c-0.1,0.2-0.1,0.4-0.1,0.6c0,0.2,0,0.4,0.1,0.6c0.1,0.2,0.2,0.4,0.3,0.5c0.1,0.2,0.3,0.3,0.5,0.4
			C1093.9,75.2,1094.1,75.2,1094.3,75.2z M1099.7,82.9c-0.3,0-0.6-0.1-0.9-0.2s-0.5-0.3-0.8-0.5s-0.4-0.5-0.5-0.7
			c-0.1-0.3-0.2-0.6-0.2-0.9c0-0.3,0.1-0.6,0.2-0.9c0.1-0.3,0.3-0.5,0.5-0.7s0.5-0.4,0.8-0.5s0.6-0.2,0.9-0.2c0.3,0,0.6,0.1,0.9,0.2
			c0.3,0.1,0.5,0.3,0.8,0.5c0.2,0.2,0.4,0.5,0.5,0.7s0.2,0.6,0.2,0.9c0,0.3-0.1,0.6-0.2,0.9c-0.1,0.3-0.3,0.5-0.5,0.7
			c-0.2,0.2-0.5,0.4-0.8,0.5C1100.3,82.9,1100,82.9,1099.7,82.9z M1099.7,82.3c0.2,0,0.4,0,0.6-0.1c0.2-0.1,0.4-0.2,0.5-0.4
			s0.3-0.3,0.3-0.5c0.1-0.2,0.1-0.4,0.1-0.6c0-0.2,0-0.4-0.1-0.6c-0.1-0.2-0.2-0.4-0.3-0.5c-0.1-0.2-0.3-0.3-0.5-0.4
			c-0.2-0.1-0.4-0.1-0.6-0.1c-0.2,0-0.4,0-0.6,0.1c-0.2,0.1-0.4,0.2-0.5,0.4c-0.1,0.2-0.3,0.3-0.3,0.5c-0.1,0.2-0.1,0.4-0.1,0.6
			c0,0.2,0,0.5,0.1,0.7c0.1,0.2,0.2,0.4,0.3,0.5c0.1,0.1,0.3,0.3,0.5,0.4C1099.3,82.3,1099.5,82.3,1099.7,82.3z"/>
	</g>
</g>
<rect x="64.4" y="32.8" class="st4" width="1055" height="60"/>
<line class="st4" x1="1119.5" y1="62.8" x2="64.4" y2="62.8"/>
<line class="st4" x1="1039.4" y1="32.8" x2="1039.4" y2="92.8"/>
<line class="st4" x1="958.3" y1="32.8" x2="958.3" y2="92.8"/>
<line class="st4" x1="877.1" y1="32.8" x2="877.1" y2="92.8"/>
<line class="st4" x1="795.9" y1="32.8" x2="795.9" y2="92.8"/>
<line class="st4" x1="714.8" y1="32.8" x2="714.8" y2="92.8"/>
<line class="st4" x1="633.6" y1="32.8" x2="633.6" y2="92.8"/>
<line class="st4" x1="552.5" y1="32.8" x2="552.5" y2="92.8"/>
<line class="st4" x1="471.3" y1="32.8" x2="471.3" y2="92.8"/>
<line class="st4" x1="390.2" y1="32.8" x2="390.2" y2="92.8"/>
<line class="st4" x1="309" y1="32.8" x2="309" y2="92.8"/>
<line class="st4" x1="227.8" y1="32.8" x2="227.8" y2="92.8"/>
<line class="st4" x1="146.7" y1="32.8" x2="146.7" y2="92.8"/>
</svg>
