<?xml version="1.0" encoding="utf-8"?>
<!-- Generator: Adobe Illustrator 27.2.0, SVG Export Plug-In . SVG Version: 6.00 Build 0)  -->
<svg version="1.1" id="Layer_1" xmlns="http://www.w3.org/2000/svg" xmlns:xlink="http://www.w3.org/1999/xlink" x="0px" y="0px"
	 viewBox="0 0 50 52" style="enable-background:new 0 0 50 52;" xml:space="preserve">
<style type="text/css">
	.st0{fill:#214166;}
</style>
<path class="st0" d="M49.5,1.9c-1.3,0.8-2.5,1.7-3.6,2.8c-1.1,1.1-2.1,2.5-3.1,4.3c-1,1.8-1.9,4.1-2.8,6.8c-0.9,2.7-1.8,6-2.7,10
	c0.5,2.9,0.9,5.4,1.2,7.5c0.4,2.1,0.7,3.8,1,5.2c0.3,1.4,0.6,2.5,0.9,3.3c0.3,0.8,0.6,1.4,0.9,1.8c0.3,0.4,0.6,0.7,0.8,0.8
	c0.3,0.1,0.6,0.2,0.8,0.2c0.6,0,1.4-0.1,2.5-0.3c1.1-0.2,2.3-0.6,3.5-1.1c0.1,0.3,0.2,0.6,0.3,1c0.1,0.3,0.2,0.8,0.4,1.4
	c-2.4,2.1-4.6,3.7-6.7,4.8c-2,1.1-3.8,1.7-5.2,1.7c-0.7,0-1.4-0.3-1.9-0.8c-0.5-0.5-1-1.4-1.4-2.6c-0.4-1.2-0.8-2.8-1.2-4.7
	c-0.3-2-0.7-4.3-1-7.2c-2.7,5.2-5.4,9-8.4,11.5c-2.9,2.5-5.6,3.7-8,3.7c-2.1,0-4.1-0.5-6-1.5c-1.9-1-3.6-2.5-5-4.4
	c-1.5-1.9-2.6-4.4-3.5-7.3c-0.9-2.9-1.3-6.3-1.3-10.1c0-3.8,0.5-7.4,1.6-10.9c1.1-3.5,2.5-6.5,4.4-9.2c1.9-2.6,4.1-4.7,6.6-6.3
	C15.4,0.8,18.2,0,21.2,0c3.2,0,6.1,1.5,8.6,4.3c2.6,2.9,4.5,7.2,5.8,13l0.1-0.5c0.6-2.5,1.1-5.1,1.5-7.7c0.4-2.6,0.5-4.9,0.4-6.9
	c0.8-0.1,1.6-0.3,2.5-0.5C41.1,1.7,42,1.5,43,1.3c1-0.2,1.9-0.4,2.9-0.6c0.9-0.2,1.8-0.4,2.7-0.7c0.3,0.4,0.5,0.7,0.6,1
	C49.2,1.4,49.4,1.7,49.5,1.9z M17.9,44.2c1.4,0,2.7-0.5,4-1.4c1.3-0.9,2.5-2.1,3.7-3.6c1.2-1.5,2.2-3.2,3.2-5c1-1.9,1.9-3.7,2.6-5.6
	c-0.9-7.9-2.6-13.7-4.8-17.4c-2.3-3.7-5-5.6-8.1-5.6c-1.3,0-2.6,0.4-3.9,1.2c-1.3,0.8-2.4,1.9-3.5,3.5c-1,1.6-1.8,3.5-2.5,5.9
	c-0.6,2.4-0.9,5.2-0.9,8.4c0,2.5,0.2,4.9,0.7,7.3c0.5,2.4,1.1,4.5,2,6.3c0.9,1.8,1.9,3.3,3.2,4.4C14.8,43.6,16.3,44.2,17.9,44.2z"/>
</svg>
