<?xml version="1.0" encoding="utf-8"?>
<!-- Generator: Adobe Illustrator 27.2.0, SVG Export Plug-In . SVG Version: 6.00 Build 0)  -->
<svg version="1.1" id="Layer_1" xmlns="http://www.w3.org/2000/svg" xmlns:xlink="http://www.w3.org/1999/xlink" x="0px" y="0px"
	 viewBox="0 0 50 76" style="enable-background:new 0 0 50 76;" xml:space="preserve">
<style type="text/css">
	.st0{fill:#214166;}
</style>
<path class="st0" d="M44.9,13.1c-1.8,4.1-3.6,8.2-5.4,12.4c-1.8,4.2-3.4,8.5-5,12.8c-1.6,4.3-3,8.5-4.2,12.6
	c0.1,1.3,0.1,2.9,0.2,4.9c0.1,2,0.1,4,0.2,6.1c0.1,2.1,0.1,4.2,0.1,6.2c0,2-0.1,3.7-0.1,5.1c-1.3,0.5-2.7,1-4.3,1.6
	c-1.6,0.6-2.9,1.1-4.1,1.5c-0.2-0.2-0.5-0.4-0.8-0.7c-0.3-0.2-0.7-0.5-1.2-0.9c0.5-2.3,0.9-4.7,1.2-7.2c0.4-2.5,0.7-4.9,1-7.1
	c0.3-2.2,0.5-4.1,0.6-5.7c0.1-1.6,0.2-2.6,0.2-3.1c-0.1-1.7-0.5-4-1-6.8c-0.6-2.8-1.4-5.8-2.3-9.1c-0.9-3.2-2-6.5-3.2-9.9
	c-1.2-3.3-2.4-6.4-3.7-9.2c-1.3-2.8-2.5-5.1-3.8-6.9C8,8,6.8,6.9,5.8,6.6C5.2,6.4,4.5,6.3,3.9,6.2C3.2,6.2,2.5,6.1,1.9,6.1
	c-0.6,0-1.3,0-2.1,0L-0.3,4c2-0.4,4.1-1,6.1-1.7c2-0.8,3.9-1.6,5.5-2.5c0.6,0,1.4,0.6,2.3,1.7c0.9,1.1,1.9,2.6,3,4.5
	c1.1,1.9,2.2,4.1,3.3,6.7c1.1,2.6,2.2,5.3,3.3,8.3c1.1,3,2.1,6,3,9.2c0.9,3.2,1.8,6.3,2.5,9.5c1.3-3.1,2.6-6.2,3.8-9.3
	c1.2-3,2.3-6.1,3.3-9.1c1-3,1.8-6.1,2.5-9.3c0.7-3.1,1.1-6.4,1.3-9.7c1.5-0.5,3-0.9,4.6-1.4c1.6-0.5,3.1-0.8,4.4-1.1l1.7,1.6
	C48.5,5.1,46.8,9,44.9,13.1z"/>
</svg>
