<?xml version="1.0" encoding="utf-8"?>
<!-- Generator: Adobe Illustrator 27.2.0, SVG Export Plug-In . SVG Version: 6.00 Build 0)  -->
<svg version="1.1" id="Layer_1" xmlns="http://www.w3.org/2000/svg" xmlns:xlink="http://www.w3.org/1999/xlink" x="0px" y="0px"
	 viewBox="0 0 168 22" style="enable-background:new 0 0 168 22;" xml:space="preserve">
<style type="text/css">
	.st0{opacity:0.6;fill:#FFFFFF;enable-background:new    ;}
	.st1{fill:#FFFFFF;}
</style>
<circle class="st0" cx="31.4" cy="11" r="10.1"/>
<circle class="st0" cx="11.2" cy="11" r="10.1"/>
<circle class="st0" cx="21.3" cy="11" r="10.1"/>
<path class="st0" d="M26.3,2.3c-3,1.7-5,5-5,8.8s2,7.1,5,8.8c3-1.7,5-5.2,5-8.8C31.4,7.3,29.4,4,26.3,2.3z"/>
<path class="st0" d="M16.3,2.3c-3,1.7-5,5-5,8.8s2,7.1,5,8.8c3-1.7,5-5.2,5-8.8C21.3,7.3,19.3,4,16.3,2.3z"/>
<g>
	<path class="st1" d="M58.6,14.1c0,1.9-1.5,3-4.4,3h-5.6V6h5.2c2.7,0,4.1,1.1,4.1,2.9c0,1.2-0.6,2-1.4,2.5
		C57.8,11.7,58.6,12.7,58.6,14.1z M50.8,7.6v3.1h2.9c1.4,0,2.3-0.5,2.3-1.5c0-1-0.8-1.6-2.3-1.6H50.8z M56.5,13.9
		c0-1.1-0.8-1.6-2.4-1.6h-3.4v3.2h3.4C55.7,15.5,56.5,15,56.5,13.9z"/>
	<path class="st1" d="M68.2,17.2l-2.3-3.3c-0.1,0-0.3,0-0.4,0h-2.5v3.3h-2.1V6h4.6c2.9,0,4.8,1.5,4.8,4c0,1.7-0.9,2.9-2.4,3.5
		l2.6,3.7H68.2z M65.4,7.7h-2.4v4.5h2.4c1.8,0,2.8-0.8,2.8-2.2C68.1,8.5,67.2,7.7,65.4,7.7z"/>
	<path class="st1" d="M79.8,14.6h-5.6l-1.1,2.6H71L76,6h2l5.1,11.2h-2.2L79.8,14.6z M79.1,12.9L77,8l-2.1,4.9H79.1z"/>
	<path class="st1" d="M94.5,6v11.2h-1.7l-6.2-7.6v7.6h-2.1V6h1.7l6.2,7.6V6H94.5z"/>
	<path class="st1" d="M97.5,6h4.9c3.6,0,6.1,2.2,6.1,5.6s-2.5,5.6-6.1,5.6h-4.9V6z M102.3,15.4c2.5,0,4.1-1.5,4.1-3.8
		c0-2.3-1.6-3.8-4.1-3.8h-2.7v7.7H102.3z"/>
	<path class="st1" d="M112.2,7v4.4h5.8v1h-5.8v4.8H111V6h7.7v1H112.2z"/>
	<path class="st1" d="M121.2,6h1.2v11.2h-1.2V6z"/>
	<path class="st1" d="M133.9,16.1v1H126V6h7.7v1h-6.5v4h5.8v1h-5.8v4.2H133.9z"/>
	<path class="st1" d="M136.7,6h1.2v10.2h6.3v1h-7.5V6z"/>
	<path class="st1" d="M146.1,6h4.6c3.6,0,6,2.3,6,5.6c0,3.3-2.4,5.6-6,5.6h-4.6V6z M150.6,16.1c3,0,4.9-1.9,4.9-4.6
		c0-2.7-1.9-4.6-4.9-4.6h-3.3v9.2H150.6z"/>
	<path class="st1" d="M158.3,15.8l0.5-0.9c0.8,0.8,2.2,1.4,3.7,1.4c2.1,0,3-0.9,3-2c0-3.1-6.9-1.2-6.9-5.3c0-1.6,1.3-3.1,4.1-3.1
		c1.3,0,2.6,0.4,3.5,1l-0.4,0.9c-1-0.6-2.1-0.9-3.1-0.9c-2,0-3,0.9-3,2c0,3.1,6.9,1.2,6.9,5.3c0,1.6-1.3,3.1-4.2,3.1
		C160.7,17.3,159.1,16.7,158.3,15.8z"/>
</g>
</svg>
