<?xml version="1.0" encoding="utf-8"?>
<!-- Generator: Adobe Illustrator 26.3.1, SVG Export Plug-In . SVG Version: 6.00 Build 0)  -->
<svg version="1.1" id="Layer_1" xmlns="http://www.w3.org/2000/svg" xmlns:xlink="http://www.w3.org/1999/xlink" x="0px" y="0px"
	 viewBox="0 0 196 58" style="enable-background:new 0 0 196 58;" xml:space="preserve">
<style type="text/css">
	.st0{fill:#FFFFFF;}
	.st1{fill:#CF000F;}
</style>
<g>
	<g>
		<g>
			<path class="st0" d="M11.66,8.21c1.55,0,2.87,0.17,3.97,0.51c1.09,0.34,1.98,0.8,2.67,1.37c0.69,0.57,1.19,1.25,1.51,2.04
				c0.32,0.79,0.48,1.62,0.48,2.48c0,1.22-0.3,2.29-0.9,3.2c-0.6,0.91-1.62,1.59-3.07,2.02c1.73,0.43,2.95,1.17,3.66,2.21
				c0.71,1.04,1.07,2.23,1.07,3.59c0,0.94-0.16,1.82-0.5,2.63c-0.33,0.81-0.85,1.52-1.54,2.12c-0.7,0.6-1.61,1.07-2.73,1.41
				c-1.12,0.34-2.47,0.51-4.04,0.51H1.63V8.21H11.66z M6.16,11.6v6.75h4.92c1.7,0,2.89-0.32,3.57-0.97
				c0.67-0.65,1.01-1.45,1.01-2.42c0-0.94-0.34-1.74-1.01-2.38c-0.67-0.65-1.86-0.97-3.57-0.97H6.16z M6.16,21.56v7.36h5.49
				c1.78,0,3.01-0.34,3.7-1.03c0.69-0.69,1.03-1.57,1.03-2.63c0-1.07-0.34-1.95-1.03-2.65c-0.69-0.7-1.92-1.05-3.7-1.05H6.16z"/>
			<path class="st0" d="M24.7,14.58c0.33-0.18,0.76-0.34,1.28-0.5c0.52-0.15,1.08-0.29,1.68-0.4c0.6-0.11,1.21-0.2,1.83-0.27
				c0.62-0.06,1.23-0.09,1.81-0.09c0.81,0,1.58,0.04,2.31,0.11c0.73,0.08,1.35,0.19,1.89,0.34l-0.61,3.28
				c-0.36-0.15-0.79-0.25-1.3-0.3c-0.51-0.05-0.97-0.08-1.37-0.08c-1.27,0-2.3,0.17-3.09,0.5v15.14H24.7V14.58z"/>
			<path class="st0" d="M53.95,31.59c-1.07,0.33-2.31,0.61-3.74,0.84c-1.42,0.23-2.93,0.34-4.54,0.34c-1.32,0-2.52-0.1-3.6-0.29
				c-1.08-0.19-2.01-0.5-2.78-0.93c-0.78-0.43-1.38-1.02-1.81-1.76c-0.43-0.74-0.65-1.64-0.65-2.71c0-2.14,0.72-3.64,2.17-4.5
				c1.45-0.86,3.57-1.29,6.37-1.29h4.16v-1.07c0-1.4-0.4-2.35-1.2-2.86c-0.8-0.51-1.86-0.76-3.18-0.76c-1.45,0-2.73,0.13-3.85,0.38
				c-1.12,0.26-2.07,0.52-2.86,0.8l-0.61-3.28c1.12-0.35,2.27-0.65,3.47-0.88c1.19-0.23,2.53-0.35,4-0.35c1.25,0,2.4,0.12,3.45,0.35
				c1.05,0.23,1.97,0.62,2.74,1.16c0.77,0.55,1.38,1.26,1.81,2.15c0.43,0.89,0.65,1.99,0.65,3.28V31.59z M49.52,23.77h-3.28
				c-1.4,0-2.56,0.22-3.49,0.67c-0.93,0.44-1.39,1.26-1.39,2.46c0,1.02,0.4,1.78,1.2,2.29c0.8,0.51,1.92,0.76,3.38,0.76
				c0.61,0,1.23-0.04,1.87-0.12c0.63-0.08,1.21-0.2,1.71-0.38V23.77z"/>
			<path class="st0" d="M57.84,14.77c0.46-0.2,1-0.39,1.64-0.57c0.63-0.18,1.33-0.34,2.1-0.48c0.76-0.14,1.58-0.25,2.44-0.32
				c0.86-0.08,1.74-0.12,2.63-0.12c1.19,0,2.34,0.12,3.45,0.37c1.1,0.24,2.08,0.65,2.92,1.24c0.84,0.58,1.51,1.37,2.02,2.36
				c0.51,0.99,0.76,2.22,0.76,3.7v11.36h-4.42V21.14c0-0.99-0.14-1.78-0.42-2.38c-0.28-0.6-0.64-1.06-1.09-1.37
				c-0.44-0.32-0.95-0.53-1.52-0.63c-0.57-0.1-1.15-0.15-1.74-0.15c-0.86,0-1.68,0.06-2.44,0.19c-0.76,0.13-1.4,0.33-1.91,0.61
				v14.91h-4.42V14.77z"/>
			<path class="st0" d="M97.19,31.59c-1.07,0.36-2.24,0.64-3.53,0.86c-1.28,0.22-2.58,0.33-3.87,0.33c-1.55,0-2.99-0.17-4.31-0.52
				c-1.32-0.34-2.46-0.9-3.41-1.68c-0.95-0.78-1.7-1.79-2.25-3.03C79.27,26.3,79,24.79,79,23.01c0-1.7,0.25-3.16,0.76-4.39
				c0.51-1.22,1.2-2.22,2.08-2.99c0.88-0.78,1.91-1.35,3.11-1.72c1.19-0.37,2.48-0.55,3.85-0.55c1.55,0,2.87,0.22,3.97,0.65V6.38
				h4.42V31.59z M83.54,23.16c0,1.25,0.18,2.28,0.53,3.09c0.36,0.81,0.82,1.46,1.39,1.95c0.57,0.48,1.23,0.82,1.96,1.01
				c0.74,0.19,1.49,0.29,2.25,0.29c0.41,0,0.9-0.04,1.47-0.11c0.57-0.08,1.11-0.22,1.62-0.42V17.33c-0.28-0.13-0.68-0.27-1.2-0.42
				c-0.52-0.15-1.16-0.23-1.93-0.23c-0.74,0-1.47,0.11-2.21,0.33c-0.74,0.22-1.39,0.57-1.96,1.07c-0.57,0.5-1.04,1.16-1.39,1.98
				C83.72,20.88,83.54,21.92,83.54,23.16z"/>
			<path class="st0" d="M107.99,13.78v-1.11c0-1.35,0.31-2.27,0.93-2.76c0.62-0.5,1.47-0.74,2.54-0.74c0.63,0,1.22,0.06,1.75,0.17
				c0.53,0.11,1.02,0.24,1.45,0.36l0.57-3.09c-0.66-0.21-1.39-0.38-2.19-0.53c-0.8-0.15-1.65-0.23-2.54-0.23
				c-1.02,0-1.95,0.12-2.8,0.36c-0.85,0.24-1.58,0.63-2.19,1.16c-0.61,0.53-1.09,1.24-1.43,2.12c-0.34,0.88-0.51,1.95-0.51,3.22
				v1.07l-3.47,0.01v3.31h3.47v15.22h4.42V17.1h9.6v15.22h4.43V13.78H107.99z"/>
			<path class="st0" d="M147.06,6.39h4.42v25.92h-4.42V6.39z"/>
			<path class="st0" d="M172.85,31.59c-1.07,0.36-2.25,0.64-3.53,0.86c-1.28,0.22-2.57,0.33-3.87,0.33c-1.55,0-2.99-0.17-4.31-0.52
				c-1.32-0.34-2.46-0.9-3.41-1.68c-0.96-0.78-1.71-1.79-2.25-3.03c-0.55-1.25-0.82-2.76-0.82-4.54c0-1.7,0.25-3.16,0.77-4.39
				c0.51-1.22,1.2-2.22,2.08-2.99c0.88-0.78,1.91-1.35,3.11-1.72c1.19-0.37,2.48-0.55,3.85-0.55c1.55,0,2.87,0.22,3.97,0.65V6.38
				h4.42V31.59z M159.2,23.16c0,1.25,0.18,2.28,0.53,3.09c0.36,0.81,0.82,1.46,1.39,1.95c0.57,0.48,1.23,0.82,1.96,1.01
				c0.74,0.19,1.49,0.29,2.25,0.29c0.41,0,0.9-0.04,1.47-0.11c0.57-0.08,1.11-0.22,1.62-0.42V17.33c-0.28-0.13-0.68-0.27-1.2-0.42
				c-0.52-0.15-1.16-0.23-1.93-0.23c-0.74,0-1.48,0.11-2.21,0.33c-0.74,0.22-1.39,0.57-1.96,1.07c-0.57,0.5-1.03,1.16-1.39,1.98
				C159.38,20.88,159.2,21.92,159.2,23.16z"/>
			<path class="st0" d="M176.78,28.12c0.81,0.38,1.73,0.68,2.75,0.9c1.02,0.22,2.12,0.32,3.32,0.32c0.58,0,1.14-0.04,1.68-0.11
				c0.53-0.08,1-0.21,1.41-0.4c0.41-0.19,0.74-0.43,0.97-0.72c0.24-0.29,0.36-0.65,0.36-1.09c0-0.61-0.27-1.07-0.8-1.39
				c-0.53-0.32-1.2-0.57-1.98-0.76c-0.79-0.19-1.65-0.38-2.59-0.57c-0.94-0.19-1.81-0.48-2.59-0.86c-0.79-0.38-1.45-0.92-1.98-1.6
				c-0.54-0.69-0.8-1.63-0.8-2.82c0-1.02,0.2-1.89,0.61-2.61c0.41-0.73,0.96-1.32,1.66-1.77c0.7-0.46,1.54-0.79,2.52-0.99
				c0.98-0.2,2.04-0.31,3.19-0.31c1.3,0,2.48,0.12,3.57,0.36c1.08,0.24,2.06,0.57,2.95,0.97l-0.65,3.32
				c-0.74-0.41-1.56-0.73-2.46-0.97c-0.91-0.24-1.93-0.36-3.07-0.36c-0.51,0-0.99,0.04-1.45,0.11c-0.46,0.08-0.86,0.2-1.22,0.38
				c-0.36,0.18-0.64,0.41-0.86,0.69c-0.22,0.28-0.32,0.63-0.32,1.03c0,0.61,0.27,1.07,0.8,1.37c0.53,0.3,1.2,0.55,2,0.74
				c0.8,0.19,1.66,0.37,2.59,0.55c0.93,0.18,1.79,0.46,2.59,0.86c0.8,0.4,1.47,0.94,2,1.64c0.53,0.7,0.8,1.66,0.8,2.88
				c0,1.14-0.24,2.09-0.72,2.82c-0.48,0.74-1.11,1.32-1.89,1.76c-0.78,0.43-1.67,0.74-2.69,0.91c-1.01,0.18-2.06,0.27-3.13,0.27
				c-1.45,0-2.78-0.12-4-0.36c-1.22-0.24-2.27-0.55-3.16-0.93L176.78,28.12z"/>
			<path class="st0" d="M143.04,18.22c-0.45-1.13-1.07-2.06-1.87-2.8c-0.8-0.74-1.76-1.28-2.88-1.62c-1.12-0.34-2.36-0.52-3.74-0.52
				c-1.35,0-2.59,0.17-3.74,0.52c-1.14,0.34-2.14,0.9-2.99,1.68c-0.85,0.78-1.52,1.78-2,3.01c-0.48,1.23-0.72,2.73-0.72,4.48
				c0,1.78,0.27,3.29,0.8,4.54c0.53,1.25,1.29,2.26,2.27,3.03c0.98,0.78,2.14,1.34,3.47,1.7c1.33,0.36,2.8,0.54,4.41,0.54
				c1.35,0,2.65-0.11,3.89-0.33c1.24-0.22,2.35-0.53,3.32-0.93l-0.88-3.17c-0.69,0.36-1.6,0.64-2.75,0.84
				c-1.14,0.2-2.31,0.31-3.51,0.31c-1.91,0-3.43-0.41-4.58-1.22c-1.14-0.81-1.72-2.16-1.72-4.04h13.69c0.05-0.3,0.09-0.63,0.13-0.99
				c0.04-0.36,0.06-0.66,0.06-0.92C143.7,20.72,143.48,19.35,143.04,18.22z M129.82,21.75v-0.3h0.01l-0.01,0
				c0-0.94,0.13-1.73,0.38-2.36c0.25-0.63,0.61-1.15,1.05-1.54c0.44-0.39,0.95-0.68,1.52-0.86c0.57-0.18,1.18-0.27,1.81-0.27
				c1.35,0,2.42,0.39,3.2,1.18c0.79,0.79,1.18,2.17,1.18,4.16L129.82,21.75z"/>
			<path class="st1" d="M122.45,9.02c0,1.49-1.21,2.7-2.7,2.7c-1.49,0-2.7-1.21-2.7-2.7c0-1.49,1.21-2.7,2.7-2.7
				C121.24,6.32,122.45,7.53,122.45,9.02z"/>
		</g>
		<g>
			<path class="st0" d="M191.1,6.42v0.29h-0.95v2.8h-0.31v-2.8h-0.95V6.42H191.1z"/>
			<path class="st0" d="M194.37,6.42v3.1h-0.31V6.89l-1.08,1.81h-0.04l-1.08-1.81v2.63h-0.31v-3.1h0.38l1.04,1.73l1.04-1.73H194.37z
				"/>
		</g>
	</g>
	<g>
		<path class="st1" d="M4.81,52.07l-1.17-2.01H2.22v2.01h-0.5v-5.02h2.01c0.42,0,0.77,0.15,1.07,0.44c0.29,0.29,0.44,0.65,0.44,1.07
			c0,0.34-0.1,0.64-0.3,0.91c-0.2,0.27-0.46,0.44-0.78,0.53l1.23,2.07H4.81z M2.22,47.52v2.07h1.51c0.28,0,0.51-0.1,0.71-0.3
			s0.29-0.45,0.29-0.73c0-0.29-0.1-0.53-0.29-0.73c-0.2-0.2-0.43-0.3-0.71-0.3H2.22z"/>
		<path class="st1" d="M9.72,51.59h2.44v0.47H9.22v-5.02h2.91v0.47h-2.4v1.78h2.22v0.47H9.72V51.59z"/>
		<path class="st0" d="M18.08,47.04c0.68,0,1.25,0.24,1.7,0.73c0.45,0.49,0.67,1.08,0.67,1.78s-0.22,1.3-0.67,1.78
			c-0.45,0.49-1.01,0.73-1.7,0.73h-1.94v-5.02H18.08z M18.08,51.59c0.55,0,1-0.2,1.35-0.59c0.35-0.39,0.53-0.88,0.53-1.45
			s-0.18-1.06-0.53-1.45c-0.35-0.39-0.8-0.59-1.35-0.59h-1.43v4.08H18.08z"/>
		<path class="st0" d="M24.93,51.59h2.44v0.47h-2.94v-5.02h2.91v0.47h-2.4v1.78h2.22v0.47h-2.22V51.59z"/>
		<path class="st0" d="M34.19,47.52h-2.33v1.85h2.22v0.47h-2.22v2.22h-0.5v-5.02h2.83V47.52z"/>
		<path class="st0" d="M38.17,47.04h0.5v5.02h-0.5V47.04z"/>
		<path class="st0" d="M46.17,47.04h0.5v5.02h-0.43l-2.8-4.09v4.09h-0.5v-5.02h0.44l2.79,4.08V47.04z"/>
		<path class="st0" d="M50.94,47.04h0.5v5.02h-0.5V47.04z"/>
		<path class="st0" d="M58.94,47.04h0.5v5.02h-0.43l-2.8-4.09v4.09h-0.5v-5.02h0.44l2.79,4.08V47.04z"/>
		<path class="st0" d="M68.51,49.68v0.26c0,0.62-0.22,1.15-0.67,1.57c-0.44,0.43-1.04,0.64-1.79,0.64c-0.76,0-1.39-0.25-1.89-0.75
			c-0.5-0.5-0.75-1.12-0.75-1.84c0-0.73,0.25-1.34,0.75-1.84c0.5-0.5,1.13-0.75,1.89-0.75c0.46,0,0.89,0.11,1.28,0.34
			c0.39,0.22,0.69,0.52,0.9,0.9l-0.44,0.26c-0.16-0.31-0.39-0.55-0.7-0.73c-0.31-0.18-0.65-0.27-1.03-0.27
			c-0.63,0-1.14,0.2-1.54,0.61c-0.4,0.41-0.6,0.91-0.6,1.5c0,0.59,0.2,1.09,0.6,1.5c0.4,0.41,0.91,0.61,1.54,0.61
			c0.56,0,1.02-0.14,1.36-0.43c0.34-0.28,0.53-0.65,0.58-1.09H66v-0.47H68.51z"/>
		<path class="st0" d="M80.19,49.46c0.24,0.11,0.44,0.26,0.58,0.48c0.15,0.21,0.22,0.46,0.22,0.73c0,0.39-0.14,0.72-0.41,0.99
			c-0.27,0.27-0.6,0.41-0.99,0.41H77.4v-5.02h2.02c0.37,0,0.69,0.13,0.95,0.4c0.26,0.27,0.39,0.58,0.39,0.95
			C80.78,48.86,80.58,49.22,80.19,49.46z M79.43,47.52h-1.52v1.75h1.52c0.23,0,0.43-0.08,0.6-0.25c0.16-0.17,0.25-0.38,0.25-0.62
			c0-0.24-0.08-0.44-0.25-0.62C79.86,47.6,79.66,47.52,79.43,47.52z M79.59,51.59c0.25,0,0.46-0.09,0.64-0.27
			c0.17-0.18,0.26-0.4,0.26-0.66c0-0.25-0.09-0.47-0.26-0.65c-0.17-0.18-0.39-0.27-0.64-0.27h-1.69v1.85H79.59z"/>
		<path class="st0" d="M88.06,52.07l-1.17-2.01h-1.41v2.01h-0.5v-5.02h2.01c0.42,0,0.77,0.15,1.07,0.44
			c0.29,0.29,0.44,0.65,0.44,1.07c0,0.34-0.1,0.64-0.3,0.91c-0.2,0.27-0.46,0.44-0.78,0.53l1.23,2.07H88.06z M85.48,47.52v2.07h1.51
			c0.28,0,0.51-0.1,0.71-0.3s0.29-0.45,0.29-0.73c0-0.29-0.1-0.53-0.29-0.73c-0.2-0.2-0.43-0.3-0.71-0.3H85.48z"/>
		<path class="st0" d="M95.81,52.07l-0.47-1.23h-2.38l-0.47,1.23h-0.53l1.93-5.02h0.52l1.93,5.02H95.81z M93.14,50.36h2.03
			l-1.01-2.69L93.14,50.36z"/>
		<path class="st0" d="M103.34,47.04h0.5v5.02h-0.43l-2.8-4.09v4.09h-0.5v-5.02h0.44l2.79,4.08V47.04z"/>
		<path class="st0" d="M110.05,47.04c0.68,0,1.25,0.24,1.7,0.73c0.45,0.49,0.67,1.08,0.67,1.78s-0.22,1.3-0.67,1.78
			c-0.45,0.49-1.01,0.73-1.7,0.73h-1.94v-5.02H110.05z M110.05,51.59c0.55,0,1-0.2,1.35-0.59c0.35-0.39,0.53-0.88,0.53-1.45
			s-0.18-1.06-0.53-1.45c-0.35-0.39-0.8-0.59-1.35-0.59h-1.43v4.08H110.05z"/>
		<path class="st0" d="M117.8,52.15c-0.46,0-0.85-0.11-1.18-0.33c-0.33-0.22-0.56-0.52-0.69-0.9l0.43-0.25
			c0.09,0.31,0.26,0.55,0.5,0.73c0.24,0.17,0.56,0.26,0.94,0.26c0.37,0,0.66-0.08,0.87-0.25c0.21-0.17,0.31-0.38,0.31-0.66
			c0-0.26-0.1-0.46-0.29-0.6c-0.19-0.13-0.51-0.27-0.95-0.42c-0.52-0.17-0.87-0.31-1.03-0.42c-0.38-0.23-0.57-0.56-0.57-1
			c0-0.43,0.15-0.76,0.44-1.01c0.3-0.25,0.66-0.37,1.1-0.37c0.39,0,0.73,0.1,1.02,0.3c0.29,0.2,0.5,0.46,0.64,0.78l-0.42,0.24
			c-0.23-0.55-0.64-0.83-1.23-0.83c-0.31,0-0.56,0.08-0.75,0.23c-0.19,0.15-0.29,0.37-0.29,0.64c0,0.25,0.09,0.44,0.26,0.56
			c0.17,0.12,0.46,0.25,0.85,0.38c0.18,0.06,0.31,0.11,0.39,0.13c0.08,0.03,0.19,0.07,0.34,0.13c0.15,0.06,0.26,0.11,0.33,0.16
			c0.07,0.05,0.16,0.11,0.26,0.19c0.1,0.08,0.18,0.16,0.22,0.24s0.09,0.17,0.12,0.29c0.04,0.11,0.05,0.23,0.05,0.36
			c0,0.43-0.16,0.77-0.47,1.02C118.71,52.02,118.3,52.15,117.8,52.15z"/>
		<path class="st0" d="M129.96,52.15c-0.46,0-0.85-0.11-1.18-0.33c-0.33-0.22-0.56-0.52-0.69-0.9l0.43-0.25
			c0.09,0.31,0.26,0.55,0.5,0.73c0.24,0.17,0.56,0.26,0.94,0.26c0.37,0,0.66-0.08,0.87-0.25c0.21-0.17,0.31-0.38,0.31-0.66
			c0-0.26-0.1-0.46-0.29-0.6c-0.19-0.13-0.51-0.27-0.95-0.42c-0.52-0.17-0.87-0.31-1.03-0.42c-0.38-0.23-0.57-0.56-0.57-1
			c0-0.43,0.15-0.76,0.44-1.01c0.3-0.25,0.66-0.37,1.1-0.37c0.39,0,0.73,0.1,1.02,0.3c0.29,0.2,0.5,0.46,0.64,0.78l-0.42,0.24
			c-0.23-0.55-0.64-0.83-1.23-0.83c-0.31,0-0.56,0.08-0.75,0.23c-0.19,0.15-0.29,0.37-0.29,0.64c0,0.25,0.09,0.44,0.26,0.56
			c0.17,0.12,0.46,0.25,0.85,0.38c0.18,0.06,0.31,0.11,0.39,0.13c0.08,0.03,0.19,0.07,0.34,0.13c0.15,0.06,0.26,0.11,0.33,0.16
			c0.07,0.05,0.16,0.11,0.26,0.19c0.1,0.08,0.18,0.16,0.22,0.24c0.05,0.08,0.09,0.17,0.12,0.29c0.04,0.11,0.05,0.23,0.05,0.36
			c0,0.43-0.16,0.77-0.47,1.02C130.88,52.02,130.47,52.15,129.96,52.15z"/>
		<path class="st0" d="M135.6,47.04h0.5v5.02h-0.5V47.04z"/>
		<path class="st0" d="M143.6,47.04h0.5v5.02h-0.43l-2.8-4.09v4.09h-0.5v-5.02h0.44l2.79,4.08V47.04z"/>
		<path class="st0" d="M150.72,52.15c-0.76,0-1.39-0.25-1.89-0.75c-0.5-0.5-0.75-1.12-0.75-1.84c0-0.73,0.25-1.34,0.75-1.84
			c0.5-0.5,1.13-0.75,1.89-0.75c0.46,0,0.89,0.11,1.28,0.33c0.39,0.22,0.69,0.52,0.9,0.9l-0.44,0.26c-0.16-0.31-0.39-0.55-0.7-0.73
			c-0.31-0.18-0.65-0.27-1.03-0.27c-0.63,0-1.14,0.2-1.54,0.61c-0.4,0.41-0.6,0.91-0.6,1.5c0,0.59,0.2,1.09,0.6,1.5
			c0.4,0.41,0.91,0.61,1.54,0.61c0.37,0,0.71-0.09,1.03-0.27c0.31-0.18,0.55-0.43,0.7-0.73l0.44,0.25c-0.21,0.38-0.5,0.68-0.89,0.9
			C151.61,52.04,151.18,52.15,150.72,52.15z"/>
		<path class="st0" d="M157.34,51.59h2.44v0.47h-2.94v-5.02h2.91v0.47h-2.4v1.78h2.22v0.47h-2.22V51.59z"/>
		<path class="st0" d="M169.54,47.04h0.43v5.02h-0.5V47.6l-1.13,0.34l-0.13-0.43L169.54,47.04z"/>
		<path class="st0" d="M177.25,48.62c0,0.38-0.1,0.71-0.31,1l-1.64,2.45h-0.57l1.23-1.84c-0.13,0.03-0.26,0.04-0.4,0.04
			c-0.49,0-0.9-0.15-1.21-0.46c-0.32-0.31-0.47-0.71-0.47-1.19s0.16-0.89,0.47-1.19s0.72-0.46,1.21-0.46c0.49,0,0.9,0.15,1.21,0.46
			C177.09,47.73,177.25,48.13,177.25,48.62z M174.71,47.77c-0.22,0.22-0.33,0.5-0.33,0.85c0,0.35,0.11,0.63,0.33,0.85
			c0.22,0.22,0.5,0.32,0.86,0.32c0.35,0,0.64-0.11,0.86-0.32c0.22-0.22,0.33-0.5,0.33-0.85c0-0.35-0.11-0.63-0.33-0.85
			c-0.22-0.22-0.5-0.32-0.86-0.32C175.21,47.45,174.92,47.55,174.71,47.77z"/>
		<path class="st0" d="M184.17,48.62c0,0.38-0.1,0.71-0.31,1l-1.64,2.45h-0.57l1.23-1.84c-0.13,0.03-0.26,0.04-0.4,0.04
			c-0.49,0-0.9-0.15-1.21-0.46c-0.32-0.31-0.47-0.71-0.47-1.19s0.16-0.89,0.47-1.19c0.32-0.31,0.72-0.46,1.21-0.46
			c0.49,0,0.9,0.15,1.21,0.46C184.02,47.73,184.17,48.13,184.17,48.62z M181.63,47.77c-0.22,0.22-0.33,0.5-0.33,0.85
			c0,0.35,0.11,0.63,0.33,0.85c0.22,0.22,0.5,0.32,0.86,0.32c0.35,0,0.64-0.11,0.86-0.32s0.33-0.5,0.33-0.85
			c0-0.35-0.11-0.63-0.33-0.85c-0.22-0.22-0.5-0.32-0.86-0.32C182.13,47.45,181.85,47.55,181.63,47.77z"/>
		<path class="st0" d="M191.17,51.45c-0.33,0.47-0.8,0.71-1.4,0.71c-0.6,0-1.07-0.24-1.4-0.71c-0.33-0.47-0.5-1.1-0.5-1.89
			s0.17-1.42,0.5-1.89c0.33-0.47,0.8-0.71,1.4-0.71c0.6,0,1.07,0.24,1.4,0.71c0.33,0.47,0.5,1.1,0.5,1.89S191.5,50.97,191.17,51.45z
			 M188.74,51.11c0.25,0.37,0.59,0.55,1.03,0.55c0.44,0,0.78-0.18,1.03-0.55c0.25-0.37,0.37-0.89,0.37-1.56
			c0-0.67-0.12-1.19-0.37-1.56s-0.59-0.55-1.03-0.55c-0.44,0-0.78,0.18-1.03,0.55c-0.25,0.37-0.37,0.89-0.37,1.56
			C188.37,50.22,188.49,50.74,188.74,51.11z"/>
	</g>
</g>
</svg>
