<?xml version="1.0" encoding="utf-8"?>
<!-- Generator: Adobe Illustrator 26.3.1, SVG Export Plug-In . SVG Version: 6.00 Build 0)  -->
<svg version="1.1" id="Layer_1" xmlns="http://www.w3.org/2000/svg" xmlns:xlink="http://www.w3.org/1999/xlink" x="0px" y="0px"
	 viewBox="0 0 412 310" style="enable-background:new 0 0 412 310;" xml:space="preserve">
<style type="text/css">
	.st0{fill:#214166;}
	.st1{fill:#A7A8B2;}
	.st2{fill-rule:evenodd;clip-rule:evenodd;fill:#214166;}
</style>
<g>
	<g>
		<path class="st0" d="M33.62,258c0,6.19-4.91,9.76-14.31,9.76H0.81v-35.78h17.48c8.95,0,13.55,3.73,13.55,9.3
			c0,3.58-1.84,6.34-4.75,7.87C31.07,250.44,33.62,253.5,33.62,258z M9.04,238.22v8.43h8.23c4.04,0,6.24-1.43,6.24-4.24
			s-2.2-4.19-6.24-4.19H9.04z M25.29,257.13c0-3.02-2.3-4.45-6.59-4.45H9.04v8.84h9.66C22.99,261.53,25.29,260.2,25.29,257.13z"/>
		<path class="st0" d="M62.71,267.76l-6.9-9.97H55.4h-7.21v9.97h-8.28v-35.78H55.4c9.56,0,15.54,4.96,15.54,12.98
			c0,5.37-2.71,9.3-7.36,11.3l8.03,11.5H62.71z M54.94,238.73h-6.75v12.47h6.75c5.06,0,7.62-2.35,7.62-6.24
			C62.55,241.03,60,238.73,54.94,238.73z"/>
		<path class="st0" d="M75.23,249.87c0-10.63,8.28-18.5,19.58-18.5c11.25,0,19.58,7.82,19.58,18.5c0,10.68-8.33,18.5-19.58,18.5
			C83.51,268.38,75.23,260.51,75.23,249.87z M106,249.87c0-6.8-4.81-11.45-11.19-11.45s-11.19,4.65-11.19,11.45
			c0,6.8,4.8,11.45,11.19,11.45S106,256.67,106,249.87z"/>
		<path class="st0" d="M118.37,249.87c0-10.63,8.28-18.5,19.58-18.5c11.25,0,19.58,7.82,19.58,18.5c0,10.68-8.33,18.5-19.58,18.5
			C126.65,268.38,118.37,260.51,118.37,249.87z M149.14,249.87c0-6.8-4.81-11.45-11.19-11.45s-11.19,4.65-11.19,11.45
			c0,6.8,4.8,11.45,11.19,11.45S149.14,256.67,149.14,249.87z"/>
		<path class="st0" d="M176.79,253.71l-4.8,5.01v9.05h-8.23v-35.78h8.23v16.72l15.85-16.72h9.2l-14.82,15.95l15.69,19.83h-9.66
			L176.79,253.71z"/>
		<path class="st0" d="M229.28,261.12v6.65h-27.71v-35.78h27.04v6.65h-18.81v7.77h16.61v6.44h-16.61v8.28H229.28z"/>
		<path class="st0" d="M233.06,264.24l2.81-6.24c3.02,2.2,7.51,3.73,11.81,3.73c4.91,0,6.9-1.64,6.9-3.83c0-6.7-20.8-2.1-20.8-15.39
			c0-6.08,4.91-11.14,15.08-11.14c4.5,0,9.1,1.07,12.42,3.17l-2.56,6.29c-3.32-1.89-6.75-2.81-9.92-2.81c-4.91,0-6.8,1.84-6.8,4.09
			c0,6.59,20.8,2.04,20.8,15.18c0,5.98-4.96,11.09-15.18,11.09C241.96,268.38,236.23,266.69,233.06,264.24z"/>
		<path class="st0" d="M275.38,238.73h-11.45v-6.75h31.18v6.75h-11.45v29.03h-8.28V238.73z"/>
		<path class="st0" d="M296.8,249.87c0-10.63,8.28-18.5,19.58-18.5c11.25,0,19.58,7.82,19.58,18.5c0,10.68-8.33,18.5-19.58,18.5
			C305.08,268.38,296.8,260.51,296.8,249.87z M327.57,249.87c0-6.8-4.8-11.45-11.19-11.45s-11.19,4.65-11.19,11.45
			c0,6.8,4.8,11.45,11.19,11.45S327.57,256.67,327.57,249.87z"/>
		<path class="st0" d="M375.01,231.98v35.78h-6.8l-17.84-21.72v21.72h-8.18v-35.78h6.85l17.79,21.72v-21.72H375.01z"/>
		<path class="st0" d="M411.19,261.12v6.65h-27.71v-35.78h27.04v6.65h-18.81v7.77h16.61v6.44h-16.61v8.28H411.19z"/>
		<path class="st1" d="M72.45,300.21c0-4.8,3.66-8.3,8.6-8.3c2.5,0,4.68,0.86,6.17,2.53l-1.51,1.46c-1.25-1.32-2.78-1.92-4.57-1.92
			c-3.66,0-6.37,2.64-6.37,6.23s2.71,6.23,6.37,6.23c1.78,0,3.31-0.63,4.57-1.95l1.51,1.46c-1.48,1.67-3.66,2.55-6.19,2.55
			C76.11,308.51,72.45,305.01,72.45,300.21z"/>
		<path class="st1" d="M128.29,304.27h-8.62l-1.78,4.06h-2.39l7.35-16.22h2.29l7.37,16.22h-2.43L128.29,304.27z M127.47,302.42
			l-3.5-7.95l-3.5,7.95H127.47z"/>
		<path class="st1" d="M175.82,297.76c0,3.52-2.55,5.66-6.77,5.66h-4.01v4.91h-2.32V292.1h6.33
			C173.27,292.1,175.82,294.23,175.82,297.76z M173.51,297.76c0-2.32-1.55-3.64-4.52-3.64h-3.94v7.28h3.94
			C171.95,301.4,173.51,300.07,173.51,297.76z"/>
		<path class="st1" d="M207.05,292.1h2.32v16.22h-2.32V292.1z"/>
		<path class="st1" d="M245.27,294.12h-5.56v-2.02h13.42v2.02h-5.56v14.21h-2.29V294.12z"/>
		<path class="st1" d="M292.99,304.27h-8.62l-1.78,4.06h-2.39l7.35-16.22h2.29l7.37,16.22h-2.43L292.99,304.27z M292.18,302.42
			l-3.5-7.95l-3.5,7.95H292.18z"/>
		<path class="st1" d="M327.43,292.1h2.32v14.21h8.78v2.02h-11.1V292.1z"/>
	</g>
</g>
<path class="st0" d="M221.64,85.13c-1.12-0.55-2.24-1.01-3.33-1.42c1.09-0.4,2.21-0.87,3.33-1.42c6.21-3.1,12.66-8.95,15.28-18.77
	c0.84-2.98,1.3-6.36,1.3-10.13s-0.45-7.14-1.3-10.13c-2.62-9.82-9.07-15.67-15.28-18.77c-8.29-4.04-16.15-3.89-16.36-3.89v4.94
	c2.98,0,6.36,1.51,6.36,1.51c3.19,1.69,6.39,4.46,6.39,11.06v15.28v15.28c0,6.6-3.19,9.37-6.39,11.06c0,0-3.38,1.51-6.36,1.51v4.94
	c2.98,0,6.36,1.51,6.36,1.51c3.19,1.69,6.39,4.46,6.39,11.06v15.28v32.91v15.28c0,6.6-3.19,9.37-6.39,11.06c0,0-3.38,1.51-6.36,1.51
	c-2.98,0-6.36-1.51-6.36-1.51c-3.19-1.69-6.39-4.46-6.39-11.06v-15.28h-20.19c0,3.77,0.45,7.14,1.3,10.13
	c2.62,9.82,9.07,15.67,15.28,18.77c8.29,4.04,16.15,3.89,16.36,3.89c0.21,0,8.08,0.15,16.36-3.89c6.21-3.1,12.66-8.95,15.28-18.77
	c0.84-2.98,1.3-6.36,1.3-10.13v-32.91c0-3.77-0.45-7.14-1.3-10.13C234.29,94.08,227.84,88.23,221.64,85.13z"/>
<path class="st2" d="M192.52,139.8V25.48h5.02V20.6h-30.29v4.87h5.02V139.8h4.27h3.72h4.27h3.72H192.52z M176.53,25.48h3.72V139.8
	h-3.72V25.48z M184.52,139.8V25.48h3.72V139.8H184.52z"/>
<g>
	<path class="st1" d="M264.15,5.5v189.83H146.39V5.5H264.15 M268.16,1.49H142.38v197.85h125.78V1.49L268.16,1.49z"/>
</g>
</svg>
