<?xml version="1.0" encoding="utf-8"?>
<!-- Generator: Adobe Illustrator 26.3.1, SVG Export Plug-In . SVG Version: 6.00 Build 0)  -->
<svg version="1.1" id="Layer_1" xmlns="http://www.w3.org/2000/svg" xmlns:xlink="http://www.w3.org/1999/xlink" x="0px" y="0px"
	 viewBox="0 0 262 58" style="enable-background:new 0 0 262 58;" xml:space="preserve">
<style type="text/css">
	.st0{fill:#FFFFFF;}
	.st1{fill:#A7A8B2;}
	.st2{fill-rule:evenodd;clip-rule:evenodd;fill:#FFFFFF;}
</style>
<g>
	<g>
		<path class="st0" d="M65.9,23.95c0,3.2-2.54,5.05-7.41,5.05h-9.58V10.48h9.05c4.63,0,7.01,1.93,7.01,4.82
			c0,1.85-0.95,3.28-2.46,4.08C64.57,20.03,65.9,21.62,65.9,23.95z M53.17,13.71v4.37h4.26c2.09,0,3.23-0.74,3.23-2.2
			c0-1.46-1.14-2.17-3.23-2.17H53.17z M61.59,23.5c0-1.56-1.19-2.3-3.41-2.3h-5v4.58h5C60.39,25.77,61.59,25.08,61.59,23.5z"/>
		<path class="st0" d="M80.96,29l-3.57-5.16h-0.21h-3.73V29h-4.29V10.48h8.02c4.95,0,8.04,2.57,8.04,6.72c0,2.78-1.4,4.82-3.81,5.85
			L85.56,29H80.96z M76.93,13.97h-3.49v6.46h3.49c2.62,0,3.94-1.22,3.94-3.23C80.88,15.16,79.55,13.97,76.93,13.97z"/>
		<path class="st0" d="M87.44,19.74c0-5.5,4.29-9.58,10.13-9.58c5.82,0,10.13,4.05,10.13,9.58c0,5.53-4.31,9.58-10.13,9.58
			C91.73,29.32,87.44,25.24,87.44,19.74z M103.37,19.74c0-3.52-2.49-5.93-5.79-5.93c-3.31,0-5.79,2.41-5.79,5.93
			c0,3.52,2.49,5.93,5.79,5.93C100.88,25.66,103.37,23.26,103.37,19.74z"/>
		<path class="st0" d="M109.78,19.74c0-5.5,4.29-9.58,10.13-9.58c5.82,0,10.13,4.05,10.13,9.58c0,5.53-4.31,9.58-10.13,9.58
			C114.06,29.32,109.78,25.24,109.78,19.74z M125.7,19.74c0-3.52-2.49-5.93-5.79-5.93c-3.31,0-5.79,2.41-5.79,5.93
			c0,3.52,2.49,5.93,5.79,5.93C123.22,25.66,125.7,23.26,125.7,19.74z"/>
		<path class="st0" d="M140.02,21.72l-2.49,2.59V29h-4.26V10.48h4.26v8.65l8.2-8.65h4.76l-7.67,8.26L150.95,29h-5L140.02,21.72z"/>
		<path class="st0" d="M167.2,25.56V29h-14.34V10.48h14v3.44h-9.74v4.02h8.6v3.33h-8.6v4.29H167.2z"/>
		<path class="st0" d="M169.16,27.17l1.46-3.23c1.56,1.14,3.89,1.93,6.11,1.93c2.54,0,3.57-0.85,3.57-1.98
			c0-3.47-10.77-1.08-10.77-7.96c0-3.15,2.54-5.77,7.81-5.77c2.33,0,4.71,0.56,6.43,1.64l-1.32,3.25c-1.72-0.98-3.49-1.46-5.13-1.46
			c-2.54,0-3.52,0.95-3.52,2.12c0,3.41,10.77,1.06,10.77,7.86c0,3.1-2.57,5.74-7.86,5.74C173.76,29.32,170.8,28.44,169.16,27.17z"/>
		<path class="st0" d="M191.07,13.97h-5.93v-3.49h16.14v3.49h-5.93V29h-4.29V13.97z"/>
		<path class="st0" d="M202.15,19.74c0-5.5,4.29-9.58,10.13-9.58c5.82,0,10.13,4.05,10.13,9.58c0,5.53-4.31,9.58-10.13,9.58
			C206.44,29.32,202.15,25.24,202.15,19.74z M218.08,19.74c0-3.52-2.49-5.93-5.79-5.93c-3.31,0-5.79,2.41-5.79,5.93
			c0,3.52,2.49,5.93,5.79,5.93C215.59,25.66,218.08,23.26,218.08,19.74z"/>
		<path class="st0" d="M242.64,10.48V29h-3.52l-9.23-11.25V29h-4.23V10.48h3.54l9.21,11.25V10.48H242.64z"/>
		<path class="st0" d="M261.37,25.56V29h-14.34V10.48h14v3.44h-9.74v4.02h8.6v3.33h-8.6v4.29H261.37z"/>
		<path class="st1" d="M86,45.8c0-2.48,1.9-4.29,4.45-4.29c1.29,0,2.42,0.44,3.19,1.31l-0.78,0.75c-0.65-0.68-1.44-1-2.36-1
			c-1.89,0-3.3,1.37-3.3,3.23c0,1.86,1.4,3.23,3.3,3.23c0.92,0,1.71-0.32,2.36-1.01l0.78,0.75c-0.77,0.86-1.9,1.32-3.2,1.32
			C87.9,50.09,86,48.28,86,45.8z"/>
		<path class="st1" d="M114.91,47.9h-4.46l-0.92,2.1h-1.24l3.8-8.4h1.19l3.81,8.4h-1.26L114.91,47.9z M114.49,46.94l-1.81-4.11
			l-1.81,4.11H114.49z"/>
		<path class="st1" d="M139.52,44.53c0,1.82-1.32,2.93-3.5,2.93h-2.07V50h-1.2v-8.4h3.27C138.2,41.6,139.52,42.71,139.52,44.53z
			 M138.32,44.53c0-1.2-0.8-1.88-2.34-1.88h-2.04v3.77h2.04C137.52,46.41,138.32,45.73,138.32,44.53z"/>
		<path class="st1" d="M155.69,41.6h1.2V50h-1.2V41.6z"/>
		<path class="st1" d="M175.47,42.65h-2.88V41.6h6.94v1.04h-2.88V50h-1.19V42.65z"/>
		<path class="st1" d="M200.18,47.9h-4.46L194.8,50h-1.24l3.8-8.4h1.19l3.81,8.4h-1.26L200.18,47.9z M199.76,46.94l-1.81-4.11
			l-1.81,4.11H199.76z"/>
		<path class="st1" d="M218.02,41.6h1.2v7.35h4.54V50h-5.74V41.6z"/>
	</g>
</g>
<path class="st0" d="M23.19,24.65c-0.32-0.16-0.64-0.29-0.95-0.4c0.31-0.12,0.63-0.25,0.95-0.4c1.77-0.88,3.6-2.55,4.35-5.35
	c0.24-0.85,0.37-1.81,0.37-2.88s-0.13-2.03-0.37-2.88c-0.75-2.8-2.58-4.46-4.35-5.35c-2.36-1.15-4.6-1.11-4.66-1.11v1.41
	c0.85,0,1.81,0.43,1.81,0.43c0.91,0.48,1.82,1.27,1.82,3.15v4.35v4.35c0,1.88-0.91,2.67-1.82,3.15c0,0-0.96,0.43-1.81,0.43v1.41
	c0.85,0,1.81,0.43,1.81,0.43c0.91,0.48,1.82,1.27,1.82,3.15v4.35v9.37v4.35c0,1.88-0.91,2.67-1.82,3.15c0,0-0.96,0.43-1.81,0.43
	s-1.81-0.43-1.81-0.43c-0.91-0.48-1.82-1.27-1.82-3.15v-4.35H9.15c0,1.07,0.13,2.03,0.37,2.88c0.75,2.8,2.58,4.46,4.35,5.35
	c2.36,1.15,4.6,1.11,4.66,1.11c0.06,0,2.3,0.04,4.66-1.11c1.77-0.88,3.6-2.55,4.35-5.35c0.24-0.85,0.37-1.81,0.37-2.88v-9.37
	c0-1.07-0.13-2.03-0.37-2.88C26.8,27.2,24.96,25.53,23.19,24.65z"/>
<path class="st2" d="M14.9,40.21V7.66h1.43V6.27H7.71l0,1.39h1.43l0,32.55h1.22h1.06h1.22h1.06H14.9z M10.35,7.66h1.06l0,32.55
	h-1.06L10.35,7.66z M12.62,40.21V7.66h1.06l0,32.55H12.62z"/>
<g>
	<path class="st1" d="M34.24,3.04v51.93H2.83V3.04H34.24 M36.44,0.83H0.63v56.34h35.82V0.83L36.44,0.83z"/>
</g>
</svg>
