<?xml version="1.0" encoding="utf-8"?>
<!-- Generator: Adobe Illustrator 26.3.1, SVG Export Plug-In . SVG Version: 6.00 Build 0)  -->
<svg version="1.1" id="Layer_1" xmlns="http://www.w3.org/2000/svg" xmlns:xlink="http://www.w3.org/1999/xlink" x="0px" y="0px"
	 viewBox="0 0 172 172" style="enable-background:new 0 0 172 172;" xml:space="preserve">
<style type="text/css">
	.st0{fill:#A7A8B2;}
	.st1{opacity:0.5;fill:#FFFFFF;}
	.st2{fill:#FFFFFF;}
</style>
<path id="XMLID_00000155144256151913784890000017069972463023457936_" class="st0" d="M140.88,171.37H31.12
	c-16.84,0-30.49-13.65-30.49-30.49V31.12c0-16.84,13.65-30.49,30.49-30.49h109.76c16.84,0,30.49,13.65,30.49,30.49v109.76
	C171.37,157.72,157.72,171.37,140.88,171.37z"/>
<path class="st1" d="M115.59,84.99c5.78-3.27,9.7-9.47,9.7-16.58c0-10.49-8.54-19.03-19.03-19.03c-10.49,0-19.03,8.54-19.03,19.03
	c0,7.1,3.92,13.31,9.7,16.58C92.9,86.21,89.2,88.19,86,90.76c-3.2-2.57-6.9-4.55-10.93-5.76c5.78-3.27,9.7-9.47,9.7-16.58
	c0-10.49-8.54-19.03-19.03-19.03c-10.49,0-19.03,8.54-19.03,19.03c0,7.1,3.92,13.31,9.7,16.58c-13.35,4.02-23.11,16.42-23.11,31.06
	c0,1.06,0.86,1.91,1.91,1.91h40.52h20.52h40.52c1.06,0,1.91-0.86,1.91-1.91C138.7,101.42,128.95,89.01,115.59,84.99z"/>
<path class="st2" d="M96.37,85.14c6.43-3.63,10.78-10.52,10.78-18.42c0-11.66-9.49-21.15-21.15-21.15
	c-11.66,0-21.15,9.49-21.15,21.15c0,7.89,4.35,14.79,10.78,18.42c-14.83,4.47-25.67,18.25-25.67,34.52c0,1.17,0.95,2.13,2.13,2.13
	h67.83c1.17,0,2.13-0.95,2.13-2.13C122.04,103.39,111.2,89.61,96.37,85.14z"/>
</svg>
