<?xml version="1.0" encoding="utf-8"?>
<!-- Generator: Adobe Illustrator 26.3.1, SVG Export Plug-In . SVG Version: 6.00 Build 0)  -->
<svg version="1.1" id="Layer_1" xmlns="http://www.w3.org/2000/svg" xmlns:xlink="http://www.w3.org/1999/xlink" x="0px" y="0px"
	 viewBox="0 0 172 172" style="enable-background:new 0 0 172 172;" xml:space="preserve">
<style type="text/css">
	.st0{fill:#A7A8B2;}
	.st1{fill:#FFFFFF;}
</style>
<path id="XMLID_00000068641971516085445580000008097082221190972085_" class="st0" d="M140.88,171.37H31.12
	c-16.84,0-30.49-13.65-30.49-30.49V31.12c0-16.84,13.65-30.49,30.49-30.49h109.76c16.84,0,30.49,13.65,30.49,30.49v109.76
	C171.37,157.72,157.72,171.37,140.88,171.37z"/>
<path class="st1" d="M128.42,91.2c-0.06,0-0.11,0.02-0.16,0.02c1.01-2.34,1.58-4.92,1.58-7.63c0-10.63-8.62-19.25-19.25-19.25
	c-3.76,0-7.25,1.09-10.22,2.96c-4.01-9.74-13.59-16.61-24.77-16.61c-14.8,0-26.79,11.99-26.79,26.79c0,1.12,0.09,2.21,0.22,3.3
	c-0.08,0-0.15-0.01-0.22-0.01c-9.92,0-17.96,8.04-17.96,17.96s8.04,17.96,17.96,17.96h79.62c7.04,0,12.74-5.7,12.74-12.74
	C141.16,96.9,135.45,91.2,128.42,91.2z M88.21,92.48l-12.46,12.46c-0.29,0.29-0.69,0.46-1.1,0.46c-0.42,0-0.81-0.16-1.1-0.46
	L61.09,92.48c-0.46-0.46-0.59-1.09-0.34-1.7c0.25-0.6,0.79-0.96,1.44-0.96h6.05V76.78c0-0.56,0.46-1.02,1.02-1.02h10.77
	c0.56,0,1.02,0.46,1.02,1.02v13.07l6.05-0.02c0.65,0,1.19,0.36,1.44,0.96C88.8,91.39,88.67,92.02,88.21,92.48z"/>
</svg>
