<?xml version="1.0" encoding="utf-8"?>
<!-- Generator: Adobe Illustrator 26.3.1, SVG Export Plug-In . SVG Version: 6.00 Build 0)  -->
<svg version="1.1" id="Layer_1" xmlns="http://www.w3.org/2000/svg" xmlns:xlink="http://www.w3.org/1999/xlink" x="0px" y="0px"
	 viewBox="0 0 172 172" style="enable-background:new 0 0 172 172;" xml:space="preserve">
<style type="text/css">
	.st0{fill:#A7A8B2;}
	.st1{fill:#FFFFFF;}
</style>
<path id="XMLID_00000134960926567481684650000003276686612674392508_" class="st0" d="M140.88,171.37H31.12
	c-16.84,0-30.49-13.65-30.49-30.49V31.12c0-16.84,13.65-30.49,30.49-30.49h109.76c16.84,0,30.49,13.65,30.49,30.49v109.76
	C171.37,157.72,157.72,171.37,140.88,171.37z"/>
<path id="Mail" class="st1" d="M120.99,52.47H51.01c-6.43,0-11.66,5.23-11.66,11.66v43.74c0,6.43,5.23,11.66,11.66,11.66h69.98
	c6.43,0,11.66-5.23,11.66-11.66V64.13C132.66,57.7,127.42,52.47,120.99,52.47z M119.92,72.22L87.85,98.46
	c-0.54,0.44-1.19,0.66-1.85,0.66s-1.31-0.22-1.85-0.66L52.08,72.22c-1.25-1.02-1.43-2.86-0.41-4.1c1.02-1.25,2.85-1.43,4.1-0.41
	L86,92.44l30.23-24.73c1.25-1.02,3.08-0.84,4.1,0.41C121.35,69.36,121.17,71.2,119.92,72.22z"/>
</svg>
