<?xml version="1.0" encoding="utf-8"?>
<!-- Generator: Adobe Illustrator 26.3.1, SVG Export Plug-In . SVG Version: 6.00 Build 0)  -->
<svg version="1.1" id="Layer_1" xmlns="http://www.w3.org/2000/svg" xmlns:xlink="http://www.w3.org/1999/xlink" x="0px" y="0px"
	 viewBox="0 0 172 172" style="enable-background:new 0 0 172 172;" xml:space="preserve">
<style type="text/css">
	.st0{fill:#214166;}
	.st1{fill:#FFFFFF;}
</style>
<path id="XMLID_00000132802223055085960810000000873597871773167518_" class="st0" d="M140.88,171.37H31.12
	c-16.84,0-30.49-13.65-30.49-30.49V31.12c0-16.84,13.65-30.49,30.49-30.49h109.76c16.84,0,30.49,13.65,30.49,30.49v109.76
	C171.37,157.72,157.72,171.37,140.88,171.37z"/>
<g>
	<g>
		<path class="st1" d="M50.87,129.8l14.84-5.4c2.16-0.79,4.16-2.06,5.77-3.68L121.3,70.9l-19.63-19.63l-49.82,49.82
			c-1.62,1.62-2.9,3.62-3.68,5.78l-5.4,14.84C39.22,130.73,41.3,133.28,50.87,129.8z"/>
	</g>
	<g>
		<path class="st1" d="M128.09,49.53l-5.05-5.05c-1.99-2-4.9-2.99-7.87-2.71c-2.84,0.26-5.58,1.58-7.72,3.72l-1.3,1.3l19.63,19.63
			l1.31-1.31c2.14-2.14,3.46-4.88,3.72-7.72C131.08,54.39,130.09,51.52,128.09,49.53z"/>
	</g>
</g>
</svg>
