<?xml version="1.0" encoding="utf-8"?>
<!-- Generator: Adobe Illustrator 26.3.1, SVG Export Plug-In . SVG Version: 6.00 Build 0)  -->
<svg version="1.1" id="Layer_1" xmlns="http://www.w3.org/2000/svg" xmlns:xlink="http://www.w3.org/1999/xlink" x="0px" y="0px"
	 viewBox="0 0 172 172" style="enable-background:new 0 0 172 172;" xml:space="preserve">
<style type="text/css">
	.st0{fill:#A7A8B2;}
	.st1{opacity:0.5;fill:#FFFFFF;}
	.st2{fill:#FFFFFF;}
</style>
<path id="XMLID_00000044885356501483545040000011812339157127921855_" class="st0" d="M140.88,171.37H31.12
	c-16.84,0-30.49-13.65-30.49-30.49V31.12c0-16.84,13.65-30.49,30.49-30.49h109.76c16.84,0,30.49,13.65,30.49,30.49v109.76
	C171.37,157.72,157.72,171.37,140.88,171.37z"/>
<path class="st1" d="M113.44,112.78c-0.89,0-1.62-0.73-1.62-1.62v-6.2h-5.86c-0.89,0-1.62-0.73-1.62-1.62V73.22
	c0-0.89,0.73-1.62,1.62-1.62h5.86v-6.65c0-0.89,0.73-1.62,1.62-1.62h2.21c0.89,0,1.62,0.73,1.62,1.62v6.65h5.86
	c0.89,0,1.62,0.73,1.62,1.62v30.12c0,0.89-0.73,1.62-1.62,1.62h-5.86v6.2c0,0.89-0.73,1.62-1.62,1.62H113.44z"/>
<path class="st2" d="M84.38,136.4c-0.89,0-1.62-0.73-1.62-1.62v-10.63H76.9c-0.89,0-1.62-0.73-1.62-1.62V53.15
	c0-0.89,0.73-1.62,1.62-1.62h5.86V38.24c0-0.89,0.73-1.62,1.62-1.62h2.21c0.89,0,1.62,0.73,1.62,1.62v13.29h5.86
	c0.89,0,1.62,0.73,1.62,1.62v69.38c0,0.89-0.73,1.62-1.62,1.62h-5.86v10.63c0,0.89-0.73,1.62-1.62,1.62H84.38z"/>
<path class="st1" d="M55.33,119.28c-0.89,0-1.62-0.73-1.62-1.62v-12.7h-5.86c-0.89,0-1.62-0.73-1.62-1.62V73.22
	c0-0.89,0.73-1.62,1.62-1.62h5.86V60.97c0-0.89,0.73-1.62,1.62-1.62h2.21c0.89,0,1.62,0.73,1.62,1.62V71.6h5.86
	c0.89,0,1.62,0.73,1.62,1.62v30.12c0,0.89-0.73,1.62-1.62,1.62h-5.86v12.7c0,0.89-0.73,1.62-1.62,1.62H55.33z"/>
</svg>
