<?xml version="1.0" encoding="utf-8"?>
<!-- Generator: Adobe Illustrator 26.3.1, SVG Export Plug-In . SVG Version: 6.00 Build 0)  -->
<svg version="1.1" id="Layer_1" xmlns="http://www.w3.org/2000/svg" xmlns:xlink="http://www.w3.org/1999/xlink" x="0px" y="0px"
	 viewBox="0 0 172 172" style="enable-background:new 0 0 172 172;" xml:space="preserve">
<style type="text/css">
	.st0{fill:#214166;}
	.st1{fill:#F4F4F4;}
	.st2{fill:#EFEFEF;}
</style>
<g>
	<path id="XMLID_00000038398369146041238650000001337939211222054045_" class="st0" d="M140.88,171.37H31.12
		c-16.84,0-30.49-13.65-30.49-30.49V31.12c0-16.84,13.65-30.49,30.49-30.49h109.76c16.84,0,30.49,13.65,30.49,30.49v109.76
		C171.37,157.72,157.72,171.37,140.88,171.37z"/>
</g>
<g>
	<g>
		<path class="st1" d="M51.4,152.55c-0.84,0-1.62-0.18-2.35-0.55c-0.73-0.37-1.36-0.86-1.9-1.48c-0.54-0.62-0.96-1.31-1.26-2.09
			c-0.3-0.77-0.45-1.58-0.45-2.4c0-0.86,0.15-1.68,0.45-2.46c0.3-0.77,0.72-1.46,1.25-2.06c0.53-0.6,1.16-1.07,1.89-1.41
			c0.73-0.34,1.51-0.51,2.37-0.51c1.24,0,2.26,0.26,3.06,0.77c0.8,0.52,1.41,1.19,1.82,2.02l-1.24,0.86
			c-0.37-0.74-0.88-1.3-1.53-1.66c-0.65-0.36-1.36-0.54-2.14-0.54c-0.65,0-1.24,0.14-1.76,0.41c-0.53,0.28-0.98,0.65-1.36,1.12
			s-0.67,1.01-0.86,1.61c-0.2,0.6-0.3,1.22-0.3,1.87c0,0.68,0.11,1.33,0.33,1.94c0.22,0.61,0.54,1.14,0.95,1.6
			c0.41,0.46,0.88,0.83,1.42,1.09c0.54,0.26,1.12,0.4,1.75,0.4c0.73,0,1.43-0.19,2.09-0.56s1.28-0.94,1.87-1.71v1.67
			C54.33,151.87,52.97,152.55,51.4,152.55z M55.28,147.32h-2.75v-1.22h4.12v6.37h-1.37V147.32z"/>
		<path class="st1" d="M66.61,139.68h1.37l5.22,12.78h-1.73l-1.43-3.74h-5.5l-1.44,3.74h-1.73L66.61,139.68z M69.55,147.46
			l-2.26-5.9l-2.27,5.9H69.55z"/>
		<path class="st1" d="M89.55,152.46v-9.76l-4.21,7.51h-0.99l-4.23-7.51v9.76H78.5v-12.78h1.71l4.63,8.3l4.64-8.3h1.69v12.78H89.55z
			"/>
		<path class="st1" d="M108.89,152.46v-9.76l-4.21,7.51h-0.99l-4.23-7.51v9.76h-1.62v-12.78h1.71l4.63,8.3l4.64-8.3h1.69v12.78
			H108.89z"/>
		<path class="st1" d="M121.05,139.68h1.37l5.22,12.78h-1.73l-1.43-3.74h-5.5l-1.44,3.74h-1.73L121.05,139.68z M124,147.46
			l-2.26-5.9l-2.27,5.9H124z"/>
	</g>
</g>
<g id="XMLID_13_">
	<path id="XMLID_14_" class="st2" d="M86.46,95.58c-17.19,0-31.17-13.98-31.17-31.17s13.98-31.17,31.17-31.17
		s31.17,13.98,31.17,31.17S103.65,95.58,86.46,95.58z M86.46,48.05c-9.02,0-16.36,7.34-16.36,16.36c0,9.02,7.34,16.36,16.36,16.36
		s16.36-7.34,16.36-16.36C102.82,55.39,95.48,48.05,86.46,48.05z"/>
</g>
<g id="XMLID_10_">
	<path id="XMLID_11_" class="st2" d="M86.46,95.58c-17.19,0-31.17,13.98-31.17,31.17H70.1c0-3.45,1.07-6.66,2.91-9.3
		c2.95-4.26,7.88-7.06,13.45-7.06s10.5,2.8,13.45,7.06c1.84,2.64,2.91,5.84,2.91,9.3h14.81C117.63,109.56,103.65,95.58,86.46,95.58z
		"/>
</g>
<circle id="XMLID_7_" class="st2" cx="117.63" cy="31.67" r="8.26"/>
</svg>
