<?xml version="1.0" encoding="utf-8"?>
<!-- Generator: Adobe Illustrator 26.3.1, SVG Export Plug-In . SVG Version: 6.00 Build 0)  -->
<svg version="1.1" id="Layer_1" xmlns="http://www.w3.org/2000/svg" xmlns:xlink="http://www.w3.org/1999/xlink" x="0px" y="0px"
	 viewBox="0 0 172 172" style="enable-background:new 0 0 172 172;" xml:space="preserve">
<style type="text/css">
	.st0{fill:#214166;}
	.st1{fill:#FFFFFF;}
</style>
<path id="XMLID_1633_" class="st0" d="M140.88,171.37H31.12c-16.84,0-30.49-13.65-30.49-30.49V31.12
	c0-16.84,13.65-30.49,30.49-30.49h109.76c16.84,0,30.49,13.65,30.49,30.49v109.76C171.37,157.72,157.72,171.37,140.88,171.37z"/>
<path class="st1" d="M98.09,85.38c7.5-4.24,12.57-12.28,12.57-21.48c0-13.6-11.06-24.66-24.66-24.66
	c-13.6,0-24.66,11.06-24.66,24.66c0,9.21,5.07,17.25,12.57,21.48c-17.3,5.21-29.95,21.28-29.95,40.26c0,1.37,1.11,2.48,2.48,2.48
	h79.12c1.37,0,2.48-1.11,2.48-2.48C128.04,106.66,115.4,90.59,98.09,85.38z"/>
</svg>
