<?xml version="1.0" encoding="utf-8"?>
<!-- Generator: Adobe Illustrator 26.3.1, SVG Export Plug-In . SVG Version: 6.00 Build 0)  -->
<svg version="1.1" id="Layer_1" xmlns="http://www.w3.org/2000/svg" xmlns:xlink="http://www.w3.org/1999/xlink" x="0px" y="0px"
	 viewBox="0 0 172 172" style="enable-background:new 0 0 172 172;" xml:space="preserve">
<style type="text/css">
	.st0{fill:#A7A8B2;}
	.st1{fill:#FFFFFF;}
	.st2{opacity:0.5;fill:#FFFFFF;}
</style>
<path id="XMLID_00000051342537705866687660000006943342174937817763_" class="st0" d="M140.88,171.37H31.12
	c-16.84,0-30.49-13.65-30.49-30.49V31.12c0-16.84,13.65-30.49,30.49-30.49h109.76c16.84,0,30.49,13.65,30.49,30.49v109.76
	C171.37,157.72,157.72,171.37,140.88,171.37z"/>
<g>
	<path id="XMLID_2926_" class="st1" d="M120.79,82.42h-5.09c-3.2,0-5.8,2.6-5.8,5.8v7.33c0,3.2,2.6,5.8,5.8,5.8h5.09h11.61v16.34
		c0,4.89-3.96,8.86-8.86,8.86H48.45c-4.89,0-8.86-3.96-8.86-8.86V57.23h83.95c4.89,0,8.86,3.96,8.86,8.86v16.34H120.79z"/>
	<path id="XMLID_2925_" class="st2" d="M39.6,57.23l55.15-16.06c5.65-1.65,11.31,2.59,11.31,8.48v7.58H39.6z"/>
	<circle id="XMLID_2924_" class="st2" cx="120.08" cy="91.89" r="4.82"/>
</g>
</svg>
