<?xml version="1.0" encoding="utf-8"?>
<!-- Generator: Adobe Illustrator 26.3.1, SVG Export Plug-In . SVG Version: 6.00 Build 0)  -->
<svg version="1.1" id="Layer_1" xmlns="http://www.w3.org/2000/svg" xmlns:xlink="http://www.w3.org/1999/xlink" x="0px" y="0px"
	 viewBox="0 0 172 172" style="enable-background:new 0 0 172 172;" xml:space="preserve">
<style type="text/css">
	.st0{fill:#214166;}
	.st1{fill:#FFFFFF;}
	.st2{opacity:0.5;fill:#FFFFFF;}
</style>
<path id="XMLID_00000054266355209855059210000003509761886644214928_" class="st0" d="M140.88,171.37H31.12
	c-16.84,0-30.49-13.65-30.49-30.49V31.12c0-16.84,13.65-30.49,30.49-30.49h109.76c16.84,0,30.49,13.65,30.49,30.49v109.76
	C171.37,157.72,157.72,171.37,140.88,171.37z"/>
<path class="st1" d="M103.63,55.27c-16.81-9.72-38.44-3.92-48.15,12.89c-7.9,13.69-5.58,30.47,4.6,41.5l1.07,12.24
	c0.26,2.92,3.34,4.71,6,3.46l11.13-5.19c14.65,3.29,30.34-3.09,38.24-16.77C126.25,86.55,120.48,65,103.63,55.27z M70.29,90.01
	c-2.34,0-4.23-1.89-4.23-4.23c0-2.34,1.89-4.23,4.23-4.23c2.34,0,4.23,1.89,4.23,4.23C74.52,88.12,72.63,90.01,70.29,90.01z
	 M86,90.01c-2.34,0-4.23-1.89-4.23-4.23c0-2.34,1.89-4.23,4.23-4.23c2.34,0,4.23,1.89,4.23,4.23C90.23,88.12,88.34,90.01,86,90.01z
	 M101.71,90.01c-2.34,0-4.23-1.89-4.23-4.23c0-2.34,1.89-4.23,4.23-4.23c2.34,0,4.23,1.89,4.23,4.23
	C105.94,88.12,104.05,90.01,101.71,90.01z"/>
<path class="st2" d="M103.83,131.45c-1.78,0-3.18-0.64-3.95-1.8c-1.65-2.5,0.17-6.52,4.16-9.16c1.97-1.3,4.2-2.05,6.1-2.05
	c0.61,0,1.18,0.07,1.69,0.22c1.36-1.06,2.66-2.22,3.88-3.43c7.94-7.94,12.31-18.49,12.31-29.71s-4.37-21.78-12.31-29.71
	S97.22,43.49,86,43.49S64.22,47.86,56.29,55.8S43.98,74.29,43.98,85.51c0,2.39,0.2,4.79,0.6,7.13c0.02,0.12,0.03,0.25,0.04,0.37
	c0.15,1.08,0.24,2.55-0.52,3.82c-1.23,2.08-2.75,3.18-4.42,3.18c-3.9,0-6.95-6.37-6.95-14.51c0-8.14,3.05-14.51,6.95-14.51
	c0.58,0,1.14,0.13,1.68,0.4c2.24-7.1,6.22-13.64,11.55-18.97C61.76,43.6,73.5,38.73,86,38.73s24.24,4.87,33.08,13.7
	c5.33,5.33,9.31,11.87,11.55,18.97c0.54-0.27,1.11-0.4,1.68-0.4c3.9,0,6.95,6.37,6.95,14.51c0,8.14-3.05,14.51-6.95,14.51
	c-0.58,0-1.14-0.13-1.68-0.4c-2.24,7.1-6.22,13.64-11.55,18.97c-1.37,1.37-2.85,2.67-4.38,3.87c-0.06,2.32-1.91,5.05-4.77,6.93
	C107.96,130.71,105.74,131.45,103.83,131.45z"/>
</svg>
